<svg width="512" height="336" xmlns="http://www.w3.org/2000/svg"><g fill="none" fill-rule="evenodd"><path d="M473.651.256H38.292C17.807.256 1.077 16.316 0 36.533v262.933c1.077 20.215 17.807 36.277 38.292 36.277h435.359c21.18 0 38.349-17.169 38.349-38.349V38.605C512 17.425 494.831.256 473.651.256z" fill="#464655"/><path fill="#FFE15A" d="M256.029 17.913l11.195 58.488 32.726-49.752-12.039 58.321 49.273-33.441-33.44 49.274 58.32-12.039-49.752 32.726 58.488 11.195-58.488 11.195 49.752 32.726-58.32-12.039 33.44 49.273-49.273-33.441 12.039 58.32-32.726-49.751-11.195 58.488-11.195-58.488-32.726 49.751 12.04-58.32-49.275 33.441 33.442-49.273-58.321 12.039 49.751-32.726-58.488-11.195 58.488-11.195-49.751-32.726 58.321 12.039-33.442-49.274 49.275 33.441-12.04-58.321 32.726 49.752z"/><g fill="#E6000D"><path d="M9.737 13.014C4.08 19.322.48 27.512 0 36.533v262.933c1.077 20.215 17.807 36.277 38.292 36.277h217.737L9.737 13.014zM256.029 335.742h217.622c21.18 0 38.349-17.169 38.349-38.349V38.605c0-9.802-3.683-18.741-9.732-25.52L256.029 335.742z"/></g><path fill="#4173CD" d="M154.965 203.313h202.128l53.9-70.628H101.064z"/><path fill="#F5F5F5" d="M154.965 203.313l101.064 132.429 101.064-132.429z"/></g></svg>