<svg width="512" height="336" xmlns="http://www.w3.org/2000/svg"><g fill="none" fill-rule="evenodd"><path d="M473.601 335.703H38.34c-21.175 0-38.34-17.165-38.34-38.34V38.634C0 17.459 17.165.294 38.34.294h435.261c21.175 0 38.34 17.165 38.34 38.34v258.729c.001 21.175-17.165 38.34-38.34 38.34z" fill="#4173CD"/><g fill="#FFE15A"><path d="M.057 229.789h511.94v17.653H.057zM.057 265.099h511.94v17.653H.057z"/></g><path fill="#E6000D" d="M65.282 87.949L32.438 76.734l32.844-11.215 11.216-32.841 11.215 32.841 32.844 11.215-32.844 11.215-11.215 32.842z"/><path d="M76.498 38.58l9.713 28.441 28.441 9.713-28.441 9.713-9.713 28.441-9.713-28.441-28.441-9.713 28.441-9.713 9.713-28.441zm0-11.807l-3.611 10.573-9.107 26.67-26.67 9.107-10.573 3.61 10.573 3.61 26.67 9.107 9.107 26.67 3.611 10.573 3.611-10.573 9.107-26.67 26.67-9.107 10.573-3.61-10.573-3.61-26.67-9.107-9.107-26.669-3.611-10.574z" fill="#F5F5F5" fill-rule="nonzero"/></g></svg>