<svg width="512" height="336" xmlns="http://www.w3.org/2000/svg"><g fill="none" fill-rule="evenodd"><path d="M473.655 335.724H38.345C17.167 335.724 0 318.557 0 297.379V38.621C0 17.444 17.167.276 38.345.276h435.31C494.832.276 512 17.443 512 38.621V297.38c0 21.177-17.167 38.344-38.345 38.344z" fill="#3741CF"/><path fill="#FFE15A" d="M441.378.276v335.448L105.93.276z"/><g fill="#F5F5F5"><path d="M207.351 125.176l5.088 15.254 16.079.125c1.246.01 1.762 1.599.76 2.339l-12.936 9.553 4.851 15.331c.376 1.187-.977 2.17-1.991 1.446l-13.082-9.351-13.082 9.351c-1.013.724-2.366-.258-1.991-1.446l4.851-15.331-12.936-9.553c-1.002-.74-.486-2.329.76-2.339l16.079-.125 5.088-15.254c.397-1.182 2.068-1.182 2.462 0zM170.57 88.394l5.088 15.254 16.079.125c1.246.01 1.762 1.6.76 2.339l-12.936 9.553 4.851 15.331c.376 1.187-.977 2.17-1.991 1.446l-13.082-9.351-13.082 9.351c-1.013.725-2.366-.258-1.991-1.446l4.851-15.331-12.936-9.553c-1.002-.74-.486-2.329.76-2.339l16.079-.125 5.088-15.254c.396-1.182 2.068-1.182 2.462 0zM133.789 51.613l5.088 15.254 16.079.125c1.246.01 1.762 1.599.76 2.339l-12.936 9.553 4.851 15.331c.376 1.187-.977 2.17-1.991 1.446l-13.082-9.351-13.082 9.351c-1.013.725-2.366-.258-1.991-1.446l4.851-15.331-12.936-9.553c-1.002-.74-.486-2.329.76-2.339l16.079-.125 5.088-15.254c.395-1.182 2.067-1.182 2.462 0zM97.006 14.831l5.088 15.254 16.079.125c1.246.01 1.762 1.599.76 2.339l-12.936 9.553 4.851 15.331c.376 1.187-.977 2.17-1.991 1.446l-13.082-9.351-13.082 9.351c-1.013.724-2.366-.258-1.991-1.446l4.851-15.331-12.936-9.553c-1.002-.74-.486-2.329.76-2.339l16.079-.125 5.088-15.254c.397-1.181 2.068-1.181 2.462 0zM354.478 272.302l5.088 15.254 16.079.125c1.246.01 1.762 1.599.76 2.339l-12.936 9.553 4.851 15.331c.376 1.187-.977 2.171-1.99 1.446l-13.082-9.351-13.082 9.351c-1.013.724-2.366-.258-1.99-1.446l4.851-15.331-12.936-9.553c-1.002-.74-.486-2.329.76-2.339l16.079-.125 5.088-15.254c.395-1.181 2.066-1.181 2.46 0zM317.696 235.521l5.088 15.254 16.079.125c1.246.01 1.762 1.599.76 2.339l-12.936 9.553 4.851 15.331c.376 1.187-.977 2.171-1.99 1.446l-13.082-9.351-13.082 9.351c-1.013.724-2.366-.258-1.991-1.446l4.851-15.331-12.936-9.553c-1.002-.74-.486-2.329.76-2.339l16.079-.125 5.088-15.254c.395-1.182 2.067-1.182 2.461 0zM280.915 198.74l5.088 15.254 16.079.125c1.246.01 1.762 1.599.76 2.339l-12.936 9.553 4.851 15.331c.376 1.187-.977 2.171-1.99 1.446l-13.082-9.351-13.082 9.351c-1.013.724-2.366-.258-1.991-1.446l4.851-15.331-12.936-9.553c-1.002-.74-.486-2.329.76-2.339l16.079-.125 5.088-15.254c.395-1.182 2.067-1.182 2.461 0zM244.134 161.958l5.088 15.254 16.079.125c1.246.01 1.762 1.599.76 2.339l-12.936 9.553 4.851 15.331c.376 1.187-.977 2.17-1.991 1.445l-13.082-9.351-13.082 9.351c-1.013.725-2.366-.258-1.991-1.445l4.851-15.331-12.936-9.553c-1.002-.74-.486-2.329.76-2.339l16.079-.125 5.088-15.254c.396-1.182 2.066-1.182 2.462 0zM41.942.276l6.83 5.044-4.851 15.331c-.375 1.187.977 2.17 1.991 1.447l13.081-9.351 13.082 9.351c1.013.724 2.366-.258 1.99-1.447L69.215 5.32 76.048.276H41.942zM412.427 324.463l-16.079-.125-5.087-15.254c-.394-1.182-2.066-1.182-2.46 0l-5.087 15.254-16.079.125c-1.246.01-1.762 1.6-.76 2.339l12.083 8.921h22.151l12.082-8.921c.998-.74.482-2.33-.764-2.339z"/></g></g></svg>