<svg width="512" height="336" xmlns="http://www.w3.org/2000/svg"><g fill="none" fill-rule="evenodd"><path d="M473.7 335.65H38.3c-21.1 0-38.3-17.1-38.3-38.3V38.55C0 17.35 17.2.25 38.3.25h435.3c21.2 0 38.3 17.2 38.3 38.3v258.8c.1 21.2-17.1 38.3-38.2 38.3z" fill="#FFE15A"/><path d="M38.3.25C17.2.25 0 17.35 0 38.55v258.8c0 21.2 17.2 38.3 38.3 38.3h132.3V.25H38.3z" fill="#464655"/><path d="M473.7.25H341.3v335.4h132.3c21.2 0 38.3-17.2 38.3-38.3V38.55c.1-21.2-17.1-38.3-38.2-38.3z" fill="#E6000D"/></g></svg>