<svg width="512" height="336" xmlns="http://www.w3.org/2000/svg"><g fill="none" fill-rule="evenodd"><path d="M473.651.257H38.292C17.807.257 1.077 16.318 0 36.534V168h512V38.606C512 17.426 494.831.257 473.651.257z" fill="#E6000D"/><path d="M0 299.466c1.077 20.215 17.807 36.277 38.292 36.277h435.359c21.18 0 38.349-17.169 38.349-38.349V168H0v131.466z" fill="#3CA100"/><path d="M258.715 119.849l11.107 33.304 35.106.273c2.72.021 3.847 3.492 1.66 5.107l-28.242 20.855 10.59 33.472c.82 2.593-2.132 4.739-4.345 3.156l-28.563-20.414-28.562 20.415c-2.213 1.581-5.166-.564-4.345-3.156l10.59-33.472-28.242-20.855c-2.188-1.616-1.061-5.086 1.66-5.107l35.106-.273 11.107-33.304c.862-2.581 4.512-2.581 5.373-.001z" fill="#FFE15A"/></g></svg>