<svg width="512" height="336" xmlns="http://www.w3.org/2000/svg"><g fill="none" fill-rule="evenodd"><path d="M38.345 335.724h102.898l70.621-20.966-70.621-20.966 70.621-20.966-70.621-20.966 70.621-20.966-70.621-20.966 70.621-20.966L141.242 168l70.621-20.966-70.621-20.966 70.621-20.966-70.621-20.966 70.621-20.966-70.621-20.966 70.621-20.966L141.242.272H38.345C17.167.276 0 17.443 0 38.621V297.38c0 21.177 17.167 38.344 38.345 38.344z" fill="#F5F5F5"/><path d="M141.241 42.207l70.621 20.966-70.621 20.966 70.621 20.966-70.621 20.966 70.621 20.966L141.241 168l70.621 20.966-70.621 20.966 70.621 20.966-70.621 20.966 70.621 20.966-70.621 20.966 70.621 20.966-70.621 20.966h332.414c21.177 0 38.345-17.167 38.345-38.345V38.621C512 17.444 494.833.276 473.655.276H141.241l70.622 20.966-70.622 20.965z" fill="#E6000D"/></g></svg>