<svg width="512" height="336" xmlns="http://www.w3.org/2000/svg"><g fill="none" fill-rule="evenodd"><path d="M473.651.257H38.292C17.807.257 1.077 16.318 0 36.534v262.933c1.042 19.56 16.739 35.23 36.311 36.226h439.32c20.259-1.031 36.368-17.783 36.368-38.298V38.606C512 17.426 494.831.257 473.651.257z" fill="#3CA100"/><g fill="#E6000D"><path d="M40.27.206l215.759 141.359L471.787.206zM471.787 335.793L256.029 194.434 40.27 335.793z"/></g><path d="M473.651.257h-1.941L307.731 107.689c-13.902-11.938-31.94-19.198-51.702-19.198-19.763 0-37.801 7.259-51.702 19.198L40.349.257h-2.057c-17.356 0-32.011 11.532-36.74 27.35l178.527 116.965a79.441 79.441 0 0 0-3.507 23.377 79.446 79.446 0 0 0 3.507 23.377L1.527 308.307c4.522 15.255 18.27 26.545 34.783 27.385h3.96l164.056-107.484c13.902 11.938 31.94 19.198 51.702 19.198 19.763 0 37.801-7.259 51.702-19.198l164.056 107.484h3.844c16.537-.841 30.3-12.161 34.802-27.449L331.979 191.326a79.441 79.441 0 0 0 3.507-23.377 79.441 79.441 0 0 0-3.507-23.377l178.43-116.901C505.701 11.82 491.03.257 473.651.257z" fill="#F5F5F5"/><path fill="#E6000D" d="M250.309 142.541l-11.972.31 6.251-10.217-6.251-10.216 11.972.31 5.72-10.527 5.721 10.527 11.971-.31-6.252 10.216 6.252 10.217-11.971-.31-5.721 10.527z"/><path d="M256.029 114.977l4.944 9.093 10.347-.265-5.403 8.829 5.403 8.829-10.347-.265-4.944 9.093-4.944-9.093-10.347.265 5.403-8.829-5.403-8.829 10.347.265 4.944-9.093zm0-5.544l-2.327 4.28-4.169 7.67-8.727-.224-4.87-.125 2.543 4.156 4.558 7.446-4.558 7.446-2.543 4.156 4.87-.125 8.727-.224 4.169 7.67 2.327 4.28 2.327-4.28 4.169-7.67 8.727.224 4.87.125-2.543-4.156-4.558-7.446 4.558-7.446 2.543-4.156-4.87.125-8.727.224-4.169-7.67-2.327-4.28z" fill="#3CA100" fill-rule="nonzero"/><path fill="#E6000D" d="M217.431 201.057l-11.971.31 6.25-10.216-6.25-10.217 11.971.311 5.72-10.527 5.721 10.527 11.97-.311-6.25 10.217 6.25 10.216-11.97-.31-5.721 10.527z"/><path d="M223.151 173.493l4.944 9.093 10.347-.265-5.403 8.829 5.403 8.829-10.347-.265-4.944 9.093-4.944-9.093-10.347.265 5.403-8.829-5.403-8.829 10.347.265 4.944-9.093zm0-5.544l-2.327 4.28-4.169 7.67-8.727-.224-4.87-.125 2.543 4.156 4.558 7.446-4.558 7.446-2.543 4.155 4.87-.125 8.727-.224 4.169 7.67 2.327 4.28 2.327-4.28 4.169-7.67 8.727.224 4.87.125-2.543-4.156-4.558-7.446 4.558-7.446 2.543-4.156-4.87.125-8.727.224-4.169-7.67-2.327-4.279z" fill="#3CA100" fill-rule="nonzero"/><path fill="#E6000D" d="M283.187 201.057l-11.972.31 6.251-10.216-6.251-10.217 11.972.311 5.719-10.527 5.721 10.527 11.972-.311-6.251 10.217 6.251 10.216-11.972-.31-5.721 10.527z"/><path d="M288.906 173.493l4.944 9.093 10.347-.265-5.403 8.829 5.403 8.829-10.347-.265-4.944 9.093-4.944-9.093-10.347.265 5.403-8.829-5.403-8.829 10.347.265 4.944-9.093zm0-5.544l-2.327 4.28-4.169 7.67-8.727-.224-4.87-.125 2.543 4.156 4.558 7.446-4.558 7.446-2.543 4.156 4.87-.125 8.727-.224 4.169 7.67 2.327 4.28 2.327-4.28 4.169-7.67 8.727.224 4.87.125-2.543-4.156-4.558-7.446 4.558-7.446 2.543-4.156-4.87.125-8.727.224-4.169-7.67-2.327-4.28z" fill="#3CA100" fill-rule="nonzero"/></g></svg>