<svg width="512" height="336" xmlns="http://www.w3.org/2000/svg"><g fill="none" fill-rule="evenodd"><path d="M511.221 30.893a38.024 38.024 0 0 0-2.235-7.197 38.12 38.12 0 0 0-2.538-4.958 38.395 38.395 0 0 0-7.011-8.5 38.045 38.045 0 0 0-1.138-.985L13.7 326.749a38.18 38.18 0 0 0 24.644 8.975h435.31c21.177 0 38.345-17.167 38.345-38.345V38.621a38.43 38.43 0 0 0-.778-7.728z" fill="#3741CF"/><path d="M496.598 7.894A38.171 38.171 0 0 0 473.655.276H224.779L0 147.544v149.834c0 11.791 5.326 22.335 13.7 29.369L498.3 9.252a37.767 37.767 0 0 0-1.702-1.358z" fill="#F5F5F5"/><path d="M38.345.276a38.172 38.172 0 0 0-22.942 7.618 38.707 38.707 0 0 0-6.647 6.336A38.287 38.287 0 0 0 .779 30.893 38.503 38.503 0 0 0 0 38.621v108.925L224.779.276H38.345z" fill="#FFE15A"/><path d="M202.274 141.137c-4.006-26.737-25.089-47.82-51.826-51.826l-9.207-18.415-9.207 18.415c-26.737 4.006-47.819 25.088-51.826 51.826l-18.415 9.207 18.415 9.207c4.006 26.737 25.089 47.82 51.826 51.826l9.207 18.415 9.207-18.415c26.737-4.006 47.819-25.088 51.826-51.826l18.415-9.207-18.415-9.207zm-61.033 62.173c-29.252 0-52.966-23.713-52.966-52.965 0-29.252 23.713-52.966 52.966-52.966s52.966 23.713 52.966 52.966-23.713 52.965-52.966 52.965z" fill="#464655" fill-rule="nonzero"/><path fill="#E6000D" d="M141.241 116.398l9.505 17.484 19.892-.51-10.388 16.972 10.388 16.972-19.892-.509-9.505 17.482-9.504-17.482-19.893.509 10.388-16.972-10.388-16.972 19.893.51z"/></g></svg>