<svg width="512" height="336" xmlns="http://www.w3.org/2000/svg"><g fill="none" fill-rule="evenodd"><path d="M473.655.275H38.345C17.167.275 0 17.442 0 38.62v258.76c0 21.177 17.167 38.345 38.345 38.345h435.31c21.177 0 38.345-17.167 38.345-38.345V38.62C512 17.442 494.833.275 473.655.275z" fill="#3CA100"/><path d="M251.41 47.207L65.354 160.458c-5.651 3.439-5.651 11.641 0 15.081L251.41 288.792a8.828 8.828 0 0 0 9.18 0L446.646 175.54c5.651-3.439 5.651-11.641 0-15.081L260.59 47.207a8.833 8.833 0 0 0-9.18 0z" fill="#FFE15A"/><circle fill="#3741CF" cx="256" cy="167.999" r="70.62"/><g fill="#F5F5F5"><path d="M195.4 131.872a70.117 70.117 0 0 0-7.605 18.077c39.149-2.946 97.062 8.006 133.922 43.773a70.079 70.079 0 0 0 4.59-19.522c-38.06-32.033-90.679-43.424-130.907-42.328zM258.925 192.099l1.88 5.638 5.943.046c.769.006 1.088.988.469 1.445l-4.781 3.531 1.793 5.666c.232.734-.604 1.341-1.229.893l-4.835-3.456-4.835 3.456c-.626.447-1.461-.159-1.229-.893l1.793-5.666-4.781-3.531c-.619-.457-.3-1.439.469-1.445l5.943-.046 1.88-5.638c.244-.731 1.276-.731 1.52 0zM282.024 206.683l.809 2.426 2.558.02a.345.345 0 0 1 .202.622l-2.058 1.519.771 2.439a.345.345 0 0 1-.53.384l-2.081-1.487-2.081 1.487a.344.344 0 0 1-.529-.384l.771-2.439-2.058-1.519c-.267-.196-.129-.619.202-.622l2.558-.02.809-2.426c.107-.315.552-.315.657 0zM248.938 181.388l.809 2.426 2.558.02a.345.345 0 0 1 .202.622l-2.058 1.519.771 2.439a.344.344 0 0 1-.529.384l-2.081-1.487-2.081 1.487a.345.345 0 0 1-.53-.384l.771-2.439-2.058-1.519a.345.345 0 0 1 .202-.622l2.558-.02.809-2.426c.107-.312.552-.312.657 0zM204.13 178.446l.809 2.426 2.558.02a.345.345 0 0 1 .202.622l-2.058 1.519.771 2.439a.345.345 0 0 1-.53.384l-2.081-1.487-2.081 1.487a.345.345 0 0 1-.529-.384l.771-2.439-2.058-1.519c-.267-.196-.129-.619.202-.622l2.558-.02.809-2.426c.108-.313.552-.313.657 0zM241.614 205.846l.809 2.426 2.558.02a.345.345 0 0 1 .202.622l-2.058 1.519.771 2.439a.344.344 0 0 1-.529.384l-2.081-1.487-2.081 1.487a.345.345 0 0 1-.53-.384l.771-2.439-2.058-1.519a.345.345 0 0 1 .202-.622l2.558-.02.809-2.426c.108-.314.553-.314.657 0zM220.99 176.753l.662 1.984 2.092.017c.27.002.383.348.166.509l-1.683 1.242.631 1.994a.282.282 0 0 1-.433.314l-1.702-1.216-1.702 1.216a.282.282 0 0 1-.433-.314l.631-1.994-1.683-1.242a.282.282 0 0 1 .166-.509l2.092-.017.662-1.984c.085-.256.448-.256.534 0zM283.819 135.794l.828 2.482 2.616.02c.339.002.479.435.206.637l-2.104 1.554.789 2.495a.352.352 0 0 1-.541.393l-2.129-1.522-2.129 1.522a.352.352 0 0 1-.541-.393l.789-2.495-2.104-1.554a.353.353 0 0 1 .206-.637l2.616-.02.828-2.482a.352.352 0 0 1 .67 0zM207.012 164.615l.662 1.984 2.092.017c.27.002.383.348.166.509l-1.683 1.242.631 1.994a.282.282 0 0 1-.433.314l-1.702-1.216-1.702 1.216a.282.282 0 0 1-.433-.314l.631-1.994-1.683-1.242a.282.282 0 0 1 .166-.509l2.092-.017.662-1.984a.281.281 0 0 1 .534 0zM217.112 192.581l1.002 3.005 3.168.024c.41.003.58.526.25.77l-2.549 1.882.956 3.02a.427.427 0 0 1-.655.476l-2.578-1.843-2.578 1.843a.427.427 0 0 1-.655-.476l.956-3.02-2.549-1.882a.427.427 0 0 1 .25-.77l3.168-.024 1.002-3.005c.133-.39.683-.39.812 0zM294.903 207.313l.631 1.891 1.993.015a.268.268 0 0 1 .158.484l-1.603 1.184.601 1.9a.269.269 0 0 1-.413.299l-1.621-1.159-1.622 1.159a.269.269 0 0 1-.413-.299l.601-1.9-1.603-1.184a.268.268 0 0 1 .158-.484l1.993-.015.63-1.891a.269.269 0 0 1 .51 0zM301.877 192.883l.809 2.426 2.558.02a.345.345 0 0 1 .202.622l-2.058 1.519.771 2.439a.344.344 0 0 1-.529.384l-2.081-1.487-2.081 1.487a.344.344 0 0 1-.529-.384l.771-2.439-2.058-1.519a.345.345 0 0 1 .202-.622l2.558-.02.809-2.426a.346.346 0 0 1 .656 0z"/></g></g></svg>