<svg width="512" height="336" xmlns="http://www.w3.org/2000/svg"><g fill="none" fill-rule="evenodd"><g fill="#82AFFF"><path d="M473.885.279H38.115C17.045.403 0 17.517 0 38.617v73.478h512V38.617c0-21.1-17.045-38.214-38.115-38.338zM0 297.376c0 21.177 17.167 38.345 38.345 38.345h435.31c21.177 0 38.345-17.167 38.345-38.345v-73.465H0v73.465z"/></g><path fill="#FFE15A" d="M0 112.1h512v111.81H0z"/><path d="M12.831 325.993l193.267-153.415c2.946-2.338 2.946-6.812 0-9.151L12.824 10.007C4.958 17.03 0 27.243 0 38.617v258.759c0 11.379 4.96 21.594 12.831 28.617z" fill="#464655"/></g></svg>