<svg width="512" height="336" xmlns="http://www.w3.org/2000/svg"><g fill="none" fill-rule="evenodd"><path d="M38.345 335.724h435.31c21.177 0 38.345-17.167 38.345-38.345v-49.931H0v49.931c0 21.178 17.167 38.345 38.345 38.345z" fill="#3CA100"/><path d="M512 38.621C512 17.444 494.833.276 473.655.276H38.345C17.167.276 0 17.443 0 38.621v208.828h512V38.621z" fill="#E6000D"/><path d="M38.345 335.724h32.276V.276H38.345C17.167.276 0 17.443 0 38.621V297.38c0 21.177 17.167 38.344 38.345 38.344z" fill="#F5F5F5"/><g fill="#E6000D"><path d="M58.681 231.72h3.108v8.749h-3.108zM8.839 57.48h3.122v8.75H8.839z"/><path d="M8.833 83.797h1.568v4.438h1.554v4.376h4.66v-4.376h1.569v-4.438h1.523v-5.834h-1.523v-4.438h-1.569v-4.311h-4.66v4.311h-1.554v4.438H8.833v5.834zm3.122-4.375h1.539v-2.916h1.6v2.916h1.521v2.916h-1.521v2.98h-1.6v-2.98h-1.539v-2.916z" fill-rule="nonzero"/><path d="M8.839 95.53h3.122v8.812H8.839zM33.751 57.48h3.123v8.75h-3.123z"/><path d="M29.09 69.214v4.311h-1.554v4.438h-1.569v5.834h1.569v4.438h1.554v4.376h4.66v-4.376h3.123v4.376h4.676v-4.376h1.585v-4.438h1.523v-5.834h-1.523v-4.438h-1.585v-4.311h-4.676v4.311H33.75v-4.311h-4.66zm7.784 10.208h1.569v-2.916h1.569v2.916h1.537v2.916h-1.537v2.98h-1.569v-2.98h-1.569v-2.916zm-3.123 2.917h-1.537v2.98h-1.586v-2.98h-1.537v-2.916h1.537v-2.916h1.586v2.916h1.537v2.916z" fill-rule="nonzero"/><path d="M8.839 198.06h3.122v5.832H8.839zM8.839 132.17h3.122v5.832H8.839zM33.751 95.53h3.123v8.812h-3.123zM8.839 231.72h3.122v8.749H8.839zM11.955 168.063V163.626H8.833v8.812h3.122zM8.839 312.31h3.122v8.75H8.839zM58.681 312.31h3.108v8.75h-3.108zM8.839 269.83h3.122v8.75H8.839zM33.751 312.31h3.123v8.75h-3.123z"/><path d="M53.961 69.151v4.374h-1.537v4.438h-1.569v5.834h1.569v4.374h1.537v4.376h4.693v-4.376h1.554v-4.374h1.537v-5.834h-1.537v-4.438h-1.554v-4.374h-4.693zm4.693 13.188h-1.569v2.915h-1.57v-2.915h-1.554v-2.98h1.554v-2.854h1.569v2.854h1.569l.001 2.98z" fill-rule="nonzero"/><path d="M58.681 15h3.108v8.75h-3.108zM8.839 15h3.122v8.75H8.839zM58.681 95.53h3.108v8.812h-3.108zM58.681 57.48h3.108v8.75h-3.108zM33.751 15h3.123v8.75h-3.123zM21.308 290.32h3.091v7.292h-3.091zM29.09 168.063V163.626h-3.123v8.812h3.123z"/><path d="M46.241 9.103v7.357h-3.107v7.292h-3.122v7.354h-3.139v7.292H33.75v-7.292h-3.123v-7.354h-3.091V16.46H24.43V9.103h-3.123v7.357h-3.123v7.292h-3.091v7.354h-3.139v7.292H8.833v7.357h3.122v7.292h3.139v7.354h3.091v7.354h3.123v7.292h3.091v-7.292h3.139v-7.354h3.091v-7.354h3.123v-7.292h3.123v7.292h3.139v7.354h3.091v7.354h3.138v7.292h3.108v-7.292h3.106v-7.354h3.122v-7.354h3.106v-7.292h3.108v-7.357h-3.092v-7.292h-3.123v-7.354h-3.122V16.46H49.35V9.103h-3.109zm-15.614 36.65h-3.091v7.292h-3.139v7.354h-3.09v-7.354h-3.123v-7.292h-3.091v-7.357h3.091v-7.292h3.123V23.75h3.091v7.354h3.139v7.292h3.091l-.001 7.357zm21.83-14.647v7.292h3.122v7.357h-3.122v7.292h-3.106v7.354h-3.108v-7.354h-3.107v-7.292h-3.122v-7.357h3.122v-7.292h3.107v-7.354h3.108v7.354h3.106z" fill-rule="nonzero"/><path d="M33.751 152.65h3.123v7.292h-3.123zM33.751 176.11h3.123v7.292h-3.123zM41.55 168v4.438h3.107v-8.812H41.55z"/><path d="M43.135 312.312v7.292h3.107v7.293h3.108v-7.293h3.106v-7.292h3.122v-7.354h3.123v-7.354h3.092v-7.292h-3.108v-7.357h-3.106v-7.292h-3.122v-7.354h-3.106v-7.292h-3.108v7.292h-3.138v7.354h-3.091v7.292h-3.139v7.357h-3.123v-7.357h-3.123v-7.292h-3.091v-7.354h-3.139v-7.292h-3.091v7.292h-3.123v7.354h-3.091v7.292h-3.139v7.357H8.833v7.292h3.122v7.354h3.139v7.354h3.091v7.292h3.123v7.293h3.123v-7.293h3.107v-7.292h3.091v-7.354h3.123v-7.354h3.123v7.354h3.139v7.354h3.121zm-12.508-14.709h-3.091v7.354h-3.139v7.354h-3.09v-7.354h-3.123v-7.354h-3.091v-7.292h3.091v-7.357h3.123v-7.292h3.091v7.292h3.139v7.357h3.091l-.001 7.292zm9.386-7.291h3.122v-7.357h3.107v-7.292h3.108v7.292h3.106v7.357h3.122v7.292h-3.122v7.354H49.35v7.354h-3.108v-7.354h-3.107v-7.354h-3.122v-7.292z" fill-rule="nonzero"/><path d="M38.443 161.407h-1.569v2.219h-3.123v-2.219h-1.537v-2.918H29.09v4.376h1.537v2.219h1.587V170.916h-1.587v2.219H29.09v4.376h3.124v-2.916h1.537v-2.157h3.123v2.157h1.569v2.916h3.107v-4.376h-1.537v-2.219h-1.57V165.084h1.57v-2.219h1.537v-4.376h-3.107zM46.24 38.4h3.108v7.357H46.24zM46.24 290.32h3.108v7.292H46.24z"/><path d="M16.615 266.85v-4.374h1.569v-4.374h1.523v-5.897h-1.523v-4.374h-1.569v-4.376h-4.66v4.376h-1.554v4.374H8.833v5.897h1.568v4.374h1.554v4.374h4.66zm-4.66-13.189h1.569v-2.915h1.569v2.915h1.521v2.98h-1.521v2.916h-1.569v-2.916h-1.569v-2.98z" fill-rule="nonzero"/><path d="M21.308 38.4h3.091v7.357h-3.091zM58.681 269.83h3.108v8.75h-3.108z"/><path d="M41.55 266.85v-4.374h1.585v-4.374h1.523v-5.897h-1.523v-4.374H41.55v-4.376h-4.676v4.376h-3.123v-4.376h-4.66v4.376h-1.554v4.374h-1.569v5.897h1.569v4.374h1.554v4.374h4.66v-4.374h3.123v4.374h4.676zm-7.799-10.209h-1.537v2.916h-1.586v-2.916h-1.537v-2.98h1.537v-2.915h1.586v2.915h1.537v2.98zm3.123-2.98h1.569v-2.915h1.569v2.915h1.537v2.98h-1.537v2.916h-1.569v-2.916h-1.569v-2.98z" fill-rule="nonzero"/><path d="M33.751 269.83h3.123v8.75h-3.123zM33.751 231.72h3.123v8.749h-3.123zM58.681 198.06h3.108v5.832h-3.108z"/><path d="M58.654 266.85v-4.374h1.554v-4.374h1.537v-5.834h-1.537v-4.438h-1.554v-4.313h-4.693v4.313h-1.537v4.438h-1.569v5.834h1.569v4.374h1.537v4.374h4.693zm-4.693-13.124h1.554v-2.916h1.569v2.916h1.569v2.915h-1.569v2.98h-1.569v-2.98h-1.554v-2.915z" fill-rule="nonzero"/><path d="M58.685 168v4.438h3.108v-8.812h-3.108zM58.681 132.17h3.108v5.832h-3.108z"/><path d="M61.793 116.008h-3.108v-7.292h-3.106v-7.357h-3.122v-7.292h-3.106v-7.354h-3.108v7.354h-3.138v7.292h-3.091v7.357h-3.139v7.291h-3.123v-7.292h-3.123v-7.357h-3.091v-7.292h-3.139v-7.354h-3.091v7.354h-3.123v7.292h-3.123v7.357h-3.107v7.291H8.833v7.354h3.122v7.354h3.107v7.292h3.123v7.293h3.123v-7.293h3.091v-7.292h3.139v-7.354h-3.139v-8.814h3.139v5.897h3.091v11.731h1.586v7.228l-4.676.063v5.834H24.4v4.374h-3.091v7.354h-3.123v-7.354h-3.123v-4.374h-3.107v-4.376H8.833v13.188h3.122v5.897h3.107v5.073h3.123v5.836h-3.123v5.199h-3.107v5.834H8.833v13.188h3.122v-4.439h3.107v-4.374h3.123v-7.292h3.123v7.292h3.091v4.374h3.139v5.897l4.676.063v7.228h-1.586v11.731h-3.091V221.515h-3.139v-8.877h3.139v-7.292h-3.139v-7.292h-3.091v-7.357h-3.123v7.357h-3.123v7.292h-3.107v7.292H8.833v7.354h3.122v7.292h3.139v7.357h3.091v7.354h3.123v7.292h3.091v-7.292h3.139v-7.354h3.091v-7.357h3.123v-7.292h3.123v7.292h3.139v7.357h3.122v7.354h3.107v7.292h3.108v-7.292h3.106v-7.354h3.122v-7.357h3.106v-7.292h3.108v-7.354h-3.108v-7.292h-3.106v-7.292h-3.122v-7.357h-3.106v7.357h-3.108v7.292h-3.138v7.292h3.138v8.877h-3.138V215.618h-3.091v-11.731H38.445v-7.292h4.691v-5.897h3.107v-4.374h3.108v-7.292h3.106v7.292h3.122v4.374h3.123v4.439h3.092v-13.188h-3.092v-5.834h-3.123v-5.199h-3.122v-5.832h3.122v-5.073h3.123v-5.897h3.092v-13.188h-3.092v4.376h-3.123v4.374h-3.122v7.354h-3.106v-7.354h-3.108v-4.374h-3.107v-5.834h-4.692v-7.292H40.013v-11.731h3.091v-5.897h3.138v8.813h-3.138v7.354h3.138v7.292h3.108v7.293h3.106v-7.293h3.122v-7.292h3.106v-7.354h3.108l.001-7.353zm-18.658 38.105v5.896h3.107v5.073h3.108v5.834h-3.108v5.199h-3.107v5.832h-4.691v6.912h-1.569v3.297h-3.123v-3.297h-1.537v-6.912h-4.676v-5.834H24.4v-5.199h-3.092v-5.835h3.091v-5.073h3.139v-5.897h4.676v-6.91h1.537v-3.362h3.123v3.297h1.569v6.975h4.692v.004z" fill-rule="nonzero"/></g></g></svg>