<svg width="512" height="336" xmlns="http://www.w3.org/2000/svg"><g fill="none" fill-rule="evenodd"><path d="M512 38.582C511.98 17.422 494.821.275 473.656.275H38.345C17.167.274 0 17.442 0 38.619v258.76c0 21.176 17.167 38.345 38.345 38.345h435.311c21.165 0 38.324-17.148 38.344-38.307V38.582z" fill="#3CA100"/><g transform="translate(35 33)" fill="#FFE15A"><path d="M248.616 186.644c-28.522 0-51.645-23.122-51.645-51.645 0-28.523 23.122-51.645 51.645-51.645 3.785 0 7.452.454 10.987 1.265 1.409.323 2.156-1.568.927-2.329-10.816-6.706-23.841-10.184-37.745-9.053-30.263 2.462-54.593 27.134-56.653 57.428-2.462 36.189 26.164 66.309 61.826 66.309a61.596 61.596 0 0 0 32.574-9.265c1.229-.763.486-2.654-.925-2.329a49.129 49.129 0 0 1-10.991 1.264zM293.63 91.27l3.879 9.824 10.099-3.093a.647.647 0 0 1 .75.941l-5.262 9.158 8.715 5.967a.647.647 0 0 1-.268 1.173l-10.441 1.596.768 10.534a.647.647 0 0 1-1.084.522l-7.756-7.168-7.756 7.168a.647.647 0 0 1-1.084-.522l.768-10.534-10.441-1.596a.647.647 0 0 1-.268-1.173l8.715-5.967-5.262-9.158a.647.647 0 0 1 .75-.941l10.099 3.093 3.879-9.824c.212-.545.984-.545 1.2 0zM434.871 64.786l3.879 9.824 10.099-3.093a.647.647 0 0 1 .75.941l-5.262 9.158 8.715 5.967a.647.647 0 0 1-.268 1.173l-10.441 1.596.768 10.534a.647.647 0 0 1-1.084.522l-7.756-7.168-7.756 7.168a.647.647 0 0 1-1.084-.522l.768-10.534-10.441-1.596a.647.647 0 0 1-.268-1.173l8.715-5.967-5.262-9.158a.647.647 0 0 1 .75-.941l10.099 3.093 3.879-9.824c.213-.544.985-.544 1.2 0zM364.251 1.101l3.879 9.824 10.099-3.093a.647.647 0 0 1 .75.941l-5.262 9.158 8.715 5.967a.647.647 0 0 1-.268 1.173l-10.441 1.596.768 10.534a.647.647 0 0 1-1.084.522l-7.756-7.168-7.756 7.168a.647.647 0 0 1-1.084-.522l.768-10.534-10.441-1.596a.647.647 0 0 1-.268-1.173l8.715-5.967-5.262-9.158a.647.647 0 0 1 .75-.941l10.099 3.093 3.879-9.824c.212-.545.984-.545 1.2 0zM364.251 232.512l3.879 9.824 10.099-3.093a.647.647 0 0 1 .75.941l-5.262 9.158 8.715 5.967a.647.647 0 0 1-.268 1.173l-10.441 1.596.768 10.534a.647.647 0 0 1-1.084.522l-7.756-7.168-7.756 7.168a.647.647 0 0 1-1.084-.522l.768-10.534-10.441-1.596a.647.647 0 0 1-.268-1.173l8.715-5.967-5.262-9.158a.647.647 0 0 1 .75-.941l10.099 3.093 3.879-9.824c.212-.545.984-.545 1.2 0zM393.156 100.16l2.708 8.118 8.557.066c.663.006.938.851.405 1.245l-6.884 5.084 2.581 8.159c.2.632-.52 1.155-1.059.769l-6.963-4.977-6.963 4.977c-.54.385-1.259-.137-1.059-.769l2.581-8.159-6.884-5.084c-.533-.394-.258-1.24.405-1.245l8.557-.066 2.708-8.118c.211-.629 1.101-.629 1.31 0z"/><circle cx="57.69" cy="59.969" r="57.38"/></g><path d="M86.787 137.667h15.496s8.804-39.444.704-53.532l-4.93 3.169c0 .003 8.1 27.119-11.27 50.363z" fill="#964B50"/><path d="M87.373 85.897s-8.921 6.104-6.104 24.183c0 0 6.808-5.635 10.566-18.079 0 0-5.4 10.331 2.113 18.548 0 0 7.982-11.27 6.808-21.131 0 0 26.539 27.714 20.896 20.661-.939-1.174 1.409-12.914-7.748-22.539 0 0 15.027 3.756 20.661 2.348 0 0 .47-11.975-13.853-14.088l3.287-9.391s-11.035-.704-16.905 4.93c0 0-1.409-14.557 4.461-21.6 0 0-17.374-2.583-18.079 20.192 0 0-6.339-14.557-25.826-11.035 0 0 11.035 7.982 12.914 11.505 0 0-15.496-10.566-22.774 4.226 0 0 12.444-3.287 16.905 2.583 0 0-19.957-2.113-21.6 15.027 0-.001 18.549-8.688 34.278-6.34z" fill="#3CA100"/></g></svg>