<svg width="512" height="336" xmlns="http://www.w3.org/2000/svg"><g fill="none" fill-rule="evenodd"><path d="M473.655 335.724H38.345C17.167 335.724 0 318.557 0 297.379V38.621C0 17.444 17.167.276 38.345.276h435.31C494.832.276 512 17.443 512 38.621V297.38c0 21.177-17.167 38.344-38.345 38.344z" fill="#82AFFF"/><g fill="#FFE15A"><path d="M477.496.468L0 247.448v17.655l496.865-257A38.146 38.146 0 0 0 477.496.468zM34.504 335.532L512 88.552V70.897l-496.865 257a38.146 38.146 0 0 0 19.369 7.635z"/></g><path d="M496.865 8.104L0 265.103v32.276c0 12.451 5.939 23.512 15.135 30.517L512 70.896V38.62c0-12.451-5.939-23.512-15.135-30.516z" fill="#E6000D"/><path d="M92.619 34.978l12.718 38.135 40.199.311c2.248.018 3.18 2.886 1.372 4.222l-32.339 23.881 12.126 38.328c.678 2.143-1.762 3.916-3.591 2.609l-32.705-23.377-32.705 23.377c-1.828 1.308-4.269-.466-3.591-2.609l12.126-38.328L33.89 77.646c-1.809-1.335-.876-4.204 1.372-4.222l40.199-.311 12.718-38.135c.713-2.132 3.728-2.132 4.44 0z" fill="#FFE15A"/></g></svg>