<svg width="512" height="336" xmlns="http://www.w3.org/2000/svg"><g fill="none" fill-rule="evenodd"><path d="M0 297.378c0 21.177 17.167 38.345 38.345 38.345h435.311c21.165 0 38.324-17.148 38.344-38.307v-45.555H0v45.517z" fill="#FFE15A"/><path fill="#3CA100" d="M0 167.996h512v83.86H0z"/><path fill="#F5F5F5" d="M0 84.136h512v83.86H0z"/><path d="M473.656.273H38.345C17.167.273 0 17.44 0 38.618v45.517h512V38.58C511.98 17.421 494.821.273 473.656.273z" fill="#3741CF"/><path fill="#E6000D" d="M214.07.276h83.86v335.45h-83.86z"/><path d="M76.499 11.57l7.366 22.087 23.282.181c1.804.014 2.551 2.316 1.1 3.388l-18.73 13.83 7.022 22.198c.544 1.719-1.414 3.143-2.881 2.093L74.717 61.809 55.776 75.347c-1.468 1.049-3.425-.374-2.881-2.093l7.022-22.198L41.19 37.225c-1.451-1.071-.703-3.373 1.1-3.388l23.282-.181 7.366-22.087c.569-1.71 2.99-1.71 3.561.001z" fill="#FFE15A"/></g></svg>