<svg width="512" height="336" xmlns="http://www.w3.org/2000/svg"><g fill="none" fill-rule="evenodd"><path d="M473.655 335.724H38.345C17.167 335.724 0 318.557 0 297.379V38.621C0 17.444 17.167.276 38.345.276h435.31C494.832.276 512 17.443 512 38.621V297.38c0 21.177-17.167 38.344-38.345 38.344z" fill="#E6000D"/><path d="M353.103 132.69H291.31V70.897a8.829 8.829 0 0 0-8.828-8.828h-52.966a8.829 8.829 0 0 0-8.828 8.828v61.793h-61.793a8.829 8.829 0 0 0-8.828 8.828v52.966a8.829 8.829 0 0 0 8.828 8.828h61.793v61.793a8.829 8.829 0 0 0 8.828 8.828h52.966a8.829 8.829 0 0 0 8.828-8.828V203.31h61.793a8.829 8.829 0 0 0 8.828-8.828v-52.966c0-4.874-3.953-8.826-8.828-8.826z" fill="#F5F5F5"/></g></svg>