<svg width="512" height="336" xmlns="http://www.w3.org/2000/svg"><g fill="none" fill-rule="evenodd"><path d="M473.655 335.724H38.345C17.167 335.724 0 318.557 0 297.379V38.621C0 17.444 17.167.276 38.345.276h435.31C494.832.276 512 17.443 512 38.621V297.38c0 21.177-17.167 38.344-38.345 38.344z" fill="#3741CF"/><path d="M8.828 168h15.334l81.77-53.574V168h44.138v-53.574L231.839 168h15.334a8.829 8.829 0 0 0 8.828-8.828v-7.002l-70.154-45.963H256V62.069h-70.155L256 16.106V9.104a8.828 8.828 0 0 0-8.823-8.828h-15.338l-81.77 53.574V.276h-44.138V53.85L26.844 2.034C17.61 4.934 9.89 11.237 5.131 19.468l65.024 42.601H0v44.138h70.155L0 152.17v7.002A8.829 8.829 0 0 0 8.828 168z" fill="#F5F5F5"/><g fill="#E6000D"><path d="M256 70.897H141.241V.276h-26.482v70.621H0v26.482h114.759V168h26.482V97.379H256z"/><path d="M8.227 14.902l72.662 47.167h16.214L14.607 8.519a38.565 38.565 0 0 0-6.38 6.383zM166.283 62.069l88.374-57.366c-1.536-2.599-4.246-4.427-7.485-4.427h-1.909l-95.194 61.793h16.214zM89.474 106.207L1.269 163.463C2.79 166.125 5.542 168 8.828 168h1.665l95.196-61.793H89.474zM255.86 159.865l-82.666-53.658H156.98l93.874 60.935c2.812-1.305 4.741-4.04 5.006-7.277z"/></g><g fill="#F5F5F5"><path d="M377.129 62.113l3.237 9.708 10.233.079c.792.007 1.121 1.017.483 1.489l-8.232 6.079 3.086 9.757c.239.756-.621 1.382-1.267.92l-8.326-5.951-8.326 5.951c-.646.461-1.505-.164-1.267-.92l3.086-9.757-8.232-6.079c-.638-.471-.309-1.483.483-1.489l10.233-.079 3.238-9.708c.257-.752 1.32-.752 1.571 0zM333.617 74.052l6.906 7.552 9.38-4.089c.727-.317 1.439.473 1.047 1.163l-5.048 8.902 6.788 7.658c.526.594-.006 1.515-.782 1.356l-10.026-2.05-5.185 8.822c-.402.683-1.442.462-1.532-.326l-1.149-10.168-9.993-2.205c-.775-.171-.885-1.229-.163-1.557l9.316-4.235-.991-10.185c-.076-.79.896-1.222 1.432-.638zM298.722 102.659l9.38 4.089 6.906-7.552c.535-.585 1.507-.152 1.43.637l-.991 10.185 9.316 4.235c.722.328.61 1.386-.163 1.557l-9.993 2.205-1.149 10.168c-.089.788-1.13 1.009-1.532.326l-5.185-8.822-10.026 2.05c-.777.159-1.309-.762-.782-1.356l6.788-7.658-5.048-8.902c-.39-.688.322-1.479 1.049-1.162zM278.479 142.985l10.233-.079 3.237-9.708c.25-.753 1.314-.753 1.566 0l3.237 9.708 10.233.079c.792.007 1.121 1.017.483 1.489l-8.232 6.079 3.086 9.757c.239.756-.621 1.382-1.267.92l-8.326-5.951-8.326 5.951c-.646.461-1.505-.164-1.267-.92l3.086-9.757-8.232-6.079c-.632-.472-.303-1.484.489-1.489zM276.39 188.057l9.316-4.235-.991-10.185c-.077-.789.895-1.221 1.43-.637l6.906 7.552 9.38-4.089c.727-.317 1.439.473 1.047 1.163l-5.048 8.902 6.788 7.658c.526.594-.006 1.515-.782 1.356l-10.026-2.05-5.185 8.822c-.402.683-1.442.462-1.532-.326l-1.149-10.168-9.993-2.205c-.773-.172-.883-1.23-.161-1.558zM292.812 230.083l6.788-7.658-5.048-8.902c-.391-.69.321-1.48 1.047-1.163l9.38 4.089 6.906-7.552c.535-.585 1.507-.152 1.43.637l-.991 10.185 9.316 4.235c.722.328.61 1.386-.163 1.557l-9.993 2.205-1.149 10.168c-.089.788-1.13 1.009-1.532.326l-5.185-8.822-10.026 2.05c-.774.159-1.306-.762-.78-1.355zM324.908 261.796l3.086-9.757-8.232-6.079c-.638-.471-.309-1.483.483-1.489l10.233-.079 3.237-9.708c.25-.753 1.314-.753 1.566 0l3.237 9.708 10.233.079c.792.007 1.121 1.017.483 1.489l-8.232 6.079 3.086 9.757c.239.756-.621 1.382-1.267.92l-8.326-5.951-8.326 5.951c-.639.461-1.499-.164-1.261-.92zM367.129 277.713l-1.149-10.168-9.993-2.205c-.775-.171-.885-1.229-.163-1.557l9.316-4.235-.991-10.185c-.077-.789.895-1.221 1.43-.637l6.906 7.552 9.38-4.089c.727-.317 1.439.473 1.047 1.163l-5.048 8.902 6.788 7.658c.526.594-.006 1.515-.782 1.356l-10.026-2.05-5.185 8.822c-.401.681-1.441.46-1.53-.327zM412.173 275.08l-5.185-8.822-10.026 2.05c-.777.159-1.309-.763-.782-1.356l6.788-7.658-5.048-8.901c-.391-.69.321-1.48 1.047-1.163l9.38 4.089 6.906-7.552c.535-.585 1.507-.152 1.43.637l-.991 10.185 9.316 4.235c.722.328.61 1.386-.163 1.557l-9.993 2.205-1.149 10.168c-.088.788-1.128 1.01-1.53.326zM452.253 254.355l-8.326-5.951-8.326 5.951c-.646.461-1.505-.164-1.267-.92l3.086-9.757-8.232-6.079c-.638-.471-.309-1.483.483-1.489l10.233-.079 3.237-9.708c.25-.753 1.314-.753 1.566 0l3.238 9.708 10.233.079c.792.007 1.121 1.017.483 1.489l-8.232 6.079 3.086 9.757c.243.755-.618 1.38-1.262.92zM480.437 219.118l-10.026-2.05-5.185 8.822c-.402.683-1.442.462-1.532-.326l-1.149-10.168-9.993-2.205c-.775-.171-.885-1.229-.163-1.557l9.316-4.235-.991-10.185c-.077-.789.895-1.222 1.43-.637l6.906 7.552 9.38-4.089c.727-.317 1.439.473 1.047 1.163l-5.048 8.901 6.788 7.658c.529.594-.003 1.515-.78 1.356zM491.853 175.466l-9.993 2.205-1.149 10.168c-.089.788-1.13 1.009-1.532.326l-5.185-8.822-10.026 2.05c-.777.159-1.309-.762-.782-1.356l6.788-7.658-5.048-8.902c-.391-.69.321-1.48 1.047-1.163l9.38 4.089 6.906-7.552c.535-.585 1.507-.152 1.43.637l-.991 10.185 9.316 4.235c.724.329.613 1.387-.161 1.558zM484.526 130.943l-8.232 6.079 3.086 9.757c.239.756-.621 1.382-1.267.92l-8.326-5.951-8.326 5.951c-.646.461-1.505-.164-1.267-.92l3.086-9.757-8.232-6.079c-.638-.471-.309-1.483.483-1.489l10.233-.079 3.238-9.708c.25-.753 1.314-.753 1.566 0l3.238 9.708 10.233.079c.796.007 1.125 1.019.487 1.489zM459.725 93.25l-5.048 8.902 6.788 7.658c.526.594-.006 1.515-.782 1.356l-10.026-2.05-5.185 8.822c-.402.683-1.442.462-1.532-.326l-1.149-10.168-9.993-2.205c-.775-.171-.885-1.229-.163-1.557l9.316-4.235-.991-10.185c-.077-.789.895-1.222 1.43-.637l6.906 7.552 9.38-4.089c.728-.318 1.44.473 1.049 1.162zM421.736 68.904l-.991 10.185 9.316 4.235c.722.328.61 1.386-.163 1.557l-9.993 2.205-1.149 10.168c-.089.788-1.13 1.009-1.532.326l-5.185-8.822-10.026 2.05c-.777.159-1.309-.762-.782-1.356l6.788-7.658-5.048-8.902c-.391-.69.321-1.48 1.047-1.163l9.38 4.089 6.906-7.552c.537-.585 1.509-.151 1.432.638z"/><path d="M377.129 62.113l3.237 9.708 10.233.079c.792.007 1.121 1.017.483 1.489l-8.232 6.079 3.086 9.757c.239.756-.621 1.382-1.267.92l-8.326-5.951-8.326 5.951c-.646.461-1.505-.164-1.267-.92l3.086-9.757-8.232-6.079c-.638-.471-.309-1.483.483-1.489l10.233-.079 3.238-9.708c.257-.752 1.32-.752 1.571 0z"/></g></g></svg>