<svg width="512" height="336" xmlns="http://www.w3.org/2000/svg"><g fill="none" fill-rule="evenodd"><path d="M473.655.276H158.897a8.829 8.829 0 0 1 8.828 8.828v150.069a8.829 8.829 0 0 1-8.828 8.828H512V38.621C512 17.443 494.833.276 473.655.276z" fill="#F5F5F5"/><path d="M17.655 168H8.828A8.829 8.829 0 0 1 0 159.172V297.38c0 21.177 17.167 38.345 38.345 38.345h435.31c21.177 0 38.345-17.167 38.345-38.345V168H17.655z" fill="#E6000D"/><path d="M8.828 168H158.897a8.829 8.829 0 0 0 8.828-8.828V9.103a8.829 8.829 0 0 0-8.828-8.828H38.345C17.167.276 0 17.443 0 38.621v120.552A8.829 8.829 0 0 0 8.828 168z" fill="#3741CF"/><path d="M87.262 46.487l8.416 25.234 26.6.206c3.444.026 4.872 4.422 2.101 6.467l-21.398 15.801 8.023 25.362c1.038 3.284-2.7 5.999-5.502 3.997l-21.64-15.467-21.641 15.468c-2.802 2.003-6.54-.714-5.502-3.997l8.023-25.362-21.398-15.801c-2.771-2.046-1.342-6.441 2.101-6.467l26.6-.206 8.416-25.234c1.09-3.268 5.712-3.268 6.801-.001z" fill="#F5F5F5"/></g></svg>