<svg width="512" height="336" xmlns="http://www.w3.org/2000/svg"><g fill="none" fill-rule="evenodd"><path d="M38.345 335.721h132.322V.273H38.345C17.167.273 0 17.44 0 38.618v258.759c0 21.177 17.167 38.344 38.345 38.344z" fill="#3CA100"/><path fill="#E6000D" d="M170.67.277h170.67v335.45H170.67z"/><g fill="#FFE15A"><path d="M473.655 335.721c21.177 0 38.345-17.167 38.345-38.345V38.618C512 17.441 494.833.273 473.655.273H341.334v335.448h132.321zM257.834 135.641l7.584 22.741 23.971.185c1.857.014 2.627 2.385 1.133 3.488l-19.284 14.24 7.231 22.856c.561 1.771-1.455 3.235-2.967 2.155L256 187.366l-19.502 13.94c-1.511 1.08-3.527-.385-2.967-2.155l7.231-22.856-19.284-14.24c-1.494-1.103-.724-3.474 1.133-3.488l23.971-.185 7.584-22.741c.588-1.762 3.08-1.762 3.668 0z"/></g></g></svg>