<svg width="512" height="336" xmlns="http://www.w3.org/2000/svg"><g fill="none" fill-rule="evenodd"><g fill="#3741CF"><path d="M512 38.621C512 17.444 494.833.276 473.655.276H38.345C17.167.276 0 17.443 0 38.621v28.745h512V38.621zM38.345 335.724h435.31c21.177 0 38.345-17.167 38.345-38.345v-28.745H0v28.745c0 21.178 17.167 38.345 38.345 38.345z"/></g><path fill="#F5F5F5" d="M0 67.37h512v67.09H0z"/><path fill="#3741CF" d="M0 134.46h512v67.09H0z"/><path fill="#F5F5F5" d="M0 201.55h512v67.09H0z"/><path d="M13.9 326.921l244.814-155.049c2.841-1.8 2.841-5.945 0-7.745L13.899 9.079C5.409 16.113 0 26.734 0 38.621V297.38c0 11.886 5.409 22.507 13.9 29.541z" fill="#E6000D"/><path d="M88.526 125.441l9.064 27.176 28.647.222c2.219.018 3.139 2.849 1.354 4.168l-23.046 17.018 8.641 27.313c.67 2.116-1.74 3.866-3.545 2.575l-23.306-16.658-23.306 16.658c-1.805 1.291-4.215-.46-3.545-2.575l8.641-27.313-23.045-17.018c-1.785-1.319-.865-4.151 1.354-4.168l28.647-.222 9.064-27.176c.701-2.105 3.68-2.105 4.381 0z" fill="#F5F5F5"/></g></svg>