<svg width="512" height="336" xmlns="http://www.w3.org/2000/svg"><g fill="none" fill-rule="evenodd"><path d="M473.885.279H38.115C17.045.403 0 17.517 0 38.617v258.759c0 21.177 17.167 38.345 38.345 38.345h435.31c21.177 0 38.345-17.167 38.345-38.345V38.617c0-21.1-17.045-38.214-38.115-38.338z" fill="#3741CF"/><path fill="#FFE15A" d="M0 229.79h512v44.14H0z"/><g fill="#F5F5F5"><path d="M118.945 82.87l-8.683 26.034-27.443.213c-2.632.02-3.723 3.379-1.606 4.942l22.077 16.302-8.278 26.165c-.793 2.509 2.063 4.585 4.204 3.054l22.327-15.958 22.327 15.958c2.141 1.53 4.998-.545 4.204-3.054l-8.278-26.165 22.077-16.302c2.118-1.564 1.026-4.921-1.606-4.942l-27.443-.213-8.683-26.034c-.832-2.497-4.363-2.497-5.196 0zM56.393 34.828l-5.025 15.069-15.884.124c-1.523.012-2.155 1.955-.929 2.86l12.778 9.436-4.791 15.145c-.459 1.452 1.194 2.654 2.433 1.768l12.922-9.237 12.922 9.237c1.239.886 2.893-.316 2.433-1.768l-4.791-15.145 12.778-9.436c1.225-.905.594-2.849-.929-2.86l-15.884-.124-5.025-15.069c-.482-1.445-2.526-1.445-3.008 0z"/></g></g></svg>