<svg width="512" height="336" xmlns="http://www.w3.org/2000/svg">
  <g fill-rule="nonzero" fill="none">
    <path d="M473.7 335.7H38.3A38.3 38.3 0 010 297.4V38.6A38.3 38.3 0 0138.3.3h435.4A38.3 38.3 0 01512 38.6v258.8a38.3 38.3 0 01-38.3 38.3z" fill="#F5F5F5"/>
    <path d="M262 308.8c-.2 0-.2-.1-.3-.2l-1.2-1.2-3.2-3.9-4.2-5.3-.5-.7-5.3-1.7-4-1.8 2.2-2.3 7 3 5.4 1.1 9.8 7.2a96.4 96.4 0 00-5.5 5.2l-.1.3.6-.4.6.5-1.3.2zm-36.5-11a27 27 0 01-13.6-3.8s.6-1 2-2c1.3-1 3.7-2.2 7.5-2.2h.1c4.6 0 10.2 1.5 16.7 4.6-.2.1-5.3 3.4-12.7 3.4zm-20-4.4c-1 0-1.7-.3-2.2-1-.5-.4-.8-1-1-1.9a10 10 0 01-.3-2.9 3 3 0 011.1-.2c1.8 0 3.2 1.5 3.7 3 .4.8.4 1.5.2 2-.2.6-.8 1-1.6 1zm35.2-4.1c-11.8-1.7-16.9-6-19-9.3a10.7 10.7 0 01-1.8-6.8s.8-.2 1.8-.2c3.2 0 11.3 1.6 19 16.3zm-24.3-2.4c-5 0-8.9-.8-11.4-2.6a7 7 0 01-2.6-2.8l-.4-1.4a15.5 15.5 0 016.1-1.1c4 0 10 1.3 16.2 7.4-2.9.3-5.5.5-7.9.5zM192 286c-5.3 0-12.7-1.6-17.3-6.2a53.6 53.6 0 0111.7-1.4c5 0 8.8 1 11.4 2.8.8.7 1.3 1.3 1.4 2 .1.5-.1 1-.7 1.4-1.1.9-3.2 1.4-6 1.4h-.5zm-17.3-8.9c-.7 0-1.3-.3-1.7-.8a4 4 0 01-.8-1.7c-.3-1.3-.2-2.5-.2-2.5l.9-.2c.8 0 1.4.4 1.7.8.5.5 1 1.1 1.2 1.8.2.7.3 1.3.1 1.8-.1.4-.6.8-1.2.8zm40-.9c-.9 0-1.7-.3-2.2-.9-.4-.5-.8-1.1-1-2a10 10 0 01-.2-2.8 3 3 0 011-.3h.1c1.7 0 3.1 1.5 3.7 3 .3.8.4 1.5.2 2-.2.6-.9 1-1.6 1zm-19.5-.8c-10.8-.4-16.3-3.4-19.1-6a12.5 12.5 0 01-3-3.6 8 8 0 01-.5-1.7s1-.4 2.6-.4h.3c3.6 0 11 1.5 19.7 11.7zm11.7-1c-8.7-1.4-13.6-5.1-16.2-8-2.7-3-3.5-5.8-3.5-6a12.7 12.7 0 013.4-.3c4.3.1 12.2 2 16.3 14.2zm-44.4-4.2c-2.9 0-5.6-.4-8.2-1-4.5-1.1-6.5-2.9-7.3-4.1-.5-.7-.7-1.3-.7-1.7v-.8s3-.8 7.1-.9a29.6 29.6 0 016.4.6c7.2 1.4 10.9 6.8 11 6.9-.1 0-3.5 1-8.3 1zm20-7.3c-.8 0-1.6-.3-2.1-1-.5-.4-.8-1-1-1.9a9.8 9.8 0 01-.2-2.9 3 3 0 011-.2h.1c1.7 0 3 1.5 3.7 3 .3.8.3 1.5.1 2-.2.6-.8 1-1.6 1zm-15-2c-.1-.1-4.1-1.1-8.2-3.7-3.8-2.3-8.5-6.4-9-12.8l.9-.1h.2c1.1 0 3.4.3 6.2 2.4 3.6 2.7 6.9 7.5 9.8 14.1zm9.8-.5s-2.9-1.1-6.5-4.1c-3.3-2.8-8-7.8-11.4-16 0 0 .8-.4 2-.4h.5c1.7 0 4.2.7 7 3.7a45 45 0 018.4 16.8zm-25.5-.7c-3.3 0-4.5-1.8-4.8-2.6-.5-1.2-.4-2.5-.4-2.5l1.7-.2c2.7 0 4.7 1.3 5.6 2.6.2.3.7 1.2.3 1.9-.4.5-1.2.8-2.4.8zm-7.3-9.2c-1.9 0-4.7-.1-7.7-.7-2.9-.5-4.5-3-5.4-5-1-2.2-1.3-4.2-1.3-4.3 9.1.3 13.4 3 15.4 5.1a8 8 0 012.2 4.8l-3.2.1zm9.4-9.4s-1-1.3-2-3c-1.1-1.6-2.1-3.3-2.1-4.8 0-1.3-.4-4.3-.6-5.9l-.5-3.9c.3 0 5.7 2.1 5.7 7.2 0 5.2-.5 10.3-.5 10.4zm-7-.5h-.2c-1.6-.3-4.5-1.5-7.6-3.3-3.5-2-6.3-4.2-8-6a13.5 13.5 0 01-2.6-8c-.2-2.6 0-4.7 0-5h1c1.2 0 2.5.5 4.2 1.7a34 34 0 014.4 3.7c2.8 2.7 5 5.5 5 5.5.2.3 1.7 3.1 3 5.9.7 1.7 1.1 3 1.3 3.9v1.2l-.3.3h-.3z" fill="#4E5B31"/>
    <path d="M244 308.8c.2 0 .2-.1.3-.2l1.1-1.2c1-1 2.2-2.5 3.2-3.9l4.3-5.3.5-.7 5.3-1.7 3.9-1.8-2-2.3-7.2 3-5.3 1.1-9.8 7.2a96.4 96.4 0 015.4 5.2l.2.3-.6-.4-.7.5 1.4.2zm36.5-11A27 27 0 00294 294s-.6-1-2-2c-1.3-1-3.7-2.2-7.6-2.2-4.6 0-10.2 1.5-16.7 4.6.2.1 5.3 3.4 12.7 3.4zm20-4.4c.9 0 1.7-.3 2.2-1 .4-.4.8-1 1-1.9.3-1.4.2-2.7.2-2.9a3 3 0 00-1-.2h-.1c-1.7 0-3.1 1.5-3.7 3-.3.8-.4 1.5-.2 2 .2.6.9 1 1.6 1zm-35.3-4.1c11.9-1.7 17-6 19-9.3 2.3-3.5 1.8-6.8 1.8-6.8s-.7-.2-1.8-.2c-3.1 0-11.2 1.6-19 16.3zm24.3-2.4c5.1 0 9-.8 11.5-2.6a7 7 0 002.5-2.8l.4-1.4a15.5 15.5 0 00-6-1.1 23 23 0 00-16.2 7.4c2.8.3 5.5.5 7.8.5zm24.6-.9c5.3 0 12.6-1.6 17.2-6.2a53.6 53.6 0 00-11.6-1.4c-5 0-8.8 1-11.4 2.8-.9.7-1.4 1.3-1.5 2 0 .5.2 1 .7 1.4 1.2.9 3.2 1.4 6.2 1.4h.4zm17.3-8.9c.6 0 1.3-.3 1.7-.8.3-.4.6-1 .7-1.7.3-1.3.2-2.5.2-2.5a2 2 0 00-.8-.2c-.8 0-1.4.4-1.8.8-.5.5-.9 1.1-1.1 1.8-.3.7-.3 1.3-.2 1.8.2.4.7.8 1.3.8zm-40-.9c.8 0 1.6-.3 2.2-.9.4-.5.7-1.1 1-2 .3-1.3.2-2.7.2-2.8a3 3 0 00-1.1-.3c-1.8 0-3.1 1.5-3.7 3-.3.8-.4 1.5-.2 2 .2.6.8 1 1.6 1zm19.5-.8c10.7-.4 16.3-3.4 19-6 1.7-1.3 2.5-2.7 3-3.6a8 8 0 00.6-1.7s-1-.4-2.7-.4h-.2c-3.6 0-11 1.5-19.7 11.7zm-11.7-1c8.6-1.4 13.5-5.1 16.1-8 2.7-3 3.6-5.8 3.6-6a12.7 12.7 0 00-3.4-.3c-4.4.1-12.3 2-16.3 14.2zm44.4-4.2c2.8 0 5.6-.4 8.2-1 4.5-1.1 6.4-2.9 7.3-4.1.4-.7.6-1.3.7-1.7v-.8s-3-.8-7.2-.9a29.6 29.6 0 00-6.3.6c-7.2 1.4-11 6.8-11 6.9 0 0 3.5 1 8.3 1zm-20-7.3c.8 0 1.6-.3 2-1 .5-.4.8-1 1-1.9.4-1.4.3-2.7.3-2.9a3 3 0 00-1-.2h-.1c-1.8 0-3.1 1.5-3.7 3-.3.8-.4 1.5-.2 2 .3.6.9 1 1.6 1zm15-2c0-.1 4.1-1.1 8.2-3.7 3.8-2.3 8.4-6.4 9-12.8l-.9-.1h-.2c-1.2 0-3.5.3-6.3 2.4a35.7 35.7 0 00-9.8 14.1zm-9.8-.5s2.9-1.1 6.4-4.1c3.4-2.8 8-7.8 11.5-16 0 0-.8-.4-2-.4h-.5c-1.7 0-4.2.7-7 3.7a45 45 0 00-8.5 16.8zm25.5-.7c3.3 0 4.4-1.8 4.8-2.6.5-1.2.3-2.5.3-2.5l-1.6-.2h-.1a6.8 6.8 0 00-5.5 2.6c-.2.3-.7 1.2-.3 1.9.4.5 1.2.8 2.4.8zm7.3-9.2c1.8 0 4.7-.1 7.6-.7 3-.5 4.6-3 5.5-5 1-2.2 1.2-4.2 1.2-4.3-9 .3-13.4 3-15.3 5.1a8 8 0 00-2.2 4.8l3.2.1zm-9.4-9.4s1-1.3 2-3c1.1-1.6 2.1-3.3 2.1-4.8 0-1.3.3-4.3.5-5.9l.5-3.9c-.2 0-5.7 2.1-5.7 7.2 0 5.2.5 10.3.5 10.4zm7-.5h.2c1.6-.3 4.4-1.5 7.5-3.3 3.5-2 6.3-4.2 8-6 1.5-1.8 2.4-4.5 2.6-8 .2-2.6 0-4.7 0-5h-1c-1.1 0-2.4.5-4.1 1.7a34 34 0 00-4.5 3.7c-2.7 2.7-4.9 5.5-4.9 5.5-.2.3-1.8 3.1-3 5.9-.7 1.7-1.2 3-1.3 3.9-.1.5-.2.9 0 1.2l.2.3h.3z" fill="#4E5B31"/>
    <path d="M442.3 33.6l-1.6.7-.6.2-2-.1-1.8.9-3.2 2.2h-.2l-1.2.4-1.1-.5-.7.3-.2 1.3-.6 1-.7.5-2.6.3-2.2 1-2.8-.7-1.3.5-2.8 2.6-1.5.6h-2.4l-.8.2-1.2 1.1-2.2.2-.7.5-1.1 2.2-1.2 1.3-.7.1-.8-.3-.5.1-.3 1.5-.5.5-1.5.6-1.2 1-1.1.5H397.2l-1.4.8-2.6.2-1.2 1-.2.3-.5.3-.9.5-.2.1-1-.1-1.2.4-.5-.7-.8.5h-1.1l-1.4-.6-1-.4h-.8l-.2 1.4v.1l-.9 1.1-1.4.9-.3.3-1.6 2.2-3.3 3.3-2.7 1.4-2.8.9-2 1.6-5.2 2.6-8.2 4-1.7.6-2.4.4-4.3 1.6-3.7 1.1h-.3l-.7.3-5.3 1.6-2.5-.2-1.5.5-3.8-.4h-2.7l-1.7.4-3.1 1.5-5.4 2.6L313 88l-2.7 1.4-3.2 1v-1.3l-1.2.3-.8.2-2.6.4H301l-1-.2-5.4 1.8-6 .5-3 1h-2.2l-1.4.4-2.7.3-1-.2-.2-.1-8 .3-3.7-.4-1.7.4-3-1-4.3-.5-1-.3-2.2-.6-1 .6h-.8l-1.8-.6h-.7l-1.5.5-.8-.2-.8-.7-2-.2-1-1-6.5.9-1.7-.6-5.9-1.7h-1l-1 1-1.8.6-1.5.4h-2l-2.5-.6-2.4-1.2-1-.2-2 .2h-.6l-3.7-2-4.9-3-3.2-1.5-1.2-.2-.2.6.6 1.9.2 1.9V89l.2 1 1.2 1.3.5 1.3.3 3.6v3.7l-.5 5.8-.2 1-.7 3-.6 2.7-2.5 7.4-.6 1-1.7 1-3.7 2.6-2.7 1.6-.8.3-2.3.2-1.3-.1-1.8-1-1.6-.4-2.2-1.5-2.5-.6-2.7-1.5-.7-.9h-1.5l-2-.7-.7-.2-.6-.2h-2.5l-2.5-1.2-1.2-.3h-1.8l-1.8.8-1 .4-1-.5-1 .1-.9 1.4-.1.3-.7.3h-1.5l-.6.3-1 .4-.8.4-.4.1h-.3l-.4.2h-.6l-1-.5-.4-.3-.9-.2-.4.4-.1 1.5-.5 1-1.3 1.2-1.4 1.1-1 1.4-2.4 5.8-1.6 2.3-.5.5-1.6 1.8-1.5 1.2-3.4 2.6-3.1 1.2-2.8.5h-1.3l-2.5-.3-2.3-.7-2.5-1.6-2.7-2.2-4-3.9-.6-.3-1.3-.9h-1l-.3.6-.2 1-.2.7-.4 4.3v.3l.3 1.8 3 4.2.9 2.2.1.3.7 1 .4.8 1.1 3.1-.7 1.8.3 1.1-.9.7-.1 1 2.7 3.4.6 1.5-.7 2-1 1.2-.3.3.1 1 1.2 1 2.2 2 1 2.7 1 .7 1-.2.5.5h.8l.8.8.6.2.8.5.7.8.1 2.7 1.3 3.3v2.1l.8 1.3.2 1-.4 2.8 1 1 1-.3.8.1 1 1 1.4 2 1.3-.2.9.4 4 3.6 1 .5.6.4.8.8 1.3-.9h1.5l.6.3 1.2.8h1.5l3.3 1 1.5.4 2.9 1.8 1.2.7.8.6 1 .8 1.9.9 1.7.4.9.2.6.2 3.7 1.4 2 .5 1.7.6 1.3.5h1l1.4-1.1h1.3l1 .2 1.2-.2 1.7-1 .3-.5 1.2-.6 4-.5 1.2.4 3-1.3 2.1.5 1.8-.6 4 .9 1 .7 1.2 1.3h1.5l-.6 1 1.7 1.8 1.6 2.3.1.4 1.1 3.3.9 1.2.6 1.6v1l-1 .8v.4l-.1.1.2.5.3-.2.7-.4.8-.1 1.4.1.9.1 1.5-.7 1-.5 1.5.7h1.7l.8.3 2 1h1l.4-.2.3-.6-.1-.7-.8-.9-1.8-2-.7-1-.5-1.5-.2-2v-1.2l.1-1.7.5-.6.3-1.4.1-.3 1-1.3 2.5-1.6 2.8-2.5 2.1-1.4 2.2-1 .1-.2h.3l5.6-1.9h.1l2.5-.4 17 1.2.7-.2.6-1.6.3-.3.2-.2 1.8-.8 1-.1 2.3.6 1 .2 1.6-.9h1.2l2.3-1.2h1.4l.6-.2 2.8-2 2.7-.8.7-.4.3-.1 2.7-1.5 1.8-1.3 1.5-.9 1.7-.4 4.3-.3 1-1.5 1.8-.2 1.1-1.3 1.3-.5 1-1.3.7-1.2 1.1-.6 3.5-.2 4.1.5.6-.3.9-3.4 1-.6 2.6-3.8V170l.5-1.6-.3-3 .3-3 1.6-4 1.5-1.5 2.3-1.6 1.2-.5 1.7-.3H314.4l5.8-.2h4l4.9.8.3.1 1.7.5 1.9 1.5 2 2 .3.3 1.3.6.4.2 1.1-.2 1.5-.8 1.2-1 1.6-.8v-.1l.9-1.3.4-.6 3-1.2 3.6-.2.4-.2.2-.1 1-1.1h.8l2.2.7 1.5-.3 1.2.5.9-.1 1.8-.2 1.8 1.3 1.1.2 3.9 2.2H367.4l.2.1.5-.1.7-.2h.1l.5.7h.6l.7-.9-.3-.4-.1-.2-1.4-.2-1.2-2.2 1.2-1.2-1.9-2.3-.3-.4-.1-.1-.6-1-3.3-5-4.2-3.3-1.5-1.2-.5-.4-2.3-2.3-1.6-2.2-.2-.4-.3-.7-1-2.2-1.7-1.2-1.3-1.5-.1-.1-2.8-3.9-.5-.6-.7-.4h-1.4l-.1-.1-.1-.1.7-.8.8-.1.3-.8-1.4-4.2v-.1l-.1-1.3 1.1-6 .2-.8 2-4 1.2-1.1 1.4-2.7 1.1-1.7 1.1-1 .2-.2 2-1.2 1.7-.2 1.6-.2 2.8.8h3.2l1.2-.2 2-.6 1-.6.4-.8 1-3.4.4-1 .6-1.2 3.6-4.2 2.8-2.5 6.1-4.6 3-1.8 1.6-.9 13.7-6.1 3.6-3.6 1.9-2 3.3-2.1 3.8-1.6 3.3-2.6.8-1 .9-2.9.7-.2.7-1.4.2-.5 2.7-1.9.3-.1 10.5-5.3 1.6.2.8-1.2 3-.5.6-.1.8-.4.6-1V38l.7-.7.4-2 .3-.4.4-.4.8-.6-.1-.4z" fill="#D57800"/>
  </g>
</svg>