<svg width="512" height="336" xmlns="http://www.w3.org/2000/svg"><g fill="none" fill-rule="evenodd"><path d="M13.7 9.251C5.326 16.286 0 26.829 0 38.621V297.38c0 11.791 5.326 22.335 13.7 29.369L256 168 13.7 9.251z" fill="#3741CF"/><path d="M13.7 326.749a38.18 38.18 0 0 0 24.644 8.975h435.31c21.177 0 38.345-17.167 38.345-38.345V168H256L13.7 326.749z" fill="#E6000D"/><path d="M473.655.276H38.345a38.188 38.188 0 0 0-24.644 8.975L256 168h256V38.621C512 17.443 494.833.276 473.655.276z" fill="#F5F5F5"/></g></svg>