<svg xmlns="http://www.w3.org/2000/svg" width="512" height="336">
  <g fill="none" fill-rule="nonzero">
    <rect width="512" height="336" fill="#F5F5F5" rx="39"/>
    <path fill="#3741CF" d="M8.8 132.7h203c5 0 8.9-4 8.9-8.8V9c0-4.9-4-8.8-8.8-8.8H38.3A38.3 38.3 0 0 0 0 38.6V124c0 4.8 4 8.8 8.8 8.8zM503.2 203.3h-203c-5 0-8.9 4-8.9 8.8V327c0 4.9 4 8.8 8.8 8.8h173.6a38.3 38.3 0 0 0 38.3-38.3V212c0-4.8-4-8.8-8.8-8.8z"/>
    <g fill="#E6000D">
      <path d="M473.7.3H300c-4.8 0-8.8 4-8.8 8.8v114.8c0 4.8 4 8.8 8.8 8.8h203c5 0 8.9-4 8.9-8.8V38.6A38.3 38.3 0 0 0 473.7.3zM220.7 326.9V212.1c0-4.8-4-8.8-8.8-8.8H8.9c-5 0-8.9 4-8.9 8.8v85.3a38.3 38.3 0 0 0 38.3 38.3H212c4.8 0 8.8-4 8.8-8.8z"/>
    </g>
    <g fill="#64B496">
      <path d="M251 193.2s5.2 1.9 4.5 8.5h2.1s-1.3-7.7-2.4-8.6c-1.1-.9-4.3 0-4.3 0z"/>
      <path d="M256.2 192.1c-2.2 0-6.1 0-10.2-1 .9-1 2.1-3 2.1-6.3 0-5.2-3.6-1.9-3.6-1.9s-2.4 2-1 7.4c-1.3-.6-2.7-1.3-4-2.2.8-1 2.4-3.4 3.4-7.2 0 0-6-1.2-7.7 3.3-1-1.3-1.9-2.7-2.6-4.3 1.6 0 3.7-1 3.7-6.9 0 0-3.9 0-5 3.4l-1-4.6c1.7.5 5.7.8 5.7-8 0 0-4.9 0-6 4.3v-3.4c2.3-1.2 5.6-4 5.2-9.5 0 0-2.2.5-4.3 2.2.4-2.1.3-5.2-3-7.8 0 0-3 5.3 1.4 9.6-.4.5-.7 1.1-1 1.8a9.4 9.4 0 0 0-5-3.7s-1.3 7 5.4 10c.1 4.1.8 7.8 1.9 11-2-1.7-3.4-4-3.4-4 0-7.9-6.5-8-6.5-8-1.2 9 5.4 9.3 5.4 9.3l3.7 4c-7.9-1.4-7.9 5.2-7.9 5.2 5.3 1.3 7.9-1.3 7.9-1.3l2.8 1.5c-5 .1-6.8 5-6.8 5 6.4 1.1 11-.4 12.6-1a30.9 30.9 0 0 0 17.8 4.5V192z"/>
      <path d="M255.8 192.1c2.2 0 6.1 0 10.2-1-.9-1-2.2-3-2.2-6.3 0-5.2 3.7-1.9 3.7-1.9s2.3 2 .9 7.4c1.4-.6 2.8-1.3 4.1-2.2-.8-1-2.4-3.4-3.4-7.2 0 0 6-1.2 7.7 3.3 1-1.3 1.8-2.7 2.6-4.3-1.6 0-3.7-1-3.7-6.9 0 0 3.9 0 5 3.4.4-1.4.7-3 .9-4.6-1.6.5-5.6.8-5.6-8 0 0 4.8 0 6 4.3v-3.4a9.5 9.5 0 0 1-5.2-9.5s2.2.5 4.3 2.2a7.7 7.7 0 0 1 3-7.8s3 5.3-1.4 9.6c.4.5.7 1.1 1 1.8 1-1.5 2.5-2.9 5-3.7 0 0 1.2 7-5.4 10-.1 4.1-.8 7.8-1.9 11 1.9-1.7 3.4-4 3.4-4 0-7.9 6.5-8 6.5-8 1.2 9-5.4 9.3-5.4 9.3l-3.7 4c7.9-1.4 7.9 5.2 7.9 5.2-5.3 1.3-7.9-1.3-7.9-1.3l-2.8 1.5c5 .1 6.7 5 6.7 5a24 24 0 0 1-12.5-1 30.9 30.9 0 0 1-17.8 4.5V192z"/>
    </g>
    <path fill="#3741CF" d="M233.9 135a45 45 0 0 0-12 11.1l4.2 3.1c3-3.9 6.5-7.2 10.6-9.8l-2.8-4.4z"/>
    <path fill="#FF6B71" d="M256 169h18.4v10.6c0 2.9-2.4 5.2-5.3 5.2h-7.8c-2.2 0-4 1-5.3 2.7V169z"/>
    <path fill="#5F64B9" d="M260 157.3v-14.5h19.6l-5.2 5.3v14.4H260z"/>
    <path fill="#F5F5F5" d="M267.8 162.5h6.6v6.6h-6.6z"/>
    <path fill="#FF6B71" d="M256 169h-18.4v10.6c0 2.9 2.4 5.2 5.3 5.2h7.9c2.1 0 4 1 5.2 2.7V169z"/>
    <path fill="#F5F5F5" d="M252.7 185.1c1.3.4 2.5 1.3 3.3 2.3.9-1 2-1.9 3.3-2.3v-10.8h-6.6v10.8z"/>
    <path fill="#5F64B9" d="M252 157.3v-14.5h-19.6l5.2 5.3v14.4h14.5z"/>
    <path fill="#F5F5F5" d="M237.7 162.5h6.6v6.6h-6.6z"/>
    <path fill="#3741CF" d="M244.2 149.4v4l4 2.5v-2.6z"/>
    <path fill="#F5F5F5" d="M248.1 153.3v4l5.3 2.6v-1.3z"/>
    <path fill="#3741CF" d="M267.8 149.4v4l-4 2.5v-2.6z"/>
    <path fill="#F5F5F5" d="M263.9 153.3v4l-5.3 2.6v-1.3z"/>
    <path fill="#E6000D" d="M264 178.2H248c-3.6 0-6.5-2.9-6.5-6.5v-20.3l14.5 9.8 14.3-9.8v20.3c0 3.6-2.9 6.5-6.5 6.5z"/>
    <g fill="#3741CF">
      <path d="M246.8 154.6l-5.2-3.9v14.4l5.2 2.7zM265.2 154.6l5.2-3.9v14.4l-5.2 2.7zM248.1 167.8h15.7v6.6h-15.7z"/>
    </g>
    <path fill="#E6000D" d="M248.1 156l8 3.9 7.8-4v11.9H248z"/>
    <g fill="#F5F5F5">
      <path d="M262 157.2v13.2c0 1-1 2-2 2h-8c-1 0-1.9-1-1.9-2v-13.2l-4-2.6v15.8a6 6 0 0 0 6 5.9h7.9a6 6 0 0 0 5.9-6v-15.8l-4 2.7z"/>
      <path d="M263.3 166.3c-2.2.2-4.7.5-7.3 1.4-2.6-1-5-1.2-7.3-1.4-3.7-.3-5.9-.6-7.1-2.8v3.8a15 15 0 0 0 6.9 1.7c2.3.2 4.6.4 7 1.3l.5.2.5-.2c2.4-1 4.7-1.1 7-1.3 2.6-.3 5-.5 7-1.7v-3.8c-1.3 2.2-3.5 2.5-7.2 2.8z"/>
    </g>
    <path fill="#FFE15A" d="M258.6 154h-2v-2h-1.2v2h-2v1.3h2v5.9h1.3v-6h2z"/>
    <path fill="#464655" d="M243 148.7l.8-.7 11.5 11.6-.7.7z"/>
    <path fill="#FFE15A" d="M241.3 146.2l1.4 2.9 1.5-1.4z"/>
    <path fill="#464655" d="M245.6 146.8l.8-.6 9.6 13.2-.8.6z"/>
    <path fill="#FFE15A" d="M244.2 144l1 3 1.7-1.1z"/>
    <path fill="#464655" d="M241 151.3l.5-.8 13.4 9.3-.6.8z"/>
    <path fill="#FFE15A" d="M238.7 149.1l2 2.6 1.1-1.7z"/>
    <path fill="#464655" d="M257.4 160.3l-.7-.7 11.5-11.6.8.7z"/>
    <path fill="#FFE15A" d="M270.7 146.2l-1.4 2.9-1.4-1.4z"/>
    <path fill="#464655" d="M256.8 159.9l-.8-.6 9.6-13.2.8.6z"/>
    <path fill="#FFE15A" d="M267.8 144l-1 3-1.6-1.1z"/>
    <path fill="#464655" d="M257.8 160.6l-.6-.8 13.4-9.3.5.8z"/>
    <path fill="#FFE15A" d="M273.3 149.1l-2 2.6-1-1.7z"/>
    <path fill="#F5F5F5" d="M255.3 184.4s-5-5.4-4-10.4c.8-4 3.2-8.5 5-9.6 0 0 2.7-.1 2 2.2-.6 2.3-1.5 2.9-1.2 5.2.4 4 1 8.6-1.8 12.6z"/>
    <path fill="#3741CF" d="M256.9 164.5h-.6c-1.8 1-4.3 5.5-5 9.5-.5 2.3.3 4.6 1.3 6.5-.6-8.2 1.8-11.1 4.3-16z"/>
    <path fill="#E6000D" d="M257 171.8c-.2-2.3.7-2.9 1.3-5.2.5-1.6-.7-2-1.4-2.1 0 0-1.7 3.9-1.8 6.5-.1 2.3.5 11.6.3 13.4 2.7-4 2-8.7 1.7-12.6z"/>
    <path fill="#F5F0F0" d="M253.6 166.4c1.1-1 2.6-1.5 4-1.2l-2-6.7c-1.5-.2-3 .2-4 1.3l2 6.6z"/>
    <path fill="#F5F5F5" d="M257.6 165.2c1-1 2.6-1.5 4-1.3l-2-6.6c-1.5-.3-3 .2-4 1.2l2 6.7z"/>
    <path fill="#5F64B9" d="M250 136.4a39.8 39.8 0 0 0-20.3 5l-2.6-4.6c7-3.9 15-5.9 23-5.7v5.3z"/>
    <path fill="#3741CF" d="M278.2 135a45 45 0 0 1 12 11.1l-4.3 3.1c-2.9-3.9-6.5-7.2-10.5-9.8l2.8-4.4z"/>
    <path fill="#5F64B9" d="M262 136.4c7.1-.2 14.2 1.5 20.4 5l2.5-4.6c-7-3.9-15-5.9-23-5.7l.1 5.3z"/>
    <path fill="#3741CF" d="M266.5 135a39.8 39.8 0 0 0-21 0l-1.4-5.1a45 45 0 0 1 23.8 0l-1.4 5z"/>
    <g fill="#FF6B71">
      <path d="M238.4 193.8a95.3 95.3 0 0 0-16.5 6l2.2 4.7a89.8 89.8 0 0 1 16-5.8l-1.7-5zM273.6 193.8a95.3 95.3 0 0 1 16.5 6l-2.2 4.7a89.8 89.8 0 0 0-16-5.8l1.7-5z"/>
    </g>
    <g fill="#E6000D">
      <path d="M277.1 197.8a90 90 0 0 0-42 0l-1.2-5a95.2 95.2 0 0 1 44.4 0l-1.2 5z"/>
      <path d="M256 199.2l-3.6 1c-.8.2-1.6-.5-1.6-1.3v-2c0-.8.8-1.4 1.6-1.2l3.6 1v2.5zM256 196.6l3.6-.9c.9-.2 1.7.4 1.7 1.3v1.9c0 .8-.8 1.5-1.7 1.2l-3.6-.9v-2.6z"/>
    </g>
    <path fill="#FF6B71" d="M256.3 199.2h-.6a1 1 0 0 1-1-1v-.6c0-.5.5-1 1-1h.6c.6 0 1 .5 1 1v.6c0 .6-.4 1-1 1z"/>
  </g>
</svg>
