<svg xmlns="http://www.w3.org/2000/svg" width="512" height="336">
  <g fill="none" fill-rule="nonzero">
    <path fill="#82AFFF" d="M473.7.3H38.3A38.3 38.3 0 0 0 0 38.6v258.8a38.3 38.3 0 0 0 38.3 38.3h435.4a38.3 38.3 0 0 0 38.3-38.3V38.6A38.3 38.3 0 0 0 473.7.3z"/>
    <path fill="#3741CF" d="M8.8 168h238.4c4.8 0 8.8-4 8.8-8.8V9c0-4.9-4-8.8-8.8-8.8H38.3A38.3 38.3 0 0 0 0 38.6v120.6c0 4.8 4 8.8 8.8 8.8z"/>
    <path fill="#FFF" d="M0 159.2v-7l70.2-46H0V62.1h70.2L5 19.4A38.5 38.5 0 0 1 26.6 1.8l79.3 52V.3h44.2v53.5L231.8.4h15.4c4.8 0 8.8 4 8.8 8.8v7l-70.2 46H256v44.1h-70.2l70.2 46v7c0 4.8-4 8.8-8.8 8.8h-15.4l-81.7-53.6V168h-44.2v-53.6L24.2 168H8.8C4 168 0 164 0 159.2z"/>
    <g fill="#E6000D">
      <path d="M256 70.9H141.2V.3h-26.4v70.6H0v26.5h114.8V168h26.4V97.4H256z"/>
      <path d="M8.2 14.9L81 62.1H97L14.6 8.5c-2.4 1.9-4.5 4-6.4 6.4zM166.3 62l88.4-57.3a8.7 8.7 0 0 0-7.5-4.4h-2L150.2 62h16.2zM89.5 106.2L1.3 163.5a8.7 8.7 0 0 0 7.5 4.5h1.7l95.2-61.8H89.5zM255.9 159.9l-82.7-53.7H157l93.9 61c2.8-1.4 4.7-4.1 5-7.3z"/>
    </g>
    <path fill="#F5F5F5" d="M322 96.6v96.9c0 39.3 55.2 59.4 62 61.8 6.7-2.4 61.8-22.6 61.8-61.8V96.6H322z"/>
    <path fill="#E6000D" d="M448 141V94.4H319.8V141h55.4v43.7h-55.4v17.5h55.4v52.4l8.7 3 8.8-3v-52.4H448v-17.5h-55.3V141z"/>
    <circle cx="334.2" cy="122.9" r="7.3" fill="#F5F5F5"/>
    <g fill="#FFE15A">
      <path d="M348.2 113c-2.3-1.3-6.5-4.7-8.2-4.1-1.7.5-2 1.7-4.4 2-2.3.1-6 2.3-4.5 4.8 2 3.3 8.2.8 8.6-.8 0 0 1.5.3 2.8 0 0 0 2.5 3.5 5.7 3.3 3.1-.2 4.6-4.2 3.9-4.2-.7 0-3.9-1-3.9-1zM358 128.5c-.6 1-4.6 4.3-11.3 6-1.5.3-1.2 2-2.7 1.1-1.5-.8-5.6-1.5-9.3-1.7-3.7-.2-4-3.6-3.4-4.8.8-1.6 6.7-2.5 7.7-.6s1.9 1.5 4.5 2c1.6.4 1.6 1.2 1.6 1.2s3-3 5.6-3.9c2.5-.8 4.7-2.8 5.1-2.8.5 0 2.7.7 2.7.7l-.6 2.8zM367.6 118.1a55 55 0 0 0 27.4-3c12.2-3.9 15.7-4.6 21.6-2.4 6 2.2 8.6-4.7 4.7-5.9-6.2-1.8-25.2 9.2-39 3 0 0-.3 1.7.1 2.5 0 0-10 .3-7.6-10 0 0 .7 3.8 5.4 3.3 9-.8 10.2 5.5 29-.3 10.6-3.3 18.7-1.7 18.8 3.4 0 6.2-8.4 7.6-8.4 7.6s3.3 6.7 10 3.8c6.6-3 7 2.1 7.5 3.9.6 1.7 1.7 3.4 3.2 3.6 0 0 1 3.1.6 3.5-.4.5-3.1 3.9-5.9 3.9h-8.6s-1.6-4 1.4-4 6.7-.3 6.3-1.9c-.5-1.6-2.9-2.4-2.8-4.2 0 0-7.1 5.1-11.5-1l-.1 3s-5.3-1-7.2-5.3c0 0 .5 4.8-4 4 0 0 .9 1.5 2.5 2.4 1.5 1-.1 3.2-3.1 5-3 1.8-12.4 7-16.7 1.7-4.2-5.4 1-8.5 2.2-8.1 1.3.3 5 6 7.5 5.2 2.5-.7 3.8-3.3 1.7-4.9-2.2-1.5-3.7-3-2.4-4.6 1.8-2.2 8.5-1.5 8.3-3-.2-1.5-6.5-1-10.6 3-4 4.1-21.8 13.5-28.8 7.6-7.1-6-1.5-11.8-1.5-11.8z"/>
    </g>
    <path fill="#FFD25A" d="M365.4 115.5s5.3 5.3 14.3 7c0 0-1.7 2.5-6.5 1.8 0 0 2 1.6 3.3 4.4 0 0-3 .7-5.8-.8 0 0 .3 2.3 1.7 4.1 0 0-3.6 0-6.7-2.7l-1.2 3.5s-2.1-1.4-3.4-4c0 0-2.5 1.8-5 1.8 0 0 1-2.6 1-4 0 0-3.6 2-6.4 1.2 0 0 0-3.6 1-4.7 0 0-2.3.3-3.8-.5 0 0 1-2 1.4-3.3 0 0-2.5 0-4-1.3 0 0 4.7-1.9 5.8-3.6l14.3 1.1z"/>
    <path fill="#FFBE5A" d="M356.7 100.8c1.1.6 2.8 1.9 3.5 4 0 0 2-2.8 5.2-3.3 0 0 1.5 1.6 1 5.9 0 0 3.8-1 5.8.9 0 0-4 .8-5.8 4.1 0 0-.7 3.3.6 5.3 0 0-1.4.2-2.8-.4 0 0-.7 3.3 0 4.4 0 0-2-.2-3-2.3 0 0-1.5 2.4-1.4 3.9 0 0-2.1-1.3-2.2-3 0 0-1.5 2.7-3 3 0 0-.2-4-1-5.4 0 0-1.3 1.5-3 1.4 0 0 0-3 1.4-4.4 0 0-2.4.8-3.8-1.9 0 0 4 1.2 5-1.3 1-2.4 1.3-3.2 2.7-4.5 1.4-1.4.8-6.4.8-6.4z"/>
    <path fill="#FFE15A" d="M365.4 112s-5 9.6-9.6 6.7c-5-3.1 1.2-10.5 2-11.3 0 0 3.7 1 7.6 4.7z"/>
    <path fill="#5ABEA0" d="M347.4 161s-.6-6.9-4.3-8.9c-3.5-1.8-5.5-2.8-6-5.1 0 0 3.1 1.3 6.3 2.2 3 .8 5.7 5.7 4.9 11.2l-1 .6z"/>
    <path fill="#B46446" d="M335.6 166.6l.5.9.4 1.8-.7 2.3s2.7 1 3.3 4.7c.4 2.6 1.6 3.1 2.3 2.6.6-.5 1-1.1.3-4-.9-3.5-3.4-6.8-3.4-6.8l-1.9-3-.8 1.5z"/>
    <g fill="#5ABEA0">
      <path d="M338.3 168c-2.4-3.2-9.2-9.9-10.5-.7 0 0-2.7-7.7 2.3-7.4 5.8.3 8.2 8.2 8.2 8.2z"/>
      <path d="M336.1 167.5c-2.1-2.4-2.8-4.1-4-8.5-1-4.3-1.4-5.7-2.7-5.6-1.3.1-2 1.5-2 4.3 0 0-3.8-3.4-1.3-6.1 2.6-2.7 8.4-1.2 8.7 3.6.4 4.8.3 8 2 12l-.7.3z"/>
      <path d="M336.7 165.4s-4.5-10 8.3-15.5c0 0-11.4-3-10 13.1l1.7 2.4zM338.2 169s-9.6-3.7-8.8 5.2c0 0 1.6-4.2 6.4-2.6l2.4-2.7z"/>
    </g>
    <path fill="#B46446" d="M349 165.4c0 2.6 1.1 10.2-.3 11.1-.8.5-2.8.1-2.7-1.7.2-1.9 1-10.7 1-13 0-2.1 2 3.6 2 3.6z"/>
    <g fill="#5ABEA0">
      <path d="M343 171.5c1.6-1.7 2.1-5.6 1.6-10.7 0 0 3.4 2.4 4.5 4.6 0 0 1-5-2.5-6.4-3.5-1.3-5.4-.5-6 1-.7 1.7 1 3.5 1.8 6.2.7 2.4.6 5.3.6 5.3z"/>
      <path d="M348.9 164s.5-2.6 2.4-3.7c0 0 4 2.7 3.6 6.4 0 0 1-5-1-7-2.2-2-4.6-2.5-5.8-.7-1.2 1.7.8 5 .8 5z"/>
      <path d="M349.8 159s1.2-7.2 4.2-8.7c3-1.6 8.7-3 9-3.4l-7.8.3c-1 0-7 4.4-7 10.8 0 6.5.5 2 .7 2l.9-1z"/>
    </g>
    <path fill="#B46446" d="M352.6 177.9c.6 1.4 2.3 1.8 2.6 1 .4-.7 2-6.4 2-6.4l-2.3-1-2.3 6.4z"/>
    <path fill="#5ABEA0" d="M365.4 154.1c2.7-1.6 4.5 3 4.5 3 0-5.4-1.8-7.1-6-5-1.3.6-2.3 2-3 3.4-2.2-6.2-7-6.1-7-6.1l-1 .8c3.9.7 6.1 5.4 7 8l-.8 4.7a24.9 24.9 0 0 0-4.2 8.6s1.9 1 2.2 1c0 0 1.2-3.7 2.7-3.6 1.5 0 3.3 2.5 3.3 4 0 0 2.3-4.5-.4-6.3-1-.6-1.8-.9-2.4-.9l2-2.2c3.1.6 5.4 3.7 5.4 3.7 0-5.5-2.4-6.6-4.9-6.1.5-2.2 1.5-6.3 2.6-7z"/>
    <path fill="#B46446" d="M418.4 161.6v15.5c0 .7-3.3 3.6-3.3 3.6h8.7s-2.7-3.2-2.7-3.6l.6-14.3-3.3-1.2z"/>
    <g fill="#5ABEA0">
      <path d="M419 163.2c-2-.2-7.8 4.6-9.5 11.8 0 0-5.1-8.3 7.6-15.2 0 0-5.6-1.7-14.2 7.3-.5.5-1-13.5 14.6-9.8 0 0-6-8.5-18-1.8 0 0 8-14.4 19.9-1.5 0 0 0-11.2.1-10l1 6.3 2.3-4.1-1.8 8.3s10.6-14.1 19.6.6c0 0-11.7-4.8-17.2.6 0 0 12-3.3 11 10.6 0 0-4.7-8.2-12.4-7.2 0 0 9 4.2 6.2 15.4 0 0-5.5-11-9.2-11.3zM342.8 213.1c-.4-.6-1-.9-1.7-1 .3-.8.4-1.1.4-1.7l.5.1.1-.6c-.7-.1-1.5-.4-2.3-1 .5-.4.9-1 .9-1.8s-.4-1.6-1-2a2.4 2.4 0 0 0-.3 3.6l-1-.7c0-.5-.2-1-.7-1.5-.6-.6-1.4-.8-2-.6a2.4 2.4 0 0 0 2.4 2.6l.4.3a2.6 2.6 0 0 0-2.8 1.8c.6.3 1.4.5 2.2.2.7-.3 1.2-.8 1.4-1.4l1.6.8h-.1c0 .5 0 .7-.3 1.6-.5-.4-1.2-.5-2-.3s-1.4.8-1.6 1.5a2.4 2.4 0 0 0 3.5-.7l-.4 1c-.5.3-1 .6-1.2 1.2-.4.8-.4 1.6 0 2.2a2.4 2.4 0 0 0 1.8-3.1l.2-.5a2.6 2.6 0 0 0 2.4 2.2c.2-.7.1-1.5-.4-2.2z"/>
    </g>
    <path fill="#FFECDE" d="M338.9 211c2.9 0 6.7-.2 6.6 2.8-.1 2.9-3.4 12.7 4.1 15.7s8.4 2.6 8.4 2.6l3.4 7.7 8.2-2.9-7.9-6.2s-.7-4.3-2.6-7.2c0 0 4.9-2.5 6.5-4.6l-3.3-.2s4.3-2.8 6.4-6l-2.4.3s2.7-2.7 3.4-5.9c0 0-4.4 4.4-8.9 5 0 0 2-5 2.4-6.9 0 0-3.4 2.2-5.7 3-2.4 1-6 1-4.4 8.7 0 0-2-1.7-3.3-5.3-1.2-3.6-1.6-5-3.3-5-2.8 0-3.8 2.6-3.8 2.6l-3.8 1.8z"/>
    <path fill="#B46446" d="M421.5 212.4c1-1.4 3-5.5 4.8-4.5 1.8 1.1 4.1 3.8 5.5 2.6 1.5-1.3 1.6-2.9-.6-3.6-2.2-.8-4.6-2-6.2-1.6-1.5.5-6 5.3-6 5.3l2.5 1.8z"/>
    <path fill="#FFE15A" d="M408.5 216c0-2 1.2-10.3 6.5-9.2 2.8.6 4.2 3.6 8 5 3.9 1.5 6.4 2.4 5.7 5-.8 2.6-2.2 5.7-5.5 6.5-3.3.8-14.7-7.3-14.7-7.3z"/>
    <g fill="#5ABEA0">
      <path d="M405 223c-1 .1-5.2 6.2-.3 12.3 0 0 6 2.5 10.9-1.3 4.8-3.8 1.2-5.7 1.2-5.7l-11.7-5.4z"/>
      <path d="M405.5 224.2c-.5-.7-.4-1.3-.4-1.3s-.3-8.7 3.3-8.8a39 39 0 0 1 16.6 9.8c0 1.4-4.2 5.5-7.7 6.4-3.5.8-11.8-6-11.8-6z"/>
    </g>
    <path fill="#B46446" d="M396.6 245.2s11.5-5.1 9.3-9.3c-1.6-3-5-1.1-5.6 1.2-.7 2.9-3 6.9-3.7 8.1z"/>
    <path fill="#464655" d="M384 259.9l-.7-.3c-.7-.2-16.5-5.3-32.6-15.9-21.6-14.2-33-31.6-33-50.2V92.2h132.5v101.3c0 18.6-11.4 36-33 50.2-16.1 10.6-32 15.7-32.6 16l-.7.2zM322 96.6v96.9c0 39.3 55.2 59.4 62 61.8 6.7-2.4 61.8-22.6 61.8-61.8V96.6H322z"/>
  </g>
</svg>
