<svg width="512" height="336" xmlns="http://www.w3.org/2000/svg"><g fill="none" fill-rule="evenodd"><path d="M473.655.276H38.345C17.167.276 0 17.443 0 38.621V297.38c0 21.177 17.167 38.345 38.345 38.345h435.31c21.177 0 38.345-17.167 38.345-38.345V38.621C512 17.443 494.833.276 473.655.276z" fill="#3741CF"/><path d="M511.469 32.282C508.447 14.123 492.672.275 473.655.275h-9.977l-163.54 107.147V.276h-88.276v107.147L48.322.276h-9.977C19.328.276 3.553 14.123.531 32.283l139.778 91.58H0v88.276h140.309L.531 303.717c3.022 18.159 18.797 32.007 37.814 32.007h9.977l163.54-107.147v107.147h88.276V228.577l163.54 107.147h9.977c19.017 0 34.792-13.847 37.814-32.007l-139.778-91.58H512v-88.276H371.691l139.778-91.579z" fill="#F5F5F5"/><g fill="#E6000D"><path d="M282.483.276h-52.966v141.241H0v52.966h229.517v141.241h52.966V194.483H512v-52.966H282.483z"/><path d="M24.793 333.252l186.583-121.114h-32.428L9.224 322.31a38.393 38.393 0 0 0 15.569 10.942zM346.388 212.138H313.96l180.716 117.305a38.515 38.515 0 0 0 12.287-13.075l-160.575-104.23zM4.049 21.475l157.73 102.387h32.428L15.475 7.842A38.499 38.499 0 0 0 4.049 21.475zM332.566 123.862L502.601 13.487a38.4 38.4 0 0 0-15.699-10.86L300.138 123.862h32.428z"/></g></g></svg>