<svg width="512" height="336" xmlns="http://www.w3.org/2000/svg"><g fill="none" fill-rule="evenodd"><path d="M473.655 335.724H38.345C17.167 335.724 0 318.557 0 297.379V38.621C0 17.444 17.167.276 38.345.276h435.31C494.832.276 512 17.443 512 38.621V297.38c0 21.177-17.167 38.344-38.345 38.344z" fill="#E6000D"/><path fill="#FFE15A" d="M459.034 53.241v229.517H52.966V53.241h406.068"/><g fill="#3CA100"><path d="M52.966 53.241L256 168 52.966 282.759zM459.034 53.241L256 168l203.034 114.759z"/></g><circle fill="#E6000D" cx="256" cy="168" r="35.31"/><g fill="#FFE15A"><path d="M258.231 142.127l5.523 16.558 17.454.136c2.26.018 3.197 2.901 1.379 4.244l-14.041 10.369 5.266 16.642c.682 2.155-1.771 3.937-3.61 2.623L256 182.55l-14.2 10.151c-1.838 1.314-4.291-.468-3.61-2.623l5.266-16.642-14.041-10.369c-1.818-1.343-.881-4.226 1.379-4.244l17.454-.136 5.523-16.558c.713-2.146 3.745-2.146 4.46-.002zM257.319 11.992l3.263 9.783 10.313.079c1.335.01 1.889 1.715.814 2.507l-8.297 6.126 3.111 9.833c.403 1.273-1.047 2.326-2.133 1.549L256 35.874l-8.391 5.997c-1.086.777-2.536-.277-2.133-1.549l3.111-9.833-8.297-6.126c-1.074-.793-.521-2.497.814-2.507l10.313-.079 3.263-9.783c.424-1.268 2.216-1.268 2.639-.002zM373.457 11.992l3.263 9.783 10.313.079c1.335.01 1.889 1.715.814 2.507l-8.297 6.126 3.111 9.833c.403 1.273-1.047 2.326-2.133 1.549l-8.391-5.997-8.391 5.997c-1.086.777-2.536-.277-2.133-1.549l3.111-9.833-8.297-6.126c-1.074-.793-.521-2.497.814-2.507l10.313-.079 3.263-9.783c.426-1.266 2.217-1.266 2.64 0zM141.181 11.992l3.263 9.783 10.313.079c1.335.01 1.889 1.715.814 2.507l-8.297 6.126 3.111 9.833c.403 1.273-1.047 2.326-2.133 1.549l-8.391-5.997-8.391 5.997c-1.086.777-2.536-.277-2.133-1.549l3.111-9.833-8.297-6.126c-1.074-.793-.521-2.497.814-2.507l10.313-.079 3.263-9.783c.425-1.266 2.217-1.266 2.64 0zM257.319 293.993l3.263 9.783 10.313.079c1.335.01 1.889 1.715.814 2.507l-8.297 6.126 3.111 9.833c.403 1.273-1.047 2.326-2.133 1.549l-8.39-5.995-8.391 5.997c-1.086.777-2.536-.277-2.133-1.549l3.111-9.833-8.297-6.126c-1.074-.793-.521-2.497.814-2.507l10.313-.079 3.263-9.783c.424-1.269 2.216-1.269 2.639-.002zM373.457 293.993l3.263 9.783 10.313.079c1.335.01 1.889 1.715.814 2.507l-8.297 6.126 3.111 9.833c.403 1.273-1.047 2.326-2.133 1.549l-8.391-5.997-8.391 5.997c-1.086.777-2.536-.277-2.133-1.549l3.111-9.833-8.297-6.126c-1.074-.793-.521-2.497.814-2.507l10.313-.079 3.263-9.783c.426-1.267 2.217-1.267 2.64 0zM141.181 293.993l3.263 9.783 10.313.079c1.335.01 1.889 1.715.814 2.507l-8.297 6.126 3.111 9.833c.403 1.273-1.047 2.326-2.133 1.549l-8.391-5.997-8.391 5.997c-1.086.777-2.536-.277-2.133-1.549l3.111-9.833-8.297-6.126c-1.074-.793-.521-2.497.814-2.507l10.313-.079 3.263-9.783c.425-1.267 2.217-1.267 2.64 0zM118.069 145.931H96V168c0 12.189 9.88 22.069 22.069 22.069 12.189 0 22.069-9.88 22.069-22.069 0-12.189-9.88-22.069-22.069-22.069z"/></g><path fill="#E6000D" d="M140.138 190.069l-12.131-2.351L118.069 168l19.717 9.938z"/></g></svg>