<svg width="512" height="336" xmlns="http://www.w3.org/2000/svg"><g fill="none" fill-rule="evenodd"><path d="M473.655 335.724H38.345C17.167 335.724 0 318.557 0 297.379V38.621C0 17.444 17.167.276 38.345.276h435.31C494.832.276 512 17.443 512 38.621V297.38c0 21.177-17.167 38.344-38.345 38.344z" fill="#F5F5F5"/><g fill="#E6000D"><path d="M512 141.517H282.483V.276h-52.966v141.241H0v52.966h229.517v141.241h52.966V194.483H512z"/><path d="M150.07 58.833c-8.744.879-17.31 1.76-25.888 2.642.882-8.579 1.762-17.145 2.643-25.888a93.961 93.961 0 0 1-24.129 0c.879 8.744 1.76 17.31 2.643 25.888-8.579-.881-17.146-1.762-25.888-2.642a93.954 93.954 0 0 1 0 24.128c8.744-.879 17.31-1.76 25.888-2.642-.882 8.579-1.763 17.145-2.643 25.888a93.961 93.961 0 0 1 24.129 0c-.879-8.743-1.761-17.31-2.643-25.888 8.579.881 17.145 1.762 25.888 2.642a93.954 93.954 0 0 1 0-24.128zM432.552 58.833c-8.744.879-17.31 1.76-25.888 2.642.882-8.579 1.762-17.145 2.643-25.888a93.961 93.961 0 0 1-24.129 0c.879 8.744 1.76 17.31 2.643 25.888-8.579-.881-17.146-1.762-25.888-2.642a93.954 93.954 0 0 1 0 24.128c8.744-.879 17.31-1.76 25.888-2.642-.882 8.579-1.763 17.145-2.643 25.888a93.961 93.961 0 0 1 24.129 0c-.879-8.743-1.761-17.31-2.643-25.888 8.579.881 17.145 1.762 25.888 2.642a94.044 94.044 0 0 1 0-24.128zM150.07 253.039c-8.744.879-17.31 1.76-25.888 2.642.882-8.579 1.762-17.145 2.643-25.888a93.961 93.961 0 0 1-24.129 0c.879 8.743 1.76 17.31 2.643 25.888-8.579-.881-17.146-1.762-25.888-2.642a93.954 93.954 0 0 1 0 24.128c8.744-.879 17.31-1.76 25.888-2.642-.882 8.579-1.763 17.145-2.643 25.888a93.961 93.961 0 0 1 24.129 0c-.879-8.743-1.761-17.31-2.643-25.888 8.579.881 17.145 1.762 25.888 2.642a93.954 93.954 0 0 1 0-24.128zM432.552 253.039c-8.744.879-17.31 1.76-25.888 2.642.882-8.579 1.762-17.145 2.643-25.888a93.961 93.961 0 0 1-24.129 0c.879 8.743 1.76 17.31 2.643 25.888-8.579-.881-17.146-1.762-25.888-2.642a93.954 93.954 0 0 1 0 24.128c8.744-.879 17.31-1.76 25.888-2.642-.882 8.579-1.763 17.145-2.643 25.888a93.961 93.961 0 0 1 24.129 0c-.879-8.743-1.761-17.31-2.643-25.888 8.579.881 17.145 1.762 25.888 2.642a94.044 94.044 0 0 1 0-24.128z"/></g></g></svg>