<svg width="512" height="336" xmlns="http://www.w3.org/2000/svg">
  <g fill-rule="nonzero" fill="none">
    <path d="M473.654 335.724H38.345C17.167 335.724 0 318.556 0 297.379V38.621C0 17.444 17.167.276 38.345.276h435.309c21.177 0 38.345 17.167 38.345 38.345v258.758c0 21.177-17.168 38.345-38.345 38.345z" fill="#FFE15A"/>
    <path d="M473.654.276c21.177 0 38.345 17.167 38.345 38.345v258.758c0 11.789-5.32 22.335-13.69 29.369L13.873 9.098A38.189 38.189 0 0138.345.277h435.309z" fill="#3CA100"/>
    <path fill="#E6000D" d="M256 196.068l-42.32 30.181 15.626-49.575-41.782-30.923 51.978-.459L256 96l16.498 49.292 51.978.459-41.782 30.923 15.627 49.575z"/>
  </g>
</svg>