<svg width="512" height="336" xmlns="http://www.w3.org/2000/svg"><g fill="none" fill-rule="evenodd"><path d="M473.654 335.724H38.345C17.167 335.724 0 318.556 0 297.379V38.621C0 17.444 17.167.276 38.345.276h435.309c21.177 0 38.345 17.167 38.345 38.345v258.758c0 21.177-17.168 38.345-38.345 38.345z" fill="#F5F5F5"/><path fill="#E6000D" d="M512 132.69H291.31V.276h-70.621V132.69H0v70.62h220.689v132.414h70.621V203.31H512z"/><g fill="#FFE15A"><path d="M361.93 194.483v-52.966l-13.241 13.242H163.31l-13.241-13.242v52.966l13.241-13.242h185.379z"/><path d="M229.517 273.931h52.965l-13.241-13.242V75.311l13.241-13.242h-52.965l13.241 13.242v185.378z"/></g></g></svg>