<svg width="512" height="336" xmlns="http://www.w3.org/2000/svg"><g fill="none" fill-rule="evenodd"><path d="M473.655.276H38.345C17.167.276 0 17.443 0 38.621v73.471h512V38.621C512 17.443 494.833.276 473.655.276z" fill="#E6000D"/><path d="M0 297.379c0 21.177 17.167 38.345 38.345 38.345h435.31c21.177 0 38.345-17.167 38.345-38.345v-73.471H0v73.471z" fill="#3CA100"/><path fill="#FFE15A" d="M0 112.09h512V223.9H0z"/><path d="M259.722 125.909l9.213 27.623 29.118.226c3.769.03 5.333 4.84 2.301 7.08l-23.424 17.298 8.783 27.763c1.137 3.594-2.955 6.568-6.023 4.375L256 193.34l-23.69 16.932c-3.066 2.193-7.159-.781-6.023-4.375l8.783-27.763-23.424-17.298c-3.032-2.239-1.47-7.05 2.301-7.08l29.118-.226 9.213-27.623c1.193-3.575 6.251-3.575 7.444.002z" fill="#464655"/></g></svg>