<svg width="512" height="336" xmlns="http://www.w3.org/2000/svg"><g fill="none" fill-rule="evenodd"><path d="M473.655 335.724H38.345C17.167 335.724 0 318.557 0 297.379V38.621C0 17.444 17.167.276 38.345.276h435.31C494.832.276 512 17.443 512 38.621V297.38c0 21.177-17.167 38.344-38.345 38.344z" fill="#F5F5F5"/><g fill="#E6000D"><path d="M0 297.379c0 21.177 17.167 38.345 38.345 38.345h435.31c21.165 0 38.324-17.148 38.344-38.307v-76.451H0v76.413zM353.102 123.862v-17.655h-17.655V62.069h8.828V44.414h-52.966v17.655h8.828v44.138h-26.483V44.414h8.828V26.759h-52.966v17.655h8.828v61.793h-26.483V62.069h8.828V44.414h-52.966v17.655h8.828v44.138h-17.656v17.655h8.828v70.621h-8.828v17.655h194.207v-17.655h-8.827v-70.621z"/></g><g fill="#464655"><path d="M273.654 203.31h-35.31V168c0-9.751 7.904-17.655 17.655-17.655 9.751 0 17.655 7.904 17.655 17.655v35.31zM255.999 79.724a8.829 8.829 0 0 0-8.828 8.828v26.483h17.655V88.552a8.827 8.827 0 0 0-8.827-8.828zM317.792 88.552a8.829 8.829 0 0 0-8.828 8.828v17.655h17.655V97.38a8.826 8.826 0 0 0-8.827-8.828zM194.206 88.552a8.829 8.829 0 0 0-8.828 8.828v17.655h17.655V97.38a8.827 8.827 0 0 0-8.827-8.828zM326.62 203.31h-35.31v-26.483c0-9.751 7.904-17.655 17.655-17.655 9.751 0 17.655 7.904 17.655 17.655v26.483zM220.689 203.31h-35.31v-26.483c0-9.751 7.904-17.655 17.655-17.655 9.751 0 17.655 7.904 17.655 17.655v26.483z"/></g><path d="M280.275 234.207a4.414 4.414 0 0 0-1.965-3.672l-17.897-11.932v-3.737l15.215-7.608a4.413 4.413 0 0 0 1.974-5.922 4.41 4.41 0 0 0-5.922-1.974l-15.681 7.84-15.681-7.84a4.412 4.412 0 0 0-5.922 1.974 4.413 4.413 0 0 0 1.974 5.922l15.215 7.608v3.737l-17.897 11.932a4.415 4.415 0 0 0 0 7.344l17.897 11.932v37.362H233.93v6.759a4.411 4.411 0 0 0 4.414 4.414 4.413 4.413 0 0 0 3.901-2.345h9.341v8.828h-9.418a4.41 4.41 0 0 0-3.823-2.207 4.411 4.411 0 0 0-4.414 4.414v6.621h17.655v4.414a4.411 4.411 0 0 0 4.414 4.414 4.411 4.411 0 0 0 4.414-4.414v-68.259l17.897-11.932a4.42 4.42 0 0 0 1.964-3.673zm-24.276 7.935l-11.905-7.935 11.905-7.935 11.905 7.935-11.905 7.935z" fill="#FFE15A" fill-rule="nonzero"/></g></svg>