<svg width="512" height="336" xmlns="http://www.w3.org/2000/svg"><g fill="none" fill-rule="evenodd"><path d="M473.885.279H38.115C17.045.403 0 17.517 0 38.617v129.385h512V38.617c0-21.1-17.045-38.214-38.115-38.338z" fill="#F5F5F5"/><g fill="#E6000D"><path d="M0 297.376c0 21.177 17.167 38.345 38.345 38.345h435.31c21.177 0 38.345-17.167 38.345-38.345V168.003H0v129.373z"/><path d="M176.552 53.245c-63.38 0-114.759 51.38-114.759 114.759H291.31c0-63.381-51.378-114.759-114.758-114.759z"/></g><path d="M176.552 282.762c63.38 0 114.759-51.38 114.759-114.759H61.793c0 63.379 51.38 114.759 114.759 114.759z" fill="#F5F5F5"/></g></svg>