<svg width="512" height="336" xmlns="http://www.w3.org/2000/svg">
  <g fill-rule="nonzero" fill="none">
    <path d="M473.7 335.7H38.3A38.3 38.3 0 010 297.4V38.6A38.3 38.3 0 0138.3.3h435.4A38.3 38.3 0 01512 38.6v258.8a38.3 38.3 0 01-38.3 38.3z" fill="#464655"/>
    <path d="M473.7.3A38.3 38.3 0 01512 38.6V112H0V38.6A38.3 38.3 0 0138.3.3h435.4z" fill="#3741CF"/>
    <path d="M320 263.2l.4.2c4.5 2 17.4 8.9 28.2 14.4l5.3 2.7c14.3 7.2 46.8 21.9 55.3 25.8l-2.3 3.4v.2l-.4-.1c-4.4-1.7-18.5-8.8-32.7-16.1l-11-5.7c-16.6-8.5-38.8-19-43.8-22.3l-.3-.2h-.2c-3.3-2.4-2.8-4.2 1.4-2.3zm3.1-3.8l.6.2c4.8 2 19.3 8.7 30.7 13.8l3.5 1.5c14.8 6.5 48 19.4 56.6 23l-1.7 2.9-.4.7h-.4c-5-1.7-23-9.7-39.3-17l-4.8-2.2c-17.4-7.8-40.8-17.4-45.7-20.3l-.2-.1c-3.6-2.2-3.3-4.1 1.1-2.5zm3-4h.3c4.6 1.7 19.3 8 30.9 12.6l4.5 1.8c15.2 6 48.3 17.6 56.9 20.8l-1.5 2.7-.5 1-.5-.1c-4.7-1.4-18.8-7-33.2-13l-11.5-4.6c-17.8-7.2-41.9-16.1-46.5-18.8l-.4-.2c-3.3-2-2.9-3.7 1.4-2.2zm3-3.3l.5.2c4.8 1.4 19.2 6.6 30.9 10.6l4.1 1.5c15 5 49.9 15.2 58.8 18l-.7 1.6-1.1 2.3-.5-.1c-5.5-1.3-24.2-7.8-41-13.7l-5-1.7c-18-6.3-41.7-13.6-46.8-16l-.2-.2c-3.8-1.8-3.6-3.7 1-2.5zm3.1-.3c-3.8-1.6-3.8-3.5.6-2.6h.2c4.4 1 20.9 6 33.4 9.6l3.7 1c15.7 4.4 49.8 12.5 58.7 14.8l-1.4 3.3-.2.6h-.3c-4.5-.8-18.7-4.8-33.5-9.1l-14-4.1c-18.4-5.3-42.4-11.4-47.2-13.5zm4-6.5l.5.1c4.7 1 19 4.8 30.6 7.7l5.3 1.3c15.4 3.8 51 10.9 60.2 12.9l-1.2 3.1-.3.9h-.4c-5.2-.8-23.9-5.4-41.2-9.8l-5.6-1.5c-18.2-4.6-42.7-9.9-48.4-12h-.3l-.2-.2-.4-.1c-3.3-1.5-3-3.2 1.3-2.4zm-242.3-120l3.9 5.2 3.2 4.3 1.5 2c7.8 10.1 14 17 15.5 17 .7 0-.8-2.6-3.3-5.9a49.1 49.1 0 01-7.2-12.8l-.5-1.6c-2.1-6.3-1.2-5 7.7 7.8l.6.8c9.4 13.5 22.5 29 24.5 29 .8 0-2.3-4.6-7.2-10a63.5 63.5 0 01-11-16.4l-.5-1.6c-2.7-8-2.2-9.4 1.2-3.2l.3.7c3.6 6.6 14.5 21.5 21.8 29.6l.4.3 2.7 3 .4.2a12 12 0 012.5-.6 67.4 67.4 0 01-11.9-17v-.2c.1-1.3 1.2-.3 6.4 6.7l2.3 3.2c2.3 3 4 5.7 4.5 7.1 3.3-.3 8.2-.3 14.3 0a12 12 0 01-3.4-3.3l-.4-.5a85.2 85.2 0 01-9.3-18c0-.7 1.8 1 4 3.7l1.2 1.4c2.4 3.1 6.4 7.8 9.5 11l1.6 1.9c2.2 2.5 3.1 3.7 3.1 4.3l4.4.4 1 .1h.5c-3.5-2-11.7-16.9-13.8-25.2-.6-2.5-.3-4 .8-4 .9 0 1.6 1.1 1.7 2.7v.2c0 3.2 8.4 19.7 12.3 24.2l.2.3.2.1 2.6 2 .4.3.7.1c4.3.7 4.9 1.4 2.3 1.8a56 56 0 006.8 3.3l1.3.5c3.6 1.5 4 2 1.7 1.9-2.1 0-6.2-1.2-9.6-2.7l-.3-.2c-1.7-.7-3.1-1.6-4.2-2.5h-4c1.5.8 3 1.4 4.6 2l.6.1c7.4 2.8 9.8 5.1 4.3 4.8-7.8-.7-13.7-3.3-16-7h-1l-3.3-.3h-1.2l.4.3c1.1 1.3 3.8 3 5.8 4.1l1.3.8a77.4 77.4 0 014.5 2l.6.3 1.2 1 .5.3c1.2.8 2 1.5 2 1.9 0 .6-3.3 0-7.8-1.3-2 .4-4.3 1.1-6.3 2 2.8 1.3 5.8 2.6 9 3.8l1.3.5c6.4 2.5 8.6 4 7 4.6-1.7.7-11-3.1-19.8-7.7l-.4.4-.7.5c1 .4 2 1 2.8 1.7a25 25 0 006.4 4.4l.5.2c1.8.5 3.1 1.1 3.4 1.6 1.4 2.2-14.3 2-18.4-.1a9 9 0 00-.7-.4l-.4.1c-1.1.2-2.5.4-4 .4a25.5 25.5 0 00-7 7.8l.7-.2 2.3-.6c12.1-3.4 16.6-3.8 17.8-1.9.5.8-2 1.9-5.8 2.4-5.9 1-11.4 2-16 3.2-.3 1-.5 2-.6 3.2 4-3 9.3-3.4 17.5-2 2 .4 4.4 1.1 6.8 2l.5-.2c5.7-1.6 12.6-2.3 12.6-1 0 .3-3.6 1.8-8.4 3.3l.5.3c2.2 1.2 3.6 2.4 3.2 3-.1.2-3.5-.6-8-1.8-11 3.7-14.6 7.2-16.6 16.1v.4l-1.6 7-.2-7.5c-.1-8.3 3.1-13 12.9-17.6-9-2.4-14-2.2-19.1 1.5v1.3l.1.4.7 7.1-2.5-7-.1-.4-1.3 1.2-.5.4-5.2 5 4-6.3 2.3-3c-.4-1.5-.5-3-.3-4.5l-1 .2a29.6 29.6 0 00-10.6 4.6c-1.5 1.5-3 5.3-3 8l-.2 1.7c0 3-.2 2.7-1.3-.5-2.9-9.1-1-11.7 16.6-16.7.9-3 2.9-5.9 6.1-9.2a23.7 23.7 0 01-4.6-1l-2.4 1.3a73 73 0 01-12.5 4 32 32 0 00-11.2 4.4c-1.7 1.4-2.8 1.6-2.8.7 0-2.2 2.2-3.6 12.5-7.7l.8-.3c4.4-1.5 9.8-2.9 12.2-3.1h1.1l-3.8-1.4-3.3-.3-1.6-.2c-13.7-1.2-19.5.8-21.5 7.3l-.1.6c-.5 1.4-1.2 2.5-1.6 2-.5-.5-.2-2.7.6-5l.3-.7c.8-2.1 1.2-4.2 1-4.5-1.3-1.2-14.1 2.5-15.4 4.5-.8 1.3-1.4 1.4-1.4.4 0-2.8 3.5-5.1 10-6.7h.3c4.6-1.1 13.6-1.7 23-1.7-4.8-2.2-9.8-4.7-14.3-7.2l-1.7-.2c-3.1-.3-5.8-.5-7.9-.5h-.3c-8.8 0-11.2 1.2-12.6 6.8l-.4 1.4c-.4 1.9-.5 1.5-.6-1.2v-.3c-.2-5.8 2.3-7.3 15.4-8.9l2.6-.3a80 80 0 01-9-6.1l-1.1-.2-.4-.1-4.7-.8 3.6-1.2-.9-.8c-2.6-2.4-3.5-3.5-1.7-2.5l4.3 2.8 1-.3 1.5-.5a26 26 0 016.3-1.3v-.2l-.7-.2c-13.2-4.1-27.2-8-37.5-9.9l-2.1-.4c-1.9-.3-1.2-.4 2.3-.6 3.8-.2 17 2.8 31.4 6.6l-.7-.3c-3-1.3-5.6-2.7-6.6-3.7a53.2 53.2 0 00-10.3-6l-1.7-.9a28 28 0 01-6-3.2v-.2c.1-.8.8-.7 7 1.4l3 1.1 4.2 1.7a17.3 17.3 0 01-3.3-3 53.3 53.3 0 00-9-7.7l-1.6-1.1a28 28 0 01-5.3-4.2v-.2c.3-.9 1-.6 9.1 4l.8.5c7.5 4.3 23.5 17.3 23.6 19l1.2.7c4.4 2.6 7.7 4.8 7.3 5.3l2.8.8 6.7 2c-.4-1.1.3-1 2.3.7l1.5.4c9.6 3 17 5.7 18.3 7a118 118 0 0016 11.1l2.8-1.2-1-.6c-4.1-2.2-7.8-4.4-10.2-6.3-2.6-2-4.8-4.5-5.1-5.8l-.3-.1-3.2-.5a31 31 0 01-11.5-4.8c-11-8.2-30.6-29.4-35.4-38.6l-.8-1.5c-2.2-4-3-6-1.6-4.4zm76.2 96.5h1.1c2 0 1.7.4-1.4 2.5a31.8 31.8 0 00-6.4 7.2l-.6 1c-1.9 3-2.6 3.3-2.6 1.4 0-1.7 1.4-4.8 3.1-7.3l.2-.2c1.9-2.7 4.7-4.6 6.6-4.6zm-8.6-30l-1.8 1.3 1.7.4 4.2 1-.7-.4c-1.4-.9-2.6-1.7-3.4-2.4zm-11.7-3.2l5.7 3.2 2-1.2-3.7-1a2435.3 2435.3 0 01-4-1zm-15.6-3l.3.1 8.1 4.8c1.7 0 3.4.2 5 .3a109 109 0 00-7.6-4.3l-5.8-1zm-15-2.3l.6.4c3.7 2 6.1 3 6.9 2.7.4-.1-.5-1-2.1-2.3l-5.5-.8zm32.3-5.6c1 1.8 6.3 5.2 13.2 8.6 1.1-.8 2.4-1.5 3.8-2.1l-1.2-.4c-5.4-1.8-11.2-3.9-14.6-5.5l-1.2-.6zm-18.8-.5l.4.3 8.3 5.8 1.5-.1c1-.9-3.2-3.1-10.2-6zm-9.9-3.7l-.7.2-.5.2h-.6l-3.2.8 2.4 1.6 3.2 2.3c1.2 0 2 .2 2.1.4.8.5 3.6 1.4 6.7 2.3l-.8-.6c-1.9-1.5-3.4-3-4.4-4l-.9-1.2-.9-1.1-1.6-.6-.8-.3zm-9.5 2h-.4l-1.4.3h-.9l-1.6.3-1.7.3 1.6 1 3 1.8 5.1-.4a57 57 0 01-3.7-3.3zm41.1.6l1 .3c2.6.8 5.2 1.5 6.9 1.8l-.5-.3a7 7 0 01-1.8-1.7l-.1-.2h-5.5zm-57.7-11l.7.3c2.7.8 1.7 1.1-4.3 1.3h-1.7c-6.8.2-7.6 1-13.8 8.7l-.9 1c-1.6 2-1.4 1.4-.6-2.5.4-2.7 2.5-6 4.3-7.4 3.5-2.7 9.9-3.2 16.3-1.3zm13 6.3h-.1a15 15 0 00-4.2 1.3c-.6.4-1.5.6-2.6.7l1 .6c0 .1.2.3.4.3l1.3.9.6.4 1.3-1c.8-.6 2-1.1 3.6-1.5l-.6-.7-.5-.7-.2-.3zm31.8-23.6l10.6 12.5.8 1c5.5 6.7 8 10.9 6.8 11.3-2.4.8-8.2-6-14-16.5l-1.2-2.1c-2-3.8-3.4-6.5-3-6.2zm-28.2 22.5l.4.1c1 .6.8.7-.9.8l2 1.3h5.1l-6.6-2.2zM87 134.7c2.5 1 39 34.8 38.3 35.6-.2.3-5.5-2.9-12-7.2l-2-1.4A65.6 65.6 0 0192 144.2l-1.1-1.6c-3.3-4.7-5-8.2-4.1-8z" fill="#3CA100"/>
    <path d="M264.2 298.8l5 3.6c7.3 5 11.3 12 11 19.3l-.4 6 2.4-6a30.7 30.7 0 00-.8-22.3l-1.8-4 5.7 2.4c8.1 3.5 13.5 9.5 14.6 16.7l1 5.9 1-6.3c1.4-6.5-1-15.6-5.4-21.7l-2.6-3.6 6.1 1.3c8.7 1.6 15.2 6.4 17.8 13.2l2.1 5.6-.2-6.4c-.1-6.7-4.2-15-9.8-20.1l-3.3-3h6.2c8.8-.2 16.2 3.2 20.1 9.3l3.3 5-1.5-6.2a30.7 30.7 0 00-13.8-17.6l-3.9-2.2 6.1-1.4c8.6-2 16.5-.3 21.6 4.9l4.3 4.2-2.8-5.7c-2.9-6-10-12-17.2-14.4l-4.2-1.4 5.6-2.5c8-3.8 16.1-3.7 22.2.2l5 3.3-3.9-5c-4-5.4-12.3-9.7-19.8-10.5l-4.4-.5 5-3.7c7-5.3 15-7 21.7-4.3l5.6 2-4.8-4c-5-4.4-14-7-21.6-6.1l-4.3.4 4-4.6c5.9-6.7 13.2-10 20.4-8.8l6 .9-5.7-3a30.6 30.6 0 00-22.3-1.5l-4.2 1.4 3-5.5c4.3-7.7 10.9-12.4 18.1-12.8l6-.3-6.1-1.8c-6.4-2-15.6-.6-22.2 3.2l-3.8 2.2 1.9-6c2.5-8.4 8-14.3 15-16.2l5.7-1.6-6.3-.4a30.6 30.6 0 00-21 7.7l-3.3 3 .6-6.3c.8-8.8 4.8-15.7 11.3-19l5.3-2.8-6.3.9c-6.6.8-14.5 5.8-19 12l-2.5 3.5-.7-6.2c-1.1-8.8 1.4-16.4 7-21l4.7-3.8-6 2.2c-6.3 2.2-13 8.7-16 15.6l-1.8 4-2-5.9c-2.9-8.3-2-16.3 2.6-22l3.7-4.7-5.4 3.4a30.7 30.7 0 00-12.4 18.6l-1 4.3-3.1-5.3c-4.6-7.6-5.4-15.6-2-22l2.6-5.5-4.5 4.5a30.7 30.7 0 00-8.4 20.8v4.4l-4.2-4.6c-6-6.5-8.4-14.2-6.6-21.2l1.5-5.8-3.5 5.3a30.7 30.7 0 00-3.8 22l.9 4.4-5-3.6c-7.3-5-11.3-12-11-19.3l.4-6-2.4 5.9a30.7 30.7 0 00.8 22.4l1.8 4-5.7-2.5c-8.1-3.4-13.5-9.4-14.6-16.6l-1-6-1 6.3c-1.3 6.6 1 15.6 5.4 21.8l2.6 3.5-6.1-1.2c-8.7-1.7-15.2-6.5-17.8-13.2l-2.1-5.6.2 6.3c.1 6.7 4.2 15 9.8 20.2l3.3 3h-6.2c-8.8.1-16.2-3.2-20.1-9.3l-3.3-5 1.5 6.2a30.7 30.7 0 0013.9 17.6l3.8 2.2-6 1.3c-8.7 2-16.6.3-21.7-4.8l-4.2-4.2 2.7 5.7c2.9 6 10 12 17.2 14.4l4.2 1.3-5.6 2.6c-8 3.7-16.1 3.7-22.2-.3l-5-3.2 3.9 5c4 5.3 12.3 9.7 19.8 10.5l4.4.4-5 3.7c-7 5.4-15 7-21.7 4.4l-5.6-2.1 4.8 4c5 4.4 14 7 21.6 6.2l4.3-.5-4 4.7c-5.9 6.7-13.2 10-20.4 8.8l-6-1 5.7 3a30.6 30.6 0 0022.3 1.6l4.2-1.4-3 5.4c-4.3 7.7-10.9 12.5-18.1 12.8l-6 .4 6.1 1.7c6.4 2 15.6.6 22.2-3.1l3.8-2.2-1.9 5.9c-2.5 8.4-8 14.4-15 16.3l-5.7 1.6 6.3.4c6.6.6 15.4-2.6 21-7.7l3.3-3-.6 6.2c-.8 8.8-4.8 15.8-11.3 19l-5.3 2.8 6.3-.8c6.6-.9 14.5-5.8 19-12l2.5-3.5.7 6.1c1.1 8.8-1.4 16.5-7 21l-4.7 3.8 6-2.1c6.3-2.2 13-8.7 16-15.6l1.8-4 2 5.8c2.9 8.4 2 16.4-2.6 22l-3.7 4.7 5.4-3.4c5.7-3.4 10.9-11.2 12.4-18.6l1-4.3 3.1 5.4c4.6 7.5 5.4 15.6 2 22l-2.6 5.4 4.5-4.4a30.7 30.7 0 008.4-20.8v-4.4l4.2 4.6c6 6.4 8.4 14.1 6.6 21.1l-1.5 5.8 3.5-5.3a30.7 30.7 0 003.8-22l-.9-4.4M248.7 12c-6.2 10.3-7 18.4-2.7 32.5 2 6.5 4.2 16.3 5.2 21.6 1.2 7.5 1 8.2 1.3 9.9h6.7c.2-2.6.4-5.6 1-9.7a177 177 0 014.6-21.9c4.1-14 3.8-22.5-2.6-32.2-2.3-3.6-5.4-6.5-6.8-6.5-1.4 0-4.6 2.7-6.7 6.4zM279 40.9c-8.8 3.7-14 14.1-16.9 28.4-.5 2.7-.6 3.6-.9 6.7h4.5c.4-2 .7-3.1 1.6-6 3.5-11.2 13.9-15.7 13.4-5.2a9.2 9.2 0 01-2.7 6c1.6-.4 5.2-2 8-3.7 16.2-9.7 9.8-33.4-7-26.2zM243.3 79.6h25l.1-1.9h-25l-.1 2zM245.4 87.9c-2.6 2.7-6.6 4.8-6.6 4.8s3.6.4 6.8.1c3.3-.2 5.1-.6 7-1.6-.5 4-.5 7.7-.5 7.7.5 5 1 6.3 2.1 8.8 1.5 2 2.3 2 3.4-.1 1.2-2.4 2-5 2.2-8.7 0-2.8-.2-4.1-.9-7.6 2.3 1 3.7 1.2 7 1.5 3.6.3 6.7.2 6.7.2s-4.6-2.4-6.7-5.2c-2-2.9-1.6-2.4-3-6H249c-1.6 3.3-1.8 4-3.7 6zM232.5 40.9c8.8 3.7 14 14.1 16.9 28.4.5 2.7.6 3.6.9 6.7h-4.5c-.4-2-.7-3.1-1.6-6-3.5-11.2-13.9-15.7-13.4-5.2a9.2 9.2 0 002.7 6c-1.6-.4-5.2-2-8-3.7-16.2-9.7-9.8-33.4 7-26.2zM92.8 12c-6.2 10.3-6.9 18.4-2.7 32.5 2 6.5 4.3 16.3 5.2 21.6 1.3 7.5 1.1 8.2 1.3 9.9h6.7l1-9.7a177 177 0 014.6-21.9c4.2-14 3.9-22.5-2.5-32.2-2.4-3.6-5.5-6.5-6.9-6.5-1.4 0-4.6 2.7-6.7 6.4zM123.1 41c-8.7 3.7-14 14.1-16.8 28.4-.6 2.7-.7 3.6-1 6.7h4.5c.4-2 .7-3.1 1.6-6 3.5-11.2 14-15.7 13.4-5.2a9.2 9.2 0 01-2.7 6c1.7-.4 5.2-2 8.1-3.7 16.1-9.7 9.8-33.4-7-26.2zM87.4 79.6h25.1v-1.9h-25v2zm2.1 8.3C87 90.6 83 92.7 83 92.7s3.5.4 6.8.1c3.2-.2 5-.6 7-1.6-.5 4-.6 7.7-.6 7.7.5 5 1 6.3 2.1 8.8 1.5 2 2.4 2 3.5-.1 1.1-2.4 2-5 2.2-8.7-.1-2.8-.3-4.1-1-7.6 2.3 1 3.7 1.2 7.1 1.5 3.5.3 6.7.2 6.7.2s-4.7-2.4-6.8-5.2c-2-2.9-1.6-2.4-3-6H93.2c-1.6 3.3-1.8 4-3.7 6zm-12.8-47c8.7 3.7 14 14.1 16.8 28.4.5 2.7.7 3.6 1 6.7H90c-.4-2-.7-3.1-1.6-6-3.5-11.2-14-15.7-13.5-5.2a9.2 9.2 0 002.8 6c-1.7-.4-5.3-2-8.2-3.7-16-9.7-9.7-33.4 7.2-26.2zM404.5 12c-6.1 10.3-6.9 18.4-2.7 32.5 2 6.5 4.3 16.3 5.2 21.6 1.3 7.5 1.2 8.2 1.3 9.9h6.8c.2-2.6.4-5.6 1-9.7a177 177 0 014.6-21.9c4-14 3.8-22.5-2.6-32.2-2.3-3.6-5.5-6.5-6.9-6.5-1.4 0-4.5 2.7-6.7 6.4zM434.8 41c-8.7 3.7-14 14.1-16.8 28.4-.5 2.7-.7 3.6-1 6.7h4.5c.4-2 .7-3.1 1.6-6 3.5-11.2 14-15.7 13.5-5.2a9.2 9.2 0 01-2.8 6c1.7-.4 5.3-2 8.2-3.7 16-9.7 9.7-33.4-7.2-26.2zm-35.7 38.7h25.1v-1.9h-25v2zm2.1 8.3c-2.5 2.7-6.5 4.8-6.5 4.8s3.5.4 6.8.1c3.3-.2 5-.6 7-1.6-.5 4-.5 7.7-.5 7.7.4 5 1 6.3 2 8.8 1.6 2 2.4 2 3.5-.1 1.2-2.4 2-5 2.2-8.7 0-2.8-.3-4.1-1-7.6 2.3 1 3.8 1.2 7.2 1.5 3.4.3 6.6.2 6.6.2s-4.7-2.4-6.7-5.2c-2-2.9-1.6-2.4-3.1-6h-13.8c-1.6 3.3-1.7 4-3.7 6zm-12.8-47c8.7 3.7 14 14.1 16.8 28.4.6 2.7.7 3.6 1 6.7h-4.5c-.4-2-.7-3.1-1.6-6-3.5-11.2-14-15.7-13.4-5.2a9.2 9.2 0 002.7 6c-1.7-.4-5.2-2-8.1-3.7-16.1-9.7-9.8-33.4 7-26.2z" fill="#FFE15A"/>
  </g>
</svg>