<svg width="512" height="336" xmlns="http://www.w3.org/2000/svg"><g fill="none" fill-rule="evenodd"><path d="M473.885.279H38.115C17.045.403 0 17.517 0 38.617v129.385h512V38.617c0-21.1-17.045-38.214-38.115-38.338z" fill="#FFE15A"/><path d="M0 297.376c0 21.177 17.167 38.345 38.345 38.345h435.31c21.177 0 38.345-17.167 38.345-38.345V168.003H0v129.373z" fill="#3CA100"/><path d="M38.345 335.721h129.379V.279H38.115C17.045.403 0 17.517 0 38.617v258.759c0 21.177 17.167 38.345 38.345 38.345z" fill="#E6000D"/><path d="M82.197 123.962l-9.731 29.18-30.759.238c-1.686.013-2.386 2.165-1.028 3.167l24.744 18.272-9.278 29.326c-.509 1.608 1.322 2.937 2.694 1.958l25.024-17.887 25.024 17.887c1.372.981 3.202-.35 2.694-1.958l-9.278-29.326 24.744-18.272c1.356-1.002.658-3.154-1.028-3.167l-30.759-.238-9.731-29.18c-.536-1.6-2.798-1.6-3.332 0z" fill="#464655"/></g></svg>