<svg width="512" height="336" xmlns="http://www.w3.org/2000/svg"><g fill="none" fill-rule="evenodd"><g fill="#4173CD"><path d="M473.655.276H38.345C17.167.276 0 17.443 0 38.621v73.471h512V38.621C512 17.443 494.833.276 473.655.276zM0 297.379c0 21.177 17.167 38.345 38.345 38.345h435.31c21.177 0 38.345-17.167 38.345-38.345v-73.471H0v73.471z"/></g><path fill="#F5F5F5" d="M0 112.09h512V223.9H0z"/><g fill="#4173CD"><path d="M257.277 153.579l3.159 9.473 9.985.077c1.293.01 1.828 1.66.789 2.428l-8.033 5.932 3.012 9.521c.389 1.233-1.013 2.252-2.066 1.501L256 176.703l-8.124 5.806c-1.052.751-2.455-.268-2.066-1.501l3.012-9.521-8.033-5.932c-1.039-.768-.504-2.418.789-2.428l9.985-.077 3.159-9.473c.411-1.225 2.145-1.225 2.555.002zM167.104 179.002l3.159 9.473 9.985.077c1.293.01 1.828 1.66.789 2.428l-8.033 5.932 3.012 9.521c.39 1.233-1.013 2.252-2.066 1.501l-8.124-5.806-8.124 5.806c-1.052.751-2.455-.268-2.066-1.501l3.012-9.521-8.033-5.932c-1.041-.768-.504-2.418.789-2.428l9.985-.077 3.159-9.473c.412-1.227 2.147-1.227 2.556 0zM167.104 128.156l3.159 9.473 9.985.077c1.293.01 1.828 1.66.789 2.428l-8.033 5.932 3.012 9.521c.39 1.233-1.013 2.252-2.066 1.501l-8.124-5.806-8.124 5.806c-1.052.751-2.455-.268-2.066-1.501l3.012-9.521-8.033-5.932c-1.041-.768-.504-2.418.789-2.428l9.985-.077 3.159-9.473c.412-1.227 2.147-1.227 2.556 0zM347.448 179.002l3.159 9.473 9.985.077c1.293.01 1.828 1.66.789 2.428l-8.033 5.932 3.012 9.521c.389 1.233-1.013 2.252-2.066 1.501l-8.124-5.806-8.124 5.806c-1.052.751-2.455-.268-2.066-1.501l3.012-9.521-8.033-5.932c-1.041-.768-.504-2.418.789-2.428l9.985-.077 3.159-9.473c.413-1.227 2.148-1.227 2.556 0zM347.448 128.156l3.159 9.473 9.985.077c1.293.01 1.828 1.66.789 2.428l-8.033 5.932 3.012 9.521c.389 1.233-1.013 2.252-2.066 1.501l-8.124-5.806-8.124 5.806c-1.052.751-2.455-.268-2.066-1.501l3.012-9.521-8.033-5.932c-1.041-.768-.504-2.418.789-2.428l9.985-.077 3.159-9.473c.413-1.227 2.148-1.227 2.556 0z"/></g></g></svg>