<svg width="512" height="336" xmlns="http://www.w3.org/2000/svg"><g fill="none" fill-rule="evenodd"><path d="M0 297.38c0 21.176 17.167 38.345 38.345 38.345h435.311c21.165 0 38.324-17.148 38.344-38.307v-73.509H0v73.471z" fill="#3741CF"/><path d="M473.656.275H38.345C17.167.275 0 17.443 0 38.62v73.471h512V38.582C511.98 17.424 494.821.275 473.656.275z" fill="#E6000D"/><path fill="#F5F5F5" d="M0 112.089h512v111.81H0z"/><g fill="#E6000D"><path d="M194.21 115.029h24.717v28.25H194.21zM243.64 115.029h24.717v28.25H243.64zM218.93 143.279h24.717v28.25H218.93zM293.08 115.029h24.717v28.25H293.08zM268.36 143.279h24.717v28.25H268.36z"/></g><g fill="#F5F5F5"><path d="M218.93 115.029h24.717v28.25H218.93zM268.36 115.029h24.717v28.25H268.36zM194.21 143.279h24.717v28.25H194.21zM243.64 143.279h24.717v28.25H243.64zM293.08 143.279h24.717v28.25H293.08z"/></g><g fill="#E6000D"><path d="M243.64 171.529h24.717v28.25H243.64zM218.93 199.779h24.717v28.25H218.93zM268.36 199.779h24.717v28.25H268.36z"/></g><g fill="#F5F5F5"><path d="M218.93 171.529h24.717v28.25H218.93zM268.36 171.529h24.717v28.25H268.36zM243.64 199.779h24.717v28.25H243.64z"/></g><g fill="#E6000D"><path d="M317.793 115.035v79.448c0 34.128-27.666 61.793-61.793 61.793-34.127 0-61.793-27.666-61.793-61.793v-79.448h123.586zm4.413-4.415H189.792v83.862c0 36.507 29.7 66.207 66.207 66.207 36.507 0 66.207-29.701 66.207-66.207V110.62z" fill-rule="nonzero"/><path d="M218.924 199.779V171.53h-24.717v22.953c0 1.789.118 3.546.267 5.297l24.45-.001z"/></g><g fill="#F5F5F5"><path d="M317.526 199.779h-24.45v28.248h14.774a61.375 61.375 0 0 0 9.676-28.248zM204.149 228.028h14.774V199.78h-24.45a61.383 61.383 0 0 0 9.676 28.248z"/></g><g fill="#E6000D"><path d="M293.075 199.779h24.45c.149-1.749.267-3.508.267-5.297V171.53h-24.717v28.249zM218.924 243.833v-15.805H204.15c3.957 6.105 8.972 11.439 14.774 15.805zM307.849 228.028h-14.774v15.806c5.801-4.367 10.815-9.701 14.774-15.806z"/></g><g fill="#F5F5F5"><path d="M218.924 243.833c7.195 5.415 15.567 9.345 24.717 11.202v-27.007h-24.717v15.805zM268.358 255.034c9.15-1.857 17.523-5.788 24.717-11.202v-15.805h-24.717v27.007z"/></g><path d="M268.358 228.028h-24.717v27.008A62.043 62.043 0 0 0 256 256.277c4.233 0 8.365-.43 12.359-1.241v-27.008h-.001z" fill="#E6000D"/><g fill="#4173CD"><path d="M211.27 68.29a180.927 180.927 0 0 0-16.489-1.779 189.969 189.969 0 0 0-12.398 11.15l11.823 28.545a161.574 161.574 0 0 1 24.247-7.867L211.27 68.29zM271.002 63.604a184.805 184.805 0 0 0-15.003-6.765 185.653 185.653 0 0 0-15.003 6.765l2.41 30.803a161.163 161.163 0 0 1 25.186 0l2.41-30.803zM329.616 77.661a190.81 190.81 0 0 0-12.398-11.15c-5.609.346-11.111.947-16.489 1.779l-7.184 30.049a161.46 161.46 0 0 1 24.247 7.867l11.824-28.545z"/></g><g fill="#3741CF"><path d="M240.996 63.604a183.1 183.1 0 0 0-15.894-4.346 187.354 187.354 0 0 0-13.832 9.033l7.183 30.049a161.442 161.442 0 0 1 24.952-3.933l-2.409-30.803zM300.729 68.29a187.453 187.453 0 0 0-13.832-9.033 183.718 183.718 0 0 0-15.894 4.346l-2.41 30.803a161.322 161.322 0 0 1 24.952 3.933l7.184-30.049z"/></g><g fill="#E6000D"><path d="M241.96 75.925a179.702 179.702 0 0 0-27.817 4.385l-1.437-6.011a186.473 186.473 0 0 1 28.771-4.535l.483 6.161zM242.925 88.245a167.663 167.663 0 0 0-25.907 4.084l-1.437-6.009a173.602 173.602 0 0 1 26.862-4.234c.159 2.051.321 4.107.482 6.159z"/></g><path d="M285.326 90.32a167.55 167.55 0 0 0-6.482-1.022c-3.562-.492-6.215-3.516-5.906-6.915.308-3.398 3.713-5.863 7.59-5.327 2.325.32 4.646.685 6.959 1.097 3.859.682 6.357 4.082 5.604 7.406-.75 3.332-4.218 5.386-7.765 4.761z" fill="#FFE15A"/><path d="M320.157 100.497a167.924 167.924 0 0 0-25.175-8.168l1.437-6.009a173.739 173.739 0 0 1 26.103 8.468l-2.365 5.709z" fill="#E6000D"/><g fill="#FFE15A"><path d="M317.952 81.958c-.873 2.407-3.817 3.552-6.599 2.647-2.781-.906-4.483-3.55-3.779-6.012.704-2.462 3.686-3.765 6.636-2.806 2.953.957 4.616 3.764 3.742 6.171zM204.424 78.594c.703 2.464-1 5.109-3.779 6.012-2.781.9-5.725-.245-6.599-2.647-.874-2.408.79-5.214 3.742-6.171 2.95-.956 5.934.346 6.636 2.806zM254.589 74.548c.006 2.047-1.834 3.714-4.114 3.784-2.279.073-4.222-1.481-4.342-3.52-.119-2.04 1.719-3.806 4.111-3.883 2.393-.075 4.336 1.572 4.345 3.619zM265.865 74.811c-.121 2.044-2.065 3.593-4.342 3.52-2.279-.07-4.119-1.737-4.114-3.784.009-2.045 1.953-3.697 4.344-3.619 2.393.073 4.229 1.842 4.112 3.883zM260.007 84.079c-.057 2.047-1.85 3.657-4.008 3.657-2.156-.001-3.949-1.609-4.008-3.657-.056-2.041 1.737-3.755 4.008-3.75 2.271-.005 4.064 1.707 4.008 3.75z"/></g></g></svg>