<svg xmlns="http://www.w3.org/2000/svg" width="512" height="336">
  <g fill="none" fill-rule="nonzero">
    <path fill="#F5F5F5" d="M38.3 335.7h435.4a38.3 38.3 0 0 0 38.3-38.3V38.6A38.3 38.3 0 0 0 473.7.3H38.3A38.3 38.3 0 0 0 0 38.6v258.8a38.3 38.3 0 0 0 38.3 38.3z"/>
    <g fill="#3741CF">
      <path d="M512 265.1c-25.6 0-25.6-8.8-51.3-8.8-25.6 0-25.6 8.8-51.2 8.8s-25.6-8.8-51.2-8.8-25.6 8.8-51.2 8.8-25.6-8.8-51.2-8.8-25.6 8.8-51.2 8.8-25.6-8.8-51.2-8.8-25.6 8.8-51.2 8.8-25.6-8.8-51.2-8.8c-25.5 0-25.5 8.8-51.1 8.8v-26.5c25.6 0 25.6-8.8 51.1-8.8 25.6 0 25.6 8.8 51.2 8.8s25.6-8.8 51.2-8.8 25.6 8.8 51.2 8.8 25.6-8.8 51.2-8.8 25.6 8.8 51.2 8.8 25.6-8.8 51.2-8.8 25.6 8.8 51.2 8.8 25.6-8.8 51.2-8.8c25.7 0 25.7 8.8 51.3 8.8v26.5zM512 159.2c-25.6 0-25.6-8.9-51.3-8.9-25.6 0-25.6 8.9-51.2 8.9s-25.6-8.9-51.2-8.9-25.6 8.9-51.2 8.9-25.6-8.9-51.2-8.9-25.6 8.9-51.2 8.9-25.6-8.9-51.2-8.9-25.6 8.9-51.2 8.9-25.6-8.9-51.2-8.9c-25.5 0-25.5 8.9-51.1 8.9v-26.5c25.6 0 25.6-8.8 51.1-8.8 25.6 0 25.6 8.8 51.2 8.8s25.6-8.8 51.2-8.8 25.6 8.8 51.2 8.8 25.6-8.8 51.2-8.8 25.6 8.8 51.2 8.8 25.6-8.8 51.2-8.8 25.6 8.8 51.2 8.8 25.6-8.8 51.2-8.8c25.7 0 25.7 8.8 51.3 8.8v26.5zM512 106.2c-25.6 0-25.6-8.8-51.3-8.8-25.6 0-25.6 8.8-51.2 8.8s-25.6-8.8-51.2-8.8-25.6 8.8-51.2 8.8-25.6-8.8-51.2-8.8-25.6 8.8-51.2 8.8-25.6-8.8-51.2-8.8-25.6 8.8-51.2 8.8-25.6-8.8-51.2-8.8c-25.5 0-25.5 8.8-51.1 8.8V79.7c25.6 0 25.6-8.8 51.1-8.8 25.6 0 25.6 8.8 51.2 8.8S128 71 153.5 71s25.6 8.8 51.2 8.8 25.6-8.8 51.2-8.8 25.6 8.8 51.2 8.8 25.6-8.8 51.2-8.8 25.6 8.8 51.2 8.8S435 71 460.7 71c25.7 0 25.7 8.8 51.3 8.8v26.5zM512 212.1c-25.6 0-25.6-8.8-51.3-8.8-25.6 0-25.6 8.8-51.2 8.8s-25.6-8.8-51.2-8.8-25.6 8.8-51.2 8.8-25.6-8.8-51.2-8.8-25.6 8.8-51.2 8.8-25.6-8.8-51.2-8.8-25.6 8.8-51.2 8.8-25.6-8.8-51.2-8.8c-25.5 0-25.5 8.8-51.1 8.8v-26.4c25.6 0 25.6-8.9 51.1-8.9 25.6 0 25.6 8.9 51.2 8.9s25.6-8.9 51.2-8.9 25.6 8.9 51.2 8.9 25.6-8.9 51.2-8.9 25.6 8.9 51.2 8.9 25.6-8.9 51.2-8.9 25.6 8.9 51.2 8.9 25.6-8.9 51.2-8.9c25.7 0 25.7 8.9 51.3 8.9V212zM0 38.5c0-4.1.7-8 2-11.8C25.6 26.3 26.2 18 51 18c25.6 0 25.6 8.9 51.2 8.9s25.6-8.9 51.2-8.9 25.6 8.9 51.2 8.9 25.6-8.9 51.2-8.9 25.6 8.9 51.2 8.9 25.6-8.9 51.2-8.9 25.6 8.9 51.2 8.9 25.6-8.9 51.2-8.9c25 0 25.7 8.4 49.3 8.8 1.3 3.9 2 8 2 12.3v14.2c-25.6 0-25.6-8.8-51.3-8.8-25.6 0-25.6 8.8-51.2 8.8s-25.6-8.8-51.2-8.8-25.6 8.8-51.2 8.8-25.6-8.8-51.2-8.8-25.6 8.8-51.2 8.8-25.6-8.8-51.2-8.8-25.6 8.8-51.2 8.8-25.6-8.8-51.2-8.8c-25.5 0-25.5 8.8-51.1 8.8V38.5zM506 317.9c-19.8-1.3-21.8-8.7-45.3-8.7-25.6 0-25.6 8.9-51.2 8.9s-25.6-8.9-51.2-8.9-25.6 8.9-51.2 8.9-25.6-8.9-51.2-8.9-25.6 8.9-51.2 8.9-25.6-8.9-51.2-8.9-25.6 8.9-51.2 8.9-25.6-8.9-51.2-8.9c-23.3 0-25.3 7.4-45 8.7-3.8-6-6-13-6.1-20.4v-6c25.6 0 25.6-8.7 51.1-8.7 25.6 0 25.6 8.8 51.2 8.8s25.6-8.8 51.2-8.8 25.6 8.8 51.2 8.8 25.6-8.8 51.2-8.8 25.6 8.8 51.2 8.8 25.6-8.8 51.2-8.8 25.6 8.8 51.2 8.8 25.6-8.8 51.2-8.8c25.7 0 25.7 8.8 51.3 8.8v5.4c0 7.7-2.2 14.8-6 20.9z"/>
      <path d="M8.8 168h238.4c4.8 0 8.8-4 8.8-8.8V9c0-4.9-4-8.8-8.8-8.8H38.3A38.3 38.3 0 0 0 0 38.6v120.6c0 4.8 4 8.8 8.8 8.8z"/>
    </g>
    <path fill="#F5F5F5" d="M8.8 168h15.4l81.7-53.6V168h44.2v-53.6l81.7 53.6h15.4c4.8 0 8.8-4 8.8-8.8v-7l-70.2-46H256V62.1h-70.2L256 16v-7c0-4.9-4-8.8-8.8-8.8h-15.4l-81.7 53.5V.3h-44.2v53.5L27 2C17.5 5 9.8 11.2 5 19.5l65 42.6H0v44.1h70.2L0 152.2v7c0 4.8 4 8.8 8.8 8.8z"/>
    <g fill="#E6000D">
      <path d="M256 70.9H141.2V.3h-26.4v70.6H0v26.5h114.8V168h26.4V97.4H256z"/>
      <path d="M8.2 14.9L81 62.1H97L14.6 8.5c-2.4 1.9-4.5 4-6.4 6.4zM166.3 62l88.4-57.3a8.7 8.7 0 0 0-7.5-4.4h-2L150.2 62h16.2zM89.5 106.2L1.3 163.5a8.7 8.7 0 0 0 7.5 4.5h1.7l95.2-61.8H89.5zM255.9 159.9l-82.7-53.7H157l93.9 61c2.8-1.4 4.7-4.1 5-7.3z"/>
    </g>
    <path fill="#965032" d="M388.4 299.4a6.1 6.1 0 0 1-6.1-6.1V97.7h12.2v195.6c0 3.4-2.7 6-6 6z"/>
    <path fill="#3CA100" d="M474 122.2l-12.3-6.1-45-5.7 27.9-35.8 4.3-13-13 4.4-35.8 27.8-5.6-45-6-12.2-6.2 12.2-5.6 45L340.9 66l-13-4.3 4.3 13 27.9 35.7-45 5.7-12.2 6 12.2 6.2 45 5.6-27.9 35.8-4.3 13 13-4.4 38.9-30.2 8.6-13.7 8.7 13.7 38.8 30.2 13 4.4-4.3-13-27.9-35.8 45-5.6z"/>
    <path fill="#FFE15A" d="M415 193.3c-5.5-5.4-17.2-3.4-23.5-1.8v-5.2a3 3 0 0 0-6.1 0v5.2c-6.3-1.6-18.1-3.6-23.6 1.8-5.2 5.3-1.4 17.9 2.2 26.7v8.1a4 4 0 0 0 4 4h40.8a4 4 0 0 0 4-4V220c3.7-8.8 7.5-21.4 2.2-26.7zm-4.3 4.4c2.3 2.3-.3 12.5-4.5 22.2h-14.7v-22.1c6.8-2 16.2-3.1 19.2-.1zm-44.6 0c3-3 12.4-1.9 19.3 0V220h-14.8c-4.2-9.7-6.8-19.9-4.5-22.2z"/>
  </g>
</svg>
