<svg xmlns="http://www.w3.org/2000/svg" width="512" height="336">
  <g fill="none" fill-rule="nonzero">
    <path fill="#3CA100" d="M473.7 335.7H38.3A38.3 38.3 0 0 1 0 297.4V38.6A38.3 38.3 0 0 1 38.3.3h435.4A38.3 38.3 0 0 1 512 38.6v258.8a38.3 38.3 0 0 1-38.3 38.3z"/>
    <path fill="#FFE15A" d="M511.5 303.7L304.3 168 511.5 32.3c-3-18.2-18.8-32-37.8-32h-10L256 136.3 48.3.3h-10C19.3.3 3.5 14 .5 32.3L207.7 168 .5 303.7c3 18.2 18.8 32 37.8 32h10l207.7-136 207.7 136h10c19 0 34.7-13.8 37.8-32z"/>
    <g fill="#464655">
      <path d="M512 32v272L304.3 168zM0 304V32l207.7 136z"/>
    </g>
  </g>
</svg>
