<svg width="512" height="336" xmlns="http://www.w3.org/2000/svg"><g fill="none" fill-rule="evenodd"><path d="M473.655.276H38.345a38.165 38.165 0 0 0-23.767 8.266l191.171 103.55H512V38.621C512 17.443 494.833.276 473.655.276z" fill="#464655"/><path d="M14.578 327.458a38.167 38.167 0 0 0 23.767 8.266h435.31c21.177 0 38.345-17.167 38.345-38.345v-73.471H205.75L14.578 327.458z" fill="#3CA100"/><path d="M302.368 164.427c2.838 1.537 2.838 5.61 0 7.147l-96.619 52.334H512V112.092H205.749l96.619 52.335z" fill="#F5F5F5"/><path d="M302.368 171.574c2.838-1.537 2.838-5.61 0-7.147l-96.619-52.334L14.578 8.542C5.702 15.565 0 26.423 0 38.621V297.379c0 12.198 5.702 23.057 14.578 30.079l191.171-103.55 96.619-52.334z" fill="#E6000D"/><path d="M95.399 145.164l5.247 11.381 12.169-2.994a.917.917 0 0 1 1.038 1.302l-5.626 11.198 9.928 7.648a.916.916 0 0 1-.371 1.623l-12.263 2.583.211 12.53a.917.917 0 0 1-1.5.723l-9.665-7.977-9.665 7.977a.917.917 0 0 1-1.5-.723l.211-12.53-12.263-2.583a.916.916 0 0 1-.371-1.623l9.928-7.648-5.626-11.198a.917.917 0 0 1 1.038-1.302l12.169 2.994 5.247-11.381c.326-.71 1.336-.71 1.664 0z" fill="#F5F5F5"/></g></svg>