<svg width="512" height="336" xmlns="http://www.w3.org/2000/svg"><g fill="none" fill-rule="evenodd"><path d="M473.654 335.724H38.345C17.167 335.724 0 318.557 0 297.379V38.621C0 17.444 17.167.276 38.345.276h435.309c21.177 0 38.345 17.167 38.345 38.345v258.758c0 21.178-17.168 38.345-38.345 38.345z" fill="#3741CF"/><path fill="#E6000D" d="M0 79.721h512v176.55H0z"/><path fill="#F5F5F5" d="M372.816 234.933v-12.516h-4.172v-8.344h-4.173v-8.344h-4.172v-8.344h-12.516v-25.031h-.001l4.173-4.173v-12.516h-4.172v-8.343h-4.172v-12.517h-4.171v-8.344h-4.172v-8.344h-4.172v-4.171h-8.345v4.171h-4.172v8.344h-4.172v8.344h-4.171v12.517h-4.172v8.343h-25.033V143.15h-4.171v-12.517h-4.172v-12.516h-4.172v-8.343h-4.172v-8.344h-4.172v-4.173h-2.086v-4.172h-4.172v4.172h-2.087v4.173h-4.171v8.344h-4.172v8.343h-4.172v12.516h-4.172v12.517h-4.172v12.515h-25.032v-8.343h-4.172v-12.517h-4.172v-8.344h-4.172v-8.344h-4.172v-4.171h-8.344v4.171h-4.172v8.344h-4.172v8.344h-4.172v12.517h-4.172v8.343h-4.172v12.516l4.17 4.173h.002v25.031h-12.515v8.344h-4.172v8.344h-4.173v8.344h-4.172v12.516h-4.172v12.516h241.975v-12.516z"/></g></svg>