<svg width="512" height="336" xmlns="http://www.w3.org/2000/svg"><g fill="none" fill-rule="evenodd"><path d="M473.651.257H38.292C17.807.257 1.077 16.317 0 36.534v47.595h512V38.607c0-21.18-17.169-38.35-38.349-38.35z" fill="#FFE15A"/><path fill="#F5F5F5" d="M0 84.119h512v83.87H0z"/><path fill="#E6000D" d="M0 167.999h512v83.87H0z"/><path d="M0 299.466c1.077 20.215 17.807 36.277 38.292 36.277h435.359c21.18 0 38.349-17.169 38.349-38.349v-45.522H0v47.594z" fill="#4173CD"/><path d="M250.668 164.486L13.669 9.213C5.775 15.833.584 25.57 0 36.534v262.933c.584 10.964 5.775 20.701 13.669 27.321l236.999-155.275c2.53-1.659 2.53-5.368 0-7.027z" fill="#3CA100"/><g fill="#F5F5F5"><path d="M48.839 168c0-31.923 20.867-58.934 49.695-68.237 1.515-.489 1.304-2.702-.275-2.908a69.859 69.859 0 0 0-9.065-.598c-39.623 0-71.743 32.121-71.743 71.743 0 39.622 32.121 71.743 71.743 71.743 3.075 0 6.097-.21 9.065-.598 1.579-.207 1.79-2.419.275-2.908-28.828-9.303-49.695-36.314-49.695-68.237z"/><path d="M98.901 113.202l1.975 5.922 6.242.049c.808.007 1.143 1.037.493 1.517l-5.021 3.708 1.883 5.952c.244.77-.633 1.408-1.291.938l-5.079-3.63-5.079 3.63c-.658.47-1.535-.168-1.291-.938l1.883-5.952-5.021-3.708c-.65-.48-.315-1.512.493-1.517l6.242-.049 1.975-5.922c.255-.767 1.34-.767 1.596 0zM98.901 143.212l1.975 5.922 6.242.049c.808.007 1.143 1.037.493 1.517l-5.021 3.708 1.883 5.952c.244.77-.633 1.408-1.291.938l-5.079-3.63-5.079 3.63c-.658.47-1.535-.168-1.291-.938l1.883-5.952-5.021-3.708c-.65-.48-.315-1.512.493-1.517l6.242-.049 1.975-5.922c.255-.767 1.34-.767 1.596 0zM98.901 173.221l1.975 5.922 6.242.049c.808.007 1.143 1.037.493 1.517l-5.021 3.708 1.883 5.952c.244.77-.633 1.408-1.291.938l-5.079-3.63-5.079 3.63c-.658.47-1.535-.168-1.291-.938l1.883-5.952-5.021-3.708c-.65-.48-.315-1.512.493-1.517l6.242-.049 1.975-5.922c.255-.767 1.34-.767 1.596 0zM98.901 203.229l1.975 5.922 6.242.049c.808.007 1.143 1.037.493 1.517l-5.021 3.708 1.883 5.952c.244.77-.633 1.408-1.291.938l-5.079-3.63-5.079 3.63c-.658.47-1.535-.168-1.291-.938l1.883-5.952-5.021-3.708c-.65-.48-.315-1.512.493-1.517l6.242-.049 1.975-5.922c.255-.765 1.34-.765 1.596 0z"/></g></g></svg>