<svg width="512" height="336" xmlns="http://www.w3.org/2000/svg"><g fill="none" fill-rule="evenodd"><path d="M473.655 335.724H38.345C17.167 335.724 0 318.557 0 297.379V38.621C0 17.444 17.167.276 38.345.276h435.31C494.832.276 512 17.443 512 38.621V297.38c0 21.177-17.167 38.344-38.345 38.344z" fill="#3CA100"/><g fill="#FFE15A"><path d="M0 246.022v26.384L415.356.276h-40.271zM136.914 335.724L512 89.977V63.594L96.644 335.724z"/></g><path d="M473.655.276h-58.3L0 272.406v24.973c0 21.177 17.167 38.345 38.345 38.345h58.3L512 63.594V38.621C512 17.443 494.833.276 473.655.276z" fill="#464655"/><g fill="#F5F5F5"><path d="M156.019 187.898l18.119 14.59 19.67-12.419c2.547-1.608 5.675.951 4.602 3.766l-8.277 21.74 17.89 14.869c2.316 1.926.849 5.691-2.159 5.542l-23.234-1.154-8.614 21.61c-1.116 2.797-5.15 2.567-5.938-.341l-6.082-22.454-23.213-1.514c-3.006-.196-4.032-4.105-1.511-5.752l19.475-12.724-5.734-22.546c-.741-2.917 2.66-5.101 5.006-3.213zM323.007 78.29l18.119 14.59 19.67-12.42c2.547-1.608 5.675.951 4.602 3.766l-8.277 21.74 17.89 14.869c2.316 1.926.85 5.69-2.159 5.542l-23.234-1.154-8.613 21.61c-1.116 2.797-5.15 2.566-5.938-.341l-6.082-22.454-23.213-1.514c-3.006-.196-4.032-4.105-1.511-5.752l19.475-12.724-5.734-22.546c-.741-2.918 2.659-5.101 5.005-3.212z"/></g><path d="M512.001 89.977L136.914 335.724h336.742c21.177 0 38.345-17.167 38.345-38.345V89.977z" fill="#E6000D"/></g></svg>