<svg width="512" height="336" xmlns="http://www.w3.org/2000/svg"><g fill="none" fill-rule="evenodd"><g fill="#3741CF"><path d="M0 297.379c0 21.177 17.167 38.345 38.345 38.345h435.31c21.177 0 38.345-17.167 38.345-38.345v-5.793H0v5.793zM473.655.276H38.345C17.167.276 0 17.443 0 38.621v5.793h512v-5.793C512 17.443 494.833.276 473.655.276z"/></g><g fill="#F5F5F5"><path d="M0 44.41h512v17.655H0zM0 273.93h512v17.655H0z"/></g><path fill="#E6000D" d="M0 62.07h512v211.86H0z"/><circle fill="#F5F5F5" cx="141.24" cy="168" r="70.62"/><path d="M143.122 103.705l14.167 42.478 44.777.348c1.905.014 2.695 2.445 1.162 3.577l-36.021 26.6 13.506 42.692c.575 1.816-1.493 3.318-3.042 2.211l-36.429-26.039-36.429 26.038c-1.549 1.108-3.617-.395-3.042-2.211l13.507-42.692-36.021-26.6c-1.533-1.131-.743-3.562 1.162-3.577l44.777-.348 14.167-42.478c.601-1.806 3.156-1.806 3.759.001z" fill="#E6000D"/></g></svg>