<svg width="512" height="336" xmlns="http://www.w3.org/2000/svg">
  <g fill-rule="nonzero" fill="none">
    <path d="M473.885.543H38.115C17.045.667 0 17.781 0 38.881v73.478h512V38.881c0-21.1-17.045-38.214-38.115-38.338z" fill="#3CA100"/>
    <path d="M0 297.64c0 21.177 17.168 38.345 38.346 38.345h435.31c21.176 0 38.344-17.167 38.344-38.345v-73.465H0v73.465z" fill="#E6000D"/>
    <path fill="#F5F5F5" d="M0 112.364h512v111.81H0z"/>
    <path d="M12.832 326.257l128.41-101.931-.003-112.12L12.825 10.271C4.959 17.294 0 27.507 0 38.881V297.64c0 11.379 4.96 21.594 12.83 28.617z" fill="#464655"/>
  </g>
</svg>