<svg width="512" height="336" xmlns="http://www.w3.org/2000/svg"><g fill="none" fill-rule="evenodd"><path d="M473.655.277H38.345C19.859.277 4.431 13.361.808 30.772h510.386C507.57 13.36 492.141.277 473.655.277z" fill="#E6000D"/><path d="M.808 30.772A38.447 38.447 0 0 0 0 38.622v22.645h512V38.622c0-2.69-.28-5.315-.808-7.85H.808z" fill="#F5F5F5"/><path fill="#E6000D" d="M0 61.26h512v30.495H0z"/><path fill="#F5F5F5" d="M0 91.76h512v30.495H0z"/><path fill="#E6000D" d="M0 141.518h8.826l.002 11.236H512v-30.496H0z"/><path fill="#F5F5F5" d="M8.826 141.518H0v41.729h512v-30.493H8.828z"/><path fill="#E6000D" d="M0 183.25h512v30.495H0z"/><path fill="#F5F5F5" d="M0 213.74h512v30.495H0z"/><path fill="#E6000D" d="M0 244.24h512v30.495H0z"/><path d="M0 297.38c0 2.69.28 5.315.807 7.849h510.386c.527-2.535.807-5.159.807-7.849v-22.646H0v22.646z" fill="#F5F5F5"/><path d="M38.337 335.724h435.327c18.483-.003 33.908-13.086 37.529-30.495H.807c3.622 17.409 19.046 30.492 37.53 30.495z" fill="#E6000D"/><path d="M8.828 152.754h132.414a8.829 8.829 0 0 0 8.828-8.828V9.104a8.828 8.828 0 0 0-8.823-8.828H38.345C17.167.277 0 17.444 0 38.622v105.304a8.829 8.829 0 0 0 8.828 8.828z" fill="#3741CF"/><path d="M72.512 39.737l-8.428 25.27-26.638.206c-2.554.02-3.614 3.279-1.559 4.797l21.429 15.825-8.035 25.398c-.77 2.435 2.003 4.45 4.081 2.965l21.674-15.489 21.672 15.49c2.078 1.485 4.851-.53 4.081-2.965l-8.035-25.398 21.429-15.825c2.055-1.517.995-4.778-1.559-4.797l-26.638-.206-8.428-25.27c-.81-2.424-4.237-2.424-5.046-.001z" fill="#F5F5F5"/></g></svg>