<svg width="512" height="336" xmlns="http://www.w3.org/2000/svg">
  <g fill="none" fill-rule="evenodd">
    <path d="M13.7 9.51A38.26 38.26 0 000 38.9v258.75c0 11.8 5.33 22.34 13.7 29.37L256 168.26 13.7 9.52z" fill="#F5F5F5" fill-rule="nonzero"/>
    <path d="M111.5 136.94l.06-1.97s-1.06-1.7.17-3.51c0 0-2.62-1.39-2-3.56 0 0-2.37-.6-2.2-3.2 0 0-2.55-.18-2.82-2.36 0 0-2.56.42-3.68-1.7 0 0-2.5.5-3.2-1.26 0 0-2.42.84-3.86-1.21 0 0-2.55 1.03-3.63-.9-1.05 1.93-3.61.9-3.61.9-1.42 2.04-3.86 1.2-3.86 1.2-.68 1.75-3.17 1.25-3.17 1.25-1.12 2.12-3.67 1.7-3.67 1.7-.25 2.17-2.8 2.35-2.8 2.35.2 2.6-2.16 3.2-2.16 3.2.62 2.17-2 3.55-2 3.55 1.27 1.83.22 3.5.22 3.5l-.06 1.83 42.29.2" fill="#FF0" fill-rule="nonzero"/>
    <path d="M111.5 136.94l.06-1.97s-1.06-1.7.17-3.51c0 0-2.62-1.39-2-3.56 0 0-2.37-.6-2.2-3.2 0 0-2.55-.18-2.82-2.36 0 0-2.56.42-3.68-1.7 0 0-2.5.49-3.2-1.26 0 0-2.42.84-3.85-1.21 0 0-2.56 1.03-3.64-.9-1.05 1.93-3.61.9-3.61.9-1.42 2.05-3.86 1.2-3.86 1.2-.68 1.75-3.17 1.25-3.17 1.25-1.12 2.12-3.67 1.7-3.67 1.7-.25 2.17-2.8 2.35-2.8 2.35.2 2.6-2.16 3.2-2.16 3.2.62 2.17-2 3.55-2 3.55 1.27 1.83.22 3.5.22 3.5l-.06 1.83 42.29.2h-.01 0z" stroke="#000" stroke-width=".5" fill="#F9D90F" fill-rule="nonzero"/>
    <path d="M110.52 134.47c-6.64-.66-14.29-2.24-20.2 1.09-3.95-2.34-9.46-2.2-14.15-1.74-2.55.46-5.55.46-8.21.9l-.42.05c-4.83.33-9.21-1.1-13.41-2.98 1.33 7.57 2.81 15.32 3.54 23.24 1.58 11.74-5.55 21.59-2.63 33.18 1.75 5.56 7.87 8.79 13.46 9.43 5.42.32 11.03 1.2 16.05 2.3.95.2 2.08.64 2.74.92a9.84 9.84 0 013.28 2.34c3.03-3.16 7.47-4.03 11.85-4.5 7.89-.92 17.62-.42 22.45-7.56v-.4c2.63-3.96 2.28-10 1.14-14.47-.08-1.57-.5-2.94-.72-4.43-4.82-12.73-.7-27.05 1.38-39.89-2.53 1.39-5.36 2.04-8.18 2.74-2.25.3-4.75.16-7.03.04l-.94-.26" fill="#DC171D" fill-rule="nonzero"/>
    <path d="M120.44 171.01c-.03.84.42 1.5.59 2.27.92 5.57 1.81 12.94-3.92 16.4-6.34 4.02-14.65 2.3-21.99 4.43-1.46.4-3.48 1.75-4.51 2.7-.66-.43-1.33-1.1-2.18-1.49-6.04-3.2-13.88-2.13-20.7-3.86-3.42-1.09-6.98-3.75-7.85-7.25-2.23-9.2 3.1-17.02 2.48-26.14-.41-6.96-1.58-13.64-3.19-20.17 5.33 2.49 11.5 2.9 17.48 1.7 4.43-.61 9.6-.62 13.75 1.25 2.3-.98 4.97-1.43 7.44-1.7 4.7.46 9.74 1.3 14.57 1.27 3.23-.16 6.16-1.1 8.96-2.34-1.66 10.79-4.86 22.08-.93 32.93" fill="#62AFE1" fill-rule="nonzero"/>
    <path fill="#FFF" fill-rule="nonzero" d="M110.86 173.16l-.05-10.14h1.25l-15.5-10.01-.03-5.2h1.5l-7.76-5.56-7.71 5.55h1.49l.03 5.2-15.42 10h1.23l.05 10.14 40.92.03"/>
    <path stroke="#000" stroke-width="1.17" d="M110.86 173.16l-.05-10.14h1.25l-15.5-10.01-.03-5.2h1.5l-7.76-5.56-7.71 5.55h1.49l.03 5.2-15.42 10h1.23l.05 10.14 40.92.03h0z"/>
    <path fill="#FFF" fill-rule="nonzero" d="M115.63 186.49v3.17l-49.95-.06-.02-3.16 49.97.05"/>
    <path stroke="#000" stroke-width="1.17" d="M115.63 186.49v3.17l-49.95-.06-.02-3.16 49.97.05h0z"/>
    <path fill="#FFF" fill-rule="nonzero" d="M69 186.3l-.04-10.75h2.02l-.11 10.87.12-10.78-2.91-.09v-2.3l44.64.05.02 2.28h-2.75l.05 10.88-.1-10.88h2.05l.04 10.76"/>
    <path d="M69 186.3l-.04-10.75h2.02l-.11 10.87.12-10.78-2.91-.09v-2.3l44.64.05.02 2.28h-2.76l.06 10.88-.1-10.88h2.05l.04 10.75m-33.43-2.68l-.04-7.5h-6l.04 7.5h6m0 0l-.04-7.5h-6l.04 7.5h6m0 0l-.04-7.5h-6l.04 7.5h6m0 0l-.04-7.5h-6l.04 7.5h6m0 0l-.04-7.5h-6l.04 7.5h6m-4.4-5.93l.02 4.35h2.74l-.01-4.35H74.2m33.7 5.95l-.04-7.48-5.97-.01.03 7.49h5.98m-4.4-5.92l.03 4.33h2.74l-.02-4.33h-2.75m4.35-6.28l-.03-7.49h-5.99l.03 7.5h6-.01zm-4.4-5.9l.02 4.33h2.74v-4.34h-2.75m-24.91 5.89l-.04-7.48h-5.99l.03 7.47h6zm-4.4-5.92l.02 4.34h2.74l-.02-4.34h-2.74m15.24 5.93l-.02-7.48h-6l.03 7.48h6m-4.4-5.92l.02 4.34 2.74.01-.02-4.35h-2.73m12.75 5.93l-.05-7.49h-5.98l.03 7.48 6 .01m-4.4-5.92l.02 4.35h2.74l-.01-4.35h-2.75" stroke="#000" stroke-width="1.17"/>
    <path fill="#FFF" fill-rule="nonzero" d="M99.24 169.18l.06 17.26-17.34-.03-.06-17.25 17.34.02"/>
    <path d="M99.24 169.18l.06 17.26-17.34-.02-.06-17.26 17.33.02h0zm-17.45 4.93h17.47m-17.47 0h17.47m-17.47 0h17.47m-17.47 0h17.47m-17.47 0h17.47m-15.29 12.33l-.06-12.2m13.28 12.2l-.05-12.2m8.43-12.42l-9.77-7.13-10.97-.01-9.7 7.12 30.44.02m-19.9-13.05l.02 4.35 9.23.01-.02-4.35h-9.23m0 0l.02 4.34 9.23.01-.02-4.35h-9.23" stroke="#000" stroke-width="1.17"/>
    <path stroke="#000" stroke-width="1.17" d="M85.67 148.77l.02 4.35 9.23.01-.02-4.35h-9.23"/>
    <path d="M88.17 149.85l.02 2.17h4.24l-.02-2.17h-4.24m2.1-6.03l5.14 3.63-10.24-.01 5.1-3.62m0 0l5.14 3.63-10.24-.01 5.1-3.62m0 0l5.14 3.63-10.24-.01 5.1-3.62m0 0l5.14 3.63-10.24-.01 5.1-3.62m0 0l5.14 3.63H85.17l5.1-3.63" stroke="#000" stroke-width="1.17"/>
    <path d="M111.03 141.36c1.46-.03 1.84 6.01 1.84 9 1.25.35 4.03 2.1 5.26 3.68l-14.1-.02a13.56 13.56 0 015.22-3.66c0-3 .3-9.04 1.78-9" fill="#FFF" fill-rule="nonzero"/>
    <path d="M111.03 141.36c1.46-.03 1.84 6.01 1.84 9 1.25.35 4.03 2.1 5.26 3.68l-14.1-.02a13.56 13.56 0 015.22-3.66c0-3 .3-9.04 1.78-9m-28.32 28.3h1.26l-.37.68m-.9-.68h1.27l-.37.68m-.9-.68h1.27l-.37.68m-.9-.68h1.27l-.37.68m-.9-.68h1.27l-.37.68s.61.79.01 1.68l.33.63h-1.21l.33-.6s-.63-1.04.02-1.7l-.37-.68m2.57 0h1.27l-.37.67s.61.77 0 1.68l.33.63H85.3l.33-.6s-.61-1.03.03-1.7l-.37-.68m2.8 0h1.26l-.37.67s.61.79 0 1.69l.34.63-1.2-.01.31-.6s-.61-1.03.03-1.7l-.37-.68h0zm3.18 0h1.27l-.38.69s.61.77 0 1.67l.35.63h-1.23l.33-.59s-.6-1.05.04-1.71l-.38-.69h0zm2.81 0h1.27l-.38.69s.62.77 0 1.67l.34.63H94.1l.32-.59s-.62-1.04.04-1.71l-.38-.69m2.8.01h1.27l-.37.68s.62.77.01 1.67l.32.63h-1.22l.33-.59s-.61-1.04.04-1.71l-.37-.68" stroke="#000" stroke-width="1.17"/>
    <path d="M90.65 208.58c6.5.02 14.48-1.31 18.23-3.25l8.22-.72.16 10.02c-6.96 3.84-23.04 4.67-26.58 4.64-3.54.03-19.81-.81-26.8-4.66l.09-10.04 8.23.75c3.75 1.92 11.98 3.26 18.47 3.26h-.02" fill="#F9D90F" fill-rule="nonzero"/>
    <path d="M90.65 208.58c6.5.02 14.48-1.31 18.23-3.24l8.22-.73.16 10.02c-6.96 3.84-23.04 4.67-26.57 4.64-3.55.03-19.82-.81-26.81-4.66l.09-10.04 8.23.74c3.75 1.93 11.98 3.27 18.47 3.27h-.02" stroke="#000" stroke-width=".5"/>
    <path d="M42.72 165.8l7.24 2.3-2.19 11.73-6.85 1.07s-1.16-6.17 1.8-15.1" fill="#F9D90F" fill-rule="nonzero"/>
    <path d="M42.72 165.8l7.24 2.3-2.19 11.73-6.85 1.07s-1.16-6.17 1.8-15.1h0z" stroke="#000" stroke-width=".5"/>
    <path fill="#7E7E7E" fill-rule="nonzero" d="M47.77 179.7l-6.85 1.2 4.33-6.17 2.52 4.97"/>
    <path stroke="#000" stroke-width=".5" fill="#F9B60F" fill-rule="nonzero" d="M47.77 179.7l-6.85 1.2 4.33-6.17 2.52 4.97"/>
    <path d="M38.39 174.25l6.98.5c.16 5.92.87 28.48 27.82 29.7l-.84 8.22c-32.8.34-35.3-27.68-33.96-38.42" fill="#F9D90F" fill-rule="nonzero"/>
    <path d="M38.39 174.25l6.98.5c.16 5.92.87 28.48 27.82 29.7l-.84 8.22c-32.8.34-35.3-27.68-33.96-38.42h0zm25.62 40.1l8.22-1.8m-8.22 1.8l8.22-1.8m-8.22 1.8l8.22-1.8m-8.22 1.8l8.22-1.8m-8.22 1.8l8.22-1.8" stroke="#000" stroke-width=".5"/>
    <path d="M138.01 165.89l-7.21 2.28 2.28 11.7 6.87 1.1s1.1-6.15-1.94-15.09" fill="#FF0" fill-rule="nonzero"/>
    <path d="M138.01 165.89l-7.21 2.28 2.28 11.7 6.87 1.1s1.1-6.15-1.94-15.09h0z" stroke="#000" stroke-width=".5" fill="#F9D90F" fill-rule="nonzero"/>
    <path fill="#7E7E7E" fill-rule="nonzero" d="M133.08 179.75l6.87 1.24-4.4-6.17-2.47 4.93"/>
    <path stroke="#000" stroke-width=".5" fill="#F9B60F" fill-rule="nonzero" d="M133.08 179.75l6.87 1.24-4.4-6.17-2.47 4.93"/>
    <path d="M142.42 174.34l-6.99.48c-.1 5.9-.62 28.48-27.57 29.68l.92 8.2c32.8.38 35.05-27.62 33.64-38.36" fill="#F9D90F" fill-rule="nonzero"/>
    <path d="M142.42 174.34l-6.99.48c-.1 5.9-.62 28.48-27.57 29.68l.92 8.2c32.8.38 35.05-27.62 33.64-38.36h0zm-25.27 40.05l-8.25-1.8" stroke="#000" stroke-width=".5"/>
    <path d="M86.29 213.52c-.19.12-.44.15-.72.13l-1.3-.06.1-1.63 1.3.07c.25.02.45.07.58.14.26.14.37.39.35.74-.02.3-.12.5-.31.6m-2.2 2.57l.14-1.98 1.52.1c.49.04.85-.09 1.1-.34.26-.24.39-.56.4-.93.04-.42-.07-.76-.32-1.02a1.58 1.58 0 00-1.01-.41l-2.17-.14-.3 4.67.65.04m4.72-3.9l1.59.02m-1.6-.01l1.6.01m-1.6-.01l1.6.01m-1.6-.01l1.6.01m-1.6-.01l1.6.01c.23.02.4.05.54.11.24.12.36.35.36.68 0 .32-.1.52-.27.65a1.3 1.3 0 01-.71.17l-1.53-.02.02-1.6m-.03 4.13l.01-2 1.5.03c.26 0 .45.02.59.08.22.1.33.32.34.6l.03.8.03.37c.02.06.03.12.06.16h.8l-.02-.1c-.09-.05-.16-.14-.19-.29-.03-.09-.04-.22-.05-.4l-.01-.62c-.01-.28-.06-.47-.17-.58a.84.84 0 00-.42-.3c.22-.12.39-.25.51-.42.12-.19.17-.42.17-.7 0-.54-.21-.9-.66-1.1-.24-.11-.55-.17-.9-.18l-2.25-.02-.01 4.68h.64m4.97-1a2.22 2.22 0 01-.48-1.29c-.03-.65.1-1.14.4-1.47.3-.37.68-.54 1.18-.57.51-.03.93.14 1.24.46.32.31.5.75.53 1.29.02.52-.07.98-.31 1.39-.24.41-.63.65-1.21.66-.61.03-1.06-.11-1.35-.46m-.77-2.95c-.3.47-.42 1-.39 1.65.05.7.26 1.28.67 1.71a2.3 2.3 0 001.79.62 2.22 2.22 0 001.79-.89c.33-.5.48-1.07.45-1.79a2.52 2.52 0 00-.57-1.54c-.44-.52-1.08-.75-1.94-.71-.82.05-1.41.35-1.8.95m21.99-6.72c.44-.08.83-.06 1.19.06.52.17.87.55 1.1 1.15l-.65.09a1.21 1.21 0 00-.6-.67 1.78 1.78 0 00-.97-.08c-.42.05-.8.28-1.04.63-.24.38-.32.88-.2 1.52.08.53.28.98.6 1.28.3.3.73.41 1.3.33.42-.07.76-.24 1-.53.25-.28.33-.7.24-1.24l-1.5.23-.08-.52 2.1-.32.4 2.48-.41.06-.26-.57a2.4 2.4 0 01-.5.57c-.26.2-.6.33-1.04.4a2.16 2.16 0 01-1.55-.32 2.54 2.54 0 01-.97-1.73 2.56 2.56 0 01.34-1.94c.34-.5.83-.8 1.5-.9m4.72-.35l1.5-.54c.2-.08.38-.1.53-.08.28.02.48.18.6.5.1.29.1.53-.02.7-.13.18-.33.3-.62.42l-1.41.5-.58-1.5m1.5 3.87l-.74-1.88 1.4-.5c.26-.08.44-.13.58-.11.24.03.43.18.56.46l.31.72c.07.18.13.28.17.33.02.07.07.1.1.15l.76-.28-.04-.1c-.11 0-.22-.07-.3-.19l-.2-.36-.24-.58a1.17 1.17 0 00-.36-.5 1.2 1.2 0 00-.5-.14c.15-.18.27-.36.3-.57.05-.2.03-.44-.07-.7-.2-.5-.54-.78-1.04-.81-.26-.02-.56.03-.9.15l-2.1.75 1.7 4.4.61-.23m5.47-2.33l-2.67-3.9 2.93-1.86.33.47-2.4 1.53.82 1.2 2.21-1.43.3.45-2.21 1.43.9 1.31 2.45-1.56.32.46-2.98 1.9m2.34-6.88l.76-.84c.36-.38.73-.55 1.14-.5.41.03.83.25 1.28.64a2.3 2.3 0 01.72 1.05c.07.28.05.53-.05.78-.05.12-.16.26-.32.43l-.76.84-2.77-2.4m4.04 1.83c.55-.6.67-1.25.35-1.97-.2-.43-.5-.8-.86-1.11-.49-.44-1-.66-1.54-.7-.6-.05-1.1.17-1.55.65l-1.3 1.4 3.6 3.14 1.3-1.4m2.8-3.64l-4.15-2.44.34-.53 4.15 2.42-.35.55m1.63-2.83l-4.48-1.79 1.32-3.15.55.21-1.08 2.6 1.35.53 1-2.4.52.22-1 2.38 1.51.62 1.1-2.63.55.2-1.34 3.21m2.05-5.5l-4.7-1.03.15-.73 4.35-1.47-3.82-.84.14-.57 4.7 1.01-.14.7-4.36 1.5 3.82.83-.13.6m-.38-5.97l.06-.59c.27 0 .5-.03.67-.13.35-.18.54-.53.6-1.05a1.8 1.8 0 00-.05-.66c-.1-.39-.32-.6-.67-.64-.26-.03-.45.03-.58.18-.13.16-.26.4-.35.73l-.22.62c-.14.4-.27.68-.4.83-.23.3-.54.4-.94.37a1.4 1.4 0 01-1.03-.54c-.25-.3-.35-.73-.3-1.26.05-.48.21-.9.5-1.22.26-.3.67-.44 1.2-.38l-.05.59c-.26 0-.46.04-.61.15-.28.15-.42.46-.47.93-.04.38.01.64.16.83.15.17.33.27.55.29.23.02.4-.05.53-.23.1-.12.2-.39.35-.82l.2-.64c.11-.3.24-.53.38-.7.27-.27.6-.38 1.03-.35.53.05.9.27 1.1.67.18.4.25.84.2 1.34a1.93 1.93 0 01-.58 1.31c-.34.3-.76.41-1.28.37m-97.56-.28l.1.58c-.25.05-.46.16-.62.3-.27.25-.37.64-.27 1.16.04.22.12.44.22.62.21.35.48.5.83.44.25-.05.42-.14.5-.32.07-.18.13-.45.15-.8l.03-.66c.02-.4.07-.73.16-.9.14-.32.4-.52.8-.59.4-.08.82.02 1.14.27.32.22.54.61.62 1.14.1.47.05.9-.13 1.29-.19.37-.53.6-1.07.7l-.1-.59c.25-.1.43-.18.55-.3.21-.23.28-.57.2-1.03-.07-.38-.2-.62-.4-.75a.75.75 0 00-.58-.16.54.54 0 00-.46.37c-.05.14-.08.43-.11.87l-.04.68c-.01.32-.06.59-.17.77-.17.34-.46.54-.88.6-.53.1-.94-.02-1.24-.37-.3-.33-.48-.73-.58-1.23-.1-.59-.02-1.05.21-1.42.24-.38.62-.6 1.14-.67m-.3 6.16l4.6-1.38 1.08 3.24-.56.18-.88-2.67-1.4.43.81 2.46-.53.17-.8-2.47-1.57.46.9 2.73-.56.15-1.09-3.3m2.04 5.62l4.24-2.24.45.79-2.91 3.07 4.25-.72.44.78-4.23 2.23-.3-.52 2.5-1.31.43-.24.64-.32-4.23.72-.3-.55 2.88-3.07-.14.07-.46.25c-.15.1-.3.18-.46.25l-2.5 1.33-.3-.52m7.9 6.24a1.27 1.27 0 01-.64-.39l-.89-.92 1.2-1.1.9.92c.18.17.3.33.35.48.08.27 0 .52-.25.76-.23.21-.46.3-.68.25m-3.4.43l1.48-1.36 1.04 1.06c.34.35.69.5 1.05.5.36-.02.7-.17.96-.42.32-.28.47-.61.47-.96 0-.34-.16-.66-.45-.96l-1.5-1.54-3.51 3.22.45.46m4.23 3.75l2.54-3.97 3 1.82-.31.47-2.47-1.47-.76 1.2 2.27 1.38-.3.45-2.27-1.37-.86 1.35 2.5 1.5-.3.47-3.04-1.83m7.51-.77l1.53.49c.21.07.37.15.47.24.2.19.25.45.14.77-.1.28-.24.46-.46.54-.2.03-.45.03-.74-.06l-1.44-.46.5-1.51m-1.31 3.9l.63-1.9 1.42.47c.25.07.44.16.53.25.17.16.23.4.14.68l-.21.75-.1.37.01.16.75.24.05-.1c-.08-.07-.13-.18-.12-.32.01-.1.04-.23.09-.39l.18-.6c.07-.27.1-.47.03-.61a.95.95 0 00-.3-.42c.23-.04.44-.11.61-.24.17-.14.3-.34.39-.62.17-.5.07-.93-.3-1.25a2.56 2.56 0 00-.81-.44l-2.13-.66-1.49 4.44.62.2" fill="#012A87" fill-rule="nonzero"/>
    <path d="M64.7 128.17c.55-1.33 5.65-4.94 22.37-3.36 0 0 2.83 1.72 4.49 1.5.94-.12-.56.06-1.8-.96-1.26-1.03-1.52-3.14 1.35-3.08 2.87.07 13.6.68 13.8 1.64.18.98-5.67 1.38-7.85 1.33-2.2-.06-1.94 1.05.24.96 6.8-.24 14.24-2.64 22.09 2.91.94.68-2.37.78-4.92-.3 0 0-6.93.36-9.92-.13 0 0-2.3 1.87-5.3 1.68.4.97-1.1 4.6-10.53 1.87-1.55.48-7.22 1.43-6.6-.25-1.5 0-4.12.48-4.5-.37-.38-.84 4.6-2.1 5.48-3 0 0-10.55.1-12.55-.63 0 0-6.22 1.4-5.85.18" fill="#BC715F" fill-rule="nonzero"/>
    <path d="M68.08 142.93c.23-.3.32-.85.8-.84 1.04.28 1.75 2.19 3.04.95.45-.1.63.52 1 .6.24 1.05 1.1-.22 1.73-.15a8.05 8.05 0 014.66-.45c.05 1.04-.77 2.19-1.8 2.78.03 1.05.98 1.72.96 2.77-.16.4-.02 1.02-.62 1.14-.75-.13-1.5-.21-2.13-.63-.07-.08-.14-.23-.3-.18-.07.35.48.7.7 1.06-.39.65-1.02.06-1.55.06-.15.38 0 .85-.39 1.09-.66-.03-.8-.75-1.21-1.11-.42.45.3.72.4 1.08-.26 1.38-.23 2.72-1.6 3.61l-.92.46c-.25-.69-.1-1.73-.26-2.45-.54.88-.97 1.65-1.76 2.4-.94-.3-1.48-1.4-1.68-2.32a2.9 2.9 0 01.67-3.1c-.29-.56-1.27-.43-1.4-1.22-1.47-.95-2.28 1.67-3.23.3a4.3 4.3 0 01.98-3.8c-.2-.52-.88-.39-1.29-.69-.92-.78-2.25-1.6-2.18-3.02a7 7 0 017.37 1.66" fill="#008830" fill-rule="nonzero"/>
    <path d="M69.39 142.79c-.06 1.15.78.31 1.4 1.01-.49-.19-.84.84-1.32.25l-.3.29c.18.4.51.45.16.88-.52.2-.62-.45-.87-.71-.04-.12.08-.33-.1-.4-.3.24-.61.33-1.02.3-.11-.23-.33-.52-.11-.7.4-.53 1.02.2 1.32-.18.05-.33-.24-.74.14-.97.26.04.6-.1.7.23m3.12.95c.03.22-.11.53.18.69.38-.2.78-.05 1 .33 0 .2.06.46-.2.56l-.6-.11c.05-.12-.14-.19-.22-.3-.26-.08-.41.13-.6.26.14.22.48.35.4.63-.35.35-.52-.3-.9-.14-.26-.1.1-.64-.32-.8-.49 0-.16.8-.79.48-.22-.25-.44-.58-.2-.87a.8.8 0 01.93.1c.38-.42.42-2.04 1.32-.83m-3.89 1.67c.26.37-.05.87.27 1.27.51-.95 1 .21 1.6.12.2.23.07.54.1.8-.74.2-1.65.43-2.3-.17l-.2.22c.4.36.77.78.46 1.39-.56.12-1.43.13-1.7-.44-.16-.48.33-.83-.18-1.2-.38.45-.36 1.07-1.13.65a.93.93 0 01-.39-1.27c.5-.79 1.38.03 1.92-.36.08-.68-.17-1.27.45-1.65.54-.09.78.31 1.1.64" fill="#F9D90F" fill-rule="nonzero"/>
    <path d="M70.75 145.83c-.25 1.15-1.12-.06-1.53-.11.54-.96.88.31 1.53.1m2.7 1.26c-.6.17-.5-.58-.8-.88l.23-.2c.22.26.39.73.58 1.08" fill="#FFF" fill-rule="nonzero"/>
    <path d="M72.64 146.85c.17.4-.4.73.09 1.02l.42-.38c.41.12.9.2 1.18.6.31.85-.55.83-1.04 1.07l-.48-.02c.12-.24-.2-.34-.29-.5a.46.46 0 00-.53.2c.1.54.77.96.09 1.44-.58-.04-1.47.18-1.42-.61-.21-.45.59-1.14-.27-1.17-.28.6-.59 1.2-1.32.62l.09-.87c.7.02 1.53.15 1.85-.64.2-.57-.35-1.1.14-1.55.72-.16 1.12.32 1.49.8" fill="#F9D90F" fill-rule="nonzero"/>
    <path d="M72.12 148.15c.18.43-.3.46-.54.67a.82.82 0 01-.7-.3c-.15-.52.24-.58.53-.78.35-.14.5.26.71.41" fill="#000" fill-rule="nonzero"/>
    <path d="M71.7 148.43c-.08.1-.18.07-.3.1l-.1-.52c.22.02.52.1.4.42" fill="#FFF" fill-rule="nonzero"/>
    <path d="M13.7 327.01A38.18 38.18 0 0038.34 336h435.31A38.34 38.34 0 00512 297.64V168.26H256L13.7 327.01z" fill="#3741CF" fill-rule="nonzero"/>
    <path d="M473.65.54H38.35A38.19 38.19 0 0013.7 9.51L256 168.26h256V38.9A38.34 38.34 0 00473.65.54z" fill="#E6000D" fill-rule="nonzero"/>
  </g>
</svg>