<svg width="512" height="336" xmlns="http://www.w3.org/2000/svg"><g fill="none" fill-rule="evenodd"><path d="M473.655 335.724H38.345C17.167 335.724 0 318.557 0 297.379V38.621C0 17.444 17.167.276 38.345.276h435.31C494.832.276 512 17.443 512 38.621V297.38c0 21.177-17.167 38.344-38.345 38.344z" fill="#3741CF"/><path d="M16.513 328.896L512 123.868V62.075L9.117 322.187a38.57 38.57 0 0 0 7.396 6.709z" fill="#F5F5F5"/><path d="M497.983 8.982L4.451 315.311a38.34 38.34 0 0 0 4.665 6.874L512 62.074V38.62c0-11.941-5.46-22.605-14.017-29.638z" fill="#FF9B55"/><path fill="#F5F5F5" d="M145.903 122.175l57.131-7.135-57.131-7.134 28.955-17.76-36.027 8.809 21.926-29.913-29.913 21.925 8.808-36.026-17.758 28.955-7.135-57.132-7.135 57.132-17.759-28.955 8.809 36.026L68.76 69.042l21.926 29.913-36.027-8.809 28.955 17.76-57.131 7.134 57.131 7.135-28.955 17.759 36.027-8.809-21.926 29.913 29.914-21.925-8.809 36.026 17.759-28.954 7.135 57.131 7.135-57.131 17.758 28.954-8.808-36.026 29.913 21.925-21.926-29.913 36.027 8.809z"/></g></svg>