<svg width="512" height="336" xmlns="http://www.w3.org/2000/svg"><g fill="none" fill-rule="evenodd"><path d="M473.655.276H38.345C17.167.276 0 17.443 0 38.621V297.38c0 21.177 17.167 38.345 38.345 38.345h435.31c21.177 0 38.345-17.167 38.345-38.345V38.621C512 17.443 494.833.276 473.655.276z" fill="#E6000D"/><g fill="#FFE15A"><path d="M219.121 143.838c1.886-2.873 4.121-5.469 6.607-7.822l-.017.013L97.103.276H38.345a38.179 38.179 0 0 0-24.644 8.977l205.42 134.585zM212.318 172.522c-.156-1.508-.456-2.973-.456-4.522 0-1.549.3-3.014.456-4.522v.002L0 141.517v52.966l212.318-21.964v.003zM249.14 124.553h-.001zM256 123.862c2.35 0 4.61.338 6.86.691L282.483.276h-52.966l19.623 124.277c2.25-.353 4.51-.691 6.86-.691zM262.861 124.553h-.001zM286.272 136.015c2.486 2.354 4.722 4.949 6.607 7.822L498.3 9.252C491.635 3.653 483.042.275 473.656.275h-58.759L286.289 136.029c-.006-.005-.013-.008-.017-.014zM292.879 192.162c-1.886 2.873-4.121 5.469-6.607 7.822l.017-.013 128.608 135.753h58.759c9.386 0 17.98-3.378 24.644-8.977L292.879 192.162zM299.682 163.478c.156 1.507.456 2.973.456 4.522 0 1.549-.3 3.014-.456 4.522v-.002L512 194.483v-52.966l-212.318 21.964v-.003zM256 212.138c-2.35 0-4.61-.338-6.86-.691l-19.623 124.277h52.966L262.86 211.447c-2.25.353-4.51.691-6.86.691zM262.86 211.447h.001zM249.139 211.447h.001zM225.728 199.985c-2.486-2.354-4.722-4.949-6.607-7.822L13.7 326.748c6.665 5.599 15.258 8.977 24.644 8.977h58.759l128.608-135.753c.006.004.013.007.017.013z"/><circle cx="256" cy="168" r="35.31"/></g></g></svg>