<svg width="512" height="336" xmlns="http://www.w3.org/2000/svg"><g fill="none" fill-rule="evenodd"><path d="M0 297.379c0 21.177 17.167 38.345 38.345 38.345h435.31c21.177 0 38.345-17.167 38.345-38.345v-73.471H0v73.471z" fill="#E6000D"/><path d="M473.655.276H38.345C17.167.276 0 17.443 0 38.621v73.471h512V38.621C512 17.443 494.833.276 473.655.276z" fill="#FFE15A"/><path fill="#3CA100" d="M0 112.09h512V223.9H0z"/><path d="M261.032 56.959l26.435 79.263 83.552.648c5.097.04 7.21 6.545 3.11 9.571l-67.214 49.635 25.203 79.663c1.537 4.86-3.996 8.879-8.142 5.916L256 233.068l-67.976 48.587c-4.147 2.964-9.679-1.056-8.142-5.916l25.203-79.663-67.214-49.635c-4.1-3.028-1.986-9.533 3.11-9.571l83.552-.648 26.435-79.263c1.612-4.835 8.452-4.835 10.064 0z" fill="#F5F5F5"/></g></svg>