<svg width="512" height="336" xmlns="http://www.w3.org/2000/svg"><g fill="none" fill-rule="evenodd"><path d="M473.655.273H341.333v335.448h132.322c21.177 0 38.345-17.167 38.345-38.345V38.618C512 17.44 494.833.273 473.655.273z" fill="#E6000D"/><path fill="#3741CF" d="M170.67.277h170.67v335.45H170.67z"/><path d="M38.345.273C17.167.273 0 17.44 0 38.618v258.759c0 21.177 17.167 38.345 38.345 38.345h132.322V.273H38.345z" fill="#E6000D"/><g transform="translate(25 41)" fill="#F9CF02"><path d="M60.689 98.025c-13.341 0-24.776-8.038-29.814-19.519-.003.175-.052.338-.052.513 0 16.494 13.372 29.866 29.866 29.866s29.865-13.372 29.865-29.866c0-.175-.049-.338-.052-.512-5.038 11.48-16.473 19.518-29.813 19.518z"/><circle cx="60.69" cy="70.877" r="21.72"/><path d="M47.114 30.15c0 7.497 6.078 13.575 13.575 13.575 7.497 0 13.575-6.078 13.575-13.575 0-5.43-3.394-6.109-3.394-8.145 0-2.036 2.036-4.751-2.036-8.145 2.036 3.394-1.357 4.073-1.357 7.466s1.357 3.394 1.357 6.109a2.714 2.714 0 1 1-5.428 0c0-2.714 2.714-5.43 2.714-9.503s-.679-5.43-2.714-8.824c-2.036-3.394-5.43-6.109-2.714-8.824-4.073 1.357-2.036 6.787-2.036 10.182 0 3.394-2.714 5.43-2.714 9.503s2.036 4.751 2.036 7.466a2.714 2.714 0 1 1-5.428 0c0-2.714 1.357-2.714 1.357-6.109s-3.394-4.073-1.357-7.466c-4.073 3.394-2.036 6.109-2.036 8.145-.006 2.036-3.4 2.714-3.4 8.145zM.959 116.557v125.838a2.241 2.241 0 0 0 2.241 2.241h22.667a2.241 2.241 0 0 0 2.241-2.241V116.557a2.241 2.241 0 0 0-2.241-2.241H3.2a2.24 2.24 0 0 0-2.241 2.241zM93.27 116.557v125.838a2.241 2.241 0 0 0 2.241 2.241h22.667a2.241 2.241 0 0 0 2.241-2.241V116.557a2.241 2.241 0 0 0-2.241-2.241H95.511a2.24 2.24 0 0 0-2.241 2.241zM33.539 138.276v6.377a2.241 2.241 0 0 0 2.241 2.241h49.817a2.241 2.241 0 0 0 2.241-2.241v-6.377a2.241 2.241 0 0 0-2.241-2.241H35.78a2.241 2.241 0 0 0-2.241 2.241zM33.539 214.297v6.377a2.241 2.241 0 0 0 2.241 2.241h49.817a2.241 2.241 0 0 0 2.241-2.241v-6.377a2.241 2.241 0 0 0-2.241-2.241H35.78a2.24 2.24 0 0 0-2.241 2.241zM37.585 114.315h46.208c1.137 0 1.551 1.497.577 2.082l-21.95 13.171a3.36 3.36 0 0 1-3.459 0l-21.952-13.171c-.975-.585-.56-2.082.576-2.082zM37.585 228.347h46.208c1.137 0 1.551 1.497.577 2.082l-21.952 13.17a3.36 3.36 0 0 1-3.459 0l-21.951-13.171c-.974-.585-.559-2.081.577-2.081z"/><path d="M63.341 152.537c-.856-.082-1.685-.259-2.562-.259-14.931 0-27.078 12.147-27.078 27.078 0 8.862 4.329 16.662 10.943 21.583.761.566 1.767-.252 1.397-1.127a15.656 15.656 0 0 1-1.239-6.106c0-8.825 7.193-16.002 16.026-15.975 4.643.014 9.094-2.279 11.149-6.443 4.251-8.611-.936-17.17-8.636-18.751zm-2.562 17.883a5.416 5.416 0 1 1 0-10.832 5.416 5.416 0 0 1 0 10.832z" fill-rule="nonzero"/><path d="M76.912 157.772c-.761-.566-1.767.253-1.397 1.127a15.637 15.637 0 0 1 1.239 6.105c0 8.826-7.194 16.003-16.026 15.976-4.643-.014-9.095 2.279-11.149 6.443-4.249 8.612.938 17.172 8.638 18.751.856.082 1.685.259 2.562.259 14.93 0 27.078-12.147 27.078-27.078-.002-8.861-4.331-16.661-10.945-21.583zm-16.133 41.35a5.416 5.416 0 1 1 0-10.832 5.416 5.416 0 0 1 0 10.832z" fill-rule="nonzero"/></g></g></svg>