<svg width="512" height="336" xmlns="http://www.w3.org/2000/svg"><g fill="none" fill-rule="evenodd"><path d="M473.655 335.724H38.345C17.167 335.724 0 318.557 0 297.379V38.621C0 17.444 17.167.276 38.345.276h435.31C494.832.276 512 17.443 512 38.621V297.38c0 21.177-17.167 38.344-38.345 38.344z" fill="#4173CD"/><path d="M256 296c-70.578 0-128-57.422-128-128S185.422 40 256 40s128 57.422 128 128-57.422 128-128 128zm0-229.517c-55.979 0-101.517 45.539-101.517 101.517 0 55.978 45.539 101.517 101.517 101.517 55.978 0 101.517-45.539 101.517-101.517 0-55.978-45.538-101.517-101.517-101.517z" fill="#F5F5F5" fill-rule="nonzero"/><g transform="translate(132 44)" fill="#FFDC00"><path d="M124 243.172C58.289 243.172 4.828 189.711 4.828 124S58.289 4.828 124 4.828 243.172 58.289 243.172 124 189.711 243.172 124 243.172zm0-229.517c-60.845 0-110.345 49.5-110.345 110.345S63.155 234.345 124 234.345 234.345 184.845 234.345 124 184.845 13.655 124 13.655z" fill-rule="nonzero"/><circle cx="9.24" cy="124" r="8.828"/><circle cx="238.76" cy="124" r="8.828"/><circle cx="124" cy="9.24" r="8.828"/><circle cx="42.85" cy="42.85" r="8.828"/><circle cx="205.15" cy="42.85" r="8.828"/><circle cx="230.02" cy="80.08" r="8.828"/><circle cx="80.08" cy="17.98" r="8.828"/><circle cx="17.98" cy="80.08" r="8.828"/><circle cx="167.92" cy="17.98" r="8.828"/><circle cx="236.55" cy="101.61" r="8.828"/><circle cx="101.61" cy="11.45" r="8.828"/><circle cx="28.59" cy="60.24" r="8.828"/><circle cx="187.76" cy="28.59" r="8.828"/><circle cx="219.42" cy="60.24" r="8.828"/><circle cx="60.24" cy="28.59" r="8.828"/><circle cx="11.45" cy="101.61" r="8.828"/><circle cx="146.39" cy="11.45" r="8.828"/></g><path d="M370.759 172.414a4.411 4.411 0 0 1-4.414-4.414c0-60.845-49.5-110.345-110.345-110.345S145.655 107.155 145.655 168a4.411 4.411 0 0 1-4.414 4.414 4.411 4.411 0 0 1-4.414-4.414c0-65.711 53.461-119.172 119.172-119.172S375.172 102.289 375.172 168a4.411 4.411 0 0 1-4.413 4.414z" fill="#FFA000"/><path d="M280.526 300.414h-49.054c-10.482 0-18.656-9.079-17.558-19.503l15.603-148.221h52.966l15.602 148.221c1.097 10.424-7.076 19.503-17.559 19.503z" fill="#B4B4B4"/><path d="M282.232 132.69h-52.671a4.547 4.547 0 0 1-4.52-4.055l-3.29-30.302c-.567-5.222 3.523-9.781 8.776-9.781h50.945c5.252 0 9.343 4.558 8.776 9.781l-3.268 30.098a4.775 4.775 0 0 1-4.748 4.259z" fill="#AAA"/><path d="M258.045 98.833l16.364 47.079 49.831 1.015c2.051.042 2.899 2.648 1.263 3.889l-39.717 30.111 14.433 47.705c.595 1.964-1.623 3.575-3.308 2.403L256 202.567l-40.911 28.468c-1.684 1.172-3.902-.439-3.308-2.403l14.433-47.705-39.718-30.111c-1.635-1.239-.788-3.847 1.263-3.889l49.831-1.015 16.364-47.079c.676-1.938 3.416-1.938 4.091 0z" fill="#F5F5F5"/></g></svg>