<svg width="512" height="336" xmlns="http://www.w3.org/2000/svg"><g fill="none" fill-rule="evenodd"><path d="M473.655 335.724H38.345C17.167 335.724 0 318.557 0 297.379V38.621C0 17.444 17.167.276 38.345.276h435.31C494.832.276 512 17.443 512 38.621V297.38c0 21.177-17.167 38.344-38.345 38.344z" fill="#3741CF"/><path d="M8.828 168.006h15.334l81.77-53.572v53.574h44.138v-53.574l81.77 53.574h15.334a8.829 8.829 0 0 0 8.828-8.828v-7.002l-70.155-45.963H256V62.077h-70.155L256 16.111V9.109a8.829 8.829 0 0 0-8.828-8.828h-15.334l-81.77 53.574V.281H105.93v53.574L26.837 2.035C17.606 4.936 9.886 11.24 5.13 19.471l65.025 42.603H0v44.138h70.155L0 152.177v7.002a8.829 8.829 0 0 0 8.828 8.827z" fill="#F5F5F5"/><g fill="#E6000D"><path d="M256 70.902H141.241V.281h-26.482v70.621H0v26.483h114.759v70.621h26.482V97.385H256z"/><path d="M8.225 14.906L80.89 62.075h16.213l-82.5-53.554a38.527 38.527 0 0 0-6.378 6.385zM166.283 62.074l88.374-57.366c-1.536-2.599-4.246-4.427-7.485-4.427h-1.909l-95.194 61.793h16.214zM89.474 106.212L1.269 163.468c1.519 2.663 4.273 4.537 7.559 4.537h1.665l95.196-61.793H89.474zM255.86 159.872l-82.666-53.658H156.98l93.874 60.935c2.812-1.306 4.741-4.042 5.006-7.277z"/></g><path fill="#82AFFF" d="M325.36 99.25h117.27v90.63H325.36z"/><path d="M325.362 189.874c0 30.913 34.649 55.972 58.638 55.972 21.323 0 58.638-25.06 58.638-55.972H325.362z" fill="#C86464"/><path d="M399.659 132.346c1.888.333 5.109.778 5.442 5.331.333 4.553-1.333 20.768-2.998 22.766 0 0 5.442 12.328 5.664 19.657.222 7.33-.777 29.263-.111 32.761.667 3.498 3.165 10.661 3.165 10.661s-7.663-4.498-10.661-1.666c-2.998 2.831-13.993 6.664-18.325 2.166 0 0 5.164-14.659 5.164-31.318v-57.805s2.166-1.721 4.997-1.777c2.832-.054 7.663-.776 7.663-.776z" fill="#3CA100"/><g fill="#FFF5E1"><path d="M400.769 220.415c.333 2.11 1.221 3.665.777 4.442-.445.778-3.331 7.885-1.666 7.885s4.553-.888 5.331-2.443c.777-1.555 1.11-3.887 1.555-4.553.445-.666-.778-3.998-1.777-4.553-.999-.556-4.22-.778-4.22-.778zM381.557 137.011l-6.108.778s.777-3.998.888-6.775c.111-2.776.333-7.885.333-7.885s4.331-2.665 4.442-3.11c.055-.222.569-1.61.167-2.332-.402-.722-1.721-.778-1.721-.778s-5.109 2.665-5.109 3.11c0 .445 0 3.11-.555 4.109-.555 1-3.665 9.329-3.887 11.55-.222 2.221-.555 6.886.333 7.108.888.222 10.106 1.222 11.106.777.999-.444.111-6.552.111-6.552z"/></g><path fill="#464655" d="M409.229 115.078h-22.231v-10.495h-7.662v10.495h-22.231v7.662h22.231v100.784h7.662V122.74h22.231z"/><path d="M396.105 128.682s7.441 2.143 8.44-.333c1.166-2.888-2.721-3.276-3.443-6.33-.081-.342-.777-4.442-3.776-5.219-2.998-.778-5.775 0-5.886 1.999-.111 1.999 4.665 9.883 4.665 9.883z" fill="#963C3C"/><path d="M392.107 138.121c-.22.036-.555-2.221-.111-4.998.445-2.776 0-3.665 0-3.665s-3.109.333-3.109-.888.666-6.886 2.554-9.773c0 0 1.333 1.666 3.776 1.666 0 0-.111 1.999 1.222 3.331 0 0-1.666 1.443-.888 2.443.778 1 2.221 2.221 2.221 2.221s.111 2.333 1.888 3.887c-.001.001-2.222 4.888-7.553 5.776z" fill="#FFF5E1"/><g fill="#464655"><path d="M361.68 186.32h1v13.215h-1zM364.36 183.76h1v18.333h-1zM367.04 181.43h1v23.01h-1zM369.72 178.09h1v29.688h-1zM372.4 173.72h1v38.424h-1zM375.08 173.72h1v40.22h-1z"/></g><path d="M387.109 194.76c-2.945-15.315-11.106-24.211-13.993-24.654-2.888-.444-4.997 1.888-5.219 3.554-.222 1.666-1.777 6.664-4.998 8.995-3.221 2.333-9.218 3.665-10.55 7.996-1.333 4.331 2.221 6.219 4.331 5.774.158-.033.313-.095.471-.147l22.703 27.927c.824 1.014 2.43.849 3.005-.327 2.333-4.769 6.762-16.06 4.25-29.118zm-28.052.31c.89-.956 1.266-2.273.289-3.641-1.666-2.333-3.554 1-3.554 1s-.555-2.888 3.776-4.331c4.331-1.443 9.218-3.886 11.439-9.107 2.221-5.219 2.11-4.221 2.11-4.221s8.885 4.998 10.106 20.657c1.222 15.659-3.109 21.99-3.109 21.99l-21.057-22.347z" fill="#FFE15A" fill-rule="nonzero"/><g fill="#FFF5E1"><path d="M379.336 161.255c-1.02.652-1.939 1.214-2.582 1.549-2.082 1.082-4.582 2.166-4.831 3.165-.249 1-1.666 1.833-1.582 2.998.084 1.166 0 4.664 0 4.664 1.249-.249 3.748-.666 4.582-2.166.833-1.5 1.582-4.415 4.248-5.664.047-.022.117-.045.167-.067v-4.479h-.002zM401.408 139.981c-1.249.583-4.997 5.081-5.58 7.164-.583 2.082-2.415 6.997-2.415 6.997s-3.785.494-6.413 1.965v7.274c1.457-.422 2.745-.838 3.498-1.242 2.166-1.166 5.247-3.331 6.83-3.748 1.582-.416 2.915-3.082 3.498-4.664.583-1.582 2.415-6.247 2.665-9.412.25-3.167-.834-4.916-2.083-4.334z"/></g><path d="M384 247.736l-.291-.046c-59.529-9.399-60.213-60.958-60.213-63.146V97.386h121.009v87.158c0 2.189-.684 53.747-60.213 63.146l-.292.046zm-56.771-146.618v83.425c0 2.057.644 50.387 56.771 59.414 56.128-9.027 56.771-57.357 56.771-59.414v-83.425H327.229z" fill="#F5F5F5" fill-rule="nonzero"/></g></svg>