<svg width="512" height="336" xmlns="http://www.w3.org/2000/svg"><g fill="none" fill-rule="evenodd"><path d="M473.655.275H256v335.448h217.655c21.177 0 38.345-17.167 38.345-38.345V38.62C512 17.442 494.833.275 473.655.275z" fill="#E6000D"/><path d="M38.345.275C17.167.275 0 17.442 0 38.62v258.76c0 21.177 17.167 38.345 38.345 38.345H256V.275H38.345z" fill="#F5F5F5"/><path d="M73.564 20.873v23.62c1.301.051 2.752.641 3.958 1.847 1.206 1.206 1.798 2.657 1.847 3.958h23.62v23.54H79.368c-.051 1.301-.641 2.752-1.847 3.958-1.206 1.206-2.657 1.796-3.958 1.847v23.62h-23.54v-23.62c-1.301-.051-2.752-.641-3.958-1.847-1.206-1.206-1.796-2.657-1.847-3.958h-23.62V50.299h23.62c.051-1.301.641-2.752 1.847-3.958 1.206-1.206 2.657-1.796 3.958-1.847v-23.62h23.541v-.001zm2.941-2.943H47.08V42.176a9.488 9.488 0 0 0-3.096 2.083 9.49 9.49 0 0 0-2.084 3.096H17.655V76.781H41.901a9.48 9.48 0 0 0 2.084 3.096 9.473 9.473 0 0 0 3.095 2.083v24.245H76.506V81.959a9.475 9.475 0 0 0 3.096-2.084 9.473 9.473 0 0 0 2.083-3.095h24.245V47.354H81.686a9.475 9.475 0 0 0-2.084-3.096 9.467 9.467 0 0 0-3.096-2.083V20.873l-.001-2.943z" fill="#E6000D" fill-rule="nonzero"/><path fill="#CDCDCD" d="M102.988 50.298H73.564V20.873H50.023v29.425H20.598v23.541h29.425v29.425h23.541V73.839h29.424z"/><g transform="translate(42 42)" fill="#B4A08C"><circle cx="19.793" cy="20.07" r="11.77"/><ellipse transform="rotate(-135 6.656 33.206)" cx="6.656" cy="33.206" rx="5.234" ry="3.663"/><ellipse transform="rotate(-45 32.933 33.197)" cx="32.933" cy="33.197" rx="5.234" ry="3.663"/><ellipse transform="rotate(45 32.922 6.935)" cx="32.922" cy="6.935" rx="5.234" ry="3.663"/><ellipse transform="rotate(135 6.652 6.93)" cx="6.652" cy="6.931" rx="5.234" ry="3.663"/><path d="M19.793 36.182c-8.885 0-16.113-7.226-16.113-16.113S10.908 3.956 19.793 3.956s16.113 7.228 16.113 16.113c0 8.884-7.228 16.113-16.113 16.113zm0-30.755c-8.072 0-14.641 6.569-14.641 14.641s6.569 14.641 14.641 14.641 14.641-6.569 14.641-14.641S27.865 5.427 19.793 5.427z" fill-rule="nonzero"/></g></g></svg>