<svg width="512" height="336" xmlns="http://www.w3.org/2000/svg"><g fill="none" fill-rule="evenodd"><path d="M473.655.275H38.345C17.167.275 0 17.442 0 38.62v258.759c0 21.175 17.165 38.342 38.339 38.345H473.66c21.174-.003 38.339-17.17 38.339-38.345V38.62C512 17.442 494.833.275 473.655.275z" fill="#E6000D"/><path fill="#3CA100" d="M441.379 70.896v194.207H70.621V70.896h370.758"/><path d="M238.378 168.025c0-33.425 22.767-61.417 53.587-69.525 1.026-.27.952-1.754-.1-1.889a66.738 66.738 0 0 0-8.533-.566c-39.785 0-71.992 32.202-71.992 71.98 0 39.606 32.207 71.896 71.992 71.896 2.898 0 5.745-.209 8.544-.569 1.052-.136 1.125-1.619.1-1.889-30.826-8.121-53.598-36.154-53.598-69.438z" fill="#F5F5F5"/></g></svg>