<svg width="512" height="336" xmlns="http://www.w3.org/2000/svg"><g fill="none" fill-rule="evenodd"><path d="M317.793 9.104v15.133H509.2C503.508 10.19 489.743.277 473.655.277h-164.69a8.827 8.827 0 0 1 8.828 8.827z" fill="#E6000D"/><path d="M317.793 24.237v23.96H512V38.62c0-5.089-1-9.941-2.799-14.385H317.793v.002z" fill="#F5F5F5"/><path fill="#E6000D" d="M317.79 48.201H512v23.96H317.79z"/><path fill="#F5F5F5" d="M317.79 72.15H512v23.96H317.79z"/><path fill="#E6000D" d="M317.79 96.12H512v23.96H317.79z"/><path fill="#F5F5F5" d="M317.79 120.081H512v23.96H317.79z"/><path fill="#E6000D" d="M317.79 144.04H512V168H317.79z"/><path d="M317.793 183.133a8.829 8.829 0 0 1-8.828 8.828H512V168H317.793v15.133z" fill="#F5F5F5"/><path d="M8.83 191.961h-.002A8.829 8.829 0 0 1 0 183.133v32.788h512v-23.96H8.83z" fill="#E6000D"/><path fill="#F5F5F5" d="M0 215.921h512v23.96H0z"/><path fill="#E6000D" d="M0 239.88h512v23.96H0z"/><path fill="#F5F5F5" d="M0 263.851h512v23.96H0z"/><path d="M0 297.38c0 5.089 1 9.941 2.799 14.385h506.4a38.214 38.214 0 0 0 2.799-14.385v-9.576H0v9.576z" fill="#E6000D"/><path d="M38.345 335.724h435.31c16.088 0 29.854-9.913 35.545-23.96H2.799c5.692 14.048 19.458 23.96 35.546 23.96z" fill="#F5F5F5"/><path d="M8.828 191.961H308.966a8.829 8.829 0 0 0 8.828-8.828V9.104a8.829 8.829 0 0 0-8.828-8.828H38.345C17.167.277 0 17.444 0 38.622v144.511a8.827 8.827 0 0 0 8.828 8.828z" fill="#3741CF"/><g fill="#FFE15A"><path d="M83.862 96.023c0-33.387 27.1-60.47 60.456-60.47a60.147 60.147 0 0 1 23.641 4.814c.943.402 1.654-.911.807-1.489-12.025-8.186-26.731-12.671-42.505-11.851-34.679 1.802-63.036 29.736-65.278 64.39-2.607 40.308 29.289 73.699 68.959 73.699 14.336 0 27.662-4.417 38.729-11.906.852-.577.146-1.892-.802-1.491a60.139 60.139 0 0 1-23.55 4.776c-33.357-.002-60.457-27.084-60.457-60.472"/><path d="M222.061 96.023l25.558-9.889c1.263-.489.833-2.376-.518-2.268l-27.308 2.187 18.766-20.06c.926-.989-.28-2.5-1.45-1.818l-23.718 13.836 8.186-26.176c.404-1.292-1.338-2.131-2.095-1.009l-15.354 22.745-3.939-27.148c-.194-1.341-2.13-1.342-2.326-.001L195.347 63.6l-1.044 7.27-.402 2.702-15.354-22.727c-.758-1.122-2.502-.282-2.095 1.011l8.216 26.154-23.716-13.836c-1.17-.682-2.376.829-1.45 1.818l18.765 20.06-27.315-2.186c-1.351-.108-1.782 1.779-.518 2.268l25.581 9.889-25.582 9.891c-1.265.489-.833 2.376.518 2.268l27.316-2.187-18.766 20.111c-.925.99.284 2.5 1.453 1.816l23.715-13.885-8.216 26.154c-.406 1.292 1.336 2.133 2.095 1.01l15.354-22.726.402 2.766 1.044 7.206 2.517 17.224c.196 1.342 2.132 1.34 2.326-.001l3.939-27.193 15.354 22.745c.758 1.122 2.5.285 2.095-1.009l-8.186-26.175 23.715 13.885c1.169.684 2.377-.825 1.453-1.816l-18.767-20.11 27.309 2.187c1.351.108 1.782-1.779.518-2.268l-25.56-9.893z"/></g></g></svg>