<svg width="512" height="336" xmlns="http://www.w3.org/2000/svg"><g fill="none" fill-rule="evenodd"><path d="M38.345.276C17.167.276 0 17.443 0 38.621v217.655l388.414-256H38.345z" fill="#3741CF"/><path d="M473.655 335.724c21.177 0 38.345-17.167 38.345-38.345V79.724l-388.414 256h350.069z" fill="#3CA100"/><path d="M473.655.276h-90.516L0 251.298v46.081c0 21.177 17.167 38.345 38.345 38.345h90.516L512 84.702V38.621C512 17.443 494.833.276 473.655.276z" fill="#F5F5F5"/><path d="M473.655.276h-42.2L0 282.953v14.426c0 21.177 17.167 38.345 38.345 38.345h42.2L512 53.047V38.621C512 17.443 494.833.276 473.655.276z" fill="#E6000D"/><g transform="translate(39 38)" fill="#FFE15A"><path d="M51.207 19.894c8.691 0 16.557 3.521 22.254 9.214l3.125-21.686-17.235 13.561L51.206.621l-8.145 20.362L25.826 7.422l3.125 21.686c5.699-5.694 13.565-9.214 22.256-9.214zM28.935 73.634c-5.693-5.697-9.214-13.565-9.214-22.254 0-8.691 3.521-16.557 9.214-22.254L7.249 26 20.81 43.235.448 51.38l20.362 8.145L7.249 76.76l21.686-3.126zM101.966 51.379l-20.362-8.145L95.165 26l-21.686 3.125c5.693 5.697 9.214 13.565 9.214 22.254 0 8.69-3.521 16.557-9.214 22.254l21.686 3.125-13.561-17.235 20.362-8.144zM51.207 82.865c-8.691 0-16.557-3.521-22.254-9.214l-3.125 21.686 17.235-13.561 8.145 20.362 8.145-20.362 17.235 13.561-3.125-21.686c-5.699 5.694-13.565 9.214-22.256 9.214z"/><circle cx="51.21" cy="51.38" r="25.709"/></g></g></svg>