<svg width="512" height="336" xmlns="http://www.w3.org/2000/svg">
  <g fill-rule="nonzero" fill="none">
    <path d="M473.7.5H38.3A38.3 38.3 0 000 39v73.5h512V38.9A38.3 38.3 0 00473.7.5z" fill="#3741CF"/>
    <path d="M0 297.6A38.3 38.3 0 0038.3 336h435.4a38.3 38.3 0 0038.3-38.4v-73.4H0v73.4z" fill="#3CA100"/>
    <path fill="#E6000D" d="M0 112.4h512v111.8H0z"/>
    <g transform="translate(62 67.8)">
      <circle stroke="#464655" stroke-width="5" fill="#FFE15A" cx="100.5" cy="100.5" r="100.1"/>
      <path d="M83.5 115.4h34m-34-25h34M100.5.6v171.1" stroke="#464655" stroke-width="6" fill="#464655"/>
      <path d="M60.2 192.5c40.9 16.6 79.2 1 79.2 1s-14.5-15.7-22-21.8c-7.1-6-28.4-5.7-35.7 0-6 4.8-23.4 22.4-21.5 20.8z" fill="#464655"/>
      <ellipse fill="#464655" cx="100.5" cy="146.7" rx="11.2" ry="16.3"/>
      <ellipse fill="#464655" cx="100.5" cy="102.9" rx="13.6" ry="8.6"/>
      <circle fill="#464655" cx="100.5" cy="63.2" r="13.6"/>
      <path d="M116.8 12.6s1.2 2-1.3 6.4c-11.8 21.3-23.7 21.7-26 23.6-2.4 2-3.5 1.9-3.5 1.9.2-1.9.3-9.3.5-10 1.8-10 16.8-9.9 28.6-20 1.8-1.7 1.7-2 1.7-2z" fill="#464655"/>
      <g fill="#464655">
        <path d="M77 58.4s2.7 7.6 3.1 15.3c.7 12.2 12.4 12.5 20.4 12.5v-6.8c-6 0-11.2-.8-15.6-9.8-2.2-4.4-7.8-11.2-7.8-11.2zM76.7 156.9s4.3-5.3 9.3-17.7a16.1 16.1 0 0114.5-10.2v-9.5c-13 0-19.1 4.8-19.8 11.8-1.3 14.4-4 25.6-4 25.6z"/>
      </g>
      <g fill="#464655">
        <path d="M124 58.4s-2.7 7.6-3.1 15.3c-.7 12.2-12.4 12.5-20.4 12.5v-6.8c6 0 11.2-.8 15.6-9.8 2.2-4.4 7.8-11.2 7.8-11.2zM124.3 156.9s-4.3-5.3-9.3-17.7a16.1 16.1 0 00-14.5-10.2v-9.5c13 0 19.1 4.8 19.8 11.8 1.3 14.4 4 25.6 4 25.6z"/>
      </g>
    </g>
  </g>
</svg>