<svg width="512" height="336" xmlns="http://www.w3.org/2000/svg"><g fill="none" fill-rule="evenodd"><path d="M38.345.273C17.167.273 0 17.44 0 38.618v258.759c0 21.177 17.167 38.345 38.345 38.345h132.322V.273H38.345z" fill="#3CA100"/><path fill="#F5F5F5" d="M170.67.277h170.67v335.45H170.67z"/><g fill="#3CA100"><path d="M473.655.273H341.333v335.448h132.322c21.177 0 38.345-17.167 38.345-38.345V38.618C512 17.44 494.833.273 473.655.273zM314.959 254.596L287.563 94.784a49.976 49.976 0 0 0-6.402-17.266L256 35.583l-25.161 41.935a49.956 49.956 0 0 0-6.402 17.266l-27.396 159.813a4.997 4.997 0 0 0 4.925 5.841h44.041v39.973h19.987v-39.974h44.041a4.996 4.996 0 0 0 4.924-5.841z"/></g></g></svg>