<svg width="512" height="336" xmlns="http://www.w3.org/2000/svg"><g fill="none" fill-rule="evenodd"><path d="M473.655.275H38.345C17.167.275 0 17.442 0 38.62v258.76c0 21.177 17.167 38.345 38.345 38.345h435.31c21.177 0 38.345-17.167 38.345-38.345V38.62C512 17.442 494.833.275 473.655.275z" fill="#F5F5F5"/><path d="M229.517 167.999L13.052 9.813C5.054 16.841 0 27.137 0 38.62v258.76c0 21.177 17.167 38.345 38.345 38.345h191.172L79.144 167.999h150.373zm-25.701 156.248H11.476V22.876l182.888 133.647H53.442l17.156 19.137 133.218 148.587z" fill="#3741CF" fill-rule="nonzero"/><path fill="#E6000D" d="M70.6 175.661l-17.158-19.138h140.922L11.476 22.876v301.371h192.34z"/><g fill="#F5F5F5"><path d="M67.345 208.398l7.066 14.583 13.411-9.096a.856.856 0 0 1 1.334.77l-1.171 16.162 16.162-1.171a.856.856 0 0 1 .77 1.334l-9.096 13.411 14.583 7.068a.856.856 0 0 1 0 1.54l-14.583 7.066 9.096 13.411a.856.856 0 0 1-.77 1.334l-16.162-1.171 1.171 16.162a.856.856 0 0 1-1.334.77l-13.411-9.096-7.066 14.583a.856.856 0 0 1-1.54 0l-7.066-14.583-13.411 9.096a.856.856 0 0 1-1.334-.77l1.171-16.162-16.162 1.171a.856.856 0 0 1-.77-1.334l9.096-13.411-14.583-7.066a.856.856 0 0 1 0-1.54l14.583-7.068-9.096-13.411a.856.856 0 0 1 .77-1.334l16.162 1.171-1.171-16.162a.856.856 0 0 1 1.334-.77l13.411 9.096 7.066-14.583a.856.856 0 0 1 1.54 0zM85.694 124.061l-6.135-4.191 5.401-5.661-7.697-1.405 2.632-7.367-7.603 1.847-.591-7.8-6.194 4.78-3.714-6.886-3.714 6.886-6.194-4.78-.591 7.8-7.603-1.847 2.632 7.367-7.697 1.405 5.401 5.661-6.135 4.191c-7.741-3.614-14.547-8.895-19.904-15.427 3.598 20.961 21.815 36.929 43.804 36.929s40.206-15.968 43.804-36.929c-5.355 6.533-12.162 11.813-19.902 15.427z"/></g></g></svg>