<svg width="512" height="336" xmlns="http://www.w3.org/2000/svg"><g fill="none" fill-rule="evenodd"><path d="M473.654 335.724H38.345C17.167 335.724 0 318.557 0 297.379V38.621C0 17.444 17.167.276 38.345.276h435.309c21.177 0 38.345 17.167 38.345 38.345v258.758c0 21.178-17.168 38.345-38.345 38.345z" fill="#3741CF"/><path fill="#FFE15A" d="M0 150.341h512v35.31H0z"/><path fill="#F5F5F5" d="M119.172 220.966l5.141 20.539 14.721-15.217-5.817 20.357 20.357-5.817-15.216 14.722 20.538 5.14-20.538 5.141 15.216 14.721-20.357-5.817 5.817 20.357-14.721-15.216-5.141 20.538-5.141-20.538-14.721 15.216 5.818-20.357-20.358 5.817 15.217-14.721-20.539-5.141 20.539-5.14-15.217-14.722 20.358 5.817-5.818-20.357 14.721 15.217z"/></g></svg>