<svg width="512" height="336" xmlns="http://www.w3.org/2000/svg"><g fill="none" fill-rule="evenodd"><path d="M473.655 335.724H38.345C17.167 335.724 0 318.557 0 297.38V38.622C0 17.445 17.167.277 38.345.277h435.31C494.832.277 512 17.444 512 38.622V297.38c0 21.177-17.167 38.344-38.345 38.344z" fill="#FFE15A"/><path d="M8.828 168h238.345a8.829 8.829 0 0 0 8.828-8.828V9.104a8.828 8.828 0 0 0-8.825-8.828H38.345C17.167.277 0 17.444 0 38.622v120.552C0 164.048 3.953 168 8.828 168z" fill="#3741CF"/><path d="M8.828 168h15.334l81.77-53.574V168h44.138v-53.574L231.839 168h15.334a8.829 8.829 0 0 0 8.828-8.828v-7.002l-70.154-45.963H256V62.07h-70.155L256 16.107V9.105a8.827 8.827 0 0 0-8.825-8.828h-15.337l-81.769 53.574V.277h-44.138v53.574L26.844 2.035C17.61 4.935 9.89 11.238 5.133 19.469L70.156 62.07H0v44.138h70.155L0 152.171v7.002A8.828 8.828 0 0 0 8.828 168z" fill="#F5F5F5"/><g fill="#E6000D"><path d="M256 70.898H141.241V.277h-26.482v70.621H0V97.38h114.759V168h26.482V97.38H256z"/><path d="M8.227 14.903L80.889 62.07h16.214L14.607 8.52a38.565 38.565 0 0 0-6.38 6.383zM166.283 62.07l88.374-57.366c-1.536-2.599-4.246-4.427-7.485-4.427h-1.909L150.069 62.07h16.214zM89.474 106.208L1.269 163.464C2.79 166.126 5.542 168 8.828 168h1.665l95.196-61.793H89.474v.001zM255.86 159.866l-82.666-53.658H156.98l93.874 60.935c2.812-1.305 4.741-4.04 5.006-7.277z"/></g><circle fill="#3741CF" cx="128" cy="84.141" r="26.483"/><g fill="#FFE15A"><path d="M129.788 62.668l4.425 13.266 13.984.108c1.811.014 2.561 2.325 1.105 3.4l-11.25 8.307 4.218 13.333c.546 1.726-1.419 3.154-2.892 2.101L128 95.053l-11.377 8.131c-1.473 1.053-3.438-.375-2.892-2.101l4.218-13.333-11.25-8.307c-1.457-1.076-.706-3.386 1.105-3.4l13.984-.108 4.425-13.266c.572-1.718 3.002-1.718 3.575-.001zM56.501 73.475l2.379 7.133 7.519.058c.973.008 1.377 1.25.594 1.828l-6.048 4.467 2.268 7.168c.294.928-.764 1.696-1.555 1.13l-6.116-4.372-6.116 4.372c-.792.566-1.848-.202-1.555-1.13l2.268-7.168-6.048-4.467c-.783-.578-.38-1.821.594-1.828l7.519-.058 2.379-7.133c.305-.924 1.61-.924 1.918 0zM202.086 73.475l2.379 7.133 7.519.058c.973.008 1.377 1.25.594 1.828l-6.048 4.467 2.268 7.168c.294.928-.764 1.696-1.555 1.13l-6.116-4.372-6.116 4.372c-.792.566-1.848-.202-1.555-1.13l2.268-7.168-6.048-4.467c-.783-.578-.38-1.821.594-1.828l7.519-.058 2.379-7.133c.304-.924 1.61-.924 1.918 0zM129.075 19.895l2.379 7.133 7.519.058c.973.008 1.377 1.25.594 1.828l-6.049 4.466 2.268 7.168c.294.928-.764 1.696-1.555 1.13l-6.116-4.372-6.116 4.372c-.792.566-1.848-.202-1.555-1.13l2.268-7.168-6.048-4.467c-.783-.578-.38-1.821.594-1.828l7.519-.058 2.379-7.133c.304-.923 1.611-.923 1.919.001zM129.075 128.316l2.379 7.133 7.519.058c.973.008 1.377 1.25.594 1.828l-6.049 4.466 2.268 7.168c.294.928-.764 1.696-1.555 1.13l-6.116-4.372-6.116 4.372c-.792.566-1.848-.202-1.555-1.13l2.268-7.168-6.048-4.467c-.783-.578-.38-1.821.594-1.828l7.519-.058 2.379-7.133c.304-.922 1.611-.922 1.919.001z"/></g></g></svg>