<svg width="512" height="336" xmlns="http://www.w3.org/2000/svg"><g fill="none" fill-rule="evenodd"><g fill="#F5F5F5"><path d="M503.172 168H256v158.897a8.829 8.829 0 0 1-8.828 8.828h226.483c21.177 0 38.345-17.167 38.345-38.345V159.172a8.829 8.829 0 0 1-8.828 8.828zM8.828 168H256V9.103a8.829 8.829 0 0 1 8.828-8.828H38.345C17.167.276 0 17.443 0 38.621v138.207A8.829 8.829 0 0 1 8.828 168z"/></g><path d="M473.655.276H264.828A8.829 8.829 0 0 0 256 9.104V168h247.172a8.829 8.829 0 0 0 8.828-8.828V38.621C512 17.443 494.833.276 473.655.276z" fill="#E6000D"/><g fill="#4173CD"><path d="M256 326.897V168H8.828A8.829 8.829 0 0 0 0 176.828V297.38c0 21.177 17.167 38.345 38.345 38.345h208.828a8.83 8.83 0 0 0 8.827-8.828zM131.4 46.487l8.416 25.234 26.6.206c3.444.026 4.872 4.422 2.101 6.467l-21.398 15.801 8.023 25.362c1.038 3.284-2.7 5.999-5.502 3.997L128 108.087l-21.641 15.468c-2.802 2.003-6.54-.714-5.502-3.997l8.023-25.362-21.398-15.801c-2.771-2.046-1.342-6.441 2.101-6.467l26.6-.206 8.416-25.234c1.09-3.267 5.712-3.267 6.801-.001z"/></g><path d="M387.4 214.211l8.416 25.234 26.6.206c3.444.026 4.872 4.422 2.101 6.467l-21.398 15.801 8.023 25.362c1.038 3.284-2.7 5.999-5.502 3.997L384 275.811l-21.641 15.468c-2.802 2.003-6.54-.714-5.502-3.997l8.023-25.362-21.398-15.801c-2.771-2.046-1.342-6.441 2.101-6.467l26.6-.206 8.416-25.234c1.09-3.268 5.712-3.268 6.801-.001z" fill="#E6000D"/></g></svg>