<svg width="512" height="336" xmlns="http://www.w3.org/2000/svg"><g fill="none" fill-rule="evenodd"><path d="M13.7 9.251C5.326 16.286 0 26.829 0 38.621V297.38c0 11.791 5.326 22.335 13.7 29.369L256 168 13.7 9.251z" fill="#F5F5F5"/><path d="M13.7 326.749a38.18 38.18 0 0 0 24.644 8.975h435.31c21.177 0 38.345-17.167 38.345-38.345V168H256L13.7 326.749z" fill="#E6000D"/><path d="M473.655.276H38.345a38.188 38.188 0 0 0-24.644 8.975L256 168h256V38.621C512 17.443 494.833.276 473.655.276z" fill="#3741CF"/><g transform="translate(13 41)" fill="#FFE15A"><circle cx="79.69" cy="127" r="28.69"/><path d="M79.69 127L68.931 83.966 79.69 69.621l10.758 14.345zM79.69 127l10.758 43.034-10.758 14.345-10.759-14.345zM79.69 127l-43.035 10.759L22.31 127l14.345-10.759zM79.69 127l43.034-10.759L137.069 127l-14.345 10.759zM79.69 127l22.822-38.037 17.751-2.537-2.536 17.751zM79.69 127l-22.823 38.037-17.751 2.537 2.536-17.751zM79.69 127l-38.038-22.823-2.536-17.751 17.751 2.537zM79.69 127l38.037 22.823 2.536 17.751-17.751-2.537zM10.658 2.694l1.496 11.16-10.076 5.028c-1.304.651-1.03 2.588.405 2.85l11.076 2.026 1.668 11.136c.216 1.442 2.143 1.779 2.836.495l5.35-9.908 11.106 1.854c1.438.241 2.354-1.489 1.348-2.543l-7.77-8.15 5.195-9.99c.672-1.293-.689-2.699-2.003-2.068L21.137 9.456l-7.895-8.029c-1.02-1.038-2.777-.177-2.584 1.267zM15.102 219.906l-1.889 11.101-11.115 1.805c-1.439.234-1.752 2.165-.461 2.841l9.973 5.227-1.717 11.128c-.222 1.441 1.517 2.335 2.56 1.316l8.054-7.87 10.054 5.073c1.302.657 2.69-.722 2.044-2.028l-4.996-10.091 7.93-7.993c1.027-1.035.146-2.782-1.298-2.57l-11.142 1.633-5.152-10.013c-.668-1.295-2.602-.997-2.845.441zM189.734 110.555l-6.481 9.208-10.81-3.15c-1.399-.408-2.513 1.201-1.639 2.367l6.755 9.009-6.337 9.308c-.82 1.205.365 2.761 1.745 2.29l10.655-3.64 6.894 8.903c.893 1.153 2.739.505 2.717-.952l-.17-11.258 10.598-3.806c1.372-.492 1.327-2.449-.066-2.878l-10.761-3.318-.344-11.255c-.042-1.459-1.917-2.021-2.756-.828z"/></g></g></svg>