<svg width="512" height="336" xmlns="http://www.w3.org/2000/svg" xmlns:xlink="http://www.w3.org/1999/xlink">
  <defs>
    <linearGradient x1="49.2%" y1="109.3%" x2="50%" y2="45.2%" id="c">
      <stop stop-color="#4A0000" offset="0%"/>
      <stop stop-color="#FFCF00" offset="100%"/>
    </linearGradient>
    <linearGradient x1="-27.8%" y1="138.6%" x2="72.5%" y2="43.3%" id="d">
      <stop stop-color="#4A0000" offset="0%"/>
      <stop stop-color="#FFCF00" offset="100%"/>
    </linearGradient>
    <linearGradient x1="50.4%" y1="54.5%" x2="47.1%" y2="106%" id="e">
      <stop offset="0%"/>
      <stop stop-color="#2B5DF2" offset="100%"/>
    </linearGradient>
    <linearGradient x1="-35.1%" y1="145.5%" x2="66.4%" y2="44.1%" id="f">
      <stop stop-color="#4A0000" offset="0%"/>
      <stop stop-color="#FFCF00" offset="100%"/>
    </linearGradient>
    <linearGradient x1="-48.7%" y1="94.8%" x2="54.4%" y2="53.8%" id="g">
      <stop stop-color="#4A0000" offset="0%"/>
      <stop stop-color="#FFCF00" offset="100%"/>
    </linearGradient>
    <rect id="a" x="0" y="0" width="512" height="335.4" rx="38"/>
  </defs>
  <g transform="translate(0 .3)" fill="none" fill-rule="evenodd">
    <mask id="b" fill="#fff">
      <use xlink:href="#a"/>
    </mask>
    <use fill="#E5E5E5" fill-rule="nonzero" xlink:href="#a"/>
    <g mask="url(#b)">
      <path fill="#FFF" fill-rule="nonzero" d="M.5 115.6h139.4v113.7H.5z"/>
      <path d="M128.8 181.7c-1.2.8-2.5 1-3.4.5-.7-.4-.8-.2-.2.6.3.4 1 .9 1.6 1l2.4.8c1.5.7 3 .7 4 0 2.2-1.3.8-3.7-2-3.7-1 0-1.5.2-2.4.8zm6.3 2.9l-.2 1.8c0 4.7-2 9.2-5.4 13-.8.8-1.4 1.6-1.4 1.7 0 .3 3.9.2 4.4-.1.5-.3.5-.2.7.8.2 1.2 1 2.4 1.8 3 .5.4.7.4 1.3.1 1-.5 1.8-1.6 1.9-3 .1-1 .2-1.2.6-1l2.6.3 2.2.1-1.2-1.4a24.2 24.2 0 01-3.7-5.3 16.5 16.5 0 01-2-7c0-1.3-.2-2.6-.3-3-.3-.7-1-.7-1.3 0zm-88.8-11.7c-.4.4-.7 1.2-.8 1.7l-.7 2c-.7 1.6-.7 2.9 0 4 1 1.4 2.5 1.4 3.3 0 .6-1.3.5-3.2-.5-4.5-.8-1.2-.9-2.3-.3-3.5.3-.8-.3-.6-1 .3zm3.2 8.3c-.5.3-1 .6-1.2.9-1.5 2 1.9 4 4.3 2.7 2.5-1.4 2.6-1.4 3.9-1 1 .3 1 .3.8 0-.4-.9-1-1.2-3.6-2.1-2.9-1-3-1-4.2-.5zm-10 .7c-1.2.8-2.4 1-3.4.5-.7-.4-.8-.2-.2.6.3.4 1 .8 1.7 1 .6.1 1.6.5 2.3.8 1.6.6 3 .6 4 0 2.2-1.3.8-3.7-2-3.7-.9 0-1.5.2-2.4.8zm6.3 2.9l-.2 1.8c0 4.7-2 9.1-5.4 13-.8.8-1.4 1.6-1.4 1.7 0 .2 4 .2 4.4-.1.5-.3.6-.2.7.7.2 1.3 1 2.5 1.8 3.1.5.4.7.4 1.3 0 1-.4 1.8-1.5 1.9-2.9.1-1 .2-1.2.6-1l2.6.3h2.2l-1.2-1.3a24.2 24.2 0 01-3.7-5.3 16.5 16.5 0 01-2-7c0-1.3-.2-2.6-.3-3-.2-.7-.9-.7-1.3 0zm44.7-12c-.4.4-.8 1.2-.8 1.7l-.7 2c-.7 1.6-.7 2.9 0 4 1 1.4 2.5 1.3 3.2 0 .7-1.3.5-3.2-.4-4.5-.8-1.2-.9-2.3-.4-3.6.4-.7-.2-.5-1 .4zm3.2 8.3c-.5.2-1 .6-1.2.9-1.5 2 1.8 4 4.2 2.7 2.6-1.4 2.7-1.4 4-1 1 .3 1 .3.8 0-.4-.9-1-1.2-3.6-2.1-2.9-1-3-1-4.2-.5zm-10 .7c-1.2.8-2.5 1-3.4.5-.7-.4-.8-.2-.2.6.3.4 1 .8 1.6 1l2.4.8c1.5.6 3 .6 4 0 2.2-1.3.8-3.7-2-3.7-1 0-1.5.2-2.4.8zm6.3 2.9l-.2 1.7c0 4.8-2 9.2-5.4 13.1-.8.8-1.4 1.6-1.4 1.7 0 .2 3.9.2 4.4-.1.5-.3.5-.2.7.7.2 1.3.9 2.5 1.8 3 .5.5.7.5 1.3.2 1-.5 1.7-1.6 1.9-3 .1-1 .2-1.2.6-1l2.6.3h2.2l-1.2-1.3a24.2 24.2 0 01-3.7-5.3 16.5 16.5 0 01-2-7c0-1.3-.2-2.6-.3-3-.3-.7-1-.7-1.3 0zm-87-12c-.3.4-.7 1.2-.8 1.7-.1.5-.4 1.5-.7 2-.7 1.6-.6 2.9.1 4 1 1.4 2.5 1.4 3.2 0 .7-1.3.5-3.1-.4-4.5-.8-1.2-1-2.3-.4-3.5.3-.7-.3-.6-1 .3zm3.2 8.4c-.4.2-1 .5-1.2.8-1.4 2 1.9 4 4.3 2.8 2.6-1.5 2.6-1.5 3.9-1 1 .3 1 .3.9-.2-.5-.7-1.1-1.1-3.6-2-3-1-3-1-4.3-.4zm128.3-70.7c-.1.3-.3 1.1-.3 1.8 0 4.7-1.9 9.2-5.4 13l-1.4 1.7c0 .3 4 .2 4.5 0 .5-.3.5-.2.7.7.2 1.3.9 2.5 1.7 3 .6.4.8.5 1.4.1 1-.5 1.7-1.5 1.9-3 0-1 .2-1.1.5-1 .3.2 1.4.3 2.7.3l2.1.1-1.1-1.3a24.2 24.2 0 01-3.7-5.3 16.5 16.5 0 01-2-7c0-1.3-.2-2.7-.3-3-.3-.7-1-.8-1.3 0zm-89.3.2l-.2 1.8c0 4.7-2 9.2-5.4 13l-1.4 1.7c0 .3 3.9.2 4.4 0 .5-.3.5-.2.7.7.2 1.2.9 2.5 1.8 3 .5.4.7.4 1.3.1 1-.5 1.7-1.6 1.9-3 .1-1 .2-1.2.6-1 .2.1 1.4.3 2.6.3l2.2.1-1.2-1.3a24.2 24.2 0 01-3.7-5.3 16.5 16.5 0 01-2-7c0-1.4-.2-2.7-.3-3-.3-.7-1-.8-1.3-.1zm44.2-.1c-.1.3-.3 1-.3 1.8 0 4.7-1.9 9.2-5.4 13l-1.4 1.7c0 .3 4 .2 4.5-.1.5-.2.5-.2.7.8.2 1.2.9 2.5 1.7 3 .6.4.8.4 1.4.1 1-.5 1.7-1.6 1.9-3 0-1 .2-1.2.5-1 .3.1 1.4.3 2.6.3l2.2.1-1.1-1.4a24.2 24.2 0 01-3.7-5.2 16.5 16.5 0 01-2-7c0-1.4-.2-2.7-.3-3-.3-.7-1-.8-1.3-.1zm-87 0l-.2 1.7c0 2.4-.7 5-1.6 7.3l-.1 8.1c.2 1.3.9 2.5 1.8 3 .5.4.7.5 1.3.1 1-.5 1.7-1.5 1.9-3 .1-1 .2-1.1.6-1 .2.2 1.4.3 2.6.3l2.2.1-1.2-1.3a24.2 24.2 0 01-3.7-5.3 16.5 16.5 0 01-2-7c0-1.3-.2-2.7-.3-3-.3-.7-1-.8-1.3 0zm111 100.5c-.4.4-.8 1.2-.9 1.7-.1.6-.4 1.5-.7 2-.7 1.6-.6 3 .1 4 1 1.4 2.5 1.4 3.2 0 .7-1.3.5-3.1-.4-4.5-.8-1.2-1-2.3-.4-3.5.3-.7-.3-.5-1 .3zm3.2 8.4l-1.3.8c-1.4 2 1.9 4 4.3 2.8 2.6-1.4 2.6-1.5 3.9-1 1 .3 1 .3.9-.1-.5-.8-1.1-1.2-3.6-2-3-1-3-1-4.2-.5zm-10 .6c-1.2.8-2.5 1-3.5.5-.7-.4-.8-.1-.2.7.3.4 1 .8 1.7 1l2.3.7c1.6.7 3 .7 4 0 2.2-1.3.9-3.7-2-3.7-.9 0-1.5.2-2.3.8zm6.7 2.7l-.2 1.8c0 4.7-2 9.1-5.4 13-.8.7-1.4 1.5-1.4 1.6 0 .2 4 .2 4.4-.1.5-.3.6-.2.7.7.2 1.3 1 2.5 1.8 3 .5.4.7.5 1.3.2 1-.5 1.8-1.6 1.9-3 .1-1 .2-1.2.6-1l2.6.3h2.2l-1.2-1.3a24 24 0 01-3.7-5.2 16.2 16.2 0 01-2-7c0-1.3-.2-2.6-.3-2.9-.2-.7-.9-.8-1.3 0zM24 211.2c-.3.4-.7 1.2-.8 1.7 0 .5-.4 1.5-.7 2-.6 1.6-.6 2.9.1 4 1 1.4 2.5 1.4 3.2 0 .7-1.3.5-3.1-.4-4.5-.8-1.2-1-2.3-.4-3.5.3-.7-.3-.6-1 .3zm3.3 8.4l-1.3.8c-1.4 2 1.9 4 4.3 2.8 2.6-1.5 2.7-1.5 3.9-1 1 .3 1 .3.9-.1-.4-.8-1-1.2-3.6-2-3-1-3-1-4.2-.5zm-10 .6c-1.2.8-2.5 1-3.4.5-.8-.4-.8-.2-.2.6.3.4 1 .9 1.6 1l2.3.8c1.6.7 3 .7 4 0 2.2-1.3.9-3.7-2-3.7-.9 0-1.5.2-2.3.8zm6.8 2.7c-.1.3-.3 1-.3 1.8 0 4.7-1.9 9-5.4 13l-1.4 1.6c0 .2 4 .1 4.5-.1.4-.3.5-.2.6.7.3 1.3 1 2.5 1.8 3 .6.4.8.4 1.4.1 1-.5 1.7-1.5 1.8-2.9.2-1 .3-1.2.6-1l2.6.3h2.2l-1.1-1.3a24 24 0 01-3.8-5.2 16.2 16.2 0 01-1.9-7c0-1.3-.2-2.6-.3-3-.3-.6-1-.7-1.3 0zm44.1-11.8c-.3.4-.7 1.2-.8 1.7-.1.5-.4 1.5-.7 2-.7 1.6-.6 2.9.1 4 1 1.4 2.5 1.4 3.2 0 .7-1.3.5-3.1-.4-4.5-.8-1.2-1-2.3-.4-3.5.3-.7-.3-.6-1 .3zm3.2 8.4c-.4.2-1 .5-1.2.8-1.4 2 1.9 4 4.3 2.8 2.6-1.5 2.6-1.5 3.9-1 1 .3 1 .3.9-.2-.5-.7-1.1-1.1-3.6-2-3-1-3-1-4.3-.4zm-10 .6c-1.1.8-2.4 1-3.4.5-.7-.4-.8-.2-.2.6.3.4 1 .9 1.7 1l2.3.8c1.6.7 3 .7 4 0 2.2-1.3.9-3.7-2-3.7-.9 0-1.5.2-2.3.8zm6.8 2.7l-.2 1.8c0 4.7-2 9-5.4 13-.8.7-1.4 1.5-1.4 1.6 0 .2 4 .1 4.4-.1.5-.3.6-.2.7.7.2 1.3 1 2.5 1.8 3 .5.4.8.4 1.4.1 1-.5 1.7-1.5 1.8-3 .1-1 .2-1.1.6-1 .2.2 1.4.3 2.6.4h2.2l-1.2-1.3a24 24 0 01-3.7-5.2 16.3 16.3 0 01-1.9-7c0-1.3-.3-2.6-.4-3-.2-.6-.9-.7-1.3 0zm45-87c-.4.5-.8 1.3-.8 1.8l-.7 2c-.7 1.6-.7 2.9 0 4 1 1.4 2.5 1.4 3.2 0 .7-1.3.5-3.1-.4-4.5-.8-1.2-.9-2.3-.4-3.5.4-.7-.2-.6-1 .3zm3.2 8.5c-.5.2-1 .6-1.2.8-1.5 2 1.8 4 4.2 2.8 2.6-1.5 2.7-1.5 4-1 1 .3 1 .3.8-.1-.4-.8-1-1.2-3.6-2-2.9-1-3-1-4.2-.5zm-10 .6c-1.2.8-2.5 1-3.4.5-.7-.4-.8-.2-.2.6.3.4 1 .9 1.6 1l2.4.8c1.5.7 3 .7 4 0 2.2-1.3.8-3.7-2-3.7-1 0-1.5.2-2.4.8zm6.3 2.9l-.2 1.8c0 4.7-2 9.2-5.4 13l-1.4 1.7c0 .3 3.9.2 4.4-.1.5-.2.5-.2.7.8.2 1.2.9 2.4 1.8 3 .5.4.7.4 1.3.1 1-.5 1.8-1.6 1.9-3 .1-1 .2-1.2.6-1 .2.1 1.4.3 2.6.3l2.2.1-1.2-1.4a24.2 24.2 0 01-3.7-5.2 16.5 16.5 0 01-2-7c0-1.4-.2-2.7-.3-3-.3-.8-1-.8-1.3-.1zM24 136c-.4.4-.7 1.2-.8 1.7l-.7 2c-.7 1.6-.7 2.9 0 4 1 1.4 2.5 1.4 3.3 0 .6-1.3.5-3.2-.5-4.5-.8-1.2-.9-2.3-.3-3.5.3-.8-.3-.6-1 .3zm3.2 8.3c-.5.3-1 .6-1.2.9-1.5 2 1.9 4 4.3 2.7 2.5-1.4 2.6-1.4 3.9-1 1 .4 1 .4.8 0-.4-.9-1-1.2-3.6-2.1-2.9-1-3-1-4.2-.5zm-10 .7c-1.2.8-2.4 1-3.4.5-.7-.4-.8-.2-.2.6.3.4 1 .8 1.7 1l2.3.8c1.6.7 3 .7 4 0 2.2-1.3.8-3.7-2-3.7-.9 0-1.5.2-2.4.8zm6.3 2.9l-.2 1.8c0 4.7-2 9.2-5.4 13-.8.8-1.4 1.6-1.4 1.7 0 .2 3.9.2 4.4-.1.5-.3.6-.2.7.7.2 1.3 1 2.5 1.8 3.1.5.4.7.4 1.3 0 1-.4 1.8-1.5 1.9-2.9.1-1 .2-1.2.6-1l2.6.3h2.2l-1.2-1.3A24.2 24.2 0 0127 158a16.5 16.5 0 01-2-7c0-1.3-.2-2.6-.3-3-.2-.7-.9-.7-1.3 0zm44.7-12c-.4.4-.8 1.2-.8 1.7l-.7 2c-.7 1.6-.7 2.9 0 4 1 1.4 2.5 1.4 3.2 0 .7-1.3.5-3.2-.4-4.5-.8-1.2-.9-2.3-.4-3.5.4-.8-.2-.6-1 .3zm3.2 8.3c-.5.3-1 .6-1.2.9-1.5 2 1.8 4 4.2 2.7 2.6-1.4 2.7-1.4 4-1 1 .3 1 .3.8 0-.4-.9-1-1.2-3.6-2.1-2.9-1-3-1-4.2-.5zm-10 .7c-1.2.8-2.5 1-3.4.5-.7-.4-.8-.2-.2.6.3.4 1 .8 1.6 1l2.4.8c1.5.6 3 .6 4 0 2.2-1.3.8-3.7-2-3.7-1 0-1.5.2-2.4.8zm6.3 2.9l-.2 1.8c0 4.7-2 9.2-5.5 13l-1.3 1.7c0 .2 3.9.2 4.4-.1.5-.3.5-.2.7.7.2 1.3.9 2.5 1.8 3.1.5.4.7.4 1.3 0 1-.4 1.7-1.5 1.9-2.9.1-1 .2-1.2.6-1l2.6.3H76l-1.2-1.3a24.2 24.2 0 01-3.7-5.3 16.5 16.5 0 01-2-7c0-1.3-.2-2.6-.3-3-.3-.7-1-.7-1.3 0zM2.5 184.8c-.1.2-.3 1-.3 1.7 0 2.4-.7 5.1-1.6 7.3v8.1c.2 1.3.9 2.5 1.7 3 .6.5.8.5 1.4.2 1-.5 1.7-1.6 1.8-3 .2-1 .3-1.2.6-1l2.6.3H11l-1.1-1.3a24.2 24.2 0 01-3.8-5.3 16.5 16.5 0 01-1.9-7c0-1.3-.2-2.6-.3-3-.3-.7-1-.7-1.3 0z" fill="#000" fill-rule="nonzero"/>
      <g fill-rule="nonzero">
        <path fill="#E6000D" d="M.5 2H140v113.7H.5z"/>
        <path fill="#3CA100" d="M139.9 16.7V2h-17L.5 101v14.7h17z"/>
        <path fill="#3CA100" d="M.5 16.7V2h17L140 101v14.7h-17.4z"/>
        <path fill="#FFF" d="M.5 47.5h139.4V70L.5 70.2z"/>
        <path fill="#FFF" d="M58.7.8h22.7v116H59z"/>
      </g>
      <path fill="#E6000D" fill-rule="nonzero" d="M.5 343h139.4V229.3H.5z"/>
      <path d="M72.6 325.5c-.4.7.7 3.6 2.4 3.5-1-1.8-1-3.9-1-3.9l-1.4.4zm-4.3-3.2c-.6.1-2.1 4 .3 5.3 0-2.3 1.2-3.8 1.2-3.8l-1.3-1-.2-.5z" stroke="#650000" fill="#2B5DF2" fill-rule="nonzero"/>
      <path d="M68 320c-.6-.6-3.2 1.2-3.1 4 1.6-1.8 3.5-1.7 3.5-1.7L68 320zm3-2.2c0-.9-2.3-1.9-3.5-.2 1.7.2 2.7 1.9 2.7 1.9l.8-1.7zm46 8c0 .9.1 1.1.5 1.6.4.4.8 1.8.8 1.8s1.3-3.5 1-4c-.3-.5-2.3.6-2.3.7h0zm-6.6-1.4c-.7-.1-1.8 2.8-.9 4.8.5-2.3 1.9-3.3 1.9-3.3l-1-1.5zm-3-.9c-.6-.5-2.6 1.1-2.6 3.5 1.3-1.6 2.8-1.5 2.8-1.5l-.3-2zm1.5-3.7c-.3-.7-2.7-.1-3.1 2.2 1.6-1 3-.2 3-.2l.1-2zm-78-1.6c.2-.8-1.6-3-3.2-2.2 1.5 1.2 2 3.2 2 3.2l1.2-1zm-6.8 5c-.5-.6-3 1.4-2.9 4.6 1.5-2 3.4-2 3.4-2l-.5-2.5zm.3-4.4c-.3-1-3.2-.9-4.2 2 2-.8 3.6.6 3.6.6l.6-2.6zm2.9 8.4c-.2.8 0 1.1.3 1.7.3.5.6 2 .6 2s1.7-3.1 1.5-3.7c-.3-.5-2.3 0-2.4 0zM20 292c0-1-2.7-2.2-4.3 0 2.1.2 3.2 2.2 3.2 2.2l1.1-2.2zm-2.8 4.4c-.6-.7-3 1.4-3 4.5 1.6-2 3.4-1.9 3.4-1.9l-.4-2.6zm10-4.7c.3-1-2-3.4-4.1-2 2 1 2.5 3.5 2.5 3.5l1.6-1.5zm3.3 3.7c.4-.6-.4-3.7-2.2-3.9 1 2 .7 4.1.7 4.1l1.5-.2z" stroke="#650000" fill="#2B5DF2" fill-rule="nonzero"/>
      <path d="M39.8 299c-1.8-2 0-5.8 1.5-4.2-.8-1.5.5-2.7 1.1-2-.3-1.2 1-2 1.7-.8-.3-1.4 1.6-2.2 2.1-.7 0-1.4 1.9-2.4 2.3-.5.4-1.5 2.4-1.7 2.6.5.6-1.3 2.1-1.2 2.2.6.7-.8 2.4.5 2.1 2 1.1-.2 2.4 2 1.1 3.5 2.3-1.2 2.9 2.8 1.5 4.6.7.5.7 0 1.4.4.6.3 1.8.9 2.8 1.1 1 0 4.5 0 5.2-.2.8-.1 1.7-.5 3-.9 1.2-.4 3-.4 4.6-.8 1.2-.1 37.4.6 38.4.5 1-.1 2.6-1.1 2.5-2.4 0-1.2-1.3-2-2.5-2.2l-8.5.1c-1 .3-2.7.8-3.5 1.6-.4.2-1 1.2-1.5 1.8-.5.4-2 .5-2 0 0-.4 0 0-.4.1-.5.3-2.5.4-2.4 0 .1-.4 0-.5-.6 0-.4.3-3.2.4-3.7 0 .3-.5.3-.4-.6 0-.5.2-2.7.4-2.9 0 0-.4-.3-.2-.6-.1-2.5.6-2.8-.1-2.4-.5.4-.3 1-2.2.4-2l-6 1c-1.3.2-11.2 0-12.5 0a3.4 3.4 0 01-3-3.3c-.1-3 2.2-3.7 3.7-4.1a33 33 0 016.5-1.1c1.4 0 5.5.5 6.6 0 1.1-.4 4.5-1.7 5.5-1.8 1.4 0 5.5.4 7.4 2.7-1 .5-1.5.8-.3.3l6.5-1.4c3.6-.1 2.7.4 1 .9-.7 1.9-6 4.5-7.6 4.8-1.7.4-5.3.1-6 0-.9 0-4.7-.3-6-1.2a17.9 17.9 0 00-8.2-2.5c-1.7 0-6.5.6-6.5 2.3 0 3 4.5 3 6.4 3 2-.1 6.8-.4 8.1-1 1.4-.5 4.3-.6 6-.6 1.5 0 3.9.4 4.6.2.7 0 2.4-.1 3.2-.7.8-.5 2.5-1 4.3-1 1.7 0 14.8-.6 16.5-.5 2.6 0 4.4 2.8 4.4 5.2 0 1-.5 2.7-1 3l3.4.4c1.3.3 3.3 1.6 3.5 2.9-1-.6-2.4-1.5-3.8-1.6h-31c6 .7 10.7 5.4 12 8.1 1 1.7 3.5 1 4.5.8 1-.2 2-1.2 2.8-2 .8-.8 2-1 2.7-.8 1.2 0 1.4 1.3 1 2-.5.6 0 .3 1.3.3s2.4.5 3.2 1.5c-.8.7-1.1.1 0 .2 1 .1 2.2 2 1.4 2.6-.6.3-.8.2 0 .3 1.3.1 1.7 1 1.9 2.5-1.1.2-.6-.1 0 .4.5.6 1.4 3-.7 3.1-.7-.3-.7-.4-.5.4.1.8-.3 2.6-1.4 2.6-1.5.3-3-.5-3.1-1.5-.2-1-.1 2-2.3 2.4-2.1.4-3.2-.8-3.4-1.3-.1-.6 0-.1-.9-.2-.8-.1-1.8-.2-2.2-1.5 0-.8.2-1.8 1.6-2 .6 0 .8-.9.3-1-.5 0 0-1.8 1-1.3 1 .4 3.4.5 4 1 .5.7.7-.4-.2-1.2-.9-1-6.2-2.7-7.7-2-3.3 1.7-9 1.4-9.9 1.2-1-.2-3.7.4-5-3.7-1-4.1-5.1-6.2-7-6.4-9-.9-8.5-.2-2.6 0 0 .9-.3 2.4.7 2.7 1.6-.2 4.9-1 5.7-.3.8.7 1.6 1.2 1.4 2.8-.1 1.5.1 1.1-.6 1.8-.7.6-.4 2 .7 2.4 1.1.5 1.6 1 2.3 1.7.8.6-.3 2-1 1.5-.6-.4-.6-.4-.6.5-.1.9-1 2.6-2.3 2.7-.3-.1-.2-.6-.1-1 0-.7-.3 1-.7 1.5-.3.3-2.6 1-3.2.6.3-.6.1-.4-.4 0-.6.2-3.5.6-2.2-.8.3-.5-.5.6-1 .8-.3.3-2 .4-2-.3-.6.5-2 .5-2.1.2-.4-.5-.5.3-1.2.4-.7.1-2.3-.1-2.4-1 0-.9.2-.3-.7-.2-2.1 1.4-3.2-.6-3.2-1.2 0-.7 0-1.5.2-2 .2-.4-1.5-.5-1-1.4.6-1 1.2-1.8 2.4-1.7.6.2.5-.2.3-.6-.3-.5.6-.7 1.6-.2 1 .4 1.8 1.5 2.1 2.5.3 1 2.8.2 3.9.3 1 .2 1-1.6.4-2.2l-3-3.2c-.8-.7-.3-3 .3-3.6 3.7-2.5 1.7-3.3.3-3-1.3.2-4.8 1.6-6 2.8-1 1.2-9.8 7.2-10.6 7.9-.7.6-2 .8-2.4 0-.5-.8-.8-.2-.7.9a4.6 4.6 0 01-3.8 5.5c-.4 0-1.1-.3-1.6-.7-.4 2.3-2.5 2.6-4.4 2.3 0-.2.4-.8.2-.6-.6.8-2.5.8-4.2.6 0-.4.6-1 .3-.7-.6 1-1.5.8-3 .7 0-.2.7-1 .3-.5-.6.7-2 .5-3 .5-.2-.1.5-1.3-.2-.5-.6.6-1.8.7-3 .6-.2-.6.2-.6.3-1 .4-.5-.1 0-.5 0s-1 .2-1.2-.4c-.3-.5-.1.6-.3.9-.3.2-.5.9-1.3 1-.8.3-3 .5-3.2-.5-.5-.4-.7-1.4-.4-2 .4-.5-1.5 1.1-2.3 1.3-2.3.4-2.6-3.3-1.6-3.6 1-.3.9-.9.3-1.3-.5-.5-.8-2.3-.1-2.8.7-.6 2.4-.9 3.4-.2.6.4 2 1.8 1.7.7-.2-.6.3-1.5.8-1.9.4-.4 1.8-.5 2.2.4.8 2 1.4 3 2.4 2.9 2.3-.6 5.2-1.3 6.1-1.3 1.2-.3 7.1-.9 7.1-1.4-3.6 1.2-5-.4-5.4-.3-.4.1-1.4-.4-1.4-.7 0-.6 1-.6-.4-.3-.7 0-1.4-.1-2-1-.2-.3.8-1.8 1.1-3-.8-.2-2.6 1.3-3.2 2.6-.4-.5-.6 0-2.1.4-.7.3-1.9.2-2.5-.2-.6-.3-3.1-2.2-2-2.5l-.9-.3c-.8-.3-1.7-1-1.4-1.3-.2-.3.2-.3-.1-.4-.5 0-1.7-1-1.4-1.3l-1.3-.7c-.6-.3-1.1-1.5-1.2-2-.5 0-1.6-1-1.1-1.2-.9-.7-1.6-1.7-1-2-.5-.4-.8-1.1-.5-.9-.5-.6-.4-1.2 0-1.2s.3-1.8-.4-1.8c-.8 0-2 .5-2.8 0-.6-.6-1.2-3-.6-4s2-2 2.6-2c.6.2.3.4.1-.6-.1-1 1-1.7 1.6-2 .9-.4 2.5-.1 3 .3.5.5.6.5.6-.3 0-.5.6-.8 1.2-1 1-.2 1.6 0 2 .5.4.7.7 1.5.1 2.2-.6.6 0 0 1-.1.6-.3 1.8 0 2 .7.3.8.5 2.2-.2 2.8-.7.7-1.8 2.4-1.2 3 .6.5 2.3 3 2.7 3.3.4.3.9 1 1.5 1l2-.4c2.2-.4 3.2-.7.3-.6.7-.9 2-1.1 2.6-1.3-.5-.8 1.4-2.4 1.4-2.6h0z" stroke="#650000" fill="#FFE15A" fill-rule="nonzero"/>
      <path d="M39.8 308c-1.6-.3-5.4 3.1-4.2 7.3" stroke="#650000" stroke-width="1.1"/>
      <path d="M25.9 15.3c-2 13.2 10.6 8.1 10.7 3.7" stroke="url(#c)" stroke-width="1.1" transform="translate(14.1 288.9)"/>
      <path d="M50 309.8c.2 1.7.3 6.5-1.5 7.7a6.5 6.5 0 01-5.7.8" stroke="#650000"/>
      <path d="M46 312.4c-.1 1.7-1.8 6-5.1 5.4m-21.5-23.6c1.7.2 2.5 1.6 3 2.8l.5 1.9m-2 5.1c.7.4 2 0 2 0" stroke="#650000"/>
      <path d="M21.5 305.9c1.7.5 3.3-.4 3.3-.4" stroke="#650000" stroke-width=".9"/>
      <path d="M11 21c4.5 0 6.4-6.3 6.4-6.3" stroke="url(#d)" transform="translate(14.1 288.9)"/>
      <path d="M34.3 307c-1.3 3.2-1.1 3.2-2.7 3.9l-1.6.7" stroke-opacity=".1" stroke="#FFF" stroke-width="1.2"/>
      <path d="M29.2 313.3c1.7-.5 2.9-1.6 2.9-1.6m-4.7-18.2c-1 1.2-.9 3.4-.9 3.4m21.2-3.3c.3 2.2-.7 3.4-1.3 3.4-.6 0-1.3.8-1 2.2m4.9-6a5.5 5.5 0 00-1 4.6c.4 1.4 0 1.8 0 1.8" stroke="#650000"/>
      <path d="M37.1 305.9c-2 .5-2.8 4.2-1.7 6.1" stroke="#650000" stroke-width="1.2"/>
      <path d="M55.3 300.8h-1.4s-.9 1.8-2.3 1.3c-1.5-.5-.2 0-.2 0m-3.4-3c2 .1 1.7 1.8.1 1.7.1 2-2.3 1.8-2.1.2-1.5 0-2.1-2 0-1.8m52 1.6c.4-1.4 2.4-2.6 2.4-2.6m-5.3 2.5a7.9 7.9 0 012.4-2.6m-6.7 2.7c1.3-.8 1.7-1 2.1-1.5l1.4-1.3M87.1 300.8c1-.5 1.7-.8 2.4-1.3.8-.6 1.4-1.4 1.4-1.4M88 296.6a9 9 0 01-4.5-3.2m9.5-1.3c-2 .9-6.1.5-6.3.5m-30.5 26.5c.6-2.2 1.7-2.6 3.2-3.4 1.4-.6 3.7-2.4 2.3-1-1.4 1.3-3.4 2.1-4 2.6-.8.5-1.2 1.6-.9 2" stroke="#650000"/>
      <path d="M53.3 310.9c1.3 2.2.5 5.2-1.2 6" stroke="#650000" stroke-linecap="round"/>
      <path d="M57.6 303.4c2.1.9 2.2 3 2.5 4.2-.7-.4-1.3-.2-1.8-.4" stroke="#650000"/>
      <path d="M56.8 304.6c1.4 2 2 3.2 2 3.9.2 1.2.2 4.1-3.2 4 .3-.8.7-3.1.2-4" stroke="#650000" stroke-width=".9"/>
      <path d="M56 310.6a3 3 0 01-2 3m-3.2-11.7c.1 2.3-4 4-4 .5M46.8 302.5c0 1.7-2.4 2.1-3.2.7-.6-1-1-1.5-1.4-1.6-.4-.1-.4-1.6-.5-1.8l-.4-1.2" stroke="#650000"/>
      <path d="M29.4 14.2c1 1.8 3.6.7 4.2 1.5.7.7-.6 3.3-1 4.8-1 1.3-3 1.2-3.8.3.4-1.8.4-5.6.5-5.8v-.8z" stroke="#650000" stroke-width="1.1" fill="url(#e)" fill-rule="nonzero" transform="translate(14.1 288.9)"/>
      <path d="M24.4 292.1c.1 1.1-.1 1.3-.4 2.3-.2 1 .1 2.7.1 2.7m-.2 25.4c.9-.3 2.7 0 2.7 0m.5 2.8c.6-1 1.8-1.8 1.8-1.8m8 3.1c.5-.6.5-2.5.5-2.5m2.7 2.5c.7-.8.7-2.5.7-2.5m1.8 2.5c.7-1.4.6-2.9.6-2.9m3.4 3c.4-.7.4-2.4.4-2.4m27.8-1.4c-1.6-.4-2.6 1.8-2.6 1.8m4.6-2.2c-.2 1.6-1.4 3-1.4 3m3.9-3.1c-.1 1.3-1.5 3.1-1.5 3.1m4.6-3.6c-.3 1.7-1.5 3-1.5 3m3.7-3.7c.1 1.6-.7 4-1.2 4.5m4-3.8c.2.9 0 2 0 2m-17.1-5.3c1 .2 1.6 1.5 1.6 1.5m-3.4 1.5c.6-1.9 3-1 3.2-.4m41.5-8.3c-1-.2-2.2.3-2.2.3m6.2 1.3c-1.2.5-2.6.6-2.6.6m4.2 2.2l-1.9-.1m3.9 2.8c-1-.2-2.7 0-2.7 0m1.9 3.4c-.4-1-1.4-1.3-1.4-1.3m-8.9 3.5c.3-1.4 2-2.6 3-2.6h1m-5.4-.6c1-.4 2.7-.5 2.7-.5m-70.4-5.2c1-.9 1.9-2.6 1.9-2.6m10.9-18.6l-1.2 1.2m2.2.9h-1.5" stroke="#650000"/>
      <path d="M49.4 296.8c1-.4 3.5 0 3.4.8 0 1-.9 1.1-3.4.1v-.9z" stroke="#650000" stroke-width="1.1"/>
      <path d="M46.2 296.9c.1-1.3-2.4-2.6-3-1.9-.7 1.2 1.4 2.3 2 2.3h.2" stroke="#650000" stroke-width=".9"/>
      <path d="M53.6 306.5c.8 1.6 1 4.2.2 5.4" stroke-opacity=".3" stroke="#FFF"/>
      <path d="M53 301.7c-1 2.6-.2 5-.2 5m-11-4.3c-.8.6-1.4.4-1.4.4" stroke="#650000"/>
      <path d="M50.8 310c.8.5 1.9 3.1 1.7 4l-.1.9m-2-3.8c.5 1.3 1.2 3.3 1 4l-.1.6m-3.7-3.3c.3 1.4.2 3.6-.3 4l-.5.4m0-4.1a55 55 0 00-1 3.7" stroke-opacity=".3" stroke="#FFF"/>
      <path d="M39.9 303.2l-2.2 2.7" stroke-opacity=".1" stroke="#FFF" stroke-width="2.2" stroke-linecap="round"/>
      <path d="M39.3 308.5c-.8.7-2 2.2-2 2.2m3 0c-1.3-.9-2.8.6-2.8.6" stroke-opacity=".3" stroke="#FFF"/>
      <path d="M32.4 313c-.3 1-2.7 1.6-2.7 1.6" stroke-opacity=".1" stroke="#FFF" stroke-width="1.2"/>
      <path d="M51.7 297l-.1 1" stroke="#650000" stroke-width="1.9" stroke-linecap="round"/>
      <path d="M45.3 295.3l-.6 1.5" stroke="#650000" stroke-width="1.6" stroke-linecap="round"/>
      <path d="M37.8 303c-2.9 1.6-3.4 3-2.9 6.1" stroke="#650000"/>
      <path d="M57.6 298.6c-.9.4-.7 2.4-.7 2.4" stroke="#600" stroke-width="1.2"/>
      <path d="M39.9 295.8c.9.7.5 2.6.5 2.6" stroke="#600" stroke-width="1.1"/>
      <path d="M34 326.3c0 1.8-1.8 1.3-2.5 1.4l.6-1.3h.6l1.3-.1z" fill-opacity=".6" fill="#390000" fill-rule="nonzero"/>
      <path d="M49.6 310c.2 1 .1 1.6 0 2.6-.2 1.5-.2 1.6-.9 2.9l-.7 1.2-2-1.5v-.5c.4-.6.3-.7.5-1.5 0-.7.5-1.9.9-.7l2.2-2.4zm-7.4 6c.5.1 1.6-.3 2.1-.4.9-.3.1-.4.8-1l.5-1.3h-.9c-.1.7-.8.1-.9.2-.3.3-.3.1-.7.3-.4 0-.8 0-.1.1l-.8 2zm46-4.7a9.8 9.8 0 01-1.3 3.5 9.7 9.7 0 01-4 3.5l-1.5.3-.2-5.1.6-.1c.8-.4 1.3-.8 2-1.7.4-.9.6-2.2.3-.2l4-.2z" fill-opacity=".1" fill="#390000" fill-rule="nonzero"/>
      <path d="M12.8 22.5c3.4-.8 5.3-5.4 5.3-5.4" stroke="url(#f)" stroke-width="1.4" transform="translate(14.1 288.9)"/>
      <path d="M8.8 18.4c3.5.2 6-3.7 6-3.7" stroke="url(#g)" stroke-width="1.4" transform="translate(14.1 288.9)"/>
      <path d="M105.6 317.4l.1-.4c-.3 1-.2.5 1-.5h2.6c1 0 1.6.2 2.6.5.6.3 1 .8 1.7 1.2" stroke-opacity=".1" stroke="#700" stroke-width="2.6"/>
      <path d="M39 313.9c0 .5 1.3 1.2 2.1 1.2.8-.5.9-.7 1.4-1.5.2-.3 0-.1.1-.4l-1.7-1.7a1 1 0 00-.5.4c-.2.4-.2.6-.6.9-.4.2-.5 0-.2.2l-.3.5-.2.4zm15.4-.1c.5-.6.7-1 1-1.8.3-1.4.4-2.5.3-4l-.2-1.3-2 .9.2.5c0 .7 0 1.3-.2 2-.2.5-.6 1 0 .3l.9 3.4z" fill-opacity=".1" fill="#390000" fill-rule="nonzero"/>
      <path d="M55.7 304.9c.6 0 1 .3 1.5.8a8.6 8.6 0 012.1 4.4l-2 .8v-.6c-.3-.6-.5-1-1-1.5-.3-.3-.9-.3 0-.3l-.6-3.6z" fill-opacity=".1" fill="#000" fill-rule="nonzero"/>
      <path d="M52.6 316.4c.6-.9 1-.4 1.2-1.5 0-1.7-.2-3.1-.7-4.8l-.8-1.4-2.4 2 .3.6c.3.8.4 1.4.3 2.3 0 .7 0 1 .6 1.2l1.5 1.6z" fill-opacity=".1" fill="#390000" fill-rule="nonzero"/>
      <path d="M117.6 320.7c1 0 1.6.2 2.6.4.6.4 1.1.9 1.7 1.2m-9.2-8.4c1-.3 1.5-.2 2.5-.3l1.8.7" stroke-opacity=".1" stroke="#700" stroke-width="2.6"/>
      <path d="M96.1 316.7c-.6 0-1-.1-1.6-.3l-1.1-1" stroke-opacity=".1" stroke="#700" stroke-width="1.9"/>
      <path d="M102.8 303.9l-8.3-.2-8.2-.3" stroke-opacity=".1" stroke="#700" stroke-width="2.1"/>
      <path d="M75.4 306.7c.6-.4 1-.4 1.6-.5l1.3.3" stroke-opacity=".1" stroke="#700" stroke-width="1.9"/>
      <path d="M22.8 302.1c-.3.6-.5.9-.9 1.2-.5.5-.8.4-1.4.4-.2 0-.2-1.4-.3-1.5l.3-1 .2.2c.3 0 .5 0 .8-.3.2-.2.4-.8.1 0l1.2 1z" fill-opacity=".1" fill="#390000" fill-rule="nonzero"/>
      <path d="M43.3 302.5a5.7 5.7 0 01-1.4 3.7" stroke="#650000" stroke-width="1.1"/>
      <path d="M42 301.4c-.6 2.6.2 4.7.2 4.7" stroke="#650000" stroke-width="1.2"/>
      <path d="M48.6 304.4a6 6 0 001 3.9" stroke="#650000"/>
      <path d="M50 303.5c.4 2.7-.6 4.7-.6 4.7" stroke="#650000" stroke-width="1.2"/>
      <path d="M40.7 325c-.1 2-2.6 1.4-3.6 1.4l.3-.5 1.4-.8 1.9-.1z" fill-opacity=".1" fill="#390000" fill-rule="nonzero"/>
      <path d="M43 324.1c0 2.7-2.1 2-3 2l.2-.7 1.2-1.2H43zm3.9.1c-.1 4-3 3-4.2 3l.3-1c.2 0 1.2-1.4 1.7-1.8l2.2-.2z" fill-opacity=".1" fill="#390000" fill-rule="nonzero"/>
      <path d="M50.7 324.2c-.1 4-3 3-4.2 3l.3-1.1c.2 0 1.2-1.3 1.6-1.7l2.3-.2zm-13.8 0c0 4-2.5 3-3.6 3l.3-1.1c.2 0 1-1.3 1.4-1.7l2-.2z" fill-opacity=".1" fill="#390000" fill-rule="nonzero"/>
      <path d="M38.8 313.1c-.3 1-1 1.9-.8 2.5l-.5-.2c.4.1-.5-1.7-.7-1.4l.5-.3v-.2l.3-.1 1.2-.3z" fill-opacity=".6" fill="#390000" fill-rule="nonzero"/>
      <path d="M58 302c.2.2.9 0 2 .6-.4.7-1.7 1.1-2.2 1" stroke="#650000"/>
      <path d="M88.2 319.2c-.8.2-1.2.2-2 .1l-1.4-.6" stroke-opacity=".1" stroke="#700" stroke-width="2.1"/>
      <path d="M80.6 322c1.4.4 2.2.3 3.7.5l2.8-.5" stroke-opacity=".1" stroke="#700" stroke-width="3.2"/>
      <path d="M61 318c-1.5.5-2.2.6-2.7.1M62.6 316.8c-1.3.5-2 .7-2.7.2" stroke="#650000" stroke-linecap="round"/>
      <path d="M64.9 315.2c-1 .5-1.4.7-1.8.3" stroke="#650000" stroke-width=".8" stroke-linecap="round"/>
      <path d="M66.4 314c-1 .5-1.7.7-2.2.3" stroke="#650000" stroke-width=".9" stroke-linecap="round"/>
      <path d="M24.2 292.1c.2 1.1 0 1.3-.3 2.3-.3 1 0 2.7 0 2.7m3.6-3.6c-1 1.2-.8 3.4-.8 3.4M19.5 294c1.7.2 2.6 1.5 3 2.7l.6 2" stroke="#650000"/>
      <g>
        <path d="M72.6 277.3c-.4.6.7 3.6 2.4 3.5-1-1.8-1-4-1-4l-1.4.5zm-4.3-3.2c-.6 0-2.1 4 .3 5.3 0-2.4 1.2-3.8 1.2-3.8l-1.3-1-.2-.5z" stroke="#650000" fill="#2B5DF2" fill-rule="nonzero"/>
        <path d="M68 271.8c-.6-.6-3.2 1.2-3.1 4 1.6-1.9 3.5-1.7 3.5-1.7l-.4-2.3zm3-2.2c0-1-2.3-2-3.5-.2 1.7.2 2.7 1.8 2.7 1.8l.8-1.6zm46 8c0 .8.1 1.1.5 1.6.4.4.8 1.7.8 1.7s1.3-3.5 1-4c-.3-.4-2.3.7-2.3.7h0zm-6.6-1.4c-.7-.1-1.8 2.8-.9 4.7.5-2.3 1.9-3.3 1.9-3.3l-1-1.4zm-3-.9c-.6-.5-2.6 1-2.6 3.5 1.3-1.6 2.8-1.5 2.8-1.5l-.3-2zm1.5-3.7c-.3-.7-2.7-.1-3.1 2.2 1.6-1 3-.2 3-.2l.1-2zM31 270c.2-.8-1.6-3-3.2-2.2 1.5 1.2 2 3.2 2 3.2l1.2-1zm-6.8 5c-.5-.7-3 1.4-2.9 4.6 1.5-2.1 3.4-2 3.4-2l-.5-2.5zm.3-4.4c-.3-1-3.2-.9-4.2 2 2-.8 3.6.6 3.6.6l.6-2.6zm2.9 8.4c-.2.8 0 1.1.3 1.7.3.5.6 2 .6 2s1.7-3.1 1.5-3.7c-.3-.5-2.3 0-2.4 0zM20 243.7c0-1-2.7-2.2-4.3 0 2.1.2 3.2 2.2 3.2 2.2l1.1-2.2zm-2.8 4.4c-.6-.7-3 1.3-3 4.5 1.6-2 3.4-2 3.4-2l-.4-2.5zm10-4.8c.3-1-2-3.4-4.1-2 2 1.2 2.5 3.6 2.5 3.6l1.6-1.6zm3.3 3.8c.4-.6-.4-3.7-2.2-3.9 1 2 .7 4 .7 4h1.5z" stroke="#650000" fill="#2B5DF2" fill-rule="nonzero"/>
        <path d="M39.8 250.7c-1.8-2 0-5.7 1.5-4.1-.8-1.5.5-2.7 1.1-2-.3-1.2 1-2 1.7-.9-.3-1.3 1.6-2.1 2.1-.6 0-1.4 1.9-2.5 2.3-.5.4-1.5 2.4-1.7 2.6.5.6-1.3 2.1-1.2 2.2.6.7-.8 2.4.4 2.1 2 1.1-.3 2.4 2 1.1 3.5 2.3-1.2 2.9 2.8 1.5 4.6.7.4.7 0 1.4.4.6.3 1.8.9 2.8 1.1l5.2-.2c.8-.1 1.7-.5 3-1 1.2-.3 3-.3 4.6-.7 1.2-.2 37.4.6 38.4.5 1-.2 2.6-1.2 2.5-2.4 0-1.2-1.3-2-2.5-2.2-1.2-.1-7.3-.1-8.5.1-1 .2-2.7.8-3.5 1.6-.4.2-1 1.2-1.5 1.8-.5.4-2 .5-2 0s0 0-.4.1c-.5.3-2.5.4-2.4 0 .1-.4 0-.5-.6 0-.4.2-3.2.4-3.7 0 .3-.5.3-.5-.6 0-.5.2-2.7.4-2.9 0 0-.4-.3-.2-.6-.1-2.5.6-2.8-.1-2.4-.5.4-.3 1-2.2.4-2.1l-6 1.1c-1.3.2-11.2 0-12.5-.1a3.4 3.4 0 01-3-3.2c-.1-3 2.2-3.7 3.7-4.2a33 33 0 016.5-1c1.4 0 5.5.4 6.6 0 1.1-.4 4.5-1.7 5.5-1.8 1.4-.1 5.5.4 7.4 2.7-1 .5-1.5.7-.3.3l6.5-1.4c3.6-.1 2.7.4 1 .9-.7 1.9-6 4.5-7.6 4.8-1.7.3-5.3.1-6 0-.9-.1-4.7-.3-6-1.2a17.9 17.9 0 00-8.2-2.5c-1.7 0-6.5.6-6.5 2.3 0 3 4.5 3 6.4 3 2-.2 6.8-.4 8.1-1 1.4-.5 4.3-.6 6-.6 1.5 0 3.9.3 4.6.2.7 0 2.4-.1 3.2-.7.8-.5 2.5-1.1 4.3-1.1 1.7 0 14.8-.5 16.5-.4 2.6 0 4.4 2.8 4.4 5.2 0 1-.5 2.7-1 3l3.4.4c1.3.2 3.3 1.6 3.5 2.8-1-.5-2.4-1.4-3.8-1.5h-31c6 .7 10.7 5.4 12 8.1 1 1.7 3.5 1 4.5.8 1-.2 2-1.2 2.8-2 .8-.8 2-1 2.7-.8 1.2-.1 1.4 1.2 1 1.9-.5.7 0 .4 1.3.4s2.4.5 3.2 1.5c-.8.6-1.1.1 0 .2 1 .1 2.2 2 1.4 2.6-.6.3-.8.2 0 .3 1.3.1 1.7 1 1.9 2.5-1.1.2-.6-.2 0 .4.5.6 1.4 3-.7 3.1-.7-.3-.7-.4-.5.4.1.7-.3 2.6-1.4 2.6-1.5.3-3-.5-3.1-1.5-.2-1-.1 1.9-2.3 2.3-2.1.5-3.2-.7-3.4-1.2-.1-.6 0-.1-.9-.3-.8 0-1.8 0-2.2-1.4 0-.8.2-1.8 1.6-2 .6 0 .8-.9.3-1-.5-.1 0-1.8 1-1.3 1 .4 3.4.5 4 1 .5.6.7-.4-.2-1.3-.9-.9-6.2-2.6-7.7-2-3.3 1.7-9 1.5-9.9 1.3-1-.3-3.7.3-5-3.7-1-4.1-5.1-6.2-7-6.4-9-.9-8.5-.2-2.6 0 0 .8-.3 2.4.7 2.7 1.6-.3 4.9-1 5.7-.3.8.7 1.6 1.2 1.4 2.8-.1 1.5.1 1-.6 1.7s-.4 2 .7 2.5c1.1.4 1.6 1 2.3 1.7.8.6-.3 2-1 1.5-.6-.4-.6-.4-.6.5-.1.9-1 2.5-2.3 2.7-.3-.1-.2-.6-.1-1 0-.7-.3 1-.7 1.5-.3.3-2.6 1-3.2.6.3-.7.1-.4-.4 0-.6.2-3.5.6-2.2-.8.3-.6-.5.6-1 .8-.3.2-2 .4-2-.3-.6.5-2 .5-2.1.1-.4-.4-.5.4-1.2.5-.7 0-2.3-.1-2.4-1 0-1 .2-.4-.7-.2-2.1 1.4-3.2-.6-3.2-1.3 0-.6 0-1.4.2-1.9.2-.4-1.5-.5-1-1.4.6-1 1.2-1.9 2.4-1.7.6.1.5-.2.3-.6-.3-.5.6-.7 1.6-.3 1 .5 1.8 1.6 2.1 2.6.3 1 2.8.2 3.9.3 1 .1 1-1.6.4-2.2l-3-3.2c-.8-.7-.3-3 .3-3.6 3.7-2.5 1.7-3.3.3-3-1.3.1-4.8 1.5-6 2.8-1 1.2-9.8 7.2-10.6 7.8-.7.7-2 .9-2.4 0-.5-.7-.8-.1-.7 1a4.6 4.6 0 01-3.8 5.5c-.4 0-1.1-.3-1.6-.7-.4 2.3-2.5 2.6-4.4 2.3 0-.3.4-.8.2-.6-.6.8-2.5.7-4.2.6 0-.5.6-1 .3-.7-.6 1-1.5.8-3 .7 0-.2.7-1 .3-.5-.6.7-2 .5-3 .5-.2-.1.5-1.3-.2-.5-.6.6-1.8.7-3 .5-.2-.5.2-.5.3-.8.4-.6-.1 0-.5 0s-1 0-1.2-.5c-.3-.5-.1.6-.3.9-.3.2-.5.8-1.3 1-.8.3-3 .5-3.2-.5-.5-.4-.7-1.4-.4-2 .4-.5-1.5 1-2.3 1.2-2.3.5-2.6-3.2-1.6-3.5 1-.4.9-1 .3-1.4-.5-.4-.8-2.2-.1-2.7.7-.6 2.4-.9 3.4-.3.6.5 2 2 1.7.8-.2-.7.3-1.5.8-2 .4-.3 1.8-.4 2.2.5.8 2 1.4 2.9 2.4 2.9 2.3-.7 5.2-1.3 6.1-1.3 1.2-.3 7.1-1 7.1-1.5-3.6 1.3-5-.3-5.4-.2-.4 0-1.4-.4-1.4-.7 0-.7 1-.6-.4-.4-.7 0-1.4 0-2-.9-.2-.4.8-1.8 1.1-3-.8-.2-2.6 1.3-3.2 2.6-.4-.5-.6 0-2.1.3-.7.4-1.9.2-2.5 0-.6-.4-3.1-2.3-2-2.6l-.9-.3c-.8-.4-1.7-1.1-1.4-1.3-.2-.3.2-.3-.1-.4-.5-.1-1.7-1-1.4-1.3l-1.3-.7c-.6-.3-1.1-1.5-1.2-2-.5 0-1.6-1-1.1-1.3-.9-.6-1.6-1.6-1-2-.5-.3-.8-1-.5-.8-.5-.6-.4-1.3 0-1.3s.3-1.7-.4-1.7c-.8 0-2 .5-2.8 0-.6-.6-1.2-3-.6-4s2-2 2.6-2c.6.2.3.4.1-.6-.1-1 1-1.8 1.6-2 .9-.4 2.5-.1 3 .3.5.5.6.5.6-.3 0-.6.6-.8 1.2-1 1-.2 1.6 0 2 .4.4.8.7 1.6.1 2.3-.6.6 0 0 1-.2.6-.2 1.8.1 2 .8.3.8.5 2.1-.2 2.8-.7.7-1.8 2.3-1.2 2.9.6.6 2.3 3 2.7 3.3.4.4.9 1.1 1.5 1 .7 0 1.4-.2 2-.3 2.2-.4 3.2-.7.3-.6.7-.9 2-1.2 2.6-1.3-.5-.8 1.4-2.4 1.4-2.7h0z" stroke="#650000" fill="#FFE15A" fill-rule="nonzero"/>
        <path d="M39.8 259.8c-1.6-.3-5.4 3.1-4.2 7.3" stroke="#650000" stroke-width="1.1"/>
        <path d="M25.9 15.3c-2 13.2 10.6 8.1 10.7 3.7" stroke="url(#c)" stroke-width="1.1" transform="translate(14.1 240.7)"/>
        <path d="M50 261.5c.2 1.8.3 6.6-1.5 7.8a6.5 6.5 0 01-5.7.8" stroke="#650000"/>
        <path d="M46 264.2c-.1 1.7-1.8 6-5.1 5.4M19.4 246c1.7.2 2.5 1.6 3 2.8l.5 1.8m-2 5.2c.7.3 2 0 2 0" stroke="#650000"/>
        <path d="M21.5 257.6c1.7.6 3.3-.3 3.3-.3" stroke="#650000" stroke-width=".9"/>
        <path d="M11 21c4.5 0 6.4-6.3 6.4-6.3" stroke="url(#d)" transform="translate(14.1 240.7)"/>
        <path d="M34.3 258.7c-1.3 3.3-1.1 3.3-2.7 4l-1.6.6" stroke-opacity=".1" stroke="#FFF" stroke-width="1.2"/>
        <path d="M29.2 265c1.7-.5 2.9-1.5 2.9-1.5m-4.7-18.2c-1 1.2-.9 3.4-.9 3.4m21.2-3.4c.3 2.3-.7 3.5-1.3 3.5-.6 0-1.3.8-1 2.1m4.9-6a5.5 5.5 0 00-1 4.7c.4 1.4 0 1.8 0 1.8" stroke="#650000"/>
        <path d="M37.1 257.7c-2 .5-2.8 4.1-1.7 6" stroke="#650000" stroke-width="1.2"/>
        <path d="M55.3 252.5h-1.4s-.9 2-2.3 1.4c-1.5-.5-.2 0-.2 0m-3.4-3c2 .1 1.7 1.8.1 1.6.1 2-2.3 1.8-2.1.3-1.5 0-2.1-2 0-1.8m52 1.5c.4-1.3 2.4-2.5 2.4-2.5m-5.3 2.5a7.9 7.9 0 012.4-2.6m-6.7 2.7c1.3-.8 1.7-1.1 2.1-1.5l1.4-1.3M87.1 252.6c1-.5 1.7-.8 2.4-1.3.8-.6 1.4-1.4 1.4-1.4M88 248.4a9 9 0 01-4.5-3.2M93 244c-2 .9-6.1.5-6.3.5m-30.5 26.5c.6-2.2 1.7-2.7 3.2-3.4 1.4-.6 3.7-2.4 2.3-1-1.4 1.3-3.4 2.1-4 2.6-.8.5-1.2 1.5-.9 2" stroke="#650000"/>
        <path d="M53.3 262.7c1.3 2.2.5 5.2-1.2 6" stroke="#650000" stroke-linecap="round"/>
        <path d="M57.6 255.2c2.1.9 2.2 3 2.5 4.2-.7-.4-1.3-.2-1.8-.5" stroke="#650000"/>
        <path d="M56.8 256.4c1.4 2 2 3.2 2 3.8.2 1.2.2 4.2-3.2 4.1.3-.8.7-3.2.2-4" stroke="#650000" stroke-width=".9"/>
        <path d="M56 262.3a3 3 0 01-2 3m-3.2-11.6c.1 2.3-4 4-4 .5M46.8 254.3c0 1.7-2.4 2-3.2.6-.6-1-1-1.4-1.4-1.5-.4-.2-.4-1.6-.5-1.8l-.4-1.3" stroke="#650000"/>
        <path d="M29.4 14.2c1 1.8 3.6.7 4.2 1.5.7.7-.6 3.3-1 4.8-1 1.3-3 1.2-3.8.3.4-1.8.4-5.6.5-5.8v-.8z" stroke="#650000" stroke-width="1.1" fill="url(#e)" fill-rule="nonzero" transform="translate(14.1 240.7)"/>
        <path d="M24.4 243.9c.1 1-.1 1.3-.4 2.3-.2 1 .1 2.6.1 2.6m-.2 25.5c.9-.3 2.7 0 2.7 0m.5 2.8c.6-1 1.8-1.8 1.8-1.8m8 3.1c.5-.6.5-2.5.5-2.5m2.7 2.5c.7-.8.7-2.5.7-2.5m1.8 2.4c.7-1.3.6-2.8.6-2.8m3.4 3c.4-.7.4-2.4.4-2.4m27.8-1.4c-1.6-.4-2.6 1.8-2.6 1.8m4.6-2.2c-.2 1.6-1.4 3-1.4 3m3.9-3.1c-.1 1.3-1.5 3.1-1.5 3.1m4.6-3.7c-.3 1.8-1.5 3.1-1.5 3.1m3.7-3.7c.1 1.6-.7 4-1.2 4.5m4-3.8c.2.8 0 2 0 2m-17.1-5.3c1 .2 1.6 1.4 1.6 1.4m-3.4 1.6c.6-1.9 3-1 3.2-.4m41.5-8.4c-1 0-2.2.4-2.2.4m6.2 1.3c-1.2.5-2.6.6-2.6.6m4.2 2.2l-1.9-.1m3.9 2.7h-2.7m1.9 3.4c-.4-1-1.4-1.2-1.4-1.2m-8.9 3.5c.3-1.5 2-2.6 3-2.6h1m-5.4-.6c1-.4 2.7-.5 2.7-.5m-70.4-5.2c1-.9 1.9-2.6 1.9-2.6m10.9-18.6l-1.2 1.2m2.2.9h-1.5" stroke="#650000"/>
        <path d="M49.4 248.5c1-.3 3.5 0 3.4.9 0 1-.9 1.1-3.4 0V248.6z" stroke="#650000" stroke-width="1.1"/>
        <path d="M46.2 248.7c.1-1.3-2.4-2.6-3-1.9-.7 1.2 1.4 2.3 2 2.3h.2" stroke="#650000" stroke-width=".9"/>
        <path d="M53.6 258.3c.8 1.5 1 4.1.2 5.4" stroke-opacity=".3" stroke="#FFF"/>
        <path d="M53 253.5c-1 2.6-.2 5-.2 5m-11-4.4c-.8.7-1.4.5-1.4.5" stroke="#650000"/>
        <path d="M50.8 261.8c.8.4 1.9 3 1.7 4l-.1.8m-2-3.7c.5 1.3 1.2 3.3 1 4l-.1.6m-3.7-3.3c.3 1.3.2 3.5-.3 4l-.5.4m0-4.2a55 55 0 00-1 3.8" stroke-opacity=".3" stroke="#FFF"/>
        <path d="M39.9 255l-2.2 2.6" stroke-opacity=".1" stroke="#FFF" stroke-width="2.2" stroke-linecap="round"/>
        <path d="M39.3 260.3c-.8.6-2 2.2-2 2.2m3 0c-1.3-1-2.8.6-2.8.6" stroke-opacity=".3" stroke="#FFF"/>
        <path d="M32.4 264.8c-.3.9-2.7 1.6-2.7 1.6" stroke-opacity=".1" stroke="#FFF" stroke-width="1.2"/>
        <path d="M51.7 248.8l-.1 1" stroke="#650000" stroke-width="1.9" stroke-linecap="round"/>
        <path d="M45.3 247l-.6 1.6" stroke="#650000" stroke-width="1.6" stroke-linecap="round"/>
        <path d="M37.8 254.8c-2.9 1.5-3.4 2.9-2.9 6.1" stroke="#650000"/>
        <path d="M57.6 250.4c-.9.4-.7 2.3-.7 2.3" stroke="#600" stroke-width="1.2"/>
        <path d="M39.9 247.6c.9.6.5 2.5.5 2.5" stroke="#600" stroke-width="1.1"/>
        <path d="M34 278c0 2-1.8 1.4-2.5 1.4l.6-1.2h.6l1.3-.2z" fill-opacity=".6" fill="#390000" fill-rule="nonzero"/>
        <path d="M49.6 261.8c.2 1 .1 1.5 0 2.5-.2 1.6-.2 1.7-.9 3l-.7 1.1-2-1.4v-.5c.4-.6.3-.7.5-1.5 0-.7.5-1.9.9-.7l2.2-2.5zm-7.4 6l2.1-.4c.9-.3.1-.4.8-1l.5-1.3h-.9c-.1.7-.8.1-.9.2-.3.3-.3.1-.7.2-.4.1-.8 0-.1.2l-.8 2zm46-4.7a9.8 9.8 0 01-1.3 3.5 9.7 9.7 0 01-4 3.5l-1.5.2-.2-5 .6-.1c.8-.4 1.3-.9 2-1.7.4-1 .6-2.2.3-.2l4-.2z" fill-opacity=".1" fill="#390000" fill-rule="nonzero"/>
        <path d="M12.8 22.5c3.4-.8 5.3-5.4 5.3-5.4" stroke="url(#f)" stroke-width="1.4" transform="translate(14.1 240.7)"/>
        <path d="M8.8 18.4c3.5.2 6-3.7 6-3.7" stroke="url(#g)" stroke-width="1.4" transform="translate(14.1 240.7)"/>
        <path d="M105.6 269.2l.1-.4c-.3 1-.2.5 1-.5h2.6c1 0 1.6.2 2.6.5.6.3 1 .8 1.7 1.1" stroke-opacity=".1" stroke="#700" stroke-width="2.6"/>
        <path d="M39 265.6c0 .6 1.3 1.3 2.1 1.3.8-.5.9-.7 1.4-1.6.2-.2 0 0 .1-.4l-1.7-1.6a1 1 0 00-.5.3c-.2.5-.2.7-.6 1-.4.1-.5 0-.2.2l-.3.5-.2.3zm15.4 0c.5-.6.7-1 1-1.9.3-1.3.4-2.5.3-4l-.2-1.2-2 .8.2.6c0 .7 0 1.2-.2 1.9-.2.6-.6 1 0 .4l.9 3.4z" fill-opacity=".1" fill="#390000" fill-rule="nonzero"/>
        <path d="M55.7 256.6c.6.1 1 .4 1.5.8a8.6 8.6 0 012.1 4.5l-2 .8v-.6c-.3-.7-.5-1-1-1.5-.3-.3-.9-.4 0-.4l-.6-3.6z" fill-opacity=".1" fill="#000" fill-rule="nonzero"/>
        <path d="M52.6 268.2c.6-1 1-.4 1.2-1.5 0-1.8-.2-3.1-.7-4.8l-.8-1.4-2.4 2 .3.6c.3.8.4 1.4.3 2.3 0 .7 0 1 .6 1.2l1.5 1.6z" fill-opacity=".1" fill="#390000" fill-rule="nonzero"/>
        <path d="M117.6 272.4c1 0 1.6.3 2.6.5.6.3 1.1.8 1.7 1.2m-9.2-8.5c1-.2 1.5-.2 2.5-.2l1.8.7" stroke-opacity=".1" stroke="#700" stroke-width="2.6"/>
        <path d="M96.1 268.5c-.6 0-1-.2-1.6-.3l-1.1-1" stroke-opacity=".1" stroke="#700" stroke-width="1.9"/>
        <path d="M102.8 255.7l-8.3-.3-8.2-.2" stroke-opacity=".1" stroke="#700" stroke-width="2.1"/>
        <path d="M75.4 258.5c.6-.4 1-.4 1.6-.6.4 0 .9.3 1.3.4" stroke-opacity=".1" stroke="#700" stroke-width="1.9"/>
        <path d="M22.8 253.9c-.3.6-.5.8-.9 1.2-.5.5-.8.4-1.4.4-.2 0-.2-1.4-.3-1.5l.3-1 .2.2c.3 0 .5 0 .8-.3.2-.3.4-.8.1 0l1.2 1z" fill-opacity=".1" fill="#390000" fill-rule="nonzero"/>
        <path d="M43.3 254.3a5.7 5.7 0 01-1.4 3.6" stroke="#650000" stroke-width="1.1"/>
        <path d="M42 253.1c-.6 2.7.2 4.8.2 4.8" stroke="#650000" stroke-width="1.2"/>
        <path d="M48.6 256.2a6 6 0 001 3.9" stroke="#650000"/>
        <path d="M50 255.3c.4 2.7-.6 4.6-.6 4.6" stroke="#650000" stroke-width="1.2"/>
        <path d="M40.7 276.8c-.1 1.9-2.6 1.4-3.6 1.4l.3-.5 1.4-.8 1.9-.1z" fill-opacity=".1" fill="#390000" fill-rule="nonzero"/>
        <path d="M43 275.9c0 2.7-2.1 2-3 2l.2-.7 1.2-1.2 1.6-.1zm3.9.1c-.1 4-3 3-4.2 3l.3-1c.2 0 1.2-1.4 1.7-1.8l2.2-.2z" fill-opacity=".1" fill="#390000" fill-rule="nonzero"/>
        <path d="M50.7 276c-.1 4-3 3-4.2 3l.3-1.1c.2 0 1.2-1.3 1.6-1.8l2.3-.1zm-13.8 0c0 4-2.5 3-3.6 3l.3-1.1c.2 0 1-1.3 1.4-1.8l2-.1z" fill-opacity=".1" fill="#390000" fill-rule="nonzero"/>
        <path d="M38.8 265c-.3 1-1 1.7-.8 2.4l-.5-.3c.4.2-.5-1.6-.7-1.3l.5-.3v-.2l.3-.2 1.2-.2z" fill-opacity=".6" fill="#390000" fill-rule="nonzero"/>
        <path d="M58 253.8c.2.1.9 0 2 .5-.4.8-1.7 1.2-2.2 1" stroke="#650000"/>
        <path d="M88.2 271c-.8.2-1.2.1-2 .1l-1.4-.7" stroke-opacity=".1" stroke="#700" stroke-width="2.1"/>
        <path d="M80.6 273.7c1.4.4 2.2.4 3.7.6 1-.1 1.9-.4 2.8-.6" stroke-opacity=".1" stroke="#700" stroke-width="3.2"/>
        <path d="M61 269.8c-1.5.5-2.2.6-2.7.1M62.6 268.5c-1.3.6-2 .7-2.7.3" stroke="#650000" stroke-linecap="round"/>
        <path d="M64.9 267c-1 .5-1.4.7-1.8.3" stroke="#650000" stroke-width=".8" stroke-linecap="round"/>
        <path d="M66.4 265.8c-1 .5-1.7.7-2.2.3" stroke="#650000" stroke-width=".9" stroke-linecap="round"/>
        <path d="M24.2 243.9c.2 1 0 1.3-.3 2.3-.3 1 0 2.6 0 2.6m3.6-3.5c-1 1.2-.8 3.4-.8 3.4M19.5 245.8c1.7.2 2.6 1.5 3 2.7l.6 2" stroke="#650000"/>
      </g>
      <path d="M135.6 172.7c-.4.4-.8 1.2-.8 1.7l-.7 2c-.7 1.6-.7 2.9 0 4 1 1.4 2.5 1.4 3.2 0 .7-1.3.5-3.1-.4-4.5-.8-1.2-.9-2.3-.4-3.5.4-.7-.2-.6-1 .3zm3.2 8.4c-.5.2-1 .5-1.2.8-1.5 2 1.8 4 4.2 2.8 2.6-1.5 2.7-1.5 4-1 1 .3 1 .3.8-.2-.4-.7-1-1.1-3.6-2-2.9-1-3-1-4.2-.4z" fill="#000" fill-rule="nonzero"/>
      <path fill="#0092C8" fill-rule="nonzero" d="M139.9 2h372v341h-372z"/>
      <path d="M337.9 30c-1.1 1-1.5 2-1.2 3.5.2 2 .2 2-2.6 1.4-5.3-.9-15.3-.4-21.6 1.2-8.3 2-12.4 2-22-1-1.2-.4-1.1 0 .6 3.2 2.1 4 3.1 4.7 8 6.5l3.2 1-5.7 1.6c-3 .8-6.2 1.5-6.8 1.5-2.4 0-1.2 1.3 2 2.4 4.9 1.7 10 1.4 20.3-1a48.6 48.6 0 0121.3-1.2c.4.3-1.3 2.3-3.6 4.4-3.4 3.1-4.7 3.8-6.7 3.9-1.5 0-3.6.2-4.8.4-2.2.5-2.2.6-2.2 4.6v4l-16.4 15.4a325.1 325.1 0 01-21.6 19.3c-.8 1.4.1 4 1.6 4.6 1 .3.3 1.5-2.8 5.9a83.9 83.9 0 00-10.9 20.7l-2 5.3-1-3.9a87 87 0 01-3.3-21.2c0-5.4 0-5.4 3.6-10.7A128 128 0 01284 80.2a60 60 0 018.8-5.3c5.6-2.7 7-3.9 7-5.8 0-2.4-1.6-3.5-4.3-3-1.6.3-7.8-.6-18.6-2.8l-16.3-3.4 1.7-6.7c1.1-4.3 2.3-7.4 3.4-8.6 2.1-2.2 2.2-4.9.1-6.8-3.5-3.4-8.8-.5-8 4.3l.3 2.4-4.6.5a110 110 0 00-13.4 3c-9.8 2.6-17.4 3-22.4 1.3l-3-1-.1 1.7c0 3 1.9 5.7 5 7.3l3 1.4-2 .5c-1.1.3-4.3.3-7.2.1-2.9-.2-5.2-.2-5.2 0 0 1.5 3.5 5.5 5.7 6.6 5 2.5 15.2 1.6 26.7-2.4 5.7-2 13-2.6 12.6-1-.3.8-10.2 8.3-27.3 20.6-8.6 6.1-10 7.8-8.6 10.8.7 1.6.5 2.2-1.6 5.8a70.8 70.8 0 00-8.9 27.9c0 3.3-.2 3.6-4.9 8.6-9.5 10-28.1 33.4-32.1 40.4l-1.3 2.2-1.3-1.7c-2.7-3.4-8.3-1.5-8.3 2.8 0 3 1.8 4.7 5.1 4.7 1.8 0 5.5 1.4 11.8 4.6l9.3 4.6-1.8 2c-3.4 3.6-4 6.5-2.3 9 .8 1.1 1.9 1.3 5.8 1.3 4.3 0 5.7.4 10.5 2.8s6.7 3.9 13.7 11.2c21.8 22.8 27.2 27.6 40.2 35.6 7.6 4.7 21.3 11.5 28 14a124.6 124.6 0 0097.7-6c5.7-3 8.4-4 8.5-3.4.3.5.9 2.5 1.5 4.5 1.2 4 4.7 9.8 6.2 10.4.5.2 11.8-1.4 25.2-3.4l24.8-3.9c1.4 0 3-7.7 3-13.7 0-6.2-.2-6.6-3.1-12.4a35.9 35.9 0 00-15.2-16l-4-1.8 1.8-2.2c7.8-10.4 17-25.3 20.6-33.3l2-5.3 3.7-.1c2 0 3.8-.3 4-.6.3-.3 0-2.5-.6-5.8l-1-6.1s1.2-.2 2.8-.2h2.8v-16l12.2-23.2c6.6-12.8 12.8-24 13.7-25 2.2-2.1 2-5.4-.7-7.3-1.6-1.2-2.2-1.3-4-.6-2.1 1-3.8 3.7-3.2 5.2.3.6-.3 2.2-1 3.6-1.4 2.2-2 2.4-3.5 2.2-1-.3-9-1.6-17.9-3l-16-2.8-7.7 14.2c-4.3 7.7-7.8 14.2-7.7 14.3l18.2 1.4c9.8.6 18 1.3 18.2 1.4.2.1-2.2 4.6-5.3 9.9l-5.5 9.5h-16.2c-14 0-16.2.1-17 1.1-.7 1-1 0-2.4-6.1a220.3 220.3 0 01-4.3-27.3c0-3.5 3.1-10.6 8.8-20.2 8.4-14.3 20.4-28.1 25.1-29 4.1-.8 7-3 7-5.3 0-2.4-1.1-3.6-4-4-1.8-.1-26.7-10-27.8-11-.7-.5 2.8-12.7 4-14.1 3.8-4.3-3.4-10.4-7.4-6.3-1.6 1.5-1.9 4.8-.5 6.3 1 1 0 .8-3.8.2a55 55 0 00-20.2 1.2c-7 1.8-12.5 1.9-18.7.1-2.7-.7-4.8-1-4.8-.6 0 1.6 3 6 5.2 7.4 1.3.8 3.5 1.8 5 2.1l2.8.7-4.2 1.2-7.4 2-3.1.8 2.8 1.2c4.2 2 11.6 1.7 20.7-.5 5.1-1.3 9.5-1.9 14-2 5.5 0 8.2.5 7.2 1.3-9.5 7.5-42 32.1-45.6 34.6-5.7 3.8-6.5 5-6.5 8.3 0 1.8.3 2.4 2 3l2 .7-2.4 3.9a79.4 79.4 0 00-5 9.2l-2.4 5.4-1.3-2.5a46.2 46.2 0 01-3-12.4c-.4-2.5 0-3.6 2.9-8.7a104 104 0 0118.1-23.4c.6-1-1.6-3.5-3-3.5-1 0-26.3-17.5-26.3-18.2 0-2 3.8-12.2 5-13.2.8-.7 1.4-2.2 1.4-3.4 0-4.2-5.4-6.4-8.5-3.3h0zm14.4 31.6a151 151 0 019.6 7.1c0 .5-18.5 7.1-18.8 6.8a25 25 0 012.2-5.3c1.4-2.8 2.5-5.4 2.5-6 0-1-6.7-4.3-8.7-4.7-1.7-.3-2-1.2-1.1-4.2l.8-2.8 2 1.2 11.5 8zm88.6 2.9c0 .4-28.4 9.2-28.7 9-.2-.2 4-14.7 5-18 .3-.6 4.2.8 12 3.9 6.4 2.6 11.7 4.9 11.7 5zm-109.7-7.9c-.2.5-.7.8-1.2.8-.4 0-.4-.4.2-1 1-1.3 1.8-1 1 .2h0zm75.7 9.8c-1.6 5-3.1 9.3-3.4 9.6-.4.5-10.2 3.7-26 8.5-5.3 1.6-6.5 2-4.3.5l18.7-14.5c9.3-7 17.5-13.4 17.7-13.4.3-.1-1.2 4.3-2.7 9.3h0zM273 64.9c14.8 3 15 3.1 12.3 3.9l-15.7 4.4L256 77l.5-1.9a76.1 76.1 0 013.7-12.7c.3 0 6 1 12.9 2.5zM251.6 68l-1.8 6-1.4 5-5.5 1.5-10.3 3-4.5 1c.6-.6 23.4-17.3 23.6-17.3l-.1.8h0zm66.5 3.2c.9-.2 1.5-.2 1.5 0 0 1-13 17.6-14.3 18.1l-9.2 3.4-7.7 2.8 5.9-5.6c3.2-3 9.4-8.6 13.6-12.7 5-4.8 7.9-7 8.2-6.4.3.5 1.2.6 2 .4h0zm6.4 5.8l-2.2 6.4-5.3 1.7c-3 1-5.4 1.8-5.5 1.7-.2-.1 2.5-3.8 5.7-8.2 4.7-6.2 6.3-7.9 7.6-7.9h1.8l-2.1 6.3zm15.8-2.1l2 1.3-6.1 2c-3.3 1.3-6 1.9-5.8 1.4l1.5-4.4 1.2-3.8 2.6 1.2c1.4.5 3.4 1.6 4.6 2.3h0zm9.3 43l1.8 3.7-1.8 5.8a145 145 0 00-4.7 23c-.7 5.7-1.3 7.4-3.7 11.3a52 52 0 00-3.4 6.7c-1.9 4.3-2 1.2-2.4-8.7a122.9 122.9 0 019.4-52.6l1-2.1 1 4.5c.6 2.6 1.8 6.3 2.8 8.4h0zm-92.1 0c0 4.1 1.8 12.2 4 18.5 1.3 4.2 1.6 5.7 1 8-.4 1.6-1 6.4-1.4 10.6a70.5 70.5 0 006.6 38.3c1.8 3.5 3.3 7.1 3.6 8l.5 1.8-2-1.5a51 51 0 01-15.3-20.5c-2.2-5-2.3-5.8-.8-5.8.9 0 1-1.5 1-8.8v-8.9h-2c-2 0-2.3-.3-3-3-.6-1.8-1-6.8-1-12.5 0-10.5 1-14.9 5.5-25 2.7-6.7 3.4-6.2 3.3.8h0zm151 13c.8 6.5 3.6 20.5 5.1 26.4 1 3.6 1 4.3-.3 8-.8 2.1-1.2 4.3-1 4.8.1.5-1.3 2.5-3.1 4.6-3.3 3.6-3.4 3.7-4.2 2.1a66.4 66.4 0 01-2.6-33.8c1-4.9 4.5-17.9 5-17.9l1 5.8h0zm-200.6 13l1 4.4-6 21.5-5.8 21.4-2.3-.2c-3-.4-24-10-24-11.1 0-2.7 20.1-28.6 31.4-40.6l4.2-4.4.3 2.3a96 96 0 001.2 6.8h0zm22.2-.6l-2 7.3-2 6.7-4.8.2c-2.7.1-5.1 0-5.6-.5-1-1 .1-6 1.9-8.7a15 15 0 0110.1-5.5c1.3 0 2.4.2 2.4.5h0zm15.2 10a18 18 0 012.4 3.7c0 .3-2.9.6-6.4.6h-6.4l.4-2 1.5-5.6 1-3.7 2.6 2c1.4 1 3.5 3.2 4.9 5h0zm-33 3.8c1.3 3 1.5 5.1 1.5 11v7.2h4.6l.2 6.2c0 3.4.7 8.7 1.5 11.7 1.4 6 1.1 9-1.1 9-.6 0-4.4-2-8.3-4.3a83 83 0 00-9.3-5l-2-.7 5.2-19.4c2.9-10.7 5.2-20.2 5.5-20.2.2 0 1.3 2.5 2.2 4.5h0zm133.8 24a78.3 78.3 0 009.2 24c2.2 3.8 3.8 7 3.7 7.2a26 26 0 01-8.5 1.4c-1-.6-5-9.2-7.6-16.5a81 81 0 01-5.3-21.8 62 62 0 013.4-7.9l2.8-6 .6 7c.3 3.7 1 9.5 1.7 12.7zm52.8-2.3c2.8 1.4 3.5 2.1 3.4 3.3-.1 1.3.2 1.6 2.1 1.8 3.7.4 3.1 2-2.7 7.1a36 36 0 01-6.2 4.8c-1.7 0-8.6-8.4-10.8-13l-2.4-5 2-.5c4-1 11-.3 14.6 1.5zm-9.5 14.6l4 4.1-1.8 1.3c-2.4 1.7-18.6 9.7-19 9.4-.1-.1 1.6-6.5 3.8-14.1l4.1-14 2.4 4.7c1.3 2.5 4.2 6.4 6.5 8.6h0zm-24 4.6c-2 6.3-4 11.8-4.2 12.2-1 1-1.6-4.2-1.1-8 .8-5.6 2.5-9.7 5.5-13.1 1.5-1.8 3.6-4.2 3.8-4 .2.1-2 6.6-4 13zm-77.7-10.6l-3.4 10.1c-1.6 5-3.2 9.5-3.5 9.8-.3.3-1.7 0-3.3-.8-2.3-1.2-2.9-1.9-3.7-5-.8-3.5-.8-3.7 1-6.8 2.2-3.8 5.5-6.4 9.3-7.3 3.8-1 4-1 3.6 0h0zm12 1c1.2.4 1.7 1.4 2.7 6.2.8 3.7 2.6 8.4 5 13.1l3.7 7.3-3.7-.4c-2-.2-7-1.2-10.8-2l-7.2-1.4 1.7-5.5 3.6-11.5c1.8-6.2 2.1-6.5 5-5.8h0zm15.5 6l7.4 3.5-3.3 3.7c-1.8 2-3.8 5.1-4.4 6.9-.7 1.8-1.4 3.5-1.6 3.7-1.3 1.4-9.2-17-9.2-21.2 0-1.5 2.6-.7 11.1 3.4zm14.8 7.8c7.8 4.7 18.1 12.6 16.7 12.7l-8.8.7c-4.4.2-11.3.4-15.3.2l-7.2-.5.5-2.1a23 23 0 016-10.8c1.5-1.7 3-3 3-3a44 44 0 015.1 2.8h0z" stroke="#000" stroke-width="1.1" fill="#FFE15A" fill-rule="nonzero"/>
      <path d="M337.8 29.8c-1 1-1.4 2.2-1.2 3.6l.2 1.9-3.5-.5c-6.2-1-14.4-.3-20.3 1.3-7 1.9-12.1 2-18.3.2-2.6-.7-4.8-1.4-4.8-1 0 1.1 2 4.8 3.8 6.4 1 1 3.3 2.2 5 3l3.5 1.3-4.2 1.2-6.5 1.5c-4.2.1-3.6 1.1.7 2.6 5 1.7 8.6 1.4 19.8-1 7.6-1.7 11-2.1 15.3-2 3 .1 5.8.6 6.2 1 .3.2-1.4 2.2-3.7 4.3-3.1 2.8-4.8 3.8-6.3 3.8l-4.8.4-2.4.7-.2 3.9v4L300 81.7c-8.8 8.3-17.4 16-19 17-2.5 1.6-3 2.3-3 4 0 1.4.5 2.4 1.4 2.9 1.3.7 1.1 1-2.6 6.2a74.5 74.5 0 00-10.2 19.2l-2.6 6.7-1.5-5c-2-6.7-2.8-12.9-2.8-20 0-5.9 0-6 3-10.3A93.3 93.3 0 01294.4 74c3.8-1.2 5.5-2.9 5.5-4.9 0-2-2.1-3.3-4.5-2.7-1.2.3-34-5.6-34.7-6.3a51.7 51.7 0 015.1-15.4c2.1-2.2 2.2-4.9 0-6.8-3.4-3.4-8.7-.3-7.9 4.5l.4 2.2-5.8.8c-3.2.5-9.2 1.8-13.2 3-9 2-17 3-21.4 1.1-3.5-1.5-3.3-1.5-3.3.9 0 2.7 2.4 5.6 6 7.2l2 1.2-1.2.5c-1 .3-4.4.3-7.5.2-3-.2-5.6 0-5.6.2 0 1.3 4.6 5.9 6.8 6.7 4.8 2 15.3.7 26.6-3.2 4.7-1.7 12-2 11.6-.6-.2.5-7.6 6.2-16.5 12.6-9 6.5-17 12.6-18 13.6-2.3 2-2.6 4.2-1 5.6 0 1 .3 1.3-.5 2.8a78.9 78.9 0 00-10.4 30.7c0 3-.4 3.6-6.2 10a328 328 0 00-30 37.7l-2 3.3-1.7-1.7c-2-2-4.7-2.2-6.6-.3-3.2 3.1-.8 7.8 3.8 7.8 1.6 0 5.6 1.5 11.7 4.6l9.2 4.6-2.1 2.5c-5 5.7-2.8 11 4.1 9.8 6.3-1 16 4.8 26 15.8a161.7 161.7 0 0066.3 47.7 124.7 124.7 0 0097.6-6c5.6-2.9 8.4-3.9 8.5-3.3l1.5 4.5c1.2 4 4.7 9.9 6.2 10.4.5.2 11.8-1.4 25.2-3.4 13.4-2 24.5-3.8 24.8-3.9 1.3 0 3-7.7 3-13.7 0-6.2-.2-6.6-3.1-12.3a36.8 36.8 0 00-15-16c-3.7-1.8-4-2-3.2-3.2l5.4-7.5c5.4-7.5 13.5-21 16.3-27.4l2.1-4.6h3.9c3.6 0 3.9-.1 3.5-1.7-.5-2.3-1.8-9.8-1.8-10.5 0-.3 1.4-.6 3-.6h2.9l-.4-7.4v-8.2l12-23.1c6.8-13.1 13-24.6 14-25.6 2.9-3 1.8-6.7-2.3-8-2.2-.7-5.5 1.9-5.5 4.5a11 11 0 01-1.2 4.8c-1.2 2-1.8 2.3-3.4 2-7.2-1.5-33-6.1-33.7-5.9-.5.5-15.2 26.9-15.3 28.2 0 .4 1.4.6 2.7.6l16.3 1 16.2 1.4c1.8 0 1.6-.2-4 9.6l-5.7 9.9h-16.4c-16.3 0-16.3 0-17 1.4-.9 0-.5-.1-.7-.3-.6-.6-4.4-19.4-5.5-27.6l-.3-7.5 3.4-8.8c8.5-17.5 24.3-37.6 30.4-38.7 4-.7 7-3 7-5.3 0-2.4-1.1-3.6-3.3-3.6-1.6 0-27.5-10.2-28.6-11.3-.7-.7 2.6-12.3 4-14.4 1.5-2.2 1.4-4.2-.5-6-2.1-2-4.8-2-6.7 0-1.6 1.8-2.1 5.1-.8 5.9 1.6 1 .4 1.5-2 1-5-1.4-15.8-1-21.7.7a36.5 36.5 0 01-19.3.1c-2.4-.7-4.3-1.2-4.3-1l1 2.6c1.4 3.3 4.5 5.8 8.5 7l3.4 1-5.2 1.4c-2.9.9-6.1 1.8-7.3 2l-2.1.6 2.4 1c4.7 2 11 2 21.7-.5a64 64 0 0119.8-1.6c1.4.4-1.4 2.8-20.1 17.2a1173 1173 0 01-25.3 19c-4.3 2.9-5.9 4.8-6 7.1-.5 2.2 1.7 4.3 3.5 4.2.6 0 .4.7-.6 2a111 111 0 00-8 15.5c0 .4-.3.8-.6.8-1.2 0-3.3-6.6-4.1-12l-.2-5.5 3-6.2a115 115 0 0115-20c4-2.6 3.7-4.7.8-6A320 320 0 01340.2 50a41 41 0 014.7-13.5c1.8-2.4 1.9-4.8 0-6.6-1.8-2-5.3-2.1-7.1-.1zm5.8 1.8c1.3 1.6.2 4-2 3.8-2.3-.3-3.5-2.2-2.3-3.7 1.1-1.4 3.1-1.5 4.3 0zm77.5 2.1c1 1.2.4 3.6-1.1 4.2-1.6.6-3.8-.8-3.8-2.3 0-2.6 3.2-4 4.9-1.9zm-85.4 4c2.4.5 4.5 1 4.7 1.3.1.3-.4 2.5-1.1 5-1.2 3.4-1.7 4.2-2.7 3.8-.7-.3-3-1-5.4-1.4-4.9-1.1-9.6-.6-21.8 2.2-4.3.9-9 1.7-10.6 1.7l-2.8-.1 2-.7c7-2.3 9.6-3.6 9.6-4.9 0-1.1-.6-1.3-3.3-1.3-3.8 0-8.4-1.9-10.1-4-1-1.1-1-1.2.4-.7a39.3 39.3 0 0017.2 0 49.2 49.2 0 0123.9-.8zM264.9 40c.9 1.5-.2 3.6-1.9 4-1 .2-3.3-1.7-3.3-2.7 0-1.1 2.2-3 3.3-2.7.6.1 1.4.8 1.9 1.4zM413 41.2c2.2.5 4.4 1 4.7 1.4.6.5-1.5 9.2-2.3 9.2l-3.8-1.1c-5.3-1.6-11.6-1.3-22.1 1a82.3 82.3 0 01-12.4 2.1h-3l4.2-1.6c6.7-2.6 6.8-2.7 6.6-3.9-.1-.8-1.3-1.3-4-1.6-4-.4-8-2-8.9-3.5-.3-.5.5-.6 2.9-.1 5 .7 10.5.4 16.5-1.2 6-1.5 15.4-1.9 21.6-.7zM261 48l-1.5 6.3L258 60l-6-.3c-5.5-.3-7-.1-12.9 1.8-12.8 4.1-21 4.7-25.2 1.8l-2-1.3 5.7-.4c3.1-.2 7.3-1 9.5-1.6l3.8-1.4-5.7-1.8c-5.2-1.7-8.8-3.8-7.9-4.5.2-.2 2.6 0 5.2.4 5.4.8 7.2.5 21.2-3.3 5.8-1.7 17.3-2.6 17.3-1.5zm75.9 3.4l-1.3 4c-.5 1.5-1.2 2.8-1.7 2.8-1 0-.7-.8 1.4-7 .2-.3.7-.8 1.2-.8.4 0 .6.5.4 1zm13.4 9c6.1 4.2 11.2 8 11.3 8.3.3.6-18.1 7.4-18.6 6.9-.2-.1.9-2.7 2.4-5.7l2.6-5.5-1.6-1.2c-.8-.7-3-1.9-5-2.6-1.8-.6-3.5-1.5-3.8-1.7-.5-.4.8-6.3 1.3-6.3.2 0 5.3 3.5 11.4 7.8zm64.4-5.4c0 .5-.7 3-1.4 5.4l-2.8 9.5c-1.1 3.9-1.8 5.2-3 5.5-1 .3-1.3 0-1-.5l3.2-10.4c1.6-5.2 3.1-9.7 3.3-10 .5-.9 1.7-.6 1.7.5zm26 9.6c0 .5-28.2 9.4-28.6 9-.2-.3 3.9-15.1 5-18 .2-.6 4 .6 12 3.9 6.4 2.6 11.6 4.9 11.6 5.1zM331.1 57c-.5.4-1.2.5-1 .7-.4-.2-.4-.9.1-1.4 1-1.3 1.6-1 1 .7zm75.8 9.3c-1.5 5-3.2 9.5-3.6 9.9a220.6 220.6 0 01-31.3 9.7c1-1 37.5-29 37.6-28.8.2 0-1.1 4.1-2.7 9.2zm-81-2.9c-.5 5.2-1.4 5.7-1.4.9 0-3.1-.2-4-1-4s-.7.8-.9 3.8l-.5 4.3-.8-2.4c-.2-2 0-5-.5-5.6-.5-.7 0-.9 2.4-.9h3.1l-.4 4zm3.8-3.4c.1.4-.2 2.5-.6 4.8l-.8 4.3-.3-4.8c-.2-3.4-.1-4.8.5-4.8.5 0 1 .2 1.2.5zm-10.1 4.5c0 2.3-.3 4.2-.7 4.2-.4 0-.7-1.9-.7-4.2 0-2.4.3-4.3.7-4.3.4 0 .7 2 .7 4.3zm14.2-3c-.4.6-.9 2.6-1.2 4.2-.3 1.7-.8 3-1.2 3-.4 0-.5-.8-.3-2.2.3-1.2.5-3 .5-4.2 0-1.6.3-2 1.4-2 1.2 0 1.3.2.8 1.1zM342 63c1.6.7 3 1.7 3 2 0 .5-.9 2.5-1.9 4.5-1.2 2.4-2 3.3-2.5 2.8-.4-.4-.2-1.6.8-3.5a13 13 0 001.4-4c0-2.2-1.4-1-3 2.2-1.9 4.2-1.8 4-2.2 3.6-.3-.2.1-1.7.7-3.4 1.2-3.7 1.3-5 .1-5-.5 0-1.5 1.9-2.3 4-1.4 4.6-2.2 3.8-1-1.1.3-1.7.4-3.4.2-3.8-.6-.9 2.8 0 6.7 1.7zm-85.2.5c0 2.4-3.4 13.8-4.3 14.4-1.4.9-1.5.3-.3-4l2.2-7.8c1.1-3.7 2.4-5.2 2.4-2.6zm16.6 1.2c7 1.4 12.7 2.9 13.3 3.2.6.2-5.6 2.1-14.4 4.6a248 248 0 01-16.1 4.2c-.1-.2.2-2 .8-4.3l2-7.2c.4-1.6 1-3 1.2-3l13.2 2.5zm175.2 2c0 1.6-1.6 2.6-6.1 4-2.3.7-13.6 4.6-25.3 8.8l-35.9 12.9c-11 4-15.4 5.2-17.6 5-2.1-.1-3-.5-3-1.4-.6-2.6 2.6-4.7 10.6-7.3A2031 2031 0 01446.7 66c1.1-.1 1.9.2 1.9.9zm-198.3 6a40 40 0 01-1.9 6c-.4.4-6.5 2.3-18 5.4-1.5.4-2.4.4-2 .1 1-.9 22.9-17 23.1-17 .2 0-.4 2.5-1.2 5.4zm47.4-3.4c0 1.2-2.3 2-23.7 8.4-45.5 13.7-53.1 15.8-54.2 15.4-.8-.3-.9-.7-.2-2.2.9-2 1.2-2 17.1-6.3 5.1-1.4 19.5-5.3 32.1-8.9 28.5-7.9 27.7-7.7 28.4-7.3.3.1.5.6.5 1zm21.1 1.6c1.3-.2.1 1.6-5.1 8.8l-7.9 9.4-7.9 3c-4.9 1.8-9 3.2-9.1 3.1L302 82.6c9.6-8.9 13.7-12.3 14.2-11.8 0 1 1.6.5 2.5.2zm5.6 6.1l-2 6.3-5.4 2c-2.8 1-5.4 1.8-5.5 1.6-.1-.1 2.4-3.8 5.5-8.2 4.8-6.6 6-7.9 7.7-8h1.9l-2.2 6.3zm6.1-5.4c-2.7 8.7-3.4 10.4-4.4 10.4-.5 0-.9-.4-.7-.9l1.9-5.6c1-2.9 2-4.8 2.6-4.8.5 0 .8.5.6.9zm36-.2c-.5.3-9 3.9-19 7.8l-39.2 15.3a443 443 0 01-23.3 8.8c-2.9.7-4.9.2-4.9-1 0-1.3 2.8-2.4 24.7-10.3l38-13.8c18-6.6 25.6-8.7 23.7-6.8zM340.2 75l2 1.3-5.8 2a24.9 24.9 0 01-5.8 1.7c-.2-.2 0-1.3.7-3.2l1.4-4.4c.3-1 3.7.2 7.5 2.6zm92.5 3.7c-21.4 22.5-36.6 60.9-33.5 84.7a62.8 62.8 0 003.6 14.5c0 .1-1.6-.5-3.4-1.3L396 175l-3.2-10.7a98.3 98.3 0 00-3.3-10.5c-.2.3 3 16.4 3.8 19.6.3 1 0 1.3-2 1.3-2.8 0-2.2 1.4-6.6-14.4-1.1-3.8-2-6.7-2.2-6.3-.1.3.7 5 1.9 10.5l2 10-2 .5c-1.9.5-1.9.4-4.9-10.2-1.7-5.8-3.1-10.5-3.2-10.4-.2.2 2.6 16 3.6 20 .2 1.2-.1 1.8-1.2 2.5-2 1-2 .8-4.8-9a47.2 47.2 0 00-2.6-7.8c-.3.2.5 4.4 1.4 9.4l2 9-1.7 1.3c-1.8 1.6-1.9 1.5-4-6.3a26 26 0 00-2-5.6c-.1.1.2 3.1.8 6.5 1.4 8 1.4 8.6-.2 9.5-1.3.6-1.5.3-2.6-3.6-1.5-5.4-2-5-1 .7.7 3.5.7 4.7 0 6.1-1.3 2.4-1.8 2.1-2.7-1-.7-2.4-.7-2.3-.4 1.3.3 4.3-.6 6.8-2 5-.5-.8-.5-.5-.3 1.4.2 1.3 0 4.3-.5 6.7l-.9 4.1-2.5-5.2a74.7 74.7 0 01-8-36.7c0-9.1.4-13.5 1.6-20 4.2-22.3 14.7-44.3 21.2-44.3.6 0 .8.5.5 1.5-.4 1.4-.2 1.2 1-.5.8-1 2-2.3 2.9-2.6 1.4-.5 1.4-.5.2 1.7-.5 1.2-.9 2.3-.7 2.5.2.2.9-.6 1.5-1.8 2.6-5 5.2-5.8 3.1-1-1.6 3.9-1.3 3.6 1.8-1 1.2-1.8 2.9-3.5 3.7-3.8 1.6-.6 1.5-.4-.8 4.3a26 26 0 00-2.2 5l3.9-5.7c2-3 4.3-5.7 5-5.9 1.1-.3.9.5-1.5 5.2-1.5 3-2.6 5.6-2.5 5.6.2 0 2-2.5 4-5.7 3.4-5.2 5.8-7.7 7.2-7.7.2 0-1.2 2.7-3 6.1-6.7 11.6-6.5 11.7 1 .6 3.1-4.4 6-8.1 6.5-8.1.9 0 .8.5-.3 2.2-4.5 7.7-8.5 14.7-8.3 14.7.2 0 3.2-4.2 6.7-9.4 4-5.8 7.1-9.6 8-10 .9-.1 1.6-.2 1.7-.1l-5.6 9.4c-9.5 14.7-9.1 14.7 1.6-.3 6.3-8.8 9.4-12.2 10.2-11.3.1.1-2.3 4.1-5.3 9-6.6 10.3-7.4 11.6-6.5 11.1l8-11c5.4-7.8 7.9-10.8 9.4-11.4 1.1-.3 2.2-.5 2.4-.4.1.2-3.8 6.2-8.6 13.4-5 7.2-8.8 13.2-8.6 13.2l10.9-14.4 10.6-14.3 4.4-1.5 4.7-1.6c.2 0-1.6 2-3.8 4.3zM357.9 81a121.4 121.4 0 00-23.3 52.3c-1.8 9.5-1.8 32.9 0 42.5 1.7 8.9 5.3 20.8 8.5 28.4 1.4 3.3 2.4 6 2.2 6-.6 0-7-5.2-7.5-6l-6.3-21c-3.2-11.2-6-20.3-6.1-20.1-.1.1 2 9 4.6 19.7 2.7 10.8 4.7 19.5 4.6 19.5l-2.3-1c-1.7-1-2.4-3-7-18.8-3-9.6-5.4-17.5-5.5-17.3-.1 0 1.5 7.4 3.7 16.2l3.8 16.3c0 .3-.9 0-2-.7-2.3-1-2.3-1-8.3-21.6a67 67 0 00-2.8-8.8c-.2.1 1 6.2 2.8 13.6l3 13.5-2.6-.8c-2.4-1-2.5-1.2-5.9-13.5-1.9-6.8-3.6-12.2-3.7-12.1-.1 0 .9 5.4 2.2 11.6 2.5 11.8 2.4 12.3-.9 10.4-1.2-.7-2.3-2.8-4.3-9-3-9-3.5-9-1.4.4a37 37 0 011 6.6c0 .1-1.2 0-2.5-.3-2.2-.6-2.6-1.1-4.4-6-1-2.9-1.7-4.1-1.5-2.7l.8 4.8c.4 2 .2 2.3-1.3 2.3-2.4 0-3-.7-4.8-4.3-1.4-3-1.4-2.8-.4 1.6.4 1.8.2 2-2 2-1.7 0-2.6-.4-2.8-1.3-.3-1-.3-1-.4.3 0 1.8-3.6 2.8-4.4 1.5-.4-.6-.6-.5-.6.2 0 .5-1 1.7-2.3 2.6-1.3 1-3.1 2.9-4 4.4-1 1.6-2 2.9-2.4 2.9-.8 0-4.6-8.9-6.2-14.8a87 87 0 0114.7-69.2c3.7-4.8 4.6-5.5 9-7.3 2.7-1.1 5.3-1.8 5.8-1.7.5.2 1 0 1-.4 0-.6 2.8-2 3.3-1.6 0 0-.1 1-.6 2.1l-.7 2 1.3-1.6c3.4-5 5.1-5.8 3.7-1.8-1.2 3-.3 2.9 1.3-.3.8-1.6 2.1-3.2 2.9-3.6 1.3-.7 1.3-.7 0 2.5-2 4.7-1.3 4.6 1.3 0a16 16 0 013.6-4.6c1.9-1 1.9-.9-.7 5a26.1 26.1 0 00-1.7 4.8 66 66 0 003.8-5.9c2-3.2 4-6 4.6-6.3 1.4-.5 1.4-.6-1.7 6.2l-2.6 6c.2 0 2-2.7 4-6.1a64 64 0 015-7.4c3-3 2.6-.8-1 6.1a69.3 69.3 0 00-3.8 7.4c.2 0 2.8-3.8 5.8-8.4 4.7-7.4 6.7-9.7 6.7-8l-4.3 8.4c-2.4 4.4-4.1 8-4 8 .2 0 3-4.1 6.1-9.2 5-7.9 8-11.2 9-10.2.3.2-6.1 11.5-11 19.4-2.8 4.6 1.1-.7 7.6-10.3 6.2-9.2 8.8-12.3 9.7-11.4 0 .1-2 4-4.8 8.7-8.1 14-8.4 14.5-8 14.5 0 0 3.9-5.7 8.3-12.6 6.7-10.2 8.6-12.7 10.5-13.4 1.2-.5 2.4-.8 2.4-.7.1 0-2.4 4.3-5.6 9.3a188.9 188.9 0 00-11.4 18.8c.1 0 4.8-6.7 10.4-14.9 8.3-12 10.5-15 12.6-15.8 4.3-1.8 4.3-1.3.2 4zm-76.7-1.4a111.3 111.3 0 00-28.3 35.5A60 60 0 00246 143c0 6.3 0 7.4-.9 6.8-.5-.4-1-2.3-1-4.1 0-1.8-.3-4.9-.7-6.8-.5-3.4-.5-3.4-.6 2 0 3-.2 5.4-.3 5.4-2.2 0-2.6-1-2.7-7.7 0-5.7-.2-6.3-.7-3.6-.2 1.8-.5 4.5-.5 6.2 0 2.2-.3 2.9-1 2.6-.7-.3-1.2-2.6-1.6-7.6l-.7-7.2-.2 6.5c0 3.6-.3 6.6-.5 6.6-1.9 0-2.4-1.2-2.5-5.2 0-6.2-1.2-9.2-1.3-3.6-.1 5.3-.6 7.4-1.9 7.4-.7 0-1-1-1-3 0-1.7-.3-4.3-.6-5.9-.6-2.4-.6-2-.7 3 0 4.5-.3 5.9-1 5.9-1.3 0-1.8-2.1-2-7-.1-4-.1-4-.7 1.3-.7 6-1 7-2 7-.4 0-.7-1.5-.7-3.7 0-2.6-.2-3.3-.7-2.6a13 13 0 00-.7 4.8c0 2-.3 3.8-.7 4-.5.3-.7-.4-.7-1.8 0-1.8-.3-2.1-.7-1.3-.4.5-.8 1.9-.8 3 0 2.8-.7 4.4-1.4 3.2-.5-.6-.7.1-.7 2 0 1.7-.3 3-.5 3-1.6 0-3.8-10.3-4.2-18.6-.3-7.5-.1-9.4 1.5-15.4 1.8-7.3 6.9-18.7 9.7-21.9a9 9 0 013.3-2.3c1.5-.4 1.7-.4 1.2.8-.3 1 0 .8 1.5-.7 2.4-2.1 4.5-2.7 3-.7-.6.8-.2.7.7-.2 2-1.8 5.7-3.4 5.7-2.4 0 .4-.3.9-.7 1-.4.3-1 1.2-1.5 2-.5 1 .7.2 2.7-1.8 5.3-5 6.3-4.6 2.4 1-1.4 1.8-.9 1.6 2.4-1.5 3.8-3.6 6.7-5.6 6.7-4.5 0 .3-1.2 2-2.7 3.8-5 6-4.6 6 1.1.2 3.2-3.2 6-5.8 6.5-5.8 1 0 .6.6-4 6.7l-3.8 5 6.2-6.6c5.3-5.5 9.4-8.5 9.4-6.9 0 .2-2.6 3.4-5.7 7a94.8 94.8 0 00-5.6 7c0 .2 2.6-2.4 5.8-5.7 8.8-9.5 9.2-10 11-10.4 1.4-.4.8.6-2.9 5-8.4 10.4-10.1 12.9-4.7 7 10.3-11.2 13-13.7 15.1-14.2 2-.5 2-.5 1 1-.5.8-4.5 5.5-8.7 10.5-13.2 15.6-12.8 15.3 2.3-1.2 9.8-10.7 12.8-13.2 16-13.3.4-.1-.9 1.2-2.8 2.9zM484.9 102c1 3-3.2 4.7-4.3 1.7-.7-1.8.3-3.2 2.1-3.2 1.1 0 2 .5 2.2 1.5zm-135.3 15.6l2 4-2 6.2c-2.3 7.9-3.7 14.8-4.6 23-.7 5.2-1.2 7.2-2.9 9.8-1 1.7-2.7 4.6-3.6 6.5-.9 1.9-1.8 3.3-2 3.3-1 0-1.6-13.4-1.2-22.2.7-13.8 3.5-26.7 8.4-38.4l2.2-5.4.9 4.6c.4 2.5 1.7 6.4 2.8 8.6zm110.2-8.3a435 435 0 0118.9 3.4c.3.4-9.3 18.8-10.2 19.7-.4.3-33.4-1.6-39.4-2.4-1.4-.2-1-1 4.5-11.1a117 117 0 017.5-12.7l18.7 3.1zm21.4-2c.7.7-.8 3.1-2 3.1s-1.2-.4-.3-2.2c.8-1.3 1.6-1.7 2.3-1zm-223.7 9c0 5.1 1.8 14.3 4 20.3 1.8 4.8 1.8 5 .6 10.6a85 85 0 000 29c1.3 7 2.7 11 6.5 18.8 1.8 3.6 3 6.9 2.9 7.3-.4 1-5.7-3.5-9.2-7.7a62.2 62.2 0 01-9-15.5c-1.2-3.6-.8-3.5 0-3.7 1.3-.4 1.4-.5 1.4-8.8v-8.9h-2c-1.9 0-2.3-.3-3-2.7-.4-1.4-1-6.2-1.1-10.7.3-6.2 0-9.2 1.1-14.3a57 57 0 017.2-17.5c.4 0 .6 1.7.6 3.8zm151.9 20.2c1 6 2.6 14.2 3.6 18.2l1.4 7-1 4.2c-.8 2.2-1.3 4.3-1 4.6.2.4-1.2 2.3-3.2 4.4l-3.4 3.3-1.5-2.9c-3.7-10-4-28 1.4-45.5.7-2.6 1.5-4.6 1.7-4.4l2 11.1zm-201.6 7.1l1 5.3-5.8 21.2-5.9 21.2-2.4-.2c-2.9-.2-23.9-10-23.9-11.1 0-2.8 17.4-25.4 31.4-40.8 4-4.4 4.2-4.6 4.4-2.8l1.2 7.2zm259.1-8c0 .2-2 4.5-4.7 9.5-4.7 8.8-4.9 9.1-7 9.1-1.3 0-2.4-.2-2.4-.4 0-.3 2.4-4.7 5.4-9.8 4.8-8.4 5.6-9.3 7-9 1 .1 1.7.5 1.7.7zM229.7 145c-.2 1.2-1.1 4.4-2 7.3l-1.6 5.2-5.4.2c-5.2.2-5.3 0-5.3-1.5 0-7.2 5.7-12.8 12-13.2 2.6 0 2.7 0 2.3 2zm5.5 2.2c-2.4 9.7-2.6 10.3-4.7 10.5-1.7.2-2 0-1.7-1 3.8-13.8 3.4-13 5.2-12.2 1.3.7 1.5 1.2 1.2 2.7zm10.4 6.6c1.2 1.6 2 3.1 2 3.5 0 .2-2.7.5-6.3.5-3.4 0-6.3-.2-6.3-.4 0-.5 2-8.7 2.4-10 .5-1.3 5.5 2.7 8.2 6.4zm-33.5 2.8c1.4 3.2 1.7 4.8 1.7 11.3v7.6h4.8v5.4c0 3 .7 8.4 1.6 12 1.6 7 1.2 9.4-1.3 9.4-.7 0-4.3-1.7-8-4-3.6-2.1-7.7-4.4-9.1-5l-2.6-1.2 5.4-19.6c3-10.8 5.4-19.6 5.6-19.6.1 0 1 1.7 1.9 3.7zm245 2l.4 6 .5 3.8h-43.2l1.8-5.1 2-6c.2-.7 4.8-.9 19.4-.9h19v2.3zm-204.5 7.7v6.4H216v-12.8h36.7v6.4zm92.4 7.6c1.4 11.5 5 22.6 10.4 31.4 4.4 7.3 4.4 7.4.1 8.3-2 .4-4 .5-4.6.5-2 0-10.8-22.6-13-33.2-1-4.7-.5-6.6 3.5-14.2l2.5-5 .1 2.8 1 9.4zm107.8 1.7c.4 2.8.7 5.1.5 5.3-.1.2-10.6.2-23.2.1l-23.1-.2 4.4-5.1 4.4-5h18l18.1-.2.9 5zm-206.3 5.7c6.1 18.6 21.8 32.1 43.8 38 14 3.7 29.1 4.8 46.6 3.6 35.6-2.5 52-9.3 72.7-30.2l9.3-9.4h13.4c8.8 0 13.5.2 13.5.7 0 2-9.3 18.3-16 28-5.1 7.4-6.4 8.4-18.6 13.2A227 227 0 01352 238c-14.6 1.4-49 1-61-.7-15.8-2.4-27.7-5.1-39.9-9.3a124 124 0 01-25.6-12.1 172.8 172.8 0 00-26.5-13.3c-6.4-2.3-12.3-2.6-15-.9-2.1 1.5-2.4.7-.8-2.3 1.7-3.4 5.7-5.6 9.9-5.6 4.8 0 8 1.2 16.6 6.2 8 4.9 10.3 5.3 12.5 2.5 1.9-2.3 1.9-3 0-10.3a59 59 0 01-1.3-11.4v-5.4h23.7l2 5.8zm5-1a54 54 0 0021 26.1c11.9 7.1 28.3 11 50.7 11.9 33.6 1.5 65.8-9.9 84.7-30 2.8-3 5.3-5 6.2-5 .7 0 1.4.2 1.4.7a138 138 0 01-20.1 19.5c-17.4 12.8-38.4 18.1-71.6 18.1-13.5 0-20.6-.8-31.4-3.4-23.8-6-39-19.3-45-39l-1-3.7h1.6c1.4 0 2 .8 3.5 4.8zm148.3-1c2.7 1.6 1.8 2.5 2.7 3.1-.6.8 0 1.4 1.6 1.7 1 .1 2 0 2.5.7.8 1.4-1.2 3.8-7.1 8.4-4.3 3.4-4.8 3.3-9.8-2.3-2.6-3-7.4-11.2-7.4-12.8 0-.8 3.3-1 8.5-1 4 .2 6.1.7 9 2.2zm-234.8-.8c1.4 1.3 1 3.2-.5 3.7-1.6.5-3.5-.6-3.5-2 0-1.1 1.4-2.6 2.4-2.6.4 0 1.2.4 1.6.9zM373.8 195l-4.4 14.9-2.7.7c-1.5.3-2.7.5-2.7.2l4.4-14.4c4.3-13.7 4.4-14 6.9-15.4 1.3-.7 2.5-1.2 2.7-1 .1 0-1.8 6.8-4.2 15zm8.9-10.7c1 2.2 4 6.1 6.4 8.8l4.5 4.8-5 3c-6.9 3.1-15.7 7.8-16 7 0-.2 1.5-6.4 3.7-13.6l4-13.6c0-1 .6 0 2.4 3.6zm-194 6.5c1.2.3 1.2.4-.3 1.2-1.5.8-2.6.4-11.4-4-7-3.5-9.6-5.1-9.3-5.8.3-.8 2.6 0 10 3.6 5.3 2.5 10.3 4.8 11 5zm176.8 7.2c-2.1 7-4.2 12.5-4.5 12.5-.8 0-1.4-4.7-1-8.1.8-5.8 2.6-10 5.9-13.6 1.8-1.9 3.2-3.5 3.4-3.5 0 0-1.6 5.7-3.8 12.7zm-77.8-10.5l-3.4 10.1c-1.6 5-3.2 9.5-3.5 9.8-.3.3-1.8 0-3.4-.9-2.4-1.2-2.9-1.9-3.6-4.9-.7-3-.7-3.7.5-6.1 2-3.9 5.1-6.6 8.7-7.7 4-1.2 5-1.3 4.7-.3zm6.4.3c.1.1-1.4 5.3-3.4 11.5l-3.5 11.3-2.2-.7c-1-.4-1.9-1-1.7-1.5l3.2-10c3.7-11.6 3.8-12 5.8-11.3.8.2 1.6.6 1.8.7zm7 2.1c.3.5.9 1.5.9 2.4 0 2.9 3.8 13.1 6.6 17.8 1.4 2.4 2.4 4.5 2.2 4.7-.5.5-10-1-16.5-2.4-3.5-.7-5-1.4-4.8-2l3.7-11.6 3.5-10.1 2-.3c1.2.3 2.2 1 2.4 1.5zm12 3.5c11.8 5.9 10.1 4 6.6 7.8-3 3.4-5 8.2-5.9 10.1-.7 1.7-1.3 1.1-3.8-3.2-2.6-4.6-6-14-6-16.4 0-.8.4-1.5.8-1.5.5 0 4.2 1.4 8.4 3.2zm17.7 9.3c3 1.9 7.8 5.3 11 7.6l5 4.4-1.6.5c-2.4.7-28.8 1-29.5.3-.3-.2 0-2.2.6-4.4.9-2.7 2.2-5 4.8-7.7 2-2.2 3.8-4 4-4 .2 0 2.7 1.5 5.7 3.3zm-132.3 2c6.4 2.4 13.8 6 26.2 13.2 15 8.6 25 12.7 41.2 16.8 19 4.8 36 6.6 59.7 6.6 37 0 66.9-5.6 94.8-17.7.6-.2 0 1-1.5 2.7-1.5 1.9-4 4-6.3 5-5.7 2.9-18 6.8-28.9 9-8.4 2-9 2.1-4.5 1.8 9.2-.7 20.3-3.5 31.7-7.7.8-.4.3.6-1.7 2.7-2.7 2.7-4.1 3.5-9.9 5.4-3.7 1.2-13.1 3.3-20.9 4.5-7.7 1.4-13.3 2.5-12.6 2.5a230 230 0 0036.8-6c.2.1-1.5 1.7-3.6 3.5-4.1 3.3-7.7 4.5-19.2 6.5-3.4.5-4.6.9-3.1 1 1.3 0 5.3-.6 8.8-1.3l6.6-1.2c.4.4-9 6-16.1 9.6-8.5 4.3-20.6 8.5-31 10.7a155.6 155.6 0 01-46.6 0c-22-4.8-49-18.1-63.8-31.6l-3.5-3.1 4.6 2c5.1 2.4 15 5.3 19.7 6 2 .3.5-.3-3.9-1.7a87.6 87.6 0 01-28.4-14.5 26.7 26.7 0 01-4.3-4.6c0-.2 3.6 1.3 8 3.6 9.8 5.1 19 8.5 31.2 11.7 11.5 2.9 15.3 3.1 5.5.3-23.4-6.9-44.7-17.1-55.6-26.8-7.2-6.3-13.5-9.5-18.9-9.6-2.2 0-3.8-.2-3.6-.6.7-1.2 8.1-.4 13 1.4zM422 227.2l-3.4 4.5-2.7 3.5 4.4-4.2c4.8-4.7 6.4-4.9 2.8-.3l-2.3 3 3.2-2.8c3.4-3.3 5.6-3.6 3.7-.4-1.2 1.9-1.2 1.9.2.6.7-.6 1.7-1.2 2-1.2a34.8 34.8 0 0113.7 21c.6 4.1.6 5.7-.7 11.6l-.7 3.1-23.3 3.7c-17 2.7-23.7 3.5-24.6 3-1.8-1-4.6-5.9-5.8-10.4l-1.1-3.6 6.4-4.7c3.8-2.8 11-9.4 17.4-16 10.2-10.4 12.5-12.6 10.8-10.4z" fill="#000" fill-rule="nonzero"/>
      <path d="M421 163v3.2h6.3v-6.4H421v3.2zm12.7 0v3.2h6.3v-6.4h-6.3v3.2zm12.7 0v3.2h6.3v-6.4h-6.3v3.2zm-27.5 13.5v3.1h6.3v-6.3H419v3.2zm20.4 0v3.1h6.4v-6.3h-6.4v3.2zM416 192c0 2.5 0 2.5 3.2 2.5s3.2 0 3.2-2.5 0-2.5-3.2-2.5-3.2 0-3.2 2.5zm14.8 0c0 2.5 0 2.5 3.2 2.5s3.2 0 3.2-2.5 0-2.5-3.2-2.5-3.2 0-3.2 2.5zM268 222.4v4.6h6.3v-9.2H268v4.6zm107.2 2.8v4.6h6.3v-9.2h-6.3v4.6zm-53 6.4v4.5h6.4V227h-6.3v4.6zm-102.1-65v3.1h6.3v-6.3h-6.3v3.2zm12.6 0v3.1h6.4v-6.3h-6.4v3.2zm12.7 0v3.1h6.4v-6.3h-6.4v3.2zm134.7 89.9h2c.4-.3 0-.4-1-.4-1.2 0-1.6.1-1 .4z" fill="#000" fill-rule="nonzero"/>
      <path d="M511.9 256.9v86H140.2v-91.3c.3 1.5 6 3.3 10 4.7 7.4 2.6 8 2.6 15-2.2 9.8-6.3 15.8-6.2 26.8.8 16.5 10.4 20.9 10.5 25.8 1.4 3.7-7 12-7 26 .2 6 3.1 12.3 5.5 14.1 5.5 1.7 0 5.7-3 8.8-6.4 7-8 11-7.5 29 3 14.4 8.5 19.3 9 20.8 2 2-9 3.7-10.5 12.1-10.5a60 60 0 0120.7 6 74.1 74.1 0 0015 5.9c1.5 0 3.1-2.6 3.8-5.7.6-3 3-6.7 5-8.2 5-3 10-1.8 26.2 6.4 16 8 20.7 7.3 20.7-3.5 0-3.2 3.4-5.4 8.8-5.4 1.6 0 8.4 3.3 15.2 7.4 14.6 8.8 18.6 8.8 20-.1 1.2-9.1 7.2-9.3 23-1.1 11.7 6.3 24.9 9 24.9 5.1z" fill="#0091C8" fill-rule="nonzero"/>
      <path d="M142.4 251.8c.3 1.5 3.4 3.7 7.4 5.1 7.3 2.6 7.9 2.6 15-2.2 9.7-6.3 15.7-6.2 26.7.8 16.4 10.4 20.8 10.5 25.7 1.4 3.7-7 11.9-7 26 .2 6 3.1 12.2 5.5 14 5.5 1.7 0 5.7-3 8.8-6.4 7-8 11-7.5 28.8 3 14.5 8.5 19.4 9 20.9 2 2-9 3.6-10.5 12-10.5 5.1.2 12.8 2.4 20.7 6a73.8 73.8 0 0015 5.9c1.4 0 3-2.6 3.8-5.7a15 15 0 014.9-8.2c5-3 10-1.8 26.1 6.4 16 8 20.6 7.3 20.6-3.5 0-3.2 3.5-5.4 8.8-5.4 1.7 0 8.4 3.2 15.2 7.4 14.6 8.8 18.6 8.8 19.9-.1 1.3-9.2 7.3-9.3 23-1.1 11.7 6.3 23.9 8.5 23.9 4.7" stroke="#000" stroke-width="8.7" stroke-linecap="round" stroke-linejoin="round"/>
      <path d="M143.1 256.3c.4 1.5 4.2 3.7 8.3 5.1 7.3 2.6 7.8 2.6 15-2.1 9.6-6.4 15.6-6.2 26.6.7 16.4 10.4 20.8 10.6 25.8 1.4 3.6-7 11.8-7 25.9.2 6 3.1 12.2 5.5 14 5.5 1.7 0 5.7-3 8.8-6.4 7-8 11-7.5 28.9 3 14.4 8.5 19.3 9 20.8 2 2-9 3.6-10.5 12-10.5 5.2.2 12.8 2.4 20.7 6a73.8 73.8 0 0015 5.9c1.4 0 3-2.6 3.8-5.7a15 15 0 015-8.2c4.9-3 10-1.8 26 6.4 16.1 8 20.7 7.3 20.7-3.4 0-3.3 3.4-5.5 8.7-5.5 1.7 0 8.4 3.3 15.2 7.5 14.6 8.7 18.6 8.7 20-.2 1.2-9.1 7.2-9.3 23-1.1 11.6 6.4 22.6 8.6 22.6 4.7" stroke="#FFF" stroke-width="8.7" stroke-linecap="round" stroke-linejoin="round"/>
      <path d="M175.2 281.5c-3.1 2-2.8 2.2 2.8 1.4 4.7-.6 7.8.2 14 3.7 12 7 17.1 7.4 25.1 2.5 9.6-5.7 13.4-6.8 20.9-5.3 5.7 1.1 6.2 1.1 4-.9-5-4.5-14.5-4.5-23 0-9.7 5-14.4 5-25.4.2-9.9-4.5-13.5-4.8-18.4-1.6zm179.4 4.6c-6.6 3.9-14 7-16.3 7-2.5 0-10-3-16.6-6.5-11.3-6-12.3-6.3-17.5-4.5-14.4 5.3-23.8 7-30.8 5.3-8-1.9-8.7-.6-1.7 3 6.8 3.6 12.7 3.5 25.9-.7 11-3.4 11.1-3.4 16.5-.5 21.7 11.6 28 12.2 39.3 4.2 13-9.3 18.4-10 37-4.6 11.1 3.2 12 3.2 17.4.9l5.7-2.6h-7.1c-4-.2-12.5-1.9-18.8-4a74.2 74.2 0 00-16.3-4c-2.8 0-10 3-16.7 7zm102.2-.7c-2 .7-4.3 2-5 2.9-1.4 2.2-10.5 2.2-15.3 0-3-1.2-2.8-.8 1 2.3 6 4.8 10.3 5.1 18 1 5.3-3.1 6-3.1 12-.8 10.3 3.7 12.3 2.6 4-2.3-8-5-9.1-5.1-14.7-3.1zm-54.6 20c-5 3.4-11.1 6.2-13.4 6.2-2 0-8.7-2.1-14.2-4.8l-10.4-5-6.6 3.5c-3.7 1.8-8.7 4.2-11.3 5-2.8 1.2-5 2.6-5 3.2 0 2.3 5.6 1.2 13.3-2.8 8.5-4.5 13.4-4.2 21.7 1 11.5 7.3 15.1 7 27.8-2 8-5.6 13.6-5.8 27.2-.6 10 3.8 11.3 4 16.5 1.9l5.7-2.2-6-.1a67.6 67.6 0 01-17.1-4.8 59 59 0 00-15-4.6c-2 0-8.1 2.7-13.2 6.1zm-142.3.8c-8.2 6.7-13.4 6.8-22 .8-7.8-5.6-13-5.7-23.4-.8-6 2.8-7.1 3.9-4.9 4.6 1.6.7 5.2-.1 8.2-1.3 7.6-3.6 11.5-3.1 21.2 2.9 4.9 3 9.6 5.4 10.3 5.4.7 0 4.5-2.2 8.5-4.6 12.1-8 14.6-8.2 26.4-3.9 10.8 4.2 13.9 3.9 19.1-1.7 2.3-2.5 2.1-2.5-1.4-1-5.5 2.7-9.5 2.4-20-2-12-4.9-14-4.9-22 1.6zm-95 10.2c-2 1-4.6 3-5.7 4.6-2 2.8-1.9 3 1.2 1.6 4.4-2.2 11.8-2.2 13.2 0 .7 1 4.4 3.7 8.2 6.2 9 5.7 16.5 5.8 25.7.4 7-4 11.7-4.3 21.8-1.4 2.4.8 2-.1-1.8-2.9-6.6-5.1-13.4-5.1-23.4 0-9.3 4.6-12.4 4.2-23.9-4-9.5-6.7-9.9-6.8-15.3-4.5zm124.3 7c-3.3 2.1-7.3 4.4-8.7 5.2-1.3.8-2 1.7-1.5 2.2.5.6 4.7-.8 9.2-3 4.5-2.1 9.6-3.8 11.1-3.8a34 34 0 0111.7 6.3c9.5 7 12.5 7.1 23.3.5 8-4.8 9.7-4.7 19.3.9 9.9 5.9 13.9 5.9 25.7-.2 10.6-5.2 14.4-5 25 1.1a31 31 0 009.2 3.7c4 0 11.7-3.8 15.7-7.7l3.4-3.4-6 3.2c-8.2 4.4-13.2 4-23.5-1.3-11-5.8-14-5.8-23.6 0-9.8 5.7-14.8 5.8-24.4 0-9.7-5.8-14.8-6-23.4 0-8.6 5.7-10.7 5.7-18.1.3-7.2-5.3-12.9-8-16-8-1.2 0-5 1.8-8.4 4z" fill="#FFF" fill-rule="nonzero"/>
    </g>
  </g>
</svg>