<svg width="512" height="336" xmlns="http://www.w3.org/2000/svg"><g fill="none" fill-rule="evenodd"><path d="M473.655.276H38.345C17.167.276 0 17.443 0 38.621v28.745h512V38.621C512 17.443 494.833.276 473.655.276z" fill="#E6000D"/><path fill="#F5F5F5" d="M0 67.37h512v67.09H0z"/><g fill="#E6000D"><path d="M0 134.46h512v67.09H0zM0 297.379c0 21.177 17.167 38.345 38.345 38.345h435.31c21.177 0 38.345-17.167 38.345-38.345v-28.745H0v28.745z"/></g><path fill="#F5F5F5" d="M0 201.55h512v67.09H0z"/><path d="M13.7 326.748l233.898-153.244c3.966-2.599 3.966-8.412 0-11.009L13.7 9.251C5.326 16.286 0 26.829 0 38.621V297.38c0 11.791 5.326 22.334 13.7 29.368z" fill="#3741CF"/><path d="M90.183 127.026l9.213 27.623 29.118.226c3.769.029 5.333 4.84 2.301 7.08l-23.424 17.298 8.783 27.763c1.138 3.594-2.955 6.568-6.023 4.375l-23.689-16.932-23.69 16.932c-3.066 2.193-7.159-.781-6.023-4.375l8.783-27.763-23.424-17.299c-3.032-2.24-1.47-7.05 2.301-7.08l29.118-.226 9.213-27.623c1.192-3.576 6.25-3.576 7.443.001z" fill="#F5F5F5"/></g></svg>