<svg width="512" height="336" xmlns="http://www.w3.org/2000/svg"><g fill="none" fill-rule="evenodd"><path d="M473.655.276H38.345C17.167.276 0 17.443 0 38.621v73.471h512V38.621C512 17.443 494.833.276 473.655.276z" fill="#464655"/><path d="M0 297.379c0 21.177 17.167 38.345 38.345 38.345h435.31c21.177 0 38.345-17.167 38.345-38.345v-73.471H0v73.471z" fill="#3CA100"/><path fill="#F5F5F5" d="M0 112.09h512V223.9H0z"/><path d="M12.828 325.993l193.27-153.418c2.946-2.338 2.946-6.812 0-9.15L12.828 10.007C4.959 17.03 0 27.244 0 38.621V297.38c0 11.376 4.959 21.59 12.828 28.613z" fill="#E6000D"/></g></svg>