<svg width="512" height="336" xmlns="http://www.w3.org/2000/svg"><g fill="none" fill-rule="evenodd"><path d="M473.655 335.724H38.345C17.167 335.724 0 318.557 0 297.378V38.62C0 17.443 17.167.275 38.345.275h435.31C494.832.275 512 17.442 512 38.62v258.76c0 21.177-17.167 38.344-38.345 38.344z" fill="#E6000D"/><path d="M38.345.275C17.167.275 0 17.442 0 38.62v258.76c0 21.177 17.167 38.345 38.345 38.345h147.034V.275H38.345z" fill="#3CA100"/><circle fill="#FFE15A" cx="185.45" cy="167.999" r="79.38"/><path d="M211.932 141.516v35.31c0 14.603-11.88 26.483-26.483 26.483s-26.483-11.88-26.483-26.483v-35.31h52.966zm8.827-17.655h-70.621a8.829 8.829 0 0 0-8.828 8.828v44.138c0 24.376 19.762 44.138 44.138 44.138 24.376 0 44.138-19.762 44.138-44.138v-44.138a8.827 8.827 0 0 0-8.827-8.828z" fill="#E6000D" fill-rule="nonzero"/><path d="M211.932 141.516v35.31c0 14.603-11.88 26.483-26.483 26.483s-26.483-11.88-26.483-26.483v-35.31h52.966" fill="#F5F5F5"/><g transform="translate(145 128)" fill="#FFE15A"><circle cx="5.07" cy="4.689" r="4.414"/><circle cx="75.69" cy="4.689" r="4.414"/><circle cx="5.07" cy="39.999" r="4.414"/><circle cx="75.69" cy="39.999" r="4.414"/><circle cx="40.38" cy="4.689" r="4.414"/><circle cx="66.88" cy="72.549" r="4.414"/><circle cx="14.4" cy="72.549" r="4.414"/></g><g fill="#3741CF"><path d="M191.149 165.761v7.602a5.709 5.709 0 0 1-5.702 5.702 5.709 5.709 0 0 1-5.702-5.702v-7.602h11.404M191.149 147.74v7.602a5.709 5.709 0 0 1-5.702 5.702 5.709 5.709 0 0 1-5.702-5.702v-7.602h11.404M191.149 183.969v7.602a5.709 5.709 0 0 1-5.702 5.702 5.709 5.709 0 0 1-5.702-5.702v-7.602h11.404M206.506 165.761v7.602a5.709 5.709 0 0 1-5.702 5.702 5.709 5.709 0 0 1-5.702-5.702v-7.602h11.404M175.794 165.761v7.602a5.709 5.709 0 0 1-5.702 5.702 5.709 5.709 0 0 1-5.702-5.702v-7.602h11.404"/></g></g></svg>