<svg width="512" height="336" xmlns="http://www.w3.org/2000/svg"><g fill="none" fill-rule="evenodd"><path d="M221.446 319.367c2.225-.676 2.226-3.826.002-4.504l-46.34-14.162c-2.223-.679-2.222-3.828.002-4.504l46.322-14.105c2.226-.676 2.226-3.828 0-4.504l-46.322-14.105c-2.225-.678-2.226-3.826-.002-4.505l46.339-14.161c2.223-.679 2.222-3.828-.002-4.504l-46.335-14.109c-2.225-.676-2.226-3.826-.002-4.505l46.34-14.162c2.223-.68 2.222-3.828-.002-4.504l-46.336-14.108c-2.225-.679-2.226-3.826-.002-4.505l46.34-14.162c2.223-.68 2.222-3.829-.002-4.505l-46.336-14.108c-2.225-.676-2.226-3.826-.002-4.505l46.34-14.162c2.223-.68 2.222-3.828-.002-4.505l-46.322-14.103c-2.226-.679-2.226-3.828 0-4.506l46.322-14.104c2.225-.676 2.226-3.826.002-4.504l-46.34-14.162c-2.223-.68-2.222-3.827.002-4.505l46.336-14.109c2.225-.676 2.226-3.826.002-4.504l-46.34-14.162c-2.223-.68-2.222-3.828.002-4.505l46.335-14.108c2.225-.678 2.226-3.827.002-4.505L168.061.384a2.297 2.297 0 0 0-.689-.104H38.345C17.167.276 0 17.443 0 38.621V297.38c0 21.177 17.167 38.345 38.345 38.345h129.028c.233 0 .463-.034.686-.102l53.387-16.256z" fill="#F5F5F5"/><path d="M473.655.276H167.372c.233 0 .465.035.689.104l53.386 16.312c2.223.679 2.222 3.828-.002 4.505L175.11 35.305c-2.225.678-2.226 3.826-.002 4.505l46.34 14.162c2.223.679 2.222 3.828-.002 4.504L175.11 72.585c-2.225.679-2.226 3.826-.002 4.505l46.34 14.162c2.223.679 2.222 3.828-.002 4.504l-46.322 14.104c-2.226.679-2.226 3.828 0 4.506l46.322 14.103c2.225.679 2.226 3.826.002 4.505l-46.34 14.162c-2.223.68-2.222 3.829.002 4.505l46.336 14.108c2.225.676 2.226 3.826.002 4.505l-46.34 14.162c-2.223.68-2.222 3.827.002 4.505l46.336 14.108c2.225.676 2.226 3.826.002 4.504l-46.34 14.162c-2.223.68-2.222 3.829.002 4.505l46.335 14.109c2.225.676 2.226 3.826.002 4.504l-46.339 14.161c-2.223.68-2.222 3.828.002 4.505l46.322 14.105c2.226.676 2.226 3.828 0 4.504l-46.322 14.105c-2.225.676-2.226 3.826-.002 4.504l46.34 14.162c2.223.679 2.222 3.828-.002 4.504l-53.386 16.256a2.383 2.383 0 0 1-.688.102h306.284c21.177 0 38.345-17.167 38.345-38.345V38.62C512 17.443 494.833.276 473.655.276z" fill="#873250"/></g></svg>