<svg width="512" height="336" xmlns="http://www.w3.org/2000/svg">
  <g transform="translate(.002 .264)" fill-rule="nonzero" fill="none">
    <rect fill="#3741CF" width="512" height="335.448" rx="38"/>
    <path d="M256 167.724l242.077 159.125A37.843 37.843 0 01474 335.448H38c-9.982 0-19.065-3.849-25.846-10.143L256 167.724z" fill="#E6000D"/>
    <path d="M0 153.537L256 168 0 182v-28.463zm512 0V182l-256-14 256-14.463zM443.526 0L256.164 167.932 406.136 0h37.39zm-178.12 0l-9.175 167.769-9.478-167.77h18.653zM105.938 0l150.226 167.605L68.486 0h37.452z" fill="#FFE15A"/>
  </g>
</svg>