<svg width="512" height="336" xmlns="http://www.w3.org/2000/svg"><g fill="none" fill-rule="evenodd"><path d="M473.655.276H38.345C17.167.276 0 17.443 0 38.621V168h512V38.621C512 17.443 494.833.276 473.655.276z" fill="#4173CD"/><path fill="#FFE15A" d="M0 168h512v83.86H0z"/><path d="M0 297.379c0 21.177 17.167 38.345 38.345 38.345h435.31c21.177 0 38.345-17.167 38.345-38.345v-45.517H0v45.517z" fill="#3CA100"/><g transform="translate(361 17)" fill="#FFE15A"><path d="M97.211 73.12l36.134-5.982-36.134-5.982 31.094-19.354-35.672 8.301 21.321-29.78-29.78 21.321 8.301-35.672-19.354 31.094L67.138.931l-5.982 36.134L41.802 5.971l8.301 35.672-29.78-21.321 21.321 29.78-35.672-8.301 31.094 19.354L.931 67.138l36.134 5.982L5.971 92.474l35.672-8.301-21.321 29.78 29.78-21.321-8.301 35.672L61.155 97.21l5.983 36.135 5.982-36.134 19.354 31.094-8.301-35.672 29.78 21.321-21.321-29.78 35.672 8.301L97.211 73.12zM67.138 89.207c-12.189 0-22.069-9.88-22.069-22.069 0-12.189 9.88-22.069 22.069-22.069 12.189 0 22.069 9.88 22.069 22.069 0 12.189-9.88 22.069-22.069 22.069z" fill-rule="nonzero"/><circle cx="67.14" cy="67.14" r="16.552"/></g></g></svg>