<svg xmlns="http://www.w3.org/2000/svg" width="512" height="336">
  <g fill="none" fill-rule="nonzero">
    <path fill="#3741CF" d="M473.9.3H38A38.3 38.3 0 0 0 0 38.6v258.8a38.3 38.3 0 0 0 38.3 38.3h435.4a38.3 38.3 0 0 0 38.3-38.3V38.6c0-21-17-38.2-38.1-38.3z"/>
    <path fill="#3CA100" d="M498.3 9.2L13.7 326.7c6.7 5.6 15.3 9 24.6 9h435.4a38.3 38.3 0 0 0 38.3-38.3V38.6c0-11.8-5.3-22.3-13.7-29.4z"/>
    <path fill="#FFE15A" d="M506.9 19.5L26.9 334c-9.3-3-17-9.2-21.8-17.5L485.1 2c9.3 3 17 9.2 21.8 17.5z"/>
    <g fill="#F5F5F5">
      <path d="M44.4 27.8l-4.7 14.1-15 .2c-1.4 0-2 1.8-.8 2.7l12 8.8L31.4 68a1.5 1.5 0 0 0 2.3 1.6l12.1-8.7L58 69.5c1.2.9 2.7-.3 2.3-1.6l-4.5-14.3 12-8.8c1.1-.9.6-2.7-.9-2.7l-15-.2-4.6-14.1a1.5 1.5 0 0 0-2.9 0zM158.2 27.8l-4.7 14.1-15 .2c-1.4 0-2 1.8-.8 2.7l12 8.8-4.5 14.3a1.5 1.5 0 0 0 2.3 1.6l12.1-8.7 12.2 8.7c1.1.9 2.7-.3 2.3-1.6l-4.5-14.3 12-8.8c1.1-.9.5-2.7-.9-2.7l-15-.2-4.7-14.1a1.5 1.5 0 0 0-2.8 0zM101.3 78.5l-4.7 14.1-15 .2c-1.4 0-2 1.8-.8 2.7l12 8.8-4.5 14.3a1.5 1.5 0 0 0 2.3 1.6l12.1-8.7 12.2 8.7c1.2.9 2.7-.3 2.3-1.6l-4.5-14.3 12-8.8c1.1-.9.5-2.7-.9-2.7l-15-.2-4.6-14.1a1.5 1.5 0 0 0-2.9 0zM44.4 129.2l-4.7 14.1-15 .2c-1.4 0-2 1.8-.8 2.6l12 9-4.5 14.2a1.5 1.5 0 0 0 2.3 1.6l12.1-8.7L58 171c1.2.9 2.7-.3 2.3-1.6L55.8 155l12-8.9c1.1-.8.6-2.6-.9-2.6l-15-.2-4.6-14.1a1.5 1.5 0 0 0-2.9 0zM158.2 129.2l-4.7 14.1-15 .2c-1.4 0-2 1.8-.8 2.6l12 9-4.5 14.2a1.5 1.5 0 0 0 2.3 1.6l12.1-8.7 12.2 8.7c1.1.9 2.7-.3 2.3-1.6l-4.5-14.3 12-8.9c1.1-.8.5-2.6-.9-2.6l-15-.2-4.7-14.1a1.5 1.5 0 0 0-2.8 0z"/>
    </g>
  </g>
</svg>
