<svg width="512" height="336" xmlns="http://www.w3.org/2000/svg"><g fill="none" fill-rule="evenodd"><path d="M38.345 335.724h435.31c21.177 0 38.345-17.167 38.345-38.345v-73.471L20.404 331.268a38.157 38.157 0 0 0 17.941 4.456z" fill="#3CA100"/><path d="M38.345.276C17.167.276 0 17.443 0 38.621V297.38a38.166 38.166 0 0 0 7.751 23.111L170.666.276H38.345z" fill="#3741CF"/><path d="M170.666.276L7.751 320.49a38.66 38.66 0 0 0 3.581 4.098L341.333.276H170.666z" fill="#FFE15A"/><path d="M473.655.276H341.333L11.331 324.588a38.425 38.425 0 0 0 4.847 4.069L512 112.092V38.621C512 17.443 494.833.276 473.655.276z" fill="#E6000D"/><path d="M20.404 331.268L512 223.908V112.092L16.178 328.658a38.437 38.437 0 0 0 4.226 2.61z" fill="#F5F5F5"/></g></svg>