<svg xmlns="http://www.w3.org/2000/svg" width="512" height="336">
  <g fill="none" fill-rule="nonzero">
    <path fill="#F5F5F5" d="M473.7 335.7H38.3A38.3 38.3 0 0 1 0 297.4V38.6A38.3 38.3 0 0 1 38.3.3h435.4A38.3 38.3 0 0 1 512 38.6v258.8a38.3 38.3 0 0 1-38.3 38.3z"/>
    <path fill="#E6000D" d="M473.7.3H38.3A38.3 38.3 0 0 0 0 38.6V168h512V38.6A38.3 38.3 0 0 0 473.7.3z"/>
    <g fill="#F5F5F5">
      <path d="M72.6 84.3c0-29 21.3-53.1 49-57.6a1.4 1.4 0 0 0 .2-2.6 62.4 62.4 0 0 0-75.4 59.3 61.8 61.8 0 0 0 75.4 61.1 1.4 1.4 0 0 0-.1-2.6 58.3 58.3 0 0 1-49.1-57.6z"/>
      <path d="M122.1 99.8l-2.6 7.8h-8.2c-1.1.1-1.5 1.5-.7 2.1l6.7 5-2.5 7.8c-.4 1 .8 1.8 1.7 1.2l6.7-4.8 6.7 4.8c.9.6 2-.2 1.7-1.2l-2.5-7.9 6.7-4.9c.8-.6.4-2-.7-2H127l-2.6-8c-.4-1-1.8-1-2.2 0zM163 99.8l-2.6 7.8H152c-1 .1-1.5 1.5-.7 2.1l6.7 5-2.5 7.8c-.3 1 .8 1.8 1.7 1.2l6.7-4.8 6.7 4.8c1 .6 2-.2 1.8-1.2l-2.5-7.9 6.6-4.9c.9-.6.4-2-.6-2h-8.3l-2.6-8c-.4-1-1.8-1-2.1 0zM142.7 36.8l-2.6 7.8H132c-1.1.1-1.5 1.5-.7 2.1l6.7 4.9-2.5 7.9c-.4 1 .8 1.8 1.7 1.2l6.7-4.8 6.7 4.8c.9.6 2-.2 1.7-1.2l-2.5-7.9 6.7-4.9c.8-.6.4-2-.7-2h-8.2l-2.7-8c-.3-1-1.7-1-2 0zM110.2 61l-2.6 7.8h-8.3c-1 0-1.5 1.4-.6 2l6.6 5-2.5 7.8c-.3 1 .9 1.9 1.7 1.3l6.7-4.8 6.8 4.8c.8.6 2-.3 1.7-1.3l-2.5-7.9 6.6-4.9c.9-.6.4-2-.6-2h-8.3l-2.6-7.9c-.3-1-1.8-1-2.1 0zM175 61l-2.6 7.8h-8.3c-1 0-1.5 1.4-.6 2l6.6 5-2.5 7.8c-.3 1 .9 1.9 1.8 1.3L176 80l6.7 4.8c.9.6 2-.3 1.7-1.3l-2.5-7.9 6.7-4.9c.8-.6.4-2-.7-2h-8.3l-2.6-7.9c-.3-1-1.7-1-2 0z"/>
    </g>
  </g>
</svg>
