<svg width="512" height="336" xmlns="http://www.w3.org/2000/svg">
  <g fill="none" fill-rule="evenodd">
    <path d="M473.7.5H38.3A38.3 38.3 0 000 39v258.7A38.3 38.3 0 0038.3 336h435.4a38.3 38.3 0 0038.3-38.4V39A38.3 38.3 0 00473.7.5z" fill="#3741CF" fill-rule="nonzero"/>
    <path d="M423.8 158.5c-.1 30.5-5 63.4-44.8 79.1-39.8-15.7-44.7-48.6-44.8-79.1h89.6z" fill="#128BBF" fill-rule="nonzero"/>
    <path d="M379 237.6a66.4 66.4 0 0035.7-31 8 8 0 00-3.9-.1c-1-.1-38.5-2.9-42.9-4.5-3.8-1.4-18.4 1.2-25.2 3.6a64 64 0 0036.3 32z" fill="#E8ECE9" fill-rule="nonzero"/>
    <path d="M351.2 218.7a6 6 0 012.2-.1c.5.1.6.1.8-.4.2-.6.7-.5 1-.2.4.3 1.2.2 1.6-.3.3-.5.4-.5.8-.1.3.3.5.2.8.1.3 0 1-.5 1.2-1 .3-.5.8-.7 1-.4.2.3.5.4.8.4.4 0 .5.3.4.7 0 .4.2.5 1-.2.7.8 1 .5 1-.3s-.2-3.6-.5-4c-.3-.4-.6-1.5-.6-2.4-.1-1.7-.1-1.8-2.2-2.8 0-.6-.1-.8-1.5-.7 0-.2-.2-.8-.5-1-.3-.3-.4-.4-.2-1 .6 0 1.2-.1 1.6-.6.3-.5 1.4-.4 2.1 0 .7.2 1.6.3 2.9 0l2.2-1.2c.9-.5 1.1-.7 1.2-1.4.1-1.8-.5-3.7-1-4.7-.5-.9-.6-2-1.3-3.5-.8-1.6-.8-2-1.6-3-.2-.2-.5-.5-.5-1s-.3-1.3-.9-1.8c-1.4-1.3-2-5.7-2.6-8.9-.3-1.8-.1-6.2-.9-6.8-1.3-1.1-2-1-2.8-1.3-.7-.8-1-2.6-1.5-4.1-1 .1-1.6 1-2.2 1.4-.7.4-.8.4-.8 1.2 0 1-.5 2.1-1.3 3.5-1 1.3-2.4 1-3.6 3-2.7-3.3-2.8-4.2-3-5.1-.2-1-.6-1.1-2.1-2.4 0-.4-.2-2 0-2.8-1.2-1-2-.8-2.6-.1-.5.6-.9 1.7-1.7 2-.5.7-2 2.3-3.3 4.2 1.2 16.9 5 33.6 16.6 47z" fill="#69522B" fill-rule="nonzero"/>
    <path d="M423.8 158.5c0-11.5-.6-22.7-.4-32.4-14.8-6.7-34.4-8-44.4-8s-29.6 1.3-44.4 8c.2 9.7-.4 20.9-.4 32.4h89.6z" fill="#BCA76B" fill-rule="nonzero"/>
    <path d="M336.7 171.8c.4.8 1.3 2.1 1.4 2.9.4-.7.6-1 .7-1.5 0-.4.6-1.3.4-1.7-.2-.5-.3-.9.2-.5.5.3.4.9.3 1.8-.3 2.3-1.3 2.8-1.4 4.4 1.4 3.4.3 4.6 1.9 8 .2 0 .9-.2 1-.1 1-.6 1.5-.4 2.7-.2 1.2.3 1.8 1.1 1.8 1.8 0 .8 0 1 .3 1.4.2.4.7 1.1.6 1.6-.1.5 0 .8.2 1 .2.3 0 .8-.2 1.1-.1.4 0 .8.5 1.5.6.8 2 3.8 2 5.6 0 1.8 0 2.7.8 3 .8.3 1 .6 1 1.4-.2.8.2 4.8.3 5.4.1.7.4.5.7.9.3.3.5.7 1.5.7h2.5c.9 1.2 1.4 2.8 1.6 3.8.2 1 .2 2.5.6 2.5.3 0 .6 0 .5-1.3 0-1.2-.2-1.4-.6-2-.4-.7-.7-1-.4-1.4.2-.3.3-1 .2-1.5-.1-.4-.3-1.2.5-.2l1.4 1.6c.2.3.3 1 .3 1.5 0 .6 0 .8.4.5.3-.2.7.2.5.9-.2.6 0 1 .7 1.2.6.2.8.3 1 .8.1.4.6.6.6-.3 0-.9-.4-2.7-.6-3.3l-.5-2.6c0-.7-.2-.9-.5-1-.4-.2-.7-.4-.7-.8 0-.3-.4-.4-.6-.4-.2 0-.4-.2-.5-.4-.1-.3-.3-.3-.5-.3s-.6.1-.8-.3c0-.4-.3-1-.5-1.3-.2-.3-.5-.4-.5-1.5 0-1 0-1.2-.4-1.6l-1.2-1.8c-.2-.5-.4-1-.4 0s0 1.4.5 1.8c.6.3.8.3.5.8-.2.5 0 .8.1 1.2.1.3.3.6 0 1-.3.3-.6.2-.5-.3a3 3 0 00-.4-1.6c-.2-.5-.4-.8-.7-.5-.3.2-.6 0-.4-.3.2-.1.2-.3 0-.4-.1-.2-.2-.3 0-.6.3-.3.3-.5.2-1.1-.2-.7-1.3-4.1-1.7-4.9-.5-.8-.5-1.4.2-.6.6.8 1.1 1.5 1.2 2.1 0 .6.2 1 .4 1.3.2.2.3.1.4-.4.1-.5.5-.4-.2-1.4-.7-1-2-2.7-2.4-5.8-.5-3-.7-5-1.2-5.9-.5-.8-.6-1-.7-1.8 0-.8 0-1.5-.3-2.1-.4-.6-.6-.7-.7.2 0 .9 0 2.8.3 3.1.3.4.1 1.2 0 1.7 0 .5-.7 1 .9 2 .6.4.5.9.4 1.2-.1.4-.2.3-.5-.2l-1-1.3c-.4-.3-.5-.5-.4-1.1 0-.7.2-1.2 0-1.4-.2-.3-.3 0-.4.3-.1.4-.2 1.5-.4 1.7-.2.3-.3.1-.4-.5a6 6 0 01.4-2.7c.3-1.1.5-2.3.2-3.7-.3-1.5-.2-2-1.3-3.2-1.1-1.2-2.4-2.3-3-3.8-.5-1.5-.6-2.9-1.1-3.5a8.1 8.1 0 00-2-1.8v-2.3c0-.5-.2-.8-.9-.7-.6 0-1 .6-1.4 1.3-.4.7-.7.4-1.2 1.7-.6 1.2-1.3 1.9-1.3 3.2z" fill="#CFA763" fill-rule="nonzero"/>
    <path d="M340.2 186c.4.3.7.5 1.3.2.6-.3 1.3-1.2 2.1-.3a5 5 0 011.2 3.2c0 1 0 3 1.3 4.2a5.1 5.1 0 011.9 3.7c0 1.5.6 3.7.7 4.3.1.6.5 1.3.9 1.7.4.3.7 1.5.7 2.6v2.6c.2.6 0 1-.4.8-.5-.3-.6-.5-.8-1-.3-.4-.5-.3-.3.4s1 1.4 1.6 1.4c.7 0 .8.1 1.2.5.4.4.5.6 1.2.6l1.4.2c.6.2.6 0 1 0 .3-.1.6.2.9.8.2.6.8 2.4.8 2.9s0 1 .4 1.4c.3.5.2 1-.2.7-.4-.3-.4-.2-.7-.1-.3 0-.5-.1-.8-.4-.4-.2-.2-.2-.6-.8-.4-.5-.6-.7-.6-.3 0 .4 0 1-.4.7-.3-.2-.4-.2-.6 0-.3.3-.4.5-.7 0-.3-.5-.6-.5-1-.6l-.4-.5c-.1-.5-.5-.6-1-.6-.3 0-.5-.2-.6-.5 0-.2-.3-.4-.5-.6-.2-.1 0-.5-.1-.8 0-.4-.4-.2-.5-.3-.2-.1-.4 0-.4-.5s-.2-.7-.3-1c-.2-.4 0-.7 0-1 .2-.5.1-.7-.2-1-.3-.4 0-.7-.8-1.4s-1.2-.1-1.4-1.7c-.3-1.6-.8-5-1.2-5.5-.4-.5-.7-.9-1.2-1-.4-.2-.7 0-.8-1 0-1-.3-2-.9-2.7l-1.1-1c-.3-.2-.4-.7 0-1.5s.2-2 .2-2.5-.2-1.2-.1-1.8l-.1-1.7c-.2-.4-.4-.5-.1-.7z" fill="#CFA763" fill-rule="nonzero"/>
    <path d="M355 212.6c-.2.6-.6.4-.9.1-.3-.3-.6-.3-.5-.8.2-.5.1-.6-.2-1H352.8c-.7 0-.8-.2-1.2-.6l-.2-.2v.3c0 .6 0 .5-.5.6-.6.2-.5-.5-.6-1v-.2c-.7-.1-1.3-.7-1.5-1.4-.2-.7 0-.8.3-.3.2.4.3.6.8.9.4.3.6-.2.4-.8v-.6a1 1 0 00-.5-.5c-.8-.3-.5-.4-.5-1 0-.7 0-.7-.6-.3-.4.3-.5 0-.5-1s-.6-1-.8-.3c-.1.6-.4.2-.7-.8-.3-1-.6-1.2-.7-.3 0 .8-.3 1-.8.6l.3 1.5c.2 1.6.6 1 1.4 1.7.8.7.5 1 .8 1.3.3.4.4.6.3 1-.1.4-.3.7-.1 1 .1.4.3.6.3 1 0 .5.2.5.4.6h.3l.4-.4c.6-.6 1.5 0 1.8.7.3.8.6 1 1 .4.5-.6.4-.5.9 0 .4.6.6.5.6.5s.5-.2.9 0c.3.3.5.3 1.2-.6.6-1-.3-.7-.6 0z" fill="#D7C99C" fill-rule="nonzero"/>
    <g fill="#7FB8C1" fill-rule="nonzero">
      <path d="M355.5 219.4c1.2 0 4.4-1 4.7-1.3.8.6 2.2 1.3 2.7 1.3-1 .2-1.8 0-2.1-.1.1.3.5.9.8 1-1.1-.1-2.3-.4-2.7-.8-1 .4-2.5.5-3.4 0zM357.6 220.9l2.8.4c-.7.6-.1 1.2 1 1-.5.2-1.1.4-.7.5 1 .2 3.7-.6 4.2-.9-.9 1.2-5.4 2.3-7.3-1zM359.5 223.8c.5-.2 2-.1 2.6.2-.7.2-2.2.2-2.6-.2z"/>
      <path d="M361.6 223.8c1-.2 3.8.5 4.8-.1-.3.9-2.1 1-2.7.8l-1.6-.4c.2-.1-.2-.1-.5-.3zM362.6 225.2c.8.1 3.5-.2 4.3-.5l3 .7c-.8.5-2.4.2-3 0-1.4.4-2.6.6-4.3-.2z"/>
      <path d="M363.9 225.6c1 .3 2 .1 3-.2a5 5 0 002 .2c.4.3 1.1.7 1.7.8-.6.2-3 0-3.5-.3a10 10 0 00-3.9.7c0-.4.2-.8.7-1.2zM362.6 220.2c.9.2 4 .1 5.5-.6.6-.3 1 .2.3.4-2.6.9-4.6 1.2-6 .4-.6-.3-.7-.5.2-.2zM377.6 216c-3.7 1.8-6.2 2.3-11.5.7-.5-.1-.8 0-.3.3.6.4 3.5 1.2 4.1 1.2.7 0 .5.4 0 .5-.3.1-.5.4.1.2s3.7-.3 5 .4c.6.2.7.2.6 0 0-.2.3-.4.7-.4.4 0 .7-.2.4-.3-.4-.2-.4-.2-.2-.4.3 0 .3-.2 0-.3-.4 0-.7-.1-.3-.3l1.2-.4c.1-.2 0-1 .2-1.2z"/>
      <path d="M371.4 216.5c2.1.1 6-.9 8.2-2.9.7.4 1.8 1 2.3 1 .5.1 1 .6.2.6s-2-.3-2.6-.6c-2.7 1.7-6 2.3-8 2.1-.7 0-.8-.3-.1-.2zM368 210.4l-2 .3c-.3 0-.6 0-.6.3s.1.4-.4.4-1 .1-1 .3c-.2.1-.3.2.2.3.6 0 .8 0 1.4-.2.6-.2 1.2-.7 1.8-.7.6 0 1.3-.8.6-.7z"/>
      <path d="M366.2 211.9a12 12 0 004.1 1.2c1-.1.8.3 0 .5a6 6 0 01-4.5-1.3c-.6-.5 0-.7.4-.4z"/>
      <path d="M378.7 213.2c-2 .6-4 .4-4.9.2-.8-.2-1.6-.3-1 .2.5.6 2.4 1 3.4.7-3.7.8-4.6.7-5.5.6-1-.2-2.6-.1-3.3 0-.6 0-1.3 0-1.6-.3-.4-.2-.5-.5.5-.4 1 0 1-.1.2-.3-.8 0-2 .3-.8 1 1.1.7 3.6 0 5.2.4a9 9 0 008-1.8c.2-.2.4-.5-.2-.3zM374 211.2c-.4 0-1.1-.3-1.5-.4-.4-.2-1-.2-.6.3.4.6 2.3.9 2.9.6.6-.2.4-.5 1-.1.6.3 1.3.6 1.8.6.4 0 .6 0 0-.3-.4-.3-.7-.3-.7-.6 0-.2-.1-.4.3-.2.5.1 1 .4 1.4.2.4-.2 1-.6 1.6-.6l.2-.4c-.9 0-1.4.2-1.7.3h-1.1c-.5 0-1.1 0-1.3-.2-.1-.1-.1-.2.3-.3.4 0 .5-.3 0-.2-.6 0-2 0-2.8-.2-.7-.3-1-.3-1.4-.2-.3.2-.3.5.2.5s1.5.1 1.9.5c.4.3.3.4-.1.2s-1.2 0-.4.5zM391.7 209.9c-1.4 1-3.2 1.3-5.3 1.4-.6 0-.4.2 0 .3 2.3.2 4.8-.6 5.7-1.5.2-.2.2-.6-.4-.2zM381.7 212.3c.7 0 2.9.6 3.6.9.5 0 .7-.2.6-.4-.1-.2-.2-.4.8-.4h3.6c.4 0 1.1-.7 1.5-.7a103.2 103.2 0 01-6 .4c-.4.1-.5.2-.9 0-.4 0-1-.3-1.4 0-.4.2-1.1 0-1.8.2z"/>
      <path d="M390.3 212.5c.4-.2 1.1-.8 1.5-.8.6 0 1.3.2 1.7.3.3 0 .7 0 .4-.3-.2-.3 0-.7 1-.6 1 0 1.5.3 2.5.2 1-.1 1.4.6 3.3-.1-.2.7.2.7.5.6.4-.1.8-.1 1.3.3.6.5 4.2.5 5 .4.9-.2 1.3.3.7.5-.7.2-.8.5-.7.6.2.2.3.5-.4.4-.8-.1-1 .1-1.4.4-.4.3-.5.4-1.5.2-1.1-.2-1.3 0-1.9 0a2 2 0 01-1.3 0c-.6-.2-1.9-.4-2.7-.2-.7.3-1.3.5-2 .3s-.8 0-.3-.5c.4-.5.5-.4 1.4-.5.8-.1 1.4-.3.8-.7-.5-.3-.7-.3-1.5.1s-1.2.6-2 .2c-1-.5-1.4-.4-2-.3-.6.2-1.6-.2-2.4-.5zM393.2 214c-1 0-1.4-.6-2.5-.5-.4 0-1.1.5-.2.5 1-.1 1.9.4 2.8.3.9 0 .5-.5 0-.4zM392 214.8c.5-.2 1.8.2 2.3 0 .5 0 1 .3.4.5-.5.1-1.8-.4-2.4-.2-.6.2-1.2 0-.4-.3zM380.2 217.9c.9 0 3.8-.1 5-2.5 0-.2 0-.3.5 0 .3.2 1.7 1 4.2 1.2.7 0 1.5.4 0 .3-1.4 0-3.6-.5-4.4-1-1.3 2-3.5 2.3-5.3 2.3-1 0-.7-.3 0-.3z"/>
      <path d="M386.5 214.6a5 5 0 01-2.3 1.5c-.6 0-2.5-.1-3-.3-.4-.2-1-.1-.3.3.7.5 2.3.8 3 .7.6-.2 1.4-.4 2 0 .4.2 1.4.9 2 .7a5 5 0 012 0c.4.3 1 .8 0 .5-.9-.3-1.7 0-2.1-.3.5.7 1.6 1.8 2.5 1.8.3 0 .4.4 0 .6.4.2 1.5.4 2-.1-.1.2 0 .3.2.4.3.1.6.3.1.4H391a9 9 0 006 1.1c.4 0 .7-.3-.1-.3l-2-.1c-.3-.2-.3-.3.2-.5l2.1-.3c.5 0 1-.2 0-.2l-2.7-.1c-.5-.2-.9-.4-.4-.8.5-.3 1-.2 1.3-.5-1.6 0-3.6-1-2.5-1.7.3-.2.2-.2-.2-.2s-1.7-.4-2.2-.7c-.5-.3-.1-.5.3-.6-1 .2-2.9-.4-4.2-1.3zM401 214.5c-1 .7-2.6 1-3.3 1-.8 0-.9.2-.3.3a5 5 0 001.4 0l.8.1c.4.2 1.1.3 1.8 0l2.3-.2c.5 0 1 0 0-.2a7 7 0 00-2.8 0c-.3 0-1.3 0-.8-.2a4 4 0 001.3-.6l-.5-.2zM400.4 216.4c-.7.6-1.8 1.1-3 1.2 1 .3 2 1.4 2.6 1.3-.3.2-.7.5-1.1.6a4 4 0 002.6-.5c1.4.4 3.3.1 4-.4-1 0-2.1-.4-2.6-.8.4 0 .9-.3 1-.6a6 6 0 01-3.5-.8z"/>
      <path d="M398.9 219.5c.4 0 .8-.4 1.1-.6-.8.3-4.3-.2-5.4-1.2-1-.9-1-.2-.3.5.7.6 2 1.6 4.6 1.3zM401.5 221.7c-.5.3-2.6.4-3.3.3-.6-.2-1-.1-.8.1.2.3.3.6-.3.5-.5 0-1.6 0-2 .2-.4.1-.9.5 0 .3.9-.1 1.7-.3 2.3-.1.7.2 3 .2 3.5 0s.2-.2 0-.2c-.3 0-.4-.1 0-.3.3-.1.5-.5.6-.8zM381.1 218.9c-.9.4-3.8 1.2-4.6 1.2-1 .4-1.8.7-2.2.7.3.3 1.6.6 2.2.4l-1.3.8 2.1.1c-1 .6-2.4.8-3.1.7.2.4.5.7 1 .7-1 .3-2 .3-2.7 0 .3.5.5.8.9.9-.8 0-1.8.2-2.6-.3.6.9 2 1.2 4.1 1a10 10 0 004.4-1.6h-2.6a16 16 0 004.1-1.8c-.5 0-1-.1-1.3-.4.7.1 3-.2 3.8-.5-.9-.2-1.4-.7-1.7-1 3.1 1 6.6.6 8.2.2.4 0 .5-.6-.3-.5-1.4 0-4-.3-4.7-.7.6.5 1.4.8 2 1a7 7 0 01-5.7-1z"/>
      <path d="M375.2 222l1.3-.8c-.6.2-1.9-.1-2.2-.4.4 0 1.2-.3 2.2-.7-1.8 0-3 0-3.6-.4-.7-.3-1.8-.2-2.3-.1-.4 0-.3.8 1.6.6-.8.5-2.9.7-3.7.5.2.7.4 1.3.2 1.6 1 .6 3.7 1.4 5 1.3-1.2-.5-1.8-1-.8-1l2.3-.6zM372.2 225.2c2.3-.2 5.5-.3 8-2.4.6-.5 1-.3.4.2a13.6 13.6 0 01-7.7 2.8c-1.3 0-1.9-.5-.7-.6zM389.7 221.3c-.5.2-2.2.5-2.7.4-.5 0-1.2 0-1.6.2-.4.2-.4.4.2.4h1.5l-.8.8a5 5 0 012.6.4c-.3.1-.6 0-1-.2 1.4 1.4 5.3 1.4 6 1.2l-.9.5c1.1.2 2.4.2 3.6-.6h-2c.3-.3.7-.5 1-.6-.5-.1-2 0-2.4.1.1-.2.4-.6.7-.7-2 0-4.3 0-5.1-.5 1.3.1 2.9-.7 3.5-.7-1 0-2.3-.2-2.6-.7zM384.8 222.4l-2.8.8c-.4.2-.8.3 0 .3a51.3 51.3 0 01.4 0c-.4 0-.8 0-.1-.3.6-.2 1.5-.6 2.5-.8zM382.9 224.7c.3 0 1.8 0 2.4-.6.6.5 1.8 1.2 2.6 1.2.7 0 .6.2 0 .2-.7.1-2-.3-2.6-.8-1 .3-1.6 0-2.4 0zM371.6 231.2c1.5.6 3.5 1 5 .5.8.7 2.5.8 3.4.6a5 5 0 012.8 0c1 .4 3.2.4 3.7.9h-2c-.2.1 0 .3.4.6-1.6-.1-4.5.6-5.4 1.3a3 3 0 012.9-1.7c-.9-.3-3.7-.4-4.6.2-.3-.3-.6-.8-.6-1-1.5.9-4.5-.3-5.6-1.4zM367.7 228.5c1.8-.3 3-.9 3.5-1.4.4.3 1.7.6 3.1.2-.3.2-.3.6-.2.8-1 0-2.7.5-3.3.8-.7.3-2.4.5-3 .2-.6-.3-.6-.6-.1-.6z"/>
      <path d="M374.1 228.1c-1 0-2.7.5-3.3.8l.2.9c1.7-.6 5.8-1 7.3-.8-.7 0-2.1.8-2.9 1 2-.2 3.8.2 4.3.3.5.1.5.5.2.8-.4.4-.6.4.2.4s2.4 0 3.2-.8c-.3-.3-1-.1-1.3-.4.5-.1 1-.5 1.3-.8a12 12 0 01-2.2-.1c-.5-.1-.8-.2-.3-.5.6-.3.8-.6 1-.8-1 .3-2.5.5-3.7-.4.5 0 1.6 0 2-.2l-1.1-.3c1-.5 3-1 5.4 0 1.2-.1 2.5 0 3.5.2l1.6-1.6c-2.9.3-8-.3-8-1.8-.9 1.3-3 2-4 1.7 0 .5.3 1 .7 1.3-1 .2-2.7.3-3.5.2.5.4 1.3.8 1.8.8-1 0-1.6.2-2.4.1z"/>
      <path d="M380.1 231.5c.8 0 2.4 0 3.2-.8-.3-.3-1-.1-1.3-.4.5-.1 1-.5 1.3-.8 2-.1 3.9 0 4.8-.3.9-.3 3.1-.1 3.6-.2-2 .3-2.4.4-2.5.8 0 .3.6.5 1.1.5-.9 0-2 1-2 1.3-1.2-.7-1.8.1-2 .4-.4-.2-2-.2-2.9.5-1-.3-1.8-.5-2.8-.3.6-.1.5-.6-.5-.7zM389.5 225.8h2.6l-.8.6c1.6-.1 3.9-.3 4.6-.2-.8 0-1.7.4-2 .7-.5.3-.3.4.3.5.6 0 1.3.5.3.4-1-.2-3-.2-3.6-.1-.4 0-.7-.2 0-.3.7 0 1.2-.3 1.5-.5a6 6 0 01-2 0c-.4 0-.6-.3-.2-.4.4 0 .1-.2-.3-.1-.4 0-1.5.4-2 1l1.6-1.6zM382 227c.9.8 1.8 1.3 3.3 1.4.4 0 1 .4.2.5-2 0-3.1-.5-4-1.8-.2-.2.2-.6.6-.2zM408.2 215.9c-.7.4-1.5 1.1-1 2.1h.3a59.3 59.3 0 006.2-9.4c-.7.6-1.8 1.2-2.2 1.3.3.8-1 1.8-1.8 2.1.3.5.2 1.2-.4 1.4.1.4-.4.4-1 .6-.6.3-.9.5-1 .8.3-.2.7-.4 1-.3.2 0 .2.5-.2.6-.4 0-.7.3-.9.5.7-.3 1.6-.1 1 .3zM365 204.8c.7.5 2 1.4 3.7 1.2.9.7 2.2 1.3 2.7 1.4-1 .4-2.3.8-2.6 1.2-.5-.5-1.2-.4-1.4-.7-.5.4-.4.7 0 .9.2.2 2.7.6 3.3.4.6-.2.8.3.3.5-1.3.5-3.9 0-4.8-1.4-.9-1.4-1.6-2-4-.6-.3-.7-.3-.9-.7-.9-.5 0-1.4-.6-.7-.6s2.6-.2 4.2-1.4z"/>
      <path d="M365.6 208c-.4 0-1.6.7-2 .7-.4 0-1.1.6-.4.7.8 0 1.8-.8 2.3-.9.5 0 .6-.7 0-.6zM368.8 210.2v.7c0 .2 0 .4.2.1.4-.2.6-.5.9-.3.3.2 1.1.1 1.5 0 .3 0 .5 0 0-.3-.6-.2-1.2-.3-1.5-.2-.2 0-.6 0-.9-.2-.2 0-.3 0-.2.2zM380.4 210.3l-.2.4c1 0 3.2.2 3.9.6.7-.5.5-.7 1-.6.5 0 1.1.3 1.4.1.3-.1.5-.1.8 0 .2 0 .9-.1 1.2-.4a4 4 0 011.6-.5c.5 0 1 0 .2-.2-.8-.1-2 .1-2.5.3l-2.4.2c-.7 0-1.7.4-2.5.2-.9-.3-2-.1-2.5-.1zM394.3 210c1.1.5 3.3.9 5 .8.3 0 .9.3.1.4-1.9.2-3.6-.1-5.2-1-.4-.2-.3-.4.1-.2zM395.4 210c1.7-.1 3 0 3.5.4 1-.3 2.6-.5 3-.4.4 0 .8 0 0-.3-1-.2-3-.3-3.7-.2-.7.1-2.8.2-3.4.1.3 0 .5.1.6.3zM401.9 210.6c.8-.4 3 0 3.7-.3-.5.6 1.6.6 3.4.1-.7.5-2.2.6-2.8.8-.7.3-1 0-1.5-.1-.5-.2-1.7-.7-2.8-.5z"/>
      <path d="M409 210.4c-1.8.5-3.9.5-3.4-.1-.7.3-3-.1-3.7.3.8-.5 1.4-.1 2-1.1.4 0 1.2.1 1.5-.3a5 5 0 011.7.6c.3.3.7 0 .3-.5.9-.2.3.4 2.2 0a16 16 0 011.7-.4c-.7.5-1.4 1.1-2.3 1.5z"/>
    </g>
    <path d="M423.8 158.5c-.1 30.5-5 63.4-44.8 79.1-39.8-15.7-44.7-48.6-44.8-79.1h89.6z" stroke="#000" stroke-width="2"/>
    <g fill-rule="nonzero">
      <path d="M352 172.2c-.7.9-1.4 1.6-2.3 2.2-1 .7-2 1.2-1.4 2.3.6 1.1 1.1 1.2 1.3 2 .1 1 .3 1.6 1 1.8.6.2.9 0 .9 1.5 0 1.3 0 1.8.5 2.4.6.5.6 1 .8 2.2.3 1.2.3 4 1 5.7.9 1.8 2.6 5.3 2.4 6-.2.7-.4 1.2.3 2 .8.9 1.4 2.1 1.4 2.8 0 .8.2 1 1 .8.8-.3 1.2-.6 1.4-.9.3-.3.8-.3 1.5.1.8.4 1.9.8 2.5.4.7-.4 1-1 1.6-1 .9-.6 1.2-2 1.4-2.3.2-.4 0-.4-.3-.8-.4-.4-.2-1-.3-1.7 0-.7-.3-1.6-1-3-.9-1.5-1.3-3.2-1.8-3.7-.6-.4-.8-1.5-.9-2 0-.6-.6-1-1-1.4-.4-.4-.8-1-1.3-3.2l-.8-4.3c0-.4 0-.5-.4-.6-.4-.1-.6-.8-.5-1.1.2-.3-.1-.7-.2-1a2 2 0 01.2-1.5c.3-.4.2-1.5 0-2.4-.3-1-.6-1.7-1.6-1.8-1-.2-1.2-.4-1.6-1.3l-1-2.6c0-.4-.3-.4-1 .2-.8.7-1.1.9-1.1 2.1 0 .8.1 1 .4 1.5.3.4.3.6.5 1.8.2 1.2 1.3 3.2-.1 4.3-1.5 1-1.3 1.3-1.2 2.1 0 .8-.4 1.3-.6.2-.3-1 0-1.7.7-2.3.8-.5 1.5-1.1 1-1.8s-.7-2.4-.8-3.2c0-.8-.2-1-.6-.5z" fill="#CFA763"/>
      <g fill="#D7C99C">
        <path d="M340.4 188.8v1.5c.1.6.3 1.7-.1 2.5s-.3 1.3 0 1.5c.8-.2 1-1.1.7-1.5-.2-.5-.1-1 .1-1.5.3-.4.3-.7 0-1-.2-.3-.2-.3 0-1.3.3-.8-.3-.7-.7-.2zM348.7 201.3c-.1-.6-.7-2.8-.7-4.3 0-1.4-.7-2.6-2-3.7-.9-.9-1.1-2.3-1.2-3.4-.7-.4-1-.2-1 .6.2.9 1 1.3.9 2.6-.1 1.2-.1.9.5 1.5s.8 1.2.5 1.5c-.3.2-.3.7.1.8.5.2.5.7.4 1.2 0 .4.4.5.7.8.2.3.3 1.1 0 1.6-.3.4-.3 1.1.2.8.4-.4.6 0 1 .5.3.6.5.4.9.2a4 4 0 01-.3-.7zM344.9 174.3c-.5 0-.8.5-.6 2 .2.9-.5.7-.7.2-.3-.4-.5-1.4-1-2.3-.5-.8-.3.6-.3 1.4-.1.8.4.8.9 1.4.4.7 0 1-.5 1s-.2 1-.1 1.7-.1.8-.5.2c-.4-.5-.2-1.4-.1-2.5 0-1.1.1-.9-.6-1.1-.7-.3-.6-.4-.3-1 .2-.7.5-1 .2-1.4-.4-.3-.3-.5.2-.6.6 0 .4-.4.8-.5.5-.2.7 0 .7-.8 0-.7.3-1.2.9-1 .3 1.1.7 2.8 1 3.3zM356.8 186c.2-1.5 0-2.9.7-3.4.6-.5 1.3-1.6 1.2.7 0 2.2-.1 2-.6 2.5-.4.6-.8.7-.4 1.5.5.9.5 1 .5 2.2 0 1.3 0 1.8.4 2.5.6.6.7.7.8 1.4.2.7.6 1.7 1.2 2.2.6.5 1.2 2 1.3 3 0 1.1 1 1.4 1.8 2 .9.8-.2 1.3-.8 1-.7-.3-.4 0-.8.4-.4.5-.5.6-.9-.2-.3-.8-1.4-1.3-2-1.5-.4-.2-.9-1-1.3-1.9a2.5 2.5 0 00-2-1.3c.3.5.4 1 .3 1.2-.2.7-.4 1.2.3 2 .8.9 1.4 2.1 1.4 2.8 0 .8.2 1 1 .8.8-.3 1.2-.6 1.4-.9.3-.3.8-.3 1.5.1.8.4 1.9.8 2.5.4.7-.4 1-1 1.6-1 .9-.6 1.2-2 1.4-2.3.2-.4 0-.4-.3-.8-.4-.4-.2-1-.3-1.7 0-.7-.3-1.6-1-3-.9-1.5-1.3-3.2-1.8-3.7-.6-.4-.8-1.5-.9-2 0-.6-.6-1-1-1.4-.4-.4-.8-1-1.3-3.2l-.7-3.9c-.5.7-.8 1-1 .4-.2-.6-.4-.9-.7-.5-.2.4-.3-.3-.3-.6 0-.4 0-.4-.4-.4-.3 0 0-.6-.2-1.5-.1-1-.3-1.1-.5 0 0 1.2-.7 2-.5 2.2.3.2.1.8-.1 1.5-.3.8-.1 1.3 0 1.8.2.5 0 1.5-.2 2.3-.1.9.5 1.7.7.3zM351.5 182c0 1.3 0 1.8.5 2.4.6.5.6 1 .8 2.2.3 1.2.3 4 1 5.7l1 2c.4-.4.8-1 .9-1.3.2-.4-.4-1.3-.8-2.1-.5-.8 0-1 .5-2 .4-1 0-1-.8-1.3-.7-.3-.7-1-1.1-2-.4-1-.3-1.4 0-2 .2-.6 0-1-.5-1.2-.6-.1-.4-.5-.2-1.2.2-.6.3-.7-.5-.5-.6.1-.7.2-1 .4l.2.9z"/>
      </g>
    </g>
    <g stroke="#000" stroke-width=".7">
      <path d="M363.8 181.4l-1.6 17.1M368.5 192c-.7 2.8-1.5 6.1-2.4 8.9M389 183.7c1.1 1 2.7 1.3 4.5 2.2M396.8 191.2l-.9 6.6M396 191.5l-1.6 6.8M367.5 192.1c-.8 2.8-1.8 5.4-2.7 8"/>
    </g>
    <path d="M401.4 208h-.1-.2-.1a3.1 3.1 0 00-.3.1h-.1l-.1.1v.1a1.2 1.2 0 01-.2.2 9.6 9.6 0 00-.4.5l-1.2.5h-1.4c-.6 0-1.3 0-1.6-.3-.5-.2-1 0-1.4.1-.2.2-.3.4-.6.5-.2.3-1 .2-1.3.1-.7 0-1.2-.1-1.7-.3-.3-.2-.9-.4-1.3 0-.2.2-.5.4-1 .5-.7 0-1.5 0-2-.2-.6 0-.8-.4-1.3-.5-.6-.1-.9.2-1.3.3-.3.3-.8.3-1.4.3-.7 0-1.4 0-1.8-.2-.5 0-.9-.3-1.2-.5-.4-.3-1.1 0-1.4.2-.6 0-.8.5-1.5.4-.6 0-1-.3-1.5-.4-.5-.2-1-.6-1.7-.5-.3.3-.8.4-1.3.4h-1.3c-1-.1-1.4-1.1-2-1.6l-3.5-3.4c.2-.6.3-.7 0-1.1.1-.6-.3-.7-.1-1.3.2-.5-.5-.4-.7-.7-.4 0-.6-.4-1-.5l-1-.6-1-.5-.8-.6-.8-.5-.8-.5-.9-.6-1.2-.5c-.4 0-.5-.7.1-.7.4 0 .7.3 1 .5l1.6.5 1 .4 1.2.6 1.1.6c.4.1.5.4.9.5.1.2.4.2.6.4l.9.5.8.4 2 1 4.6.7 13.5.2 4.9-2 1.5-2.4 7.2-1.3a47 47 0 0113 .6c.1.5.5 1.4 0 1.6-.2.1-12-1.5-12.3-.4l.1 3.8.2 1.4.2 1.4.2 1.3.2 1.4z" fill="#666" fill-rule="nonzero"/>
    <g stroke="#000" stroke-width=".7">
      <path d="M364.7 189.8a53.9 53.9 0 01-6.7 6.4M376.7 179.7l7-6M373.5 185.7c1.4 1 3 1.9 5.2 2.4M372.5 176.5a7.2 7.2 0 005 3.5M370.5 162.7c-1 1.2-2.4 2.4-4.4 3.4M373 171.2c1 1 2.5 1.5 4 2M373 192.4c.8 3.5 1.4 6.3 2.2 9.1M372.5 201.5c3.7-3.8 6.8-7.8 8.8-12.4M388.8 175.5a8.6 8.6 0 004.3 2.7M393.9 171c1 1.8 2.2 3.1 3.3 4.6M383 165.4c0 1.8-1.1 3.6-1.9 5.1M385.6 166.3c-1.3 1.5-2.6 3-4.4 4M385.8 160c-.9.6-2.1 1.3-3.1 1.7M399.1 173.5c-1 1.2-2.1 2.8-3.9 3.9M399.3 184.1c-1.3 1.4-2.6 2.9-4.2 3.9M407.3 191.7c-2.4 2-5 3.8-7.7 5.2M401 197.1c2.2-1.4 4.3-3.4 6.3-5.4M400.2 173.7a8.6 8.6 0 002.6 3.3"/>
    </g>
    <path stroke="#472B1F" stroke-width=".5" fill="#BCA76B" fill-rule="nonzero" d="M398.7 162.1l-.2 35h2.6L400 162z"/>
    <g stroke="#000">
      <path d="M400.4 207.3l1.5 1.2c1 1 1.8 1 3.4 0 .6 0 1.2.4 1.9.2.5 0 1.1 0 1.7-.2.6-.1.7-1 1-1.5.3-.6.6-1.3 1-1.8.7-.4 1.3-.8 1.7-1.4.5-.6.4-1.3.3-2l-.1-1.8c-.2-.8.5-1.4.5-2.2-.4-.4-1-.4-1.6-.6a20 20 0 00-2.8-.4l-2.4-.2a30 30 0 00-2.2-.1h-2.6c-.6.2-1.4.1-1.9.4-.2.6-.4 1.2-.4 1.8v1.6c0 1-.2 2 0 3 .3.7.3 1.5.5 2.3 0 .6 0 1.2.5 1.7h0z" stroke-width="1.3" fill="#333" fill-rule="nonzero"/>
      <g stroke-width=".7">
        <path d="M403.3 190.2l3.5 6.5M412 197c-1-1-1.8-2.3-2.4-3.8"/>
      </g>
    </g>
    <g fill="#472B1F" fill-rule="nonzero">
      <path d="M411.8 187l1.1.7c-.3-.3-.6-.7-1.1-.8zM409.4 187.3h-.2l-1.6 6.3 1.8-6.3zM417 187.5c-.4 0-.7.2-1.1.4l.7-.3h.8l-.4-.1zM409.6 193.2h-.4a1.5 1.5 0 01.8.3l-.4-.3zM410.2 193.6l1.2.7-1.2-.7zM413.9 193.9l-2.1.4c.7 0 1.4-.2 2.1-.4z"/>
    </g>
    <path d="M409.5 186.9l-1.9 6.7 2-.4 2 1.2 3-.7 1.6.3c.5-2.2.4-4.7 1.6-6.5l-1.2.1-2 .8-1.7-.7-1.3-.9h-2.1z" fill="#FFF" fill-rule="nonzero"/>
    <path d="M412.4 187.7c-.3.6-.6 1.2-.7 2l-1.4-.4h-1.5l-.4 1.6h1.7c.4 0 1.2.4 1.2.4l-.6 2.5.3.3.9.2h.3c.2-1 .3-1.9.7-2.5 0 0 1.3.3 2 .3l1.6-.2.3-1.6a7 7 0 01-1.9.3c-.5 0-1.5-.6-1.5-.6l.6-1.6-1.6-.7z" fill="#C8102E" fill-rule="nonzero"/>
    <path d="M408.1 186.9c-.8-2.3-1.8-6-2.2-8.8" stroke="#000" stroke-width=".7"/>
    <g stroke="#472B1F">
      <path d="M408.9 187.4s2-.5 2.8-.3c.9.2 1.5 1.2 2.3 1.3 1 .1 2-.8 3-.9l1.5.2-.7 2.5-.5 2v1.9s-1.8-.4-2.6-.4c-1.1.2-2 .8-3.1.6-.8-.1-1.2-.8-2-1-.6-.1-2.3.3-2.3.3l1.6-6.2z" stroke-width="1.3"/>
      <g fill="#BCA76B" fill-rule="nonzero" stroke-width=".5">
        <path d="M409.2 187.3h-.8l-2.5 9 1.2.1z"/>
        <path d="M408.4 187.4c-.3-.2-.6-.8-.4-1.2.2-.4.9-.5 1.3-.3.5 0 1.2.6 1 1-.2.7-1.3.8-1.9.5h0z"/>
      </g>
    </g>
    <path d="M417.7 187.6c-1.2 1.7-1.1 4.2-1.6 6.3.6 0 1.1.2 1.1.2v-1.9l.6-2 .7-2.5-.8-.1z" fill="#472B1F" fill-rule="nonzero"/>
    <g stroke="#000" stroke-width=".7">
      <path d="M403.2 180.3c1.3.8 2.5 3.1 4.4 5M405.6 177c-1-2.5-1.7-6.5-1.9-9.5M401.8 191.4l2 5.2M403.8 165c-1.7-.4-3.3-1.6-3.6-2.6M392.6 166.8c1.1 0 5-2.9 5.6-4.4M402.5 190.7l2.8 5.9M402.3 192.7l2-.8M402.7 193.8l2.1-1M403.5 196l2.4-1M401.2 184.4l2.8 3M395.2 191.7l-2 6.5M394.7 193.2h2M394.2 194.8h2.3M393.7 196.4l2.4.5"/>
    </g>
    <g fill="#BCA76B" fill-rule="nonzero" stroke="#472B1F">
      <path d="M400.2 161.2c-.4-.1-1.6-.2-2.1.2-.3.2 0 1 .3 1 .6 0 1.4 0 1.7-.2.3-.2.4-.9.1-1h0zM393.1 166.7c.9 3.4 4.5 2.8 4.4-.3" stroke-width=".5"/>
      <path d="M396.5 166.5c1 4 5.8 3.3 5.6-.3" stroke-width=".6"/>
      <path d="M400.5 166.5c1 2.8 2.5 2.3 4.3-.3M405.9 165l-13.3.9v.9l13.4-.7z" stroke-width=".5"/>
      <path d="M393.6 178.4c.8 3.8 4.6 3.2 4.5-.2" stroke-width=".6"/>
      <path d="M397.1 178.3c1 4.3 6 3.7 5.8-.2" stroke-width=".7"/>
      <path d="M401.3 178.3c1 3.2 2.6 2.6 4.5-.2M406.9 176.9l-13.8.6v1l14-.5zM393.3 189c.9 3.9 4.7 3.3 4.6-.3" stroke-width=".6"/>
      <path d="M396.8 188.9c1 5.7 6.2 3.7 6-.4" stroke-width=".7"/>
      <path d="M401.1 188.8c1.1 3.2 2.7 2.6 4.6-.3M406.9 187.2l-14.2.9v1l14.3-.8z" stroke-width=".6"/>
      <g stroke-width=".5">
        <path d="M402 172h-5.2v1.4h5.3zM402.1 183l-5.2.2v1.3h5.3z"/>
      </g>
    </g>
    <g stroke="#000">
      <path d="M389 189.2l3.9 9.3M369.3 192c-.4 3-1 6.8-1.8 9.6" stroke-width=".7"/>
      <path d="M412.9 197.8c-2.3-.4-4.5-.8-6.7-.9-1.8 0-3.5 0-5.3.2-2.6.3-5.2.4-7.6 1.1l-1 .5c-.7.7-.7 1.8-1.3 2.6-.6.7-2.7 2-3.5 2.5-5.7.1-12 0-19-1l-1-1.1-.5-.4 1.1.4h2.6l6-.2 7.9-.1c1.4 0 2.9-.2 4.3-.4l1-.1c.4-.3.6-1 .9-1.3.2-.4.4-1 .8-1.2 1.1-.8 2.6-.8 3.8-1 1.4-.3 2.7-.3 4.2-.5 1.7-.3 3.4-.4 5-.5h3.3c1.7 0 3.5 0 5 .8.2.1.7.4.5.7l-.5-.1h0z" stroke-width=".5" fill="#000" fill-rule="nonzero"/>
      <g stroke-width=".7">
        <path d="M387 160c.9.6 2.4 1.2 4 1.4M385.3 183.7a19.5 19.5 0 01-5.6 2.8M390.3 200.4l-3-8.1M387.8 189.6l3.6 9.3M387.4 192l2.3-.8"/>
      </g>
    </g>
    <path stroke="#472B1F" stroke-width=".5" fill="#BCA76B" fill-rule="nonzero" d="M385.7 158.8l-.7 43h2.6l-.5-43z"/>
    <path d="M388.8 165.5a10 10 0 005 4.4" stroke="#000" stroke-width=".7"/>
    <g fill="#BCA76B" fill-rule="nonzero" stroke="#472B1F">
      <path d="M380.5 162.8c.8 3.7 4.6 3.2 4.4-.2" stroke-width=".6"/>
      <path d="M384 162.7c1 4.3 6 3.7 5.8-.3" stroke-width=".7"/>
      <path d="M388.1 162.7c1 3.1 3 3.4 4.5-.3M393.7 161.2l-13.8.6v1l14-.5zM380.5 171.5c.8 3.7 4.6 3.2 4.4-.3" stroke-width=".6"/>
      <path d="M384 171.3c1 4.4 6 3.7 5.8-.2" stroke-width=".7"/>
      <path d="M388.1 171.3c1 3.2 4.2 2.7 4.5-.2M393.7 170l-13.8.5v1l14-.5z" stroke-width=".6"/>
    </g>
    <path d="M384.6 176.3c-1.3.8-2.4 1.8-4 2.3" stroke="#000" stroke-width=".7"/>
    <g fill="#BCA76B" fill-rule="nonzero" stroke="#472B1F">
      <path d="M380 179.6c.9 3.8 4.6 3.2 4.5-.2" stroke-width=".6"/>
      <path d="M383.5 179.5c1 4.3 6 3.7 5.9-.2" stroke-width=".7"/>
      <path d="M387.7 179.5c1 3.2 3.8 2.2 4.5-.3M393.3 178l-13.8.7v1l14-.5z" stroke-width=".6"/>
    </g>
    <g stroke="#000" stroke-width=".7">
      <path d="M381.8 189.5c-.4 4.2-2 8-3.2 12.1M383.3 189.5c-.3 4.1-1.6 8-2.7 12M384.6 189.1a79 79 0 01-2 12.3"/>
    </g>
    <g fill="#BCA76B" fill-rule="nonzero" stroke="#472B1F">
      <path d="M380.2 187.4c.8 3.8 4.6 3.2 4.5-.2" stroke-width=".6"/>
      <path d="M383.7 187.3c1 4.3 6 3.7 5.8-.2" stroke-width=".7"/>
      <path d="M387.9 187.3c1 3.2 3.8 2.5 4.5-.3M393.5 185.9l-13.8.6v1l14-.5z" stroke-width=".6"/>
      <path stroke-width=".5" d="M389.1 167.1l-5 .2v1.3h5zM388.9 175.5l-4.4.1v1.3h4.4zM389.2 183.7l-4.8.1v1.3h4.8z"/>
    </g>
    <g stroke="#000" stroke-width=".7">
      <path d="M381.7 191l2.6.6M381.1 193.4h3M380.6 195.2l3.1.8M379.8 198l3.6-.3M379.2 200.1h3.8M378.3 189.4c-.4 4.3 2.4 8.5 3.8 12.1M390 199.2l2.4-.7M389.3 198l2.8-1.2M388.5 195.8l2.8-.8M387.8 193.9l2.8-.7"/>
    </g>
    <path d="M372.8 209.2l-1-.1-.9-.4-.8-.5-.8-.7-.9-.8-.8-1-.8-.8c-.3-.2-.3-.7-.5-1-.3 0-.8 0-.8-.5-.2-.3-.2-.6-.5-.6-.2 0-.2.2-.1.1-.2 0-.2.3-.2.1l-.2.5c-.1.3-.1.6.3.7.3 0 .4.5.7.6l.9.8.7 1c0 .2.4.4.6.6l.6.8c.2.2.5.5.8.6l.8.5 1 .4c.2.2.7.1 1 .2.4 0 .8 0 1.1-.2.3-.3 0-.2-.2-.3zM393 199.4c-.4 1.1-1.1 2.6-2 3.5 3 .6 5.3-.2 8-.7a11 11 0 01-.2-3.7c-2.1.2-3.6.7-5.8 1z" fill="#000" fill-rule="nonzero"/>
    <path d="M393.3 199.7c-.4 1-.7 2-1.4 2.8 2.4.5 4.4-.2 6.6-.6-.4-1-.3-1.9-.2-2.9l-5 .7z" fill="#333" fill-rule="nonzero"/>
    <path d="M367.7 204l8.6.7c6.9.2 14.8-.1 21.7-1 .3 0 .7 0 .8.2.1.4-.3.8-.7.8-7.8 1-15.8.7-23.7.6l-4.7-.5-2-.8z" fill="#000" fill-rule="nonzero"/>
    <path d="M370.8 184.7c-2.2 1.7-4.4 3.5-6.9 4.4M371.2 176.6c-2 1.5-4 3.3-6.2 4.2" stroke="#000" stroke-width=".7"/>
    <path stroke="#472B1F" stroke-width=".5" fill="#BCA76B" fill-rule="nonzero" d="M370.4 161.8V202l2.2-.1-1.3-40.3z"/>
    <path d="M371.3 161.6c1.8 2 3.2 3 4.7 4.3" stroke="#000" stroke-width=".7"/>
    <path d="M371.9 160.4c-.5-.2-1.7-.3-2.2.3-.2.3 0 1.3.3 1.3.7 0 1.5 0 1.7-.2.3-.3.5-1.2.2-1.4h0z" stroke="#472B1F" stroke-width=".5" fill="#BCA76B" fill-rule="nonzero"/>
    <path d="M370.6 207.3c0-.4.3-.5.6-.5h1l.7.4.6.4c.7.2.3-.6.7-.6.4 0 .8-.2 1 0 .3 0 .4.2.6.4l.4.4c0 .2.8.6.9 0 .1-.3 0-.8.6-.8l1.6.2.8.4c.2.1.2.4.4.4.5.4.4-.4.6-.6.1-.2.5-.2.7-.3l1.2-.2.8.4.5.6c0 .3.2.5.5.3.1-.3.3-.3.6-.4l.5-.4.4-.5 1.2-.1c.4 0 .7.1 1 .3 0 .2.2.4.4.4.1.3.4 0 .6 0l.7-.4c.2-.2.4-.3.8-.3l1 .2 1 .4c.2.1.5.3.7 0 .4 0 .1-.5.2-.7.4-.2 1.2-.2 1.7 0h1c.3.1.3.3.4.6.2.2.8.2 1 0 .3 0 0-.3-.1-.4l-.4-.4c.4-.2.5.1.8.2l.6.3c.2.1.5.3.9.2.3.1.2.7-.3.6h-3l-1.2.1h-1.1l-1.3.1-1.2.2h-2.9l-1 .1-1.1.1h-1.2c-.7.2-1.4.1-2 .1h-1.1l-1-.1-1-.1h-4.6c-.2-.2-.6 0-1 0l-1.6-.1c-.5 0-1 0-1.3-.2-.6 0-1.4-.3-1.3-.7h0z" stroke="#000" stroke-width=".9" fill="#000" fill-rule="nonzero"/>
    <g fill="#BCA76B" fill-rule="nonzero" stroke="#472B1F" stroke-width=".5">
      <path d="M365.7 166.7c.7 2.7 4 2.3 4-.1M368.8 166.7c.9 3 5.2 2.5 5-.2M372.4 166.7c1 2.2 2.6 2.4 4-.2"/>
      <path d="M377.3 165.7l-12 .4v.7l12.2-.4z"/>
    </g>
    <path d="M369 171.5c-1 1-3 2.2-4 2M366.9 168.2c-2.7 10-6 20.5-9.3 29" stroke="#000" stroke-width=".7"/>
    <g fill="#BCA76B" fill-rule="nonzero" stroke="#472B1F">
      <path d="M365.6 174.3c.7 2.8 4.1 2.3 4-.2" stroke-width=".5"/>
      <path d="M368.5 174.2c1 3.8 5.4 3.2 5.2-.2" stroke-width=".6"/>
      <path d="M372.5 174.2c1 2.3 3 2.5 4.5-.2M377.5 172.8l-12.4.6v.9l12.5-.5zM365 181.4c.7 3.5 4.4 3 4.3-.2" stroke-width=".5"/>
      <path d="M368.3 181.4c1.1 5 6.3 4.3 6.1-.3" stroke-width=".8"/>
      <path d="M372.4 181.3c1 3 2.9 3.2 4.4-.2M377.9 180l-14.2.6v.9l14.3-.5z" stroke-width=".5"/>
      <path d="M364.7 189.8c.8 3.7 4.8 3.2 4.7-.2" stroke-width=".6"/>
    </g>
    <path d="M375.2 191.7c.8 3.6 1.8 6.8 2.9 9.8M374 191.6c.5 3.4 1.5 6.7 2.5 9.9" stroke="#000" stroke-width=".7"/>
    <g fill="#BCA76B" fill-rule="nonzero" stroke="#472B1F">
      <path d="M368.4 189.7c1 5 6.1 4.5 6.1-.2" stroke-width=".7"/>
      <path d="M372.7 189.7c1.2 3.1 3.2 3.4 4.8-.3M378.7 188.1l-15.8.7v1l16-.5z" stroke-width=".6"/>
      <path stroke-width=".5" d="M373.5 170.4l-4.5.1v1h4.6zM373.5 177.7l-4.5.2v1h4.6zM373.8 185.7l-4.8.1v1h4.9z"/>
    </g>
    <g stroke="#000">
      <g stroke-width=".7">
        <path d="M375.6 192.8l-2.6.5M376 194.7l-2.6.6M376.6 196.9l-2.6-.2M377.4 199l-2.7.3M365.3 198.5l2.7.5M366 196.3l2.5.5M366.7 194.6l2.3.6M367.1 193l2 .5"/>
      </g>
      <g stroke-width="1.3">
        <path d="M399.4 202c4.5-.1 9.9-.6 13.5.8M399.6 203.6c4.2-.6 9-1 12.6.4M400.1 206.6c3-.7 7-.8 9.9-.1M400.4 207.3c3 .7 6.6.8 9.4.1"/>
      </g>
    </g>
    <path d="M356.5 196.8l9.7 5.9.2-.3-3-2.1a31.6 31.6 0 00-7-3.5z" fill="#000" fill-rule="nonzero"/>
    <g stroke="#000">
      <g stroke-width=".7">
        <path d="M403.3 201.6v-3.2M404.3 198.4v3.3M406.1 201.8v-3.5M408.1 198.6v3.3M409.4 198.6v3.4M411 198.9v3.2M411.8 198.9v3.5M403.7 203v3M402.7 203.2v2.9M405.4 203.1l-.2 3M406.4 203v3M407.8 203l-.1 2.9M409.3 203.4l-.6 2.6"/>
      </g>
      <path d="M399.4 198.6c4.5-.6 9 0 13.4.5" stroke-width="1.3"/>
    </g>
    <path d="M423.8 158.5c0-11.5-.6-22.7-.4-32.4-14.8-6.7-34.4-8-44.4-8s-29.6 1.3-44.4 8c.2 9.7-.4 20.9-.4 32.4h89.6z" stroke="#000" stroke-width="2"/>
    <g>
      <path d="M376.3 139.8s1.6 2.4 2 3.7c.3.6.3 1.3.3 2 0 1.2-.5 2.3-1 3.5-.2.8-.8 1.4-.4 2.2.1.4.3.7.7.6.2 0 .3-.3.5-.4l.5-.4h.7c.1-.2.3-.5.1-.7h-.5c-.3 0-.6.2-.8 0-.3 0-.4-.7-.4-.7l.7-2c.2-.5.6-1 .7-1.6v-.5l.1-.9.6-.1c.3-.7-1-1.1-1.2-1.8-.1-.3 0-.6-.2-.8l-.8-1.6-1.6-.5z" stroke="#000" stroke-width=".7" fill="#69737C" fill-rule="nonzero"/>
      <path d="M381.3 141.7s1.5 1.8 1.6 2.8l-.2.7c0 .4.3.8.2 1.2 0 1.2-.6 2.3-1 3.5l-.6 3h.9l.2-1.6.7-2.6.4-1.8.6-1.2c0-.5.2-1 0-1.6l-.4-.3c-.4-.3-.6-.7-.8-1.1l-.4-1.3-1.2.3h0z" stroke="#000" stroke-width=".7" fill="#66452B" fill-rule="nonzero"/>
      <path fill="#FFF" fill-rule="nonzero" d="M374.6 138.4l1 .8 1.8 1.1h.8l.9.4h1.1l.9.8.2.2 1-.2.3-.3 1.8-2.8-.4-4.5-8.6.6z"/>
      <path d="M383.8 130.8c1.2 1 2.3 2 3.2 3.1.7.9 1.1 2 2.2 2.5 1.4 1.5 7.6 3.3 7.6 3.8-1.4-.6-2 1.4-3.4 1-1.3.4-2.4-.4-3.5-.9a9 9 0 00-4.9.9c-.8.4-1.7-.3-2.4 0v.1h-.1m-8-2.9c-.9-.5-1.6-1.4-2.5-2-.7-1-1.7-2-1.6-3.2-.1-1.4-.5-3.3.2-4.6-.5-1-1.2-1.3-1.7-2.3-.3-1.4-1.7-2.1-.9-3.2 1-.8 1.6-1.8 2.8-2.2 1-.3 2-.2 3 .2 1.2.1 1.9 1.2 2.5 2 .8 1.3 1.4 2.7 1.6 4.2.6 1.2 2 1.4 3.2 2 1 .4 2 .8 2.7 1.5" fill="#FFF" fill-rule="nonzero"/>
      <path d="M390.6 138.8c-.5 0-1.7.4-1.4-.3-1.2 0-2.4.2-3.5-.2a21 21 0 00-3.8-1.3c-1.2 0-2.7.2-3.7-.8-1-.6-2.4-.2-3.3-1-1-.8-1.5-1.9-1.4-3-.2-1.3-.7-2.9.7-3.5.8-.3 1.6 0 2.2-1 1-.1 2 .3 3 .8 1.1.6 2.4.9 3.5 1.5l2.9 2.4c.7.8 1.6 1.7 2.1 2.7.6 1.2 1.8 1.8 2.8 2.5.7.1 2.1.8.7 1l-.8.2z" fill="#000" fill-rule="nonzero"/>
      <path d="M378.4 135c-.6-.1-1.2-.3-1.7-.6-.4-.3-1.3-.9-.7-1.3.5 0 1.1.2 1.6-.2.7-.1 1.4-.1 2-.5.7-.3 1.4 0 2-.3.5-.2.4-1.2 1.1-1 .7-.2.5 1 0 .7-.4.5.6.7.8 1 .6.6-.6.7-.7 1.2-.8.2-1.3-.7-2-.5-.2.3 0 .8-.6.7-.6-.4-1.2 0-1.8.1.2.1-.2.6 0 .6zM391.6 139.5c-.4-.2-.8 0-1.2 0l-.8-.1c-.4 0-1.2-.5-1.3 0 0 .3.7.4.2.5-.6 0-1-.2-1.5-.3-.2-.2-.7-.5-.6 0 .2.4-.2.6-.5.6-.5 0-1-.2-1.4-.6-.3.4.3.8.7.8.4.3-.5.2-.7.2h-1c-.4.2-.4.6.1.5.5.2 1 .3 1.5 0l1.6-.5 1.4-.2 1.8-.1c.5.3 1 0 1.4-.2.2 0 1-.4.5-.6-.1 0-.2-.1-.2 0z" fill="#69737C" fill-rule="nonzero"/>
      <path d="M390 140.3l.6-.1.7-.3c.4 0 .5-.4.2-.5l-.6-.3-.6-.3.4-.6.7-.1h.5c.3 0 .6.2.8.3.2.1.5.3.8.3l.6.3.8.2c.3 0 .4.4.7.3.3 0 .5.2.8.4l.4.3c-.2 0-.4-.2-.7-.1l-.5.2c-.1.3-.5.3-.7.5l-.8.5a1 1 0 01-.7 0h-.9c-.3 0-.5 0-.8-.2l-.6-.3-1-.4h-.2zM371.5 120.7l-.7.1a2 2 0 00-1 .7 6 6 0 01-1.3 1l-.5.6c.3.2.7.2.8 0 .3-.4.7-.7 1-.8h1.1l1 .4.7.1c.3.2.6.2 1 .3H375v.3l.1.6.4.7.3.7.3.5c0 .2.1.5.3.6l.5.6.3.6c.1.2.3.4.6.4l.7-.1h-.1l-.5-.6v-.7l-.3-.7-.1-.5-.3-.6c0-.2-.1-.5-.3-.6 0-.3-.2-.5-.3-.7l-.3-.6-.3-.2-.1-.3-.6-.7c-.2-.3-.7-.4-1-.6l-1.4-.4-1.1-.1h-.3z" fill="#000" fill-rule="nonzero"/>
      <path d="M375.8 126.8c0-.3-.4-.2-.6 0l-.6.7c-.4.3-.9.3-1.3.6l-.7.7c-.3.1-.6.3-.8.7 0 .2-.2.5 0 .7.3.1 0 .4 0 .7.2.2.6.3.8.1l.8-.7c.3-.3.6-.7 1-.9.3 0 .6-.2.7-.4.2-.2 0-.5.4-.5l.6-.6c.1-.3-.2-.5-.1-.8 0-.1 0-.2-.2-.3z" fill="#69737C" fill-rule="nonzero"/>
      <path d="M380.6 153.1h-1.7c-.3 0-.5-.5-.8-.3-.3 0-.6.2-1 .4a2 2 0 00-.6.6c0 .2-.6.4-.1.4.3 0 .6-.4 1-.4.2-.2.5 0 .8-.1H380c.4.1-.2.4-.3.4-.3.2-.7.2-1 .3l-1 .1-1 .6c-.2 0-.6.3-.2.3.3 0 .6 0 .9-.2l1.5-.4 1-.2c.3 0 .8-.2.7.2l-.9.6c-.2.2-.5.4-.8.4-.2-.1-.8 0-.4.3.2.4.6.1.8 0l1-.4c.3 0 .6-.2 1-.4l.8-.4c.3-.2.7-.3.8-.6 0-.3.3-.5.6-.6h.9c.3 0 .2-.7 0-.7l-.9-.6-1-.2c-.3 0-.6.2-.7.5-.2.2-.3.6-.6.5h-.5 0zM372.4 155.2s.4-1.1.8-1.5c.8-.9 3.2-1.5 3.2-1.5-1 .4-2.2.1-3.2.4-.9.3-2.3 1.3-2.3 1.3l1-1.6c1.1-1.2 3-1.4 4.4-1.2l1.7.3s.2.1.1.4c-.2.5-1 .8-1.5 1-1.5.8-3.3 1.3-4.2 2.4h0z" stroke="#000" stroke-width=".7" fill="#66452B" fill-rule="nonzero"/>
      <path d="M377.3 151.1c-1.3.9-4.2 2.5-4.1 2.6 0 0 2.5-.6 3.7-1.2.4-.2 1-.3 1-.8.2-.2 0-.5-.1-.6h-.5 0z" stroke="#000" stroke-width=".7" fill="#69737C" fill-rule="nonzero"/>
      <path d="M383.5 144.3c-.3 0-.3.6-.3.9 0 .2 0 .6.2.6s.3-.4.3-.7c0-.3 0-.8-.2-.8z" fill="#69737C" fill-rule="nonzero"/>
      <path d="M382.2 152.8c0-.2-.3 0-.4 0-.4 0-.6.2-.9.4l-.7.3-1.2.7-.6.3c-.2 0-.1.1 0 0h1l1-.3c0-.2.4-.2.6-.3l.8-.3c.2-.1.1-.3.5-.3.2 0 .2-.3 0-.4h-.1z" stroke="#000" stroke-width=".7" fill="#69737C" fill-rule="nonzero"/>
      <path d="M379.3 155.6c.2-.1.4 0 .7-.2l.8-.2.4-.2.5-.7.3-.5c0-.2-.1-.3-.2-.2l-.5.4-.4.3-.5.6-.3.3-.7.3h-.1 0z" stroke="#000" stroke-width=".7" fill="#69737C" fill-rule="nonzero"/>
      <path d="M382.4 138.7l.1.5.1.6-.2.6v.4l-.1.7c-.1.3-.5.1-.7.2-.2 0-.4 0-.5-.2l-.5-.5c-.2-.2-.5-.4-.6-.7l-.4-.6-.1-.3M380.2 140.7h-1.1c-.1 0-.4 0-.5-.2l-.4-.1h-.3l-.4-.5-.3-.2-.3-.3-.2-.4c0-.1 0-.2-.2-.3v-.1" stroke="#000" stroke-width=".7"/>
      <path d="M377.9 140.3c0 .3-.4 0-.5 0l-.4-.2-.3-.1-.4-.2-.4-.3-.5-.3-.5-.5c-.2 0-.3-.2-.3-.4l-.1-.6s-.1-.1 0-.2" stroke="#000" stroke-width=".7"/>
      <path d="M390.6 140.5h.5l.5-.2.6-.2h.5c.1-.2.3-.3.5-.2h.5l.5.2.4.2c.2 0 0 .2-.1.3l-.5.1-.4.4-.4.1h-.5c-.1 0-.3.1-.4 0h-.5l-.4-.3c-.3 0-.5-.2-.7-.3l-.1-.1z" fill="#BCA76B" fill-rule="nonzero"/>
      <path d="M369 125l-1.1.2H365.5l-1.7.5h-2.4c-.6 0 0-.7.4-.7l2.2-.5 1.7-.4 1.3-.3c.5-.1 1-.2 1.4-.1l1.5-.5c.4-.2 1 0 1.3-.3.3-.4.8-.4 1.2-.3.4 0 .9.2 1.1.6.3.4-.6.4-.3.9l-.8.2-.7-.1-1-.6c-.3 0-.3.6-.7.5-.6.2-1.2.2-1.8.2.4.1.8.2 1 .5.2.2 0 .2-.1.3h0z" stroke="#000" stroke-width=".5" fill="#000" fill-rule="nonzero"/>
      <path d="M371.4 123.5l.4-.2.2-.3s.3.4.1.6c-.1.2-.7-.1-.7-.1zM372.4 122.6s-.3-.3 0-.4c.2-.3.7 0 1 0 .7.3 1.4.5 1.9 1.1.6.8.8 1.8 1.3 2.6l.5 1.2c0 .4.6.7.3 1-.3.3-.6 0-.9 0-.4-.1-.2.4 0 .4.4.1.4.6 0 .5h-1.1c-.3-.3 0-.6.2-.7.2-.1.5-.3.5-.6 0-.6-.4-1-.5-1.6 0-.4-.2-.8-.4-1.2-.1-.9-1-1.5-1.8-1.7l-1-.6z" fill="#FFF" fill-rule="nonzero"/>
      <path d="M375.3 123l.4.2.3.6.1.3.2.3.2.5.2.3v.4c.2 0 .2.3 0 .3l-.3-.2-.3-.4a1 1 0 010-.3l-.2-.4c0-.1 0-.3-.2-.4 0-.1 0-.3-.2-.4 0-.1-.3-.5-.2-.7zM372.7 122l-.3-.1-.2-.2c-.2.1 0 0-.1 0l-.1-.2-.2-.2v-.1H372.7l.2.1c.2 0 .2.1.2.2l.2.2v.1c-.1.2-.2.2-.3.2h-.2-.1z" fill="#BCA76B" fill-rule="nonzero"/>
      <path d="M372.4 121.9h-.4l-.2.2h-.3-.2l-.1-.1-.2-.2-.1-.1v-.2c0-.1.1-.2.2-.1h.5l.2-.1.2.2c.2 0 .3.2.4.4zM373.1 121.5l.4-.1h.3l.3.2.4.1.3.2.3.2.3.3s0 .2-.1.1l-.3-.1a1 1 0 01-.4-.1l-.3-.2-.4-.1-.2-.1-.5-.2v-.2z" fill="#FFF" fill-rule="nonzero"/>
      <path d="M374.8 123.9h-1.3c-.4 0-.6.2-1 .3-.3 0-.4.5-.7.5-.3 0-.6-.2-.9-.1l1.7.8c.3.3.6.5 1 .6.2.2.5.4.4.7-.1.4-.6.4-.7.8 0 .4-.4.5-.5.8-.2.3-.5.4-.5.7 0 .4.5.1.5-.1 0-.3.3-.7.6-.5.2.3.5-.2.8-.1.1.2.5.3.6 0 .2 0 .5-.2.3-.5 0-.2.4-.2.5-.4.3 0 .5-.4.2-.6-.2-.3 0-.8-.2-1-.2-.4 0-.8-.2-1.1-.1-.3-.3-.7-.6-.8z" fill="#000" fill-rule="nonzero"/>
      <path d="M386.9 136.1c-.5 0-1 .4-1.4.4-.7.1.1.4.3.5.5.4 1 .5 1.6.7.5.2 1.1.4 1.7.3.5-.2.1-.7 0-1l-1.3-1c-.3-.3-.7-.2-1 .1z" fill="#69737C" fill-rule="nonzero"/>
      <path d="M386.5 137.2h-1.2c-.2 0-.4 0-.6-.2l-.5-.3c-.2-.2.1-.2.2-.3h.8l.7.3c.2.1.5.2.6.4v.1zM389 137c.1.3-.3 0-.4.1l-.8-.1-1.1-.5c-.2 0-.6-.2-.3-.4.2-.2.5-.3.7-.3l.8.2.8.5c.2.1.4.3.4.6z" fill="#FFF" fill-rule="nonzero"/>
      <path d="M382 134.6c-.3.2-.7.3-1.1.3-.4.1-1-.2-1.2.3-.2.4.3.6.6.8.7.4 1.7.4 2.5.4.3 0 1 0 .6-.3l-1-1.2-.3-.3zM386.5 134.9l-.5-.2-.7-.3-.9-.5c-.1 0 0-.3 0-.2.2 0 .3-.3.5-.1l.5.4c.2.2.4.4.6.4.2.1.5.2.5.5zM386 135.7s-.9.2-1.3 0l-.8-.2-.9-.6c-.2-.2 0-.6.4-.5.2 0 .1-.5.4-.3l1.2.6.6.6.3.4zM380 130c.5.2 1.1.5 1.4 1 .5.5-.4.8-.8.5l-2.1-.9c-.7 0 .3.5.5.7.3.2.6.5.6.9-.5.3-1 0-1.6-.1-.5 0-.8-.6-1.2-1-.2-.2-.5-.3-.9-.2 0 .5.4.6.6 1 .2.2.9.8.2.8-.5-.1-1-.5-1.3-1-.3-.3-.5-1 .1-1 .6-.4 1.2-.5 1.9-.5s1.4 0 2-.2c.2 0 .6-.2.6 0z" fill="#69737C" fill-rule="nonzero"/>
      <path d="M374.6 130.5l-.2.4v.6l.2.4c0 .2.2.3.4.4l.3.3.3.1.5.1.3-.1c.1-.1 0-.2 0-.2l-.4-.2-.3-.4-.2-.3-.3-.3-.3-.4a4 4 0 00-.3-.3v-.1zM379.3 132.3l-1.2-.2a2 2 0 01-1-.8l-1-.7c-.3-.1-.4.4-.2.6l.7.8 1 .7c.3.2.8.3 1.3.4.3 0 .7-.2.7-.5 0-.2-.2-.3-.3-.3zM378.2 134.7l-.7-.1c-.3-.1-.4-.3-.5-.5-.2-.3-.4-.5-.7-.6-.2 0-.5.1-.5.4 0 .2.2.4.4.6l1 .5.5.1c.2 0 .5 0 .5-.2v-.2zM380.8 134c.2 0 .4.3.2.5-.1.3-.4.4-.7.4h-.7a4 4 0 01-.8-.4c-.3-.1-.3-.4-.5-.6 0-.2.3-.3.5-.2.2 0 .4.3.6.4l.7.2c.2 0 .4.1.5-.1l.2-.3zM383 133.4c.3.2.2.5-.1.6h-.7a3 3 0 01-.9-.4l-.6-.4c0-.3.3-.5.5-.4.4.1.8.2 1 .4l.8.2z" fill="#FFF" fill-rule="nonzero"/>
      <path d="M383.8 130.8c1.2 1 2.3 2 3.2 3.1.7.9 1.1 2 2.2 2.5 1.4 1.5 7.6 3.3 7.6 3.8-1.4-.6-2 1.4-3.4 1-1.3.4-2.4-.4-3.5-.9a9 9 0 00-4.9.9c-.8.4-1.7-.3-2.4 0v.1h-.1m-8-2.9c-.9-.5-1.6-1.4-2.5-2-.7-1-1.7-2-1.6-3.2-.1-1.4-.5-3.3.2-4.6-.5-1-1.2-1.3-1.7-2.3-.3-1.4-1.7-2.1-.9-3.2 1-.8 1.6-1.8 2.8-2.2 1-.3 2-.2 3 .2 1.2.1 1.9 1.2 2.5 2 .8 1.3 1.4 2.7 1.6 4.2.6 1.2 2 1.4 3.2 2 1 .4 2 .8 2.7 1.5" stroke="#000" stroke-width=".7"/>
    </g>
    <path d="M8.8 168.3h15.4l81.7-53.6v53.6h44.2v-53.6l81.7 53.6h15.4c4.9 0 8.8-4 8.8-8.9v-7l-70.2-46H256v-44h-70.2l70.2-46v-7c0-5-4-8.9-8.8-8.9h-15.4l-81.7 53.6V.5h-44.2v53.6L27 2.3C17.5 5.2 9.8 11.5 5 19.7l65 42.6H0v44.2h70.2L0 152.5v7c0 4.8 4 8.8 8.8 8.8z" fill="#F5F5F5" fill-rule="nonzero"/>
    <g fill="#E6000D" fill-rule="nonzero">
      <path d="M256 71.2H141.2V.5h-26.4v70.7H0v26.4h114.8v70.7h26.4V97.6H256z"/>
      <path d="M8.2 15.2L81 62.3H97L14.6 8.8c-2.4 1.9-4.5 4-6.4 6.4zM166.3 62.3L254.7 5a8.7 8.7 0 00-7.5-4.5h-2l-95.1 61.8h16.2zM89.5 106.5L1.3 163.7a8.7 8.7 0 007.5 4.6h1.7l95.2-61.8H89.5zM255.9 160.1l-82.7-53.6H157l93.9 61c2.8-1.4 4.7-4.1 5-7.4z"/>
    </g>
  </g>
</svg>