<svg width="512" height="336" xmlns="http://www.w3.org/2000/svg"><g fill="none" fill-rule="evenodd"><path d="M473.655 335.724H38.345C17.167 335.724 0 318.557 0 297.379V38.621C0 17.444 17.167.276 38.345.276h435.31C494.832.276 512 17.443 512 38.621V297.38c0 21.177-17.167 38.344-38.345 38.344z" fill="#82AFFF"/><path d="M253.466 105.448l-14.81 44.409-46.813.363c-2.567.02-3.63 3.295-1.566 4.82l37.658 27.809-14.121 44.633c-.775 2.447 2.012 4.471 4.099 2.978L256 203.239l38.086 27.222c2.088 1.492 4.874-.532 4.099-2.978l-14.121-44.633 37.658-27.809c2.065-1.525 1.001-4.8-1.566-4.82l-46.813-.363-14.81-44.409c-.812-2.435-4.254-2.435-5.067-.001z" fill="#F5F5F5"/></g></svg>