<svg width="512" height="336" xmlns="http://www.w3.org/2000/svg"><g fill="none" fill-rule="evenodd"><path d="M473.655.276H38.346C17.169.276.001 17.443.001 38.621v73.471h511.998V38.584C511.979 17.424 494.82.276 473.655.276z" fill="#464655"/><path d="M512 223.908H.001v73.471c0 21.177 17.167 38.345 38.345 38.345h435.309c21.165 0 38.324-17.148 38.344-38.307l.001-73.509z" fill="#3CA100"/><path fill="#E6000D" d="M0 112.09h512V223.9H0z"/><g fill="#F5F5F5"><path d="M95.398 145.164l5.247 11.381 12.169-2.994a.917.917 0 0 1 1.038 1.302l-5.626 11.198 9.928 7.648a.916.916 0 0 1-.371 1.623l-12.263 2.583.211 12.531a.917.917 0 0 1-1.5.723l-9.665-7.977-9.665 7.977a.917.917 0 0 1-1.5-.723l.211-12.531-12.263-2.583a.917.917 0 0 1-.371-1.623l9.928-7.648-5.626-11.198a.917.917 0 0 1 1.038-1.302l12.169 2.994 5.247-11.381c.327-.71 1.338-.71 1.664 0zM0 106.21h512v15.01H0zM0 214.79h512v15.01H0z"/></g><path d="M233.2 164.388L13.055 9.812C5.056 16.84.001 27.137.001 38.621v258.758c0 11.484 5.055 21.781 13.054 28.809L233.2 171.613c2.504-1.758 2.504-5.467 0-7.225z" fill="#3741CF"/><path d="M73.561 126.847l19.831 20.297 25.624-12.192c3.317-1.579 6.735 1.974 5.03 5.228l-13.175 25.132 19.513 20.602c2.527 2.667.204 7.016-3.418 6.399l-27.973-4.765-13.564 24.925c-1.756 3.227-6.61 2.361-7.142-1.273l-4.114-28.077-27.896-5.197c-3.612-.673-4.288-5.556-.995-7.186l25.432-12.588-3.678-28.138c-.477-3.643 3.957-5.794 6.525-3.167z" fill="#FFE15A"/></g></svg>