<svg width="512" height="336" xmlns="http://www.w3.org/2000/svg">
  <g fill-rule="nonzero" fill="none">
    <g fill="#4173CD">
      <path d="M0 297.6A38.3 38.3 0 0038.3 336h435.4a38.3 38.3 0 0038.3-38.4v-23.4H0v23.4zM473.7.5H38.3A38.3 38.3 0 000 39v23.4h512V39A38.3 38.3 0 00473.7.5z"/>
    </g>
    <path fill="#E6000D" d="M0 62.4h512v211.9H0z"/>
    <g fill="#FFE15A">
      <path d="M0 53.5h512v17.7H0zM0 265.4h512V283H0zM448.9 176.8H62.7A4.7 4.7 0 0158 172v-1.5c0-2.6 2.1-4.7 4.7-4.7H449c2.6 0 4.7 2.1 4.7 4.7v1.5c0 2.7-2 4.8-4.7 4.8z"/>
    </g>
    <path fill="#F5F5F5" d="M374 154.8l19.2-8.2 19.2 8.2-19.2 8.2z"/>
    <path d="M378.7 151.3H96.5a3.5 3.5 0 100 7h282.2a3.5 3.5 0 000-7z" fill="#FFE15A"/>
    <path fill="#F5F5F5" d="M394 135.6l19.2-8.3 19.2 8.3-19.2 8.2z"/>
    <path d="M398.7 132H116.5a3.5 3.5 0 100 7h282.2a3.5 3.5 0 000-7z" fill="#FFE15A"/>
    <path d="M255.8 99.8a131 131 0 00-114.2 68.7 131 131 0 00114.2 68.7A131 131 0 00370 168.5 131 131 0 00255.8 100z" fill="#F5F5F5"/>
    <path d="M141.6 168.5a131 131 0 00114.2 68.7c8.2 0 16.1-.8 23.9-2.3-6-13-26.7-13-28-17.8-1.4-5.3 17-4.1 20.1-8.5 3.3-4.3-17.4-6.2-18.3-10.5-.9-4.4 8.3-7.3 9.9-14.2 1.6-6.9 5.2-9 8-13 2.7-4.2-4.6-5.6-6.4-19.3-1.9-13.7-12.6-15.6-17.9-26.8-5.2-11.2 3.2-19.5 8.7-25a131 131 0 00-114.2 68.7z" fill="#464655"/>
    <g fill="#F5F5F5">
      <path d="M184.4 143.9h5.5v22h-5.5zM195.4 143.9h5.5v22h-5.5zM206.4 143.9h5.5v22h-5.5zM217.4 143.9h5.5v22h-5.5zM228.3 143.9h5.5v22h-5.5zM239.3 143.9h5.5v22h-5.5zM184.4 176.8h5.5v22h-5.5zM195.4 176.8h5.5v22h-5.5zM206.4 176.8h5.5v22h-5.5zM217.4 176.8h5.5v22h-5.5zM228.3 176.8h5.5v22h-5.5zM239.3 176.8h5.5v22h-5.5z"/>
    </g>
    <g fill="#464655">
      <path d="M266.8 143.9h5.5v22h-5.5zM277.8 143.9h5.5v22h-5.5zM288.8 143.9h5.5v22h-5.5zM299.8 143.9h5.5v22h-5.5zM310.8 143.9h5.5v22h-5.5zM321.8 143.9h5.5v22h-5.5zM266.8 176.8h5.5v22h-5.5zM277.8 176.8h5.5v22h-5.5zM288.8 176.8h5.5v22h-5.5zM299.8 176.8h5.5v22h-5.5zM310.8 176.8h5.5v22h-5.5zM321.8 176.8h5.5v22h-5.5z"/>
    </g>
    <path d="M425.4 165c-4.4 10.2-17 11.4-10 37.4l3.6-3.6s3.7 9.8 12.7 16.4c0 0 11-9.2 11.8-23.8l4.6 2s-2.2-26.7-22.7-28.5z" fill="#245DBD"/>
    <g fill="#E6000D">
      <path d="M441.6 185.9c-.3 0-.7-.2-1-.5-4.2-5.2-9.7-6.9-9.8-6.9-.7-.2-1.2-1-1-2 .2-.8 1-1.3 1.7-1.1a25 25 0 0111.1 7.8c.5.6.5 1.6 0 2.2-.3.3-.6.5-1 .5zM438.5 198c-.4 0-.8-.2-1-.6-3.2-5-6.9-7.6-6.9-7.6-.6-.5-.8-1.5-.4-2.3.4-.7 1.2-1 1.8-.5.2.1 4.1 3 7.6 8.4.5.7.4 1.7-.2 2.3l-.9.3zM431.4 211.5h-.2c-.7-.2-1.2-1-1.1-1.9.5-3.6 0-9.7-.7-12.8-.2-.8.3-1.7 1-2 .7-.2 1.5.3 1.7 1.2.8 3.5 1.3 10 .7 14.2-.2.8-.7 1.3-1.4 1.3zM422 196.7c-.5 0-.9-.2-1.1-.6-.5-.6-.4-1.7.1-2.2 0 0 3.5-3.6 4.4-8.4.2-.9.9-1.4 1.6-1.2.8.1 1.2 1 1 1.9-1 5.9-5 10-5.2 10.1-.3.3-.6.4-.9.4zM418.1 186.4c-.4 0-.9-.2-1.1-.7-.4-.8-.2-1.8.4-2.2 0 0 5-3.7 6.5-7.6.3-.8 1.1-1.2 1.8-.8.7.3 1 1.3.7 2.1-1.9 4.8-7.3 8.8-7.5 9-.3.2-.5.2-.8.2z"/>
    </g>
    <path d="M82.3 168.4c-3.7 8.5-14.2 9.5-8.4 31.3l3-3s3.1 8.2 10.6 13.7c0 0 9.2-7.7 10-19.9l3.8 1.7s-1.9-22.3-19-23.8z" fill="#245DBD"/>
    <g fill="#E6000D">
      <path d="M95.9 185.9a1 1 0 01-.8-.4c-3.6-4.4-8.2-5.8-8.3-5.8-.6-.1-1-.9-.8-1.6.2-.7.8-1.2 1.4-1a21 21 0 019.3 6.5c.4.5.4 1.4 0 2a1 1 0 01-.8.3zM93.3 196a1 1 0 01-1-.5 26.3 26.3 0 00-5.7-6.4c-.5-.4-.6-1.2-.3-1.8.3-.6 1-.8 1.5-.5.2.1 3.5 2.6 6.4 7 .4.7.3 1.5-.2 2a1 1 0 01-.7.2zM87.3 207.3h-.2c-.6-.1-1-.8-.9-1.5.5-3.1 0-8.1-.5-10.7-.2-.8.2-1.5.8-1.7.6-.2 1.2.2 1.4 1 .7 2.9 1 8.3.6 11.8-.1.7-.6 1.1-1.2 1.1zM79.4 195a1 1 0 01-.9-.5c-.4-.6-.3-1.5.1-2 0 0 3-2.9 3.7-7 .2-.7.7-1.1 1.4-1 .6.2 1 .9.8 1.6-.9 5-4.3 8.4-4.4 8.5a1 1 0 01-.7.3zM76.2 186.4c-.4 0-.7-.3-1-.7-.3-.6-.1-1.4.4-1.8 0 0 4.2-3 5.5-6.4.2-.7.9-1 1.5-.6.5.3.8 1 .5 1.7-1.5 4-6 7.4-6.3 7.6a1 1 0 01-.6.2z"/>
    </g>
  </g>
</svg>