<svg width="512" height="336" xmlns="http://www.w3.org/2000/svg"><g fill="none" fill-rule="evenodd"><g fill="#3CA100"><path d="M473.885.279H38.115C17.045.403 0 17.517 0 38.617v28.75h512v-28.75c0-21.1-17.045-38.214-38.115-38.338zM0 134.46h512v67.09H0z"/></g><path fill="#FFE15A" d="M0 67.37h512v67.09H0z"/><path d="M0 297.376c0 21.177 17.167 38.345 38.345 38.345h435.31c21.177 0 38.345-17.167 38.345-38.345v-28.739H0v28.739z" fill="#3CA100"/><path fill="#FFE15A" d="M0 201.55h512v67.09H0z"/><path d="M8.828 201.548h185.379a8.829 8.829 0 0 0 8.828-8.828V9.107a8.829 8.829 0 0 0-8.828-8.828H38.115C17.045.403 0 17.517 0 38.617v154.102a8.828 8.828 0 0 0 8.828 8.829z" fill="#E6000D"/><path d="M99.335 47.639L86.577 85.891l-40.322.312c-2.21.018-3.127 2.838-1.348 4.151l32.438 23.954-12.163 38.446c-.666 2.108 1.734 3.851 3.531 2.566l32.806-23.447 32.806 23.448c1.799 1.286 4.199-.458 3.531-2.566l-12.163-38.445 32.438-23.954c1.779-1.313.862-4.135-1.348-4.151l-40.322-.312L103.7 47.641c-.7-2.098-3.666-2.098-4.365-.002z" fill="#F5F5F5"/></g></svg>