<svg width="512" height="336" xmlns="http://www.w3.org/2000/svg"><g fill="none" fill-rule="evenodd"><path d="M473.7.3H38.3C17.1.3 0 17.5 0 38.6v258.8c0 21.2 17.2 38.3 38.3 38.3h435.3c21.2 0 38.3-17.2 38.3-38.3V38.6C512 17.4 494.8.3 473.7.3z" fill="#F5F5F5"/><g fill="#E6000D"><path d="M0 297.4c0 21.2 17.2 38.3 38.3 38.3h435.3c21.2 0 38.3-17.2 38.3-38.3v-14.6H0v14.6zM473.7.3H38.3C17.1.3 0 17.5 0 38.6v14.6h512V38.6C512 17.4 494.8.3 473.7.3z"/></g><path fill="#3741CF" d="M0 106.2h512v123.6H0z"/></g></svg>