<svg width="513" height="336" xmlns="http://www.w3.org/2000/svg"><g fill="none" fill-rule="evenodd"><path d="M473.792 335.776H38.336C17.216 335.776 0 318.688 0 297.44V38.624C0 17.44 17.216.288 38.336.288h435.392c21.184 0 38.336 17.216 38.336 38.336v258.88c.064 21.184-17.152 38.272-38.272 38.272z" fill="#E6000D"/><path d="M14.592 327.584l272.832-154.048c4.288-2.432 4.288-8.576 0-11.008L14.592 8.48A38.205 38.205 0 0 0 0 38.56v258.88c0 12.224 5.696 23.104 14.592 30.144z" fill="#FFE15A"/><path d="M12.224 325.472l183.552-151.424c3.776-3.072 3.776-9.024 0-12.096L12.224 10.592C4.736 17.632 0 27.616 0 38.624v258.88c0 11.072 4.736 20.928 12.224 27.968z" fill="#464655"/><path d="M55.104 126.496l.832 31.808-29.824 11.072c-2.88 1.088-2.688 5.12.192 6.016l30.528 9.024 1.28 31.808c.128 3.008 4.096 4.224 5.824 1.728l17.984-26.176 30.592 8.512c2.88.832 5.184-2.624 3.392-4.992L96.576 170.08l17.6-26.496c1.728-2.496-.832-5.824-3.712-4.672l-30.016 10.624L60.8 124.512c-1.856-2.368-5.696-.96-5.696 1.984z" fill="#F5F5F5"/></g></svg>