<svg width="512" height="336" xmlns="http://www.w3.org/2000/svg"><g fill="none" fill-rule="evenodd"><path d="M473.655 335.721H38.345C17.167 335.721 0 318.554 0 297.376V38.618C0 17.441 17.167.273 38.345.273h435.31C494.832.273 512 17.44 512 38.618v258.759c0 21.177-17.167 38.344-38.345 38.344z" fill="#3CA100"/><path fill="#E6000D" d="M70.62.277h88.28v335.45H70.62z"/><path fill="#F5F5F5" d="M150.068 38.526l-17.655 14.712H97.102L79.447 38.526V23.813L97.102 9.1h35.311l17.655 14.713z"/><g fill="#3CA100"><path d="M150.068 162.112l-17.655 14.713H97.102l-17.655-14.713v-14.713l17.655-14.712h35.311l17.655 14.712zM150.068 100.319l-17.655 14.712H97.102l-17.655-14.712V85.606l17.655-14.712h35.311l17.655 14.712zM150.068 223.905l-17.655 14.713H97.102l-17.655-14.713v-14.713l17.655-14.712h35.311l17.655 14.712z"/></g><g fill="#FFB400"><path d="M70.62 44.411l17.655 17.655L70.62 79.721zM158.895 79.721L141.24 62.066l17.655-17.655zM70.62 106.204l17.655 17.655-17.655 17.655zM158.895 141.514l-17.655-17.655 17.655-17.655zM70.62 167.997l17.655 17.655-17.655 17.655zM158.895 203.307l-17.655-17.655 17.655-17.655zM70.62 229.79l17.655 17.655L70.62 265.1zM158.895 265.1l-17.655-17.655 17.655-17.655zM70.62.273h17.655L70.62 17.928zM158.895 17.928L141.24.273h17.655zM110.34 70.897h8.828v44.14h-8.828z"/></g><path fill="#E6000D" d="M97.1 88.547h35.31v8.828H97.1z"/><g fill="#FFB400"><path d="M141.24 78.249l-8.827-7.355v44.137l8.827-7.356zM88.275 107.675l8.827 7.355V70.894l-8.827 7.355zM114.758 9.1H97.102L79.447 23.813v7.356h35.311zM114.758 53.238h17.654l17.656-14.712v-7.357h-35.31z"/></g><path fill="#E6000D" d="M114.758 44.411l-17.656-13.19 17.656-13.293 17.655 13.293z"/><g fill="#3CA100"><path d="M114.758 44.411l17.655-13.19-.07-.052h-17.585zM114.758 31.169V17.928L97.171 31.169z"/></g><path fill="#E6000D" d="M97.1 141.517h35.31V168H97.1z"/><path fill="#FFB400" d="M132.41 150.337h8.828v8.828h-8.828z"/><path fill="#F5F5F5" d="M110.34 150.337h8.828v8.828h-8.828z"/><path fill="#E6000D" d="M110.34 203.307h8.828v8.828h-8.828z"/><g fill="#FFB400"><path d="M123.59 212.137h8.828v8.828h-8.828zM97.1 212.137h8.828v8.828H97.1z"/></g><path fill="#E6000D" d="M110.34 220.967h8.828v8.828h-8.828z"/><path fill="#FFB400" d="M88.28 150.337h8.828v8.828H88.28z"/><path fill="#F5F5F5" d="M150.068 285.699l-17.655 14.712H97.102l-17.655-14.712v-14.714l17.655-14.712h35.311l17.655 14.712z"/><g fill="#FFB400"><path d="M114.758 256.273H97.102l-17.655 14.712v7.357h35.311z"/><path d="M114.758 300.411h17.654l17.656-14.712v-7.357h-35.31z"/></g><path fill="#E6000D" d="M132.413 282.756l-17.655 8.827-17.656-8.827v-8.828l17.656-8.828 17.655 8.828z"/><g fill="#F5F5F5"><path d="M280.009 48.34c-.94-.462-1.791.761-1.028 1.48 9.99 9.427 16.303 22.666 16.303 37.433 0 29.007-23.316 52.279-51.986 52.279a50.825 50.825 0 0 1-15.197-2.328c-.996-.311-1.641 1.025-.783 1.621 8.382 5.827 18.485 9.31 29.514 9.31 29.049 0 52.787-23.275 52.787-52.703 0-20.682-12.139-38.505-29.61-47.092zM208.171 82.399l-2.159 6.109 5.08 4.021c.658.521.275 1.579-.564 1.557l-6.477-.167-2.254 6.074c-.292.787-1.417.749-1.655-.055l-1.843-6.211-6.474-.267c-.839-.034-1.15-1.116-.459-1.591l5.338-3.672-1.747-6.24c-.226-.808.706-1.439 1.372-.928l5.142 3.942 5.395-3.59c.697-.464 1.585.228 1.305 1.018zM234.407 95.649l-2.159 6.109 5.08 4.021c.658.521.275 1.579-.564 1.557l-6.477-.167-2.254 6.074c-.292.787-1.417.749-1.655-.055l-1.843-6.211-6.474-.267c-.839-.034-1.15-1.116-.459-1.591l5.338-3.672-1.747-6.24c-.226-.808.706-1.439 1.372-.928l5.142 3.942 5.395-3.59c.696-.464 1.584.227 1.305 1.018zM234.142 68.355l-2.159 6.109 5.08 4.021c.658.521.275 1.579-.564 1.557l-6.477-.167-2.254 6.074c-.292.787-1.417.749-1.655-.055l-1.843-6.211-6.474-.267c-.839-.034-1.15-1.116-.459-1.591l5.338-3.672-1.747-6.24c-.226-.808.706-1.439 1.372-.928l5.142 3.942 5.395-3.59c.696-.466 1.584.226 1.305 1.018zM235.034 42.01l-2.159 6.109 5.08 4.021c.658.521.275 1.579-.564 1.557l-6.477-.167-2.254 6.074c-.292.787-1.417.749-1.655-.055l-1.843-6.211-6.474-.267c-.839-.034-1.15-1.116-.459-1.591l5.338-3.672-1.747-6.24c-.226-.808.706-1.439 1.372-.928l5.142 3.942 5.395-3.59c.697-.465 1.586.227 1.305 1.018zM260.739 55.259l-2.159 6.109 5.08 4.021c.658.521.275 1.579-.564 1.557l-6.477-.167-2.254 6.074c-.292.787-1.417.749-1.655-.055l-1.843-6.211-6.474-.267c-.839-.034-1.15-1.116-.459-1.591l5.338-3.672-1.747-6.24c-.226-.808.706-1.439 1.372-.928l5.142 3.942 5.395-3.59c.697-.464 1.586.228 1.305 1.018z"/></g></g></svg>