<svg width="512" height="336" xmlns="http://www.w3.org/2000/svg"><g fill="none" fill-rule="evenodd"><path d="M38.345 335.724h435.31c21.177 0 38.345-17.167 38.345-38.345V38.622C512 17.445 494.833.277 473.655.277H38.345C17.167.277 0 17.444 0 38.622V297.38c0 21.177 17.167 38.344 38.345 38.344z" fill="#E6000D"/><path d="M8.828 168h185.379a8.829 8.829 0 0 0 8.828-8.828V9.104A8.828 8.828 0 0 0 194.21.276H38.345C17.167.277 0 17.444 0 38.622v120.552C0 164.048 3.953 168 8.828 168z" fill="#F5F5F5"/><path fill="#E6000D" d="M167.724 62.07h-44.138V17.932H79.448V62.07H35.31v44.138h44.138v44.138h44.138v-44.138h44.138z"/></g></svg>