<svg xmlns="http://www.w3.org/2000/svg" width="512" height="336">
  <g fill="none" fill-rule="nonzero">
    <path fill="#E6000D" d="M473.7 335.7H38.3A38.3 38.3 0 0 1 0 297.4V38.6A38.3 38.3 0 0 1 38.3.3h435.4A38.3 38.3 0 0 1 512 38.6v258.8a38.3 38.3 0 0 1-38.3 38.3z"/>
    <g fill="#F5F5F5">
      <path d="M11.7 11l350.2 324.7h26.5L28 1.7c-6.2 1.7-11.8 5-16.3 9.4zM500.3 325L150.1.2h-26.5l360.4 334c6.2-1.7 11.8-5 16.3-9.4z"/>
    </g>
    <path fill="#464655" d="M123.6.3l360.4 334c-3.3 1-6.8 1.4-10.3 1.4h-85.3L28 1.7C31.3.7 34.8.3 38.3.3h85.3z"/>
  </g>
</svg>
