<svg width="512" height="336" xmlns="http://www.w3.org/2000/svg"><g fill="none" fill-rule="evenodd"><path d="M473.655 335.724H38.345C17.167 335.724 0 318.557 0 297.38V38.622C0 17.445 17.167.277 38.345.277h435.31C494.832.277 512 17.444 512 38.622V297.38c0 21.177-17.167 38.344-38.345 38.344z" fill="#E6000D"/><path d="M8.828 168h238.345a8.827 8.827 0 0 0 8.828-8.828V9.104a8.829 8.829 0 0 0-8.828-8.828H38.345C17.167.277 0 17.444 0 38.622v120.552A8.827 8.827 0 0 0 8.828 168z" fill="#3741CF"/><g transform="translate(69 25)" fill="#F5F5F5"><path d="M27.403 59.139c0-8.722 3.534-16.618 9.248-22.335l-26.474-7.573c-1.537-.439-2.638 1.469-1.49 2.58l19.811 19.155L1.764 57.65c-1.55.387-1.55 2.591 0 2.979l26.734 6.684L8.687 86.468c-1.149 1.111-.047 3.019 1.49 2.58l26.474-7.573c-5.714-5.718-9.248-13.614-9.248-22.336zM36.665 36.79c5.717-5.714 13.613-9.248 22.335-9.248 8.722 0 16.618 3.534 22.335 9.248l7.573-26.474c.439-1.537-1.469-2.638-2.58-1.49l-19.155 19.81-6.684-26.734c-.387-1.55-2.591-1.55-2.979 0l-6.684 26.734-19.155-19.81c-1.111-1.149-3.02-.047-2.58 1.49l7.574 26.474zM81.335 81.488C75.618 87.202 67.722 90.736 59 90.736c-8.722 0-16.618-3.534-22.335-9.248l-7.573 26.475c-.439 1.537 1.469 2.638 2.58 1.49l19.155-19.81 6.684 26.734c.387 1.55 2.591 1.55 2.979 0l6.684-26.734 19.155 19.81c1.111 1.149 3.019.047 2.58-1.49l-7.574-26.475zM116.236 57.648l-26.734-6.684 19.81-19.155c1.149-1.111.047-3.019-1.49-2.58l-26.474 7.573c5.714 5.718 9.248 13.613 9.248 22.335 0 8.722-3.534 16.618-9.248 22.335l26.474 7.573c1.537.439 2.638-1.469 1.49-2.58L89.502 67.31l26.734-6.684c1.551-.385 1.551-2.588 0-2.978z"/><circle cx="59" cy="59.141" r="25.16"/></g></g></svg>