<svg width="512" height="336" xmlns="http://www.w3.org/2000/svg"><g fill="none" fill-rule="evenodd"><path d="M38.345.276C17.167.276 0 17.443 0 38.621v217.655l388.414-256H38.345z" fill="#3CA100"/><path d="M473.655 335.724c21.177 0 38.345-17.167 38.345-38.345V79.724l-388.414 256h350.069z" fill="#4173CD"/><path d="M473.655.276h-90.516L0 251.298v46.081c0 21.177 17.167 38.345 38.345 38.345h90.516L512 84.702V38.621C512 17.443 494.833.276 473.655.276z" fill="#FFE15A"/><path d="M473.655.276h-42.2L0 282.953v14.426c0 21.177 17.167 38.345 38.345 38.345h42.2L512 53.047V38.621C512 17.443 494.833.276 473.655.276z" fill="#464655"/></g></svg>