<svg width="512" height="336" xmlns="http://www.w3.org/2000/svg">
  <g fill-rule="nonzero" fill="none">
    <path d="M473.7.5H38.3A38.3 38.3 0 000 39v258.7A38.3 38.3 0 0038.3 336h435.4a38.3 38.3 0 0038.3-38.4V39A38.3 38.3 0 00473.7.5z" fill="#F5F5F5"/>
    <g fill="#E6000D">
      <path d="M2.1 26.3H510A38.4 38.4 0 00473.7.5H38.3C21.6.5 7.3 11.3 2.1 26.3zM0 103.8h512v25.8H0zM0 52.2h512V78H0zM0 172.3c0 5 4 8.9 8.8 8.9H512v-25.8H0v17zM0 258.6h512v25.8H0zM509.9 310.2H2A38.4 38.4 0 0038.3 336h435.4c16.7 0 31-10.8 36.2-25.8zM0 207h512v25.8H0z"/>
    </g>
    <path d="M8.8 181.2h220.7c4.9 0 8.8-4 8.8-8.9V9.3c0-4.8-3.9-8.8-8.8-8.8H38.3A38.3 38.3 0 000 39v133.4c0 5 4 8.9 8.8 8.9z" fill="#3741CF"/>
    <g fill="#F5F5F5">
      <path d="M24.8 20.8l2 5.9h6.1c.8 0 1.2 1 .5 1.5l-5 3.7 2 5.9a.8.8 0 01-1.4.9l-5-3.6-5 3.6a.8.8 0 01-1.3-1l1.9-5.8-5-3.7a.8.8 0 01.5-1.5h6.2l2-5.9a.8.8 0 011.5 0zM24.8 51.5l2 5.8h6.1c.8 0 1.2 1 .5 1.6l-5 3.6 2 6a.8.8 0 01-1.4.9l-5-3.6-5 3.6a.8.8 0 01-1.3-1l1.9-5.9-5-3.6a.8.8 0 01.5-1.5h6.2l2-6a.8.8 0 011.5 0zM24.8 82.1l2 5.9h6.1c.8 0 1.2 1 .5 1.5l-5 3.7 2 5.9a.8.8 0 01-1.4 1l-5-3.7-5 3.6a.8.8 0 01-1.3-1l1.9-5.8-5-3.7a.8.8 0 01.5-1.5h6.2l2-5.9a.8.8 0 011.5 0zM24.8 112.8l2 5.8h6.1c.8 0 1.2 1.1.5 1.6l-5 3.6 2 6a.8.8 0 01-1.4.9l-5-3.6-5 3.6a.8.8 0 01-1.3-1l1.9-5.9-5-3.6a.8.8 0 01.5-1.5h6.2l2-6a.8.8 0 011.5 0zM24.8 143.4l2 5.9h6.1c.8 0 1.2 1 .5 1.5l-5 3.7 2 5.9a.8.8 0 01-1.4 1l-5-3.7-5 3.6a.8.8 0 01-1.3-1l1.9-5.8-5-3.7a.8.8 0 01.5-1.5h6.2l2-5.9a.8.8 0 011.5 0zM48.6 35.8l2 5.9h6.1c.8 0 1.1 1 .5 1.5l-5 3.7 1.9 5.9a.8.8 0 01-1.3 1l-5-3.7-5 3.6a.8.8 0 01-1.3-.9l1.9-5.9-5-3.7a.8.8 0 01.5-1.5H45l2-5.9a.8.8 0 011.5 0zM48.6 66.5l2 5.8h6.1c.8.1 1.1 1.1.5 1.6l-5 3.7 1.9 5.9a.8.8 0 01-1.3.9l-5-3.6-5 3.6a.8.8 0 01-1.3-1l1.9-5.8-5-3.7a.8.8 0 01.5-1.5H45l2-6a.8.8 0 011.5 0zM48.6 97.1l2 5.9h6.1c.8 0 1.1 1 .5 1.5l-5 3.7 1.9 6a.8.8 0 01-1.3.8l-5-3.6-5 3.6a.8.8 0 01-1.3-.9l1.9-5.9-5-3.7a.8.8 0 01.5-1.5H45l2-5.9a.8.8 0 011.5 0zM48.6 127.8l2 5.9h6.1c.8 0 1.1 1 .5 1.5l-5 3.7 1.9 5.9a.8.8 0 01-1.3.9l-5-3.6-5 3.6a.8.8 0 01-1.3-1l1.9-5.8-5-3.7a.8.8 0 01.5-1.5H45l2-6a.8.8 0 011.5 0zM72.4 20.8l2 5.9h6.1c.8 0 1.1 1 .5 1.5L76 32l1.9 5.9a.8.8 0 01-1.3.9l-5-3.6-5 3.6a.8.8 0 01-1.3-1l1.9-5.8-5-3.7a.8.8 0 01.5-1.5h6.1l2-5.9a.8.8 0 011.6 0zM72.4 51.5l2 5.8h6.1c.8 0 1.1 1 .5 1.6l-5 3.6 1.9 6a.8.8 0 01-1.3.9l-5-3.6-5 3.6a.8.8 0 01-1.3-1l1.9-5.9-5-3.6a.8.8 0 01.5-1.5h6.1l2-6a.8.8 0 011.6 0zM72.4 82.1l2 5.9h6.1c.8 0 1.1 1 .5 1.5l-5 3.7L78 99a.8.8 0 01-1.3 1l-5-3.7-5 3.6a.8.8 0 01-1.3-1l1.9-5.8-5-3.7a.8.8 0 01.5-1.5h6.1l2-5.9a.8.8 0 011.6 0zM72.4 112.8l2 5.8h6.1c.8 0 1.1 1.1.5 1.6l-5 3.6 1.9 6a.8.8 0 01-1.3.9l-5-3.6-5 3.6a.8.8 0 01-1.3-1l1.9-5.9-5-3.6a.8.8 0 01.5-1.5h6.1l2-6a.8.8 0 011.6 0zM72.4 143.4l2 5.9h6.1c.8 0 1.1 1 .5 1.5l-5 3.7 1.9 5.9a.8.8 0 01-1.3 1l-5-3.7-5 3.6a.8.8 0 01-1.3-1l1.9-5.8-5-3.7a.8.8 0 01.5-1.5h6.1l2-5.9a.8.8 0 011.6 0zM96.2 35.8l2 5.9h6.1c.8 0 1.1 1 .5 1.5l-5 3.7 1.9 5.9a.8.8 0 01-1.3 1l-5-3.7-5 3.6a.8.8 0 01-1.3-.9l1.8-5.9-5-3.7a.8.8 0 01.6-1.5h6.1l2-5.9a.8.8 0 011.6 0zM96.2 66.5l2 5.8h6.1c.8.1 1.1 1.1.5 1.6l-5 3.7 1.9 5.9a.8.8 0 01-1.3.9l-5-3.6-5 3.6a.8.8 0 01-1.3-1l1.8-5.8-5-3.7a.8.8 0 01.6-1.5h6.1l2-6a.8.8 0 011.6 0zM96.2 97.1l2 5.9h6.1c.8 0 1.1 1 .5 1.5l-5 3.7 1.9 6a.8.8 0 01-1.3.8l-5-3.6-5 3.6a.8.8 0 01-1.3-.9l1.8-5.9-5-3.7a.8.8 0 01.6-1.5h6.1l2-5.9a.8.8 0 011.6 0zM96.2 127.8l2 5.9h6.1c.8 0 1.1 1 .5 1.5l-5 3.7 1.9 5.9a.8.8 0 01-1.3.9l-5-3.6-5 3.6a.8.8 0 01-1.3-1l1.8-5.8-5-3.7a.8.8 0 01.6-1.5h6.1l2-6a.8.8 0 011.6 0zM120 20.8l2 5.9h6.1c.8 0 1.1 1 .5 1.5l-5 3.7 1.9 5.9a.8.8 0 01-1.3.9l-5-3.6-5 3.6a.8.8 0 01-1.3-1l1.8-5.8-5-3.7a.8.8 0 01.6-1.5h6.1l2-5.9a.8.8 0 011.6 0zM120 51.5l2 5.8h6.1c.8 0 1.1 1 .5 1.6l-5 3.6 1.9 6a.8.8 0 01-1.3.9l-5-3.6-5 3.6a.8.8 0 01-1.3-1l1.8-5.9-5-3.6a.8.8 0 01.6-1.5h6.1l2-6a.8.8 0 011.6 0zM120 82.1l2 5.9h6.1c.8 0 1.1 1 .5 1.5l-5 3.7 1.9 5.9a.8.8 0 01-1.3 1l-5-3.7-5 3.6a.8.8 0 01-1.3-1l1.8-5.8-5-3.7a.8.8 0 01.6-1.5h6.1l2-5.9a.8.8 0 011.6 0zM120 112.8l2 5.8h6.1c.8 0 1.1 1.1.5 1.6l-5 3.6 1.9 6a.8.8 0 01-1.3.9l-5-3.6-5 3.6a.8.8 0 01-1.3-1l1.8-5.9-5-3.6a.8.8 0 01.6-1.5h6.1l2-6a.8.8 0 011.6 0zM120 143.4l2 5.9h6.1c.8 0 1.1 1 .5 1.5l-5 3.7 1.9 5.9a.8.8 0 01-1.3 1l-5-3.7-5 3.6a.8.8 0 01-1.3-1l1.8-5.8-5-3.7a.8.8 0 01.6-1.5h6.1l2-5.9a.8.8 0 011.6 0zM143.8 35.8l2 5.9h6c.9 0 1.2 1 .6 1.5l-5 3.7 1.9 5.9a.8.8 0 01-1.3 1l-5-3.7-5 3.6a.8.8 0 01-1.3-.9l1.8-5.9-5-3.7a.8.8 0 01.5-1.5h6.2l2-5.9a.8.8 0 011.6 0zM143.8 66.5l2 5.8h6c.9.1 1.2 1.1.6 1.6l-5 3.7 1.9 5.9a.8.8 0 01-1.3.9l-5-3.6-5 3.6a.8.8 0 01-1.3-1l1.8-5.8-5-3.7a.8.8 0 01.5-1.5h6.2l2-6a.8.8 0 011.6 0zM143.8 97.1l2 5.9h6c.9 0 1.2 1 .6 1.5l-5 3.7 1.9 6a.8.8 0 01-1.3.8l-5-3.6-5 3.6a.8.8 0 01-1.3-.9l1.8-5.9-5-3.7a.8.8 0 01.5-1.5h6.2l2-5.9a.8.8 0 011.6 0zM143.8 127.8l2 5.9h6c.9 0 1.2 1 .6 1.5l-5 3.7 1.9 5.9a.8.8 0 01-1.3.9l-5-3.6-5 3.6a.8.8 0 01-1.3-1l1.8-5.8-5-3.7a.8.8 0 01.5-1.5h6.2l2-6a.8.8 0 011.6 0zM167.6 20.8l2 5.9h6c.9 0 1.2 1 .6 1.5l-5 3.7 1.9 5.9a.8.8 0 01-1.3.9l-5-3.6-5 3.6a.8.8 0 01-1.3-1l1.8-5.8-5-3.7a.8.8 0 01.5-1.5h6.2l2-5.9a.8.8 0 011.6 0zM167.6 51.5l2 5.8h6c.9 0 1.2 1 .6 1.6l-5 3.6 1.9 6a.8.8 0 01-1.3.9l-5-3.6-5 3.6a.8.8 0 01-1.3-1l1.8-5.9-5-3.6a.8.8 0 01.5-1.5h6.2l2-6a.8.8 0 011.6 0zM167.6 82.1l2 5.9h6c.9 0 1.2 1 .6 1.5l-5 3.7 1.9 5.9a.8.8 0 01-1.3 1l-5-3.7-5 3.6a.8.8 0 01-1.3-1l1.8-5.8-5-3.7a.8.8 0 01.5-1.5h6.2l2-5.9a.8.8 0 011.6 0zM167.6 112.8l2 5.8h6c.9 0 1.2 1.1.6 1.6l-5 3.6 1.9 6a.8.8 0 01-1.3.9l-5-3.6-5 3.6a.8.8 0 01-1.3-1l1.8-5.9-5-3.6a.8.8 0 01.5-1.5h6.2l2-6a.8.8 0 011.6 0zM167.6 143.4l2 5.9h6c.9 0 1.2 1 .6 1.5l-5 3.7 1.9 5.9a.8.8 0 01-1.3 1l-5-3.7-5 3.6a.8.8 0 01-1.3-1l1.8-5.8-5-3.7a.8.8 0 01.5-1.5h6.2l2-5.9a.8.8 0 011.6 0zM191.3 35.8l2 5.9h6.2c.8 0 1.1 1 .5 1.5l-5 3.7 1.9 5.9a.8.8 0 01-1.3 1l-5-3.7-5 3.6a.8.8 0 01-1.3-.9l1.8-5.9-5-3.7a.8.8 0 01.5-1.5h6.2l2-5.9a.8.8 0 011.5 0zM191.3 66.5l2 5.8h6.2c.8.1 1.1 1.1.5 1.6l-5 3.7 1.9 5.9a.8.8 0 01-1.3.9l-5-3.6-5 3.6a.8.8 0 01-1.3-1l1.8-5.8-5-3.7a.8.8 0 01.5-1.5h6.2l2-6a.8.8 0 011.5 0zM191.3 97.1l2 5.9h6.2c.8 0 1.1 1 .5 1.5l-5 3.7 1.9 6a.8.8 0 01-1.3.8l-5-3.6-5 3.6a.8.8 0 01-1.3-.9l1.8-5.9-5-3.7a.8.8 0 01.5-1.5h6.2l2-5.9a.8.8 0 011.5 0zM191.3 127.8l2 5.9h6.2c.8 0 1.1 1 .5 1.5l-5 3.7 1.9 5.9a.8.8 0 01-1.3.9l-5-3.6-5 3.6a.8.8 0 01-1.3-1l1.8-5.8-5-3.7a.8.8 0 01.5-1.5h6.2l2-6a.8.8 0 011.5 0zM215.1 20.8l2 5.9h6.2c.8 0 1.1 1 .5 1.5l-5 3.7 1.9 5.9a.8.8 0 01-1.3.9l-5-3.6-5 3.6a.8.8 0 01-1.4-1l2-5.8-5-3.7a.8.8 0 01.4-1.5h6.2l2-5.9a.8.8 0 011.5 0zM215.1 51.5l2 5.8h6.2c.8 0 1.1 1 .5 1.6l-5 3.6 1.9 6a.8.8 0 01-1.3.9l-5-3.6-5 3.6a.8.8 0 01-1.4-1l2-5.9-5-3.6a.8.8 0 01.4-1.5h6.2l2-6a.8.8 0 011.5 0zM215.1 82.1l2 5.9h6.2c.8 0 1.1 1 .5 1.5l-5 3.7 1.9 5.9a.8.8 0 01-1.3 1l-5-3.7-5 3.6a.8.8 0 01-1.4-1l2-5.8-5-3.7a.8.8 0 01.4-1.5h6.2l2-5.9a.8.8 0 011.5 0zM215.1 112.8l2 5.8h6.2c.8 0 1.1 1.1.5 1.6l-5 3.6 1.9 6a.8.8 0 01-1.3.9l-5-3.6-5 3.6a.8.8 0 01-1.4-1l2-5.9-5-3.6a.8.8 0 01.4-1.5h6.2l2-6a.8.8 0 011.5 0zM215.1 143.4l2 5.9h6.2c.8 0 1.1 1 .5 1.5l-5 3.7 1.9 5.9a.8.8 0 01-1.3 1l-5-3.7-5 3.6a.8.8 0 01-1.4-1l2-5.8-5-3.7a.8.8 0 01.4-1.5h6.2l2-5.9a.8.8 0 011.5 0z"/>
    </g>
  </g>
</svg>