<svg width="512" height="336" xmlns="http://www.w3.org/2000/svg"><g fill="none" fill-rule="evenodd"><path d="M473.655.276H38.345C17.167.276 0 17.443 0 38.621V297.38c0 21.177 17.167 38.345 38.345 38.345h435.31c21.177 0 38.345-17.167 38.345-38.345V38.621C512 17.443 494.833.276 473.655.276z" fill="#F5F5F5"/><g fill="#E6000D"><path d="M2.109 26.08H509.89C504.694 11.063 490.438.276 473.655.276H38.345C21.561.276 7.306 11.063 2.109 26.08zM0 103.49h512v25.803H0zM0 51.88h512v25.803H0zM0 172.074a8.829 8.829 0 0 0 8.828 8.828H512v-25.804H0v16.976zM0 258.32h512v25.804H0zM509.891 309.92H2.109c5.197 15.017 19.453 25.804 36.236 25.804h435.31c16.784 0 31.039-10.787 36.236-25.804zM0 206.71h512v25.803H0z"/></g><path d="M8.828 180.902h220.69a8.829 8.829 0 0 0 8.828-8.828V9.103a8.828 8.828 0 0 0-8.828-8.828H38.345C17.167.276 0 17.443 0 38.621v133.453a8.828 8.828 0 0 0 8.828 8.828z" fill="#3741CF"/><g fill="#F5F5F5"><path d="M24.789 20.537l1.954 5.86 6.177.047c.8.007 1.131 1.027.488 1.502l-4.969 3.669 1.864 5.889c.242.762-.627 1.394-1.278.928L24 34.841l-5.025 3.592c-.651.466-1.518-.166-1.278-.928l1.864-5.889-4.969-3.669c-.643-.476-.312-1.496.488-1.502l6.177-.047 1.954-5.86c.252-.76 1.324-.76 1.578-.001zM24.789 51.191l1.954 5.86 6.177.047c.8.007 1.131 1.026.488 1.502l-4.969 3.67 1.864 5.889c.242.762-.627 1.394-1.278.928L24 65.496l-5.025 3.592c-.651.465-1.518-.166-1.278-.928l1.864-5.889-4.969-3.67c-.643-.476-.312-1.495.488-1.502l6.177-.047 1.954-5.86c.252-.759 1.324-.759 1.578-.001zM24.789 81.846l1.954 5.86 6.177.047c.8.007 1.131 1.026.488 1.502l-4.969 3.67 1.864 5.889c.242.762-.627 1.394-1.278.928L24 96.151l-5.025 3.592c-.651.465-1.518-.165-1.278-.928l1.864-5.889-4.969-3.67c-.643-.476-.312-1.495.488-1.502l6.177-.047 1.954-5.86c.252-.76 1.324-.76 1.578-.001zM24.789 112.5l1.954 5.86 6.177.047c.8.007 1.131 1.027.488 1.502l-4.969 3.67 1.864 5.889c.242.762-.627 1.394-1.278.928L24 126.805l-5.025 3.592c-.651.465-1.518-.166-1.278-.928l1.864-5.889-4.969-3.67c-.643-.474-.312-1.495.488-1.502l6.177-.047 1.954-5.86c.252-.76 1.324-.76 1.578-.001zM24.789 143.154l1.954 5.86 6.177.047c.8.007 1.131 1.026.488 1.502l-4.969 3.67 1.864 5.889c.242.762-.627 1.394-1.278.928L24 157.459l-5.025 3.592c-.651.465-1.518-.166-1.278-.928l1.864-5.889-4.969-3.67c-.643-.476-.312-1.495.488-1.502l6.177-.047 1.954-5.86c.252-.759 1.324-.759 1.578-.001zM48.582 35.566l1.954 5.86 6.177.047c.8.007 1.131 1.027.488 1.502l-4.969 3.67 1.864 5.889c.242.762-.627 1.394-1.278.928l-5.025-3.592-5.025 3.592c-.651.465-1.518-.166-1.278-.928l1.864-5.889-4.969-3.67c-.643-.476-.312-1.495.488-1.502l6.177-.047 1.954-5.86c.252-.758 1.325-.758 1.578 0zM48.582 66.221l1.954 5.86 6.177.047c.8.007 1.131 1.027.488 1.502l-4.969 3.67 1.864 5.889c.242.762-.627 1.394-1.278.928l-5.025-3.592-5.025 3.592c-.651.465-1.518-.165-1.278-.928l1.864-5.889-4.969-3.67c-.643-.474-.312-1.495.488-1.502l6.177-.047 1.954-5.86c.252-.759 1.325-.759 1.578 0zM48.582 96.875l1.954 5.86 6.177.047c.8.007 1.131 1.026.488 1.502l-4.969 3.67 1.864 5.889c.242.762-.627 1.394-1.278.928l-5.025-3.592-5.025 3.592c-.651.465-1.518-.166-1.278-.928l1.864-5.889-4.969-3.67c-.643-.476-.312-1.495.488-1.502l6.177-.047 1.954-5.86c.252-.759 1.325-.759 1.578 0zM48.582 127.529l1.954 5.86 6.177.047c.8.007 1.131 1.026.488 1.502l-4.969 3.67 1.864 5.889c.242.762-.627 1.394-1.278.928l-5.025-3.592-5.025 3.592c-.651.466-1.518-.166-1.278-.928l1.864-5.889-4.969-3.67c-.643-.476-.312-1.495.488-1.502l6.177-.047 1.954-5.86c.252-.758 1.325-.758 1.578 0zM72.375 20.537l1.954 5.86 6.177.047c.8.007 1.131 1.027.488 1.502l-4.969 3.669 1.864 5.889c.242.762-.627 1.394-1.278.928l-5.025-3.592-5.025 3.592c-.651.466-1.518-.166-1.278-.928l1.864-5.889-4.969-3.669c-.643-.476-.312-1.496.488-1.502l6.177-.047 1.954-5.86c.252-.759 1.325-.759 1.578 0zM72.375 51.191l1.954 5.86 6.177.047c.8.007 1.131 1.026.488 1.502l-4.969 3.67 1.864 5.889c.242.762-.627 1.394-1.278.928l-5.025-3.592-5.025 3.592c-.651.465-1.518-.166-1.278-.928l1.864-5.889-4.969-3.67c-.643-.476-.312-1.495.488-1.502l6.177-.047 1.954-5.86c.252-.758 1.325-.758 1.578 0zM72.375 81.846l1.954 5.86 6.177.047c.8.007 1.131 1.026.488 1.502l-4.969 3.67 1.864 5.889c.242.762-.627 1.394-1.278.928l-5.025-3.592-5.025 3.592c-.651.465-1.518-.165-1.278-.928l1.864-5.889-4.969-3.67c-.643-.476-.312-1.495.488-1.502l6.177-.047 1.954-5.86c.252-.759 1.325-.759 1.578 0zM72.375 112.5l1.954 5.86 6.177.047c.8.007 1.131 1.027.488 1.502l-4.969 3.67 1.864 5.889c.242.762-.627 1.394-1.278.928l-5.025-3.592-5.025 3.592c-.651.465-1.518-.166-1.278-.928l1.864-5.889-4.969-3.67c-.643-.474-.312-1.495.488-1.502l6.177-.047 1.954-5.86c.252-.759 1.325-.759 1.578 0zM72.375 143.154l1.954 5.86 6.177.047c.8.007 1.131 1.026.488 1.502l-4.969 3.67 1.864 5.889c.242.762-.627 1.394-1.278.928l-5.025-3.592-5.025 3.592c-.651.465-1.518-.166-1.278-.928l1.864-5.889-4.969-3.67c-.643-.476-.312-1.495.488-1.502l6.177-.047 1.954-5.86c.252-.758 1.325-.758 1.578 0zM96.169 35.566l1.954 5.86 6.177.047c.8.007 1.131 1.027.488 1.502l-4.969 3.67 1.864 5.889c.242.762-.627 1.394-1.278.928L95.38 49.87l-5.025 3.592c-.651.465-1.518-.166-1.278-.928l1.864-5.889-4.969-3.67c-.643-.476-.312-1.495.488-1.502l6.177-.047 1.954-5.86c.251-.758 1.325-.758 1.578 0zM96.169 66.221l1.954 5.86 6.177.047c.8.007 1.131 1.027.488 1.502l-4.969 3.67 1.864 5.889c.242.762-.627 1.394-1.278.928l-5.025-3.592-5.025 3.592c-.651.465-1.518-.165-1.278-.928l1.864-5.889-4.969-3.67c-.643-.474-.312-1.495.488-1.502l6.177-.047 1.954-5.86c.251-.759 1.325-.759 1.578 0zM96.169 96.875l1.954 5.86 6.177.047c.8.007 1.131 1.026.488 1.502l-4.969 3.67 1.864 5.889c.242.762-.627 1.394-1.278.928l-5.025-3.592-5.025 3.592c-.651.465-1.518-.166-1.278-.928l1.864-5.889-4.969-3.67c-.643-.476-.312-1.495.488-1.502l6.177-.047 1.954-5.86c.251-.759 1.325-.759 1.578 0zM96.169 127.529l1.954 5.86 6.177.047c.8.007 1.131 1.026.488 1.502l-4.969 3.67 1.864 5.889c.242.762-.627 1.394-1.278.928l-5.025-3.592-5.025 3.592c-.651.466-1.518-.166-1.278-.928l1.864-5.889-4.969-3.67c-.643-.476-.312-1.495.488-1.502l6.177-.047 1.954-5.86c.251-.758 1.325-.758 1.578 0zM119.962 20.537l1.954 5.86 6.177.047c.8.007 1.131 1.027.488 1.502l-4.969 3.669 1.864 5.889c.242.762-.627 1.394-1.278.928l-5.026-3.591-5.025 3.592c-.651.466-1.518-.166-1.278-.928l1.864-5.889-4.969-3.669c-.643-.476-.312-1.496.488-1.502l6.177-.047 1.954-5.86c.253-.76 1.326-.76 1.579-.001zM119.962 51.191l1.954 5.86 6.177.047c.8.007 1.131 1.026.488 1.502l-4.969 3.67 1.864 5.889c.242.762-.627 1.394-1.278.928l-5.026-3.592-5.025 3.592c-.651.465-1.518-.166-1.278-.928l1.864-5.889-4.969-3.67c-.643-.476-.312-1.495.488-1.502l6.177-.047 1.954-5.86c.253-.758 1.326-.758 1.579 0zM119.962 81.846l1.954 5.86 6.177.047c.8.007 1.131 1.026.488 1.502l-4.969 3.67 1.864 5.889c.242.762-.627 1.394-1.278.928l-5.026-3.593-5.025 3.592c-.651.465-1.518-.166-1.278-.928l1.864-5.889-4.969-3.67c-.643-.476-.312-1.495.488-1.502l6.177-.047 1.954-5.86c.253-.758 1.326-.758 1.579.001zM119.962 112.5l1.954 5.86 6.177.047c.8.007 1.131 1.027.488 1.502l-4.969 3.67 1.864 5.889c.242.762-.627 1.394-1.278.928l-5.026-3.592-5.025 3.592c-.651.465-1.518-.166-1.278-.928l1.864-5.889-4.969-3.67c-.643-.474-.312-1.495.488-1.502l6.177-.047 1.954-5.86c.253-.759 1.326-.759 1.579 0zM119.962 143.154l1.954 5.86 6.177.047c.8.007 1.131 1.026.488 1.502l-4.969 3.67 1.864 5.889c.242.762-.627 1.394-1.278.928l-5.026-3.592-5.025 3.592c-.651.465-1.518-.166-1.278-.928l1.864-5.889-4.969-3.67c-.643-.476-.312-1.495.488-1.502l6.177-.047 1.954-5.86c.253-.758 1.326-.758 1.579 0zM143.755 35.566l1.954 5.86 6.177.047c.8.007 1.131 1.027.488 1.502l-4.969 3.67 1.864 5.889c.242.762-.627 1.394-1.278.928l-5.025-3.592-5.025 3.592c-.651.465-1.518-.166-1.278-.928l1.864-5.889-4.969-3.67c-.643-.476-.312-1.495.488-1.502l6.177-.047 1.954-5.86c.253-.758 1.325-.758 1.578 0zM143.755 66.221l1.954 5.86 6.177.047c.8.007 1.131 1.027.488 1.502l-4.969 3.67 1.864 5.889c.242.762-.627 1.394-1.278.928l-5.025-3.592-5.025 3.592c-.651.465-1.518-.165-1.278-.928l1.864-5.889-4.969-3.67c-.643-.474-.312-1.495.488-1.502l6.177-.047 1.954-5.86c.253-.759 1.325-.759 1.578 0zM143.755 96.875l1.954 5.86 6.177.047c.8.007 1.131 1.026.488 1.502l-4.969 3.67 1.864 5.889c.242.762-.627 1.394-1.278.928l-5.025-3.592-5.025 3.592c-.651.465-1.518-.166-1.278-.928l1.864-5.889-4.969-3.67c-.643-.476-.312-1.495.488-1.502l6.177-.047 1.954-5.86c.253-.759 1.325-.759 1.578 0zM143.755 127.529l1.954 5.86 6.177.047c.8.007 1.131 1.026.488 1.502l-4.969 3.67 1.864 5.889c.242.762-.627 1.394-1.278.928l-5.025-3.592-5.025 3.592c-.651.466-1.518-.166-1.278-.928l1.864-5.889-4.969-3.67c-.643-.476-.312-1.495.488-1.502l6.177-.047 1.954-5.86c.253-.758 1.325-.758 1.578 0zM167.549 20.537l1.954 5.86 6.177.047c.8.007 1.131 1.027.488 1.502l-4.969 3.669 1.864 5.889c.242.762-.627 1.394-1.278.928l-5.025-3.592-5.025 3.592c-.651.466-1.518-.166-1.278-.928l1.864-5.889-4.969-3.669c-.643-.476-.312-1.496.488-1.502l6.177-.047 1.954-5.86c.251-.759 1.325-.759 1.578 0zM167.549 51.191l1.954 5.86 6.177.047c.8.007 1.131 1.026.488 1.502l-4.969 3.67 1.864 5.889c.242.762-.627 1.394-1.278.928l-5.025-3.592-5.025 3.592c-.651.465-1.518-.166-1.278-.928l1.864-5.889-4.969-3.67c-.643-.476-.312-1.495.488-1.502l6.177-.047 1.954-5.86c.251-.758 1.325-.758 1.578 0zM167.549 81.846l1.954 5.86 6.177.047c.8.007 1.131 1.026.488 1.502l-4.969 3.67 1.864 5.889c.242.762-.627 1.394-1.278.928l-5.025-3.592-5.025 3.592c-.651.465-1.518-.165-1.278-.928l1.864-5.889-4.969-3.67c-.643-.476-.312-1.495.488-1.502l6.177-.047 1.954-5.86c.251-.759 1.325-.759 1.578 0zM167.549 112.5l1.954 5.86 6.177.047c.8.007 1.131 1.027.488 1.502l-4.969 3.67 1.864 5.889c.242.762-.627 1.394-1.278.928l-5.025-3.592-5.025 3.592c-.651.465-1.518-.166-1.278-.928l1.864-5.889-4.969-3.67c-.643-.474-.312-1.495.488-1.502l6.177-.047 1.954-5.86c.251-.759 1.325-.759 1.578 0zM167.549 143.154l1.954 5.86 6.177.047c.8.007 1.131 1.026.488 1.502l-4.969 3.67 1.864 5.889c.242.762-.627 1.394-1.278.928l-5.025-3.592-5.025 3.592c-.651.465-1.518-.166-1.278-.928l1.864-5.889-4.969-3.67c-.643-.476-.312-1.495.488-1.502l6.177-.047 1.954-5.86c.251-.758 1.325-.758 1.578 0zM191.342 35.566l1.954 5.86 6.177.047c.8.007 1.131 1.027.488 1.502l-4.969 3.67 1.864 5.889c.242.762-.627 1.394-1.278.928l-5.025-3.592-5.025 3.592c-.651.465-1.518-.166-1.278-.928l1.864-5.889-4.969-3.67c-.643-.476-.312-1.495.488-1.502l6.177-.047 1.954-5.86c.252-.758 1.325-.758 1.578 0zM191.342 66.221l1.954 5.86 6.177.047c.8.007 1.131 1.027.488 1.502l-4.969 3.67 1.864 5.889c.242.762-.627 1.394-1.278.928l-5.025-3.592-5.025 3.592c-.651.465-1.518-.165-1.278-.928l1.864-5.889-4.969-3.67c-.643-.474-.312-1.495.488-1.502l6.177-.047 1.954-5.86c.252-.759 1.325-.759 1.578 0zM191.342 96.875l1.954 5.86 6.177.047c.8.007 1.131 1.026.488 1.502l-4.969 3.67 1.864 5.889c.242.762-.627 1.394-1.278.928l-5.025-3.592-5.025 3.592c-.651.465-1.518-.166-1.278-.928l1.864-5.889-4.969-3.67c-.643-.476-.312-1.495.488-1.502l6.177-.047 1.954-5.86c.252-.759 1.325-.759 1.578 0zM191.342 127.529l1.954 5.86 6.177.047c.8.007 1.131 1.026.488 1.502l-4.969 3.67 1.864 5.889c.242.762-.627 1.394-1.278.928l-5.025-3.592-5.025 3.592c-.651.466-1.518-.166-1.278-.928l1.864-5.889-4.969-3.67c-.643-.476-.312-1.495.488-1.502l6.177-.047 1.954-5.86c.252-.758 1.325-.758 1.578 0zM215.136 20.537l1.954 5.86 6.177.047c.8.007 1.131 1.027.488 1.502l-4.969 3.669 1.864 5.889c.242.762-.627 1.394-1.278.928l-5.025-3.592-5.025 3.592c-.651.466-1.518-.166-1.278-.928l1.864-5.889-4.969-3.669c-.643-.476-.312-1.496.488-1.502l6.177-.047 1.954-5.86c.252-.759 1.324-.759 1.578 0zM215.136 51.191l1.954 5.86 6.177.047c.8.007 1.131 1.026.488 1.502l-4.969 3.67 1.864 5.889c.242.762-.627 1.394-1.278.928l-5.025-3.592-5.025 3.592c-.651.465-1.518-.166-1.278-.928l1.864-5.889-4.969-3.67c-.643-.476-.312-1.495.488-1.502l6.177-.047 1.954-5.86c.252-.758 1.324-.758 1.578 0zM215.136 81.846l1.954 5.86 6.177.047c.8.007 1.131 1.026.488 1.502l-4.969 3.67 1.864 5.889c.242.762-.627 1.394-1.278.928l-5.025-3.592-5.025 3.592c-.651.465-1.518-.165-1.278-.928l1.864-5.889-4.969-3.67c-.643-.476-.312-1.495.488-1.502l6.177-.047 1.954-5.86c.252-.759 1.324-.759 1.578 0zM215.136 112.5l1.954 5.86 6.177.047c.8.007 1.131 1.027.488 1.502l-4.969 3.67 1.864 5.889c.242.762-.627 1.394-1.278.928l-5.025-3.592-5.025 3.592c-.651.465-1.518-.166-1.278-.928l1.864-5.889-4.969-3.67c-.643-.474-.312-1.495.488-1.502l6.177-.047 1.954-5.86c.252-.759 1.324-.759 1.578 0zM215.136 143.154l1.954 5.86 6.177.047c.8.007 1.131 1.026.488 1.502l-4.969 3.67 1.864 5.889c.242.762-.627 1.394-1.278.928l-5.025-3.592-5.025 3.592c-.651.465-1.518-.166-1.278-.928l1.864-5.889-4.969-3.67c-.643-.476-.312-1.495.488-1.502l6.177-.047 1.954-5.86c.252-.758 1.324-.758 1.578 0z"/></g></g></svg>