<svg width="512" height="336" xmlns="http://www.w3.org/2000/svg"><g fill="none" fill-rule="evenodd"><g fill="#F5F5F5"><path d="M0 112.09h185.38v37.27H0zM185.379 37.549h326.593c-.569-20.68-17.5-37.272-38.317-37.272H38.345C17.167.276 0 17.444 0 38.621v36.2h185.379V37.549zM38.345 335.725h435.31c20.818 0 37.748-16.593 38.317-37.272H.028c.569 20.679 17.499 37.272 38.317 37.272z"/></g><path d="M185.379 37.549v37.272H512v-36.2c0-.36-.018-.715-.028-1.073l-326.593.001z" fill="#4173CD"/><path fill="#F5F5F5" d="M0 74.821v37.271h512V74.821H185.379z"/><path fill="#4173CD" d="M185.38 112.09H512v37.27H185.38z"/><path fill="#F5F5F5" d="M0 149.364v37.273h512v-37.273H185.379z"/><path fill="#4173CD" d="M0 186.64h512v37.27H0z"/><path fill="#F5F5F5" d="M0 223.91h512v37.27H0z"/><path d="M0 297.38c0 .36.018.715.028 1.073h511.946c.01-.358.028-.713.028-1.073v-36.2H0v36.2z" fill="#4173CD"/><path fill="#FFE15A" d="M63.976 23.643l14.767 68.332 23.107-9.571z"/><path fill="#FFCD5A" d="M63.976 23.643l26.32 63.546-11.553 4.786z"/><path fill="#FFE15A" d="M121.404 162.289l-14.768-68.332-23.107 9.571z"/><path fill="#FFCD5A" d="M121.404 162.289L95.083 98.743l11.553-4.786z"/><path fill="#FFE15A" d="M162.013 64.252L93.681 79.02l9.571 23.107z"/><path fill="#FFCD5A" d="M162.013 64.252L98.466 90.573 93.681 79.02z"/><path fill="#FFE15A" d="M23.367 121.681l68.332-14.768-9.572-23.108z"/><path fill="#FFCD5A" d="M23.367 121.681l63.546-26.322 4.786 11.554z"/><path fill="#FFE15A" d="M121.404 23.643L83.529 82.404l23.107 9.571z"/><path fill="#FFCD5A" d="M121.404 23.643L95.083 87.189l-11.554-4.785z"/><path fill="#FFE15A" d="M63.976 162.289l37.874-58.761-23.107-9.571z"/><path fill="#FFCD5A" d="M63.976 162.289l26.32-63.546 11.554 4.785z"/><path fill="#FFE15A" d="M162.013 121.681l-58.761-37.876-9.571 23.108z"/><path fill="#FFCD5A" d="M162.013 121.681L98.466 95.359l4.786-11.554z"/><path fill="#FFE15A" d="M23.367 64.252l58.76 37.875 9.572-23.107z"/><path fill="#FFCD5A" d="M23.367 64.252l63.546 26.321-4.786 11.554z"/><path fill="#FFE15A" d="M92.69 17.932L80.184 86.713h25.011z"/><path fill="#FFCD5A" d="M92.69 17.932v68.781H80.184z"/><path fill="#FFE15A" d="M92.69 168.001l12.505-68.782H80.184z"/><path fill="#FFCD5A" d="M92.69 168.001V99.219h12.505z"/><path fill="#FFE15A" d="M167.724 92.966L98.943 80.461v25.01z"/><path fill="#FFCD5A" d="M167.724 92.966H98.943V80.461z"/><path fill="#FFE15A" d="M17.655 92.966l68.781 12.505v-25.01z"/><path fill="#FFCD5A" d="M17.655 92.966h68.781v12.505z"/><path fill="#FFE15A" d="M145.747 39.909L88.268 79.702l17.686 17.686z"/><path fill="#FFCD5A" d="M145.747 39.909L97.111 88.545l-8.843-8.843z"/><path fill="#FFE15A" d="M39.633 146.023l57.478-39.792-17.686-17.686z"/><path fill="#FFCD5A" d="M39.633 146.023l48.635-48.635 8.843 8.843z"/><path fill="#FFE15A" d="M145.747 146.023l-39.793-57.478-17.686 17.686z"/><path fill="#FFCD5A" d="M145.747 146.023L97.111 97.388l8.843-8.843z"/><path fill="#FFE15A" d="M39.633 39.909l39.792 57.479 17.686-17.686z"/><path fill="#FFCD5A" d="M39.633 39.909l48.635 48.636-8.843 8.843z"/><circle fill="#FFE15A" cx="92.69" cy="92.97" r="25.01"/></g></svg>