<svg width="513" height="336" xmlns="http://www.w3.org/2000/svg">
  <g fill="none" fill-rule="evenodd">
    <path d="M473.7.5H256V336h217.7a38.3 38.3 0 0038.3-38.4V39A38.3 38.3 0 00473.7.5z" fill="#F5F5F5" fill-rule="nonzero"/>
    <g stroke-linejoin="round">
      <g stroke-linecap="round" transform="translate(319.7 30)">
        <g fill-rule="nonzero">
          <path d="M44.6 96.5l3.4.8 5.3.8 2.4.3-.4 10.4s-.6 6.9-1.6 10.1c-.7 2.5-3.3 7-3.3 7l-1.6 2.3-9.4-8.1s1.6-2.3 2.2-3.5c.8-1.6 1.6-5 1.6-5l1-5.4.4-6.8v-3zm-11.8 31.4l8.6 7.5s-1.8 1.5-2.8 2c-2 1-4.3 1.6-6.6 1.5a12 12 0 01-4.6-1.3c-3.3-1.5-6.8-3-9-6-.7-1-1-2.3-1-3.6 0-1.4 1.3-4.1 1.3-4.1s.5 1.8 1.1 2.5c1 1.1 2.3 2 3.7 2.5a8.8 8.8 0 007.5.3c.7-.3 1.8-1.3 1.8-1.3z" fill="#FFF"/>
          <path d="M19.2 73.1l1 2.1c.3 1.3.5 2.6.5 3.9a15 15 0 01-.6 3.8c-.6 2-1.4 3.7-2.2 5.5l-1.8 3.3-2.2 5.5c-.6 1.6-1.4 3-1.9 4.7a43.6 43.6 0 00-1.7 12.2c0 2.3 0 4.5.5 6.8.4 2.2 1 4.4 2 6.4.8 1.6 1.9 3.1 3.1 4.4 1 1.1 2.2 2 3.5 2.8 1.2.7 2.5 1.1 3.7 1.6l5.3 2s-4.9-2.4-6.6-4.5a14.2 14.2 0 01-2.6-6c-.6-2.4-.5-5-.3-7.6a40 40 0 012-8c.8-2.7 2-5.3 3.1-8 .8-1.8 1.8-3.7 2.5-5.6a93 93 0 002.6-7c.4-1.3 1-2.8 1.1-4.3.1-1.6 0-3.2-.4-4.8-.6-2.2-1.2-4.5-2.5-6.4a8.5 8.5 0 00-3-2.7c-1.2-.6-2.7-1.1-4-.9-.4.1-1 .8-1 .8z" fill="#FFF"/>
          <path d="M30.2 87.2s1-3.7 1-5.6c.2-1.7.1-3.3 0-5-.2-1.8-.3-3.6-1-5.3a14.2 14.2 0 00-8-7.7 27 27 0 00-13.7-.2l-2.4 1.2 6.2 10.2s2-1.2 3-1.5c1.2-.3 2.4-.3 3.6-.2 1.2 0 2.4.2 3.5.6 1.4.7 2.6 1.7 3.6 2.8 1.3 1.3 2.4 2.9 3.1 4.6.7 1.5.8 3.3 1 5l.1 1.1z" fill="#FFF"/>
          <path d="M31.3 79.1s-1-3.4-2.1-4.8a13.2 13.2 0 00-4.6-4.2c-2-1-6.5-1.3-6.5-1.3l2.4 4.4h-4.1l-2.2-3.7-4 1.8-2-3.2 4.3-2-2-3.1 4.3-.4 1.8 3s3.3 0 4.9.3a12 12 0 015.7 3c1 1 1.8 1.9 2.5 3 .6 1 1.3 3.5 1.3 3.5l.3 3.7zM3.2 66.3L10 76M6 64.7l-3 1.8-3 2.2 6.4 9.8 2.8-2.2 3-1.7-6.2-10zM18.2 106l3.7-7.7 4 1.6 1.6-4-4-1.8 2.1-4.5-2.9-1.3-2.2 4.3-4-1.7-1.7 4.2 3.8 1.6-3.5 7.6zM48 103.6h3.7v4.3l3.6.2-.6 4.4-3.4-.2s-.5 2.6-1 3.9l-2 3.6-4-1s1.4-2.3 2-3.6a36 36 0 001.1-3.4l-4.1-.5.7-4.2 3.8.2.1-3.7z" fill="#FFE000"/>
        </g>
        <g fill-rule="nonzero">
          <path d="M77 96.5l-3.4.8-5.3.8-2.5.3.4 10.4s.6 6.9 1.6 10.1c.8 2.5 3.3 7 3.3 7l1.6 2.3 9.4-8.1s-1.6-2.3-2.2-3.5c-.7-1.6-1.6-5-1.6-5l-.9-5.4-.5-6.8v-3zm11.8 31.4l-8.6 7.5s1.7 1.5 2.8 2c2 1 4.3 1.6 6.5 1.5a12 12 0 004.6-1.3c3.3-1.5 6.9-3 9-6 .8-1 1-2.3 1-3.6 0-1.4-1.3-4.1-1.3-4.1s-.5 1.8-1 2.5c-1 1.1-2.4 2-3.7 2.5a8.8 8.8 0 01-7.5.3 9.6 9.6 0 01-1.8-1.3z" fill="#FFF"/>
          <path d="M102.3 73.1l-.9 2.1c-.3 1.3-.6 2.6-.6 3.9 0 1.3.4 2.6.7 3.8.5 2 1.3 3.7 2.1 5.5.6 1.1 1.3 2.1 1.8 3.3.9 1.8 1.5 3.7 2.2 5.5.6 1.6 1.4 3 2 4.7a43.6 43.6 0 011.6 12.2c0 2.3 0 4.5-.4 6.8-.5 2.2-1 4.4-2 6.4-.9 1.6-2 3.1-3.1 4.4-1 1.1-2.3 2-3.5 2.8-1.2.7-2.5 1.1-3.8 1.6l-5.3 2s5-2.4 6.6-4.5c1.4-1.6 2.2-3.8 2.7-6 .6-2.4.5-5 .2-7.6a40 40 0 00-1.9-8c-.8-2.7-2-5.3-3.2-8L95 98.5a93 93 0 01-2.5-7c-.5-1.3-1-2.8-1.2-4.3 0-1.6.1-3.2.5-4.8.5-2.2 1.2-4.5 2.5-6.4a8.5 8.5 0 013-2.7c1.2-.6 2.6-1.1 4-.9.4.1 1 .8 1 .8z" fill="#FFF"/>
          <path d="M91.3 87.2s-.9-3.7-1-5.6c-.2-1.7 0-3.3 0-5 .3-1.8.4-3.6 1.1-5.3a14.2 14.2 0 018-7.7 27 27 0 0113.7-.2l2.4 1.2-6.3 10.2s-1.9-1.2-3-1.5c-1.1-.3-2.3-.3-3.5-.2-1.2 0-2.4.2-3.5.6a15.3 15.3 0 00-6.7 7.3c-.7 1.6-.8 3.4-1 5l-.2 1.2z" fill="#FFF"/>
          <path d="M90.2 79.1s1.1-3.4 2.2-4.8C93.6 72.6 95 71 97 70c2-1 6.4-1.3 6.4-1.3l-2.4 4.4h4.2l2.2-3.7 4 1.8 2-3.2-4.3-2 2-3.1-4.3-.4-1.8 3s-3.3 0-5 .3a12 12 0 00-5.7 3c-.9 1-1.8 1.9-2.4 3-.7 1-1.4 3.5-1.4 3.5l-.3 3.7z" fill="#FFE000"/>
          <path d="M118.3 66.3l-6.6 9.7m3.7-11.3l3.1 1.8 3 2.2-6.4 9.8-2.9-2.2-2.9-1.7 6.1-10zM103.3 106l-3.7-7.7-4 1.6-1.6-4 4-1.8-2-4.5 2.9-1.3 2.2 4.3 4-1.7 1.7 4.2-3.9 1.6 3.6 7.6zM73.6 103.6H70v4.3l-3.7.2.6 4.4 3.4-.2s.6 2.6 1.1 3.9c.5 1.2 2 3.6 2 3.6l4-1s-1.4-2.3-2-3.6a36 36 0 01-1.2-3.4l4.2-.5-.7-4.2-3.8.2-.2-3.7z" fill="#FFE000"/>
        </g>
        <path d="M39.6 43.6l-5.7 6.1 3.5 10.6 2 7.4-5.8 5.4 10.6 14.6 33.4-3.2L88.4 73l-4.1-3.7-.1-9 3.5-10.6-5.3-5.3-4.8-12.7s-1-3.6-1.8-5.2c-.5-1-1.2-1.8-1.9-2.7-.8-1-1.7-2-2.7-2.8-.9-.8-2-1.4-3-2-1.1-.5-2.3-1.1-3.5-1.5-1.3-.3-4-.3-4-.3s-2.6 0-3.9.3c-1.2.4-2.3 1-3.4 1.6-1.1.5-2.2 1.1-3 1.9-1 .8-2 1.8-2.7 2.8-.7.9-1.4 1.7-2 2.7-.8 1.6-1.8 5.2-1.8 5.2l-4.3 12z" fill="#F5F5F5" fill-rule="nonzero"/>
        <ellipse fill="red" fill-rule="nonzero" cx="60.8" cy="92.7" rx="20.3" ry="6"/>
        <path d="M82.4 84.6l-1-.8c-.8-.5-1.6-1-2.5-1.3l-3.6-1-4.2-.8a41 41 0 00-5-.3l-5.3.2-5.4-.2a41 41 0 00-5 .3l-4.2.9c-1.2.2-2.4.5-3.6 1-.8.3-1.7.7-2.5 1.2l-1 .8m45.4-8.8s-1-1.1-1.8-1.3c-.4 0-1 0-1.3.3-.5.4-.9 1-1 1.6-.1.5 0 1 .1 1.6.2.4.4.9.9 1 1 .5 3.2-.4 3.2-.4l-.1-2.8zm1-.8c1.3 0 1.7.7 2 1.4m-50.4-.6l-.1 2.8s2.2.9 3.2.5c.4-.2.7-.7.8-1.1a2.7 2.7 0 00-.8-3.2c-.4-.2-.9-.4-1.4-.3-.7.2-1.7 1.3-1.7 1.3zM36 75c-1.2 0-1.7.7-2 1.4m41.2.2l-1.8-.2m-27 .2l1.8-.2m15.7.2c-.6 0-1.5-.9-1.5-.9m-4.8.9c.6 0 1.6-.9 1.6-.9m29.3-4s-1 .7-1.6.8l-.2.1s-.4 1.2-.8 1.7c-.3.6-1.3 1.3-1.3 1.3s-1-.8-1.6-1a2 2 0 00-1.3 0c-.4.2-.7.6-1 1-.2.4-.5.9-.5 1.4 0 .7.8 1.7.8 1.7l-.5 1-.8.5c-1.3-.4-2.6-.9-4-1.6a4 4 0 01-.9-1.9s1-.5 1.2-1c.3-.5.4-1.3 0-1.8-.3-.5-1-.8-1.7-.8-.5 0-1 .2-1.3.6-.3.3-.6.9-.5 1.4 0 .5 1 1.2 1 1.2s-.4 1-.8 1.1c-1.3.6-2.1.9-3.2 1-1 .2-2.3.3-3.4 0-.7-.2-1.4-.5-1.8-1.1-.2-.2-.2-.6-.2-.6s1.3-.4 1.9-.8c.5-.4 1-1 1.2-1.6a3.7 3.7 0 00-2.2-3.2l-1-.1-.1.2a3 3 0 01-1 .8l-.3.1h-.1l-.6.2s.8.3 1 .6c.2.2.3.4.3.7v.4l-.1.7c0 .3-.2.5-.4.7l-.3.3c-.2.2-.5.3-.7.3h-1c.1 0 1.2 0 1.7-.3a2.2 2.2 0 00.8-1.5v-.6c0-.4-.2-.7-.5-.9-.5-.4-1.9-.5-2-.5 0 0-1.4 0-1.9.5-.2.2-.4.5-.4.9v1.1c.2.4.4.8.7 1 .5.4 1.7.4 1.7.4h-1l-.6-.4c-.2 0-.3-.2-.4-.3-.2-.2-.3-.4-.3-.7l-.2-.7v-.4c0-.3.2-.5.3-.7.2-.3 1-.6 1-.6l-.5-.2H59l-.3-.1a3 3 0 01-1-.8l-.2-.2-1 .1c-.5.3-1.1.7-1.5 1.3-.4.5-.7 1.2-.6 1.9.1.7.7 1.2 1.2 1.6.5.4 1.9.8 1.9.8s0 .4-.2.6c-.4.6-1.2 1-1.9 1.1-1 .3-2.3.2-3.3 0-1.1-.1-2-.4-3.2-1-.4-.1-.8-1-.8-1s.9-.8 1-1.3c0-.5-.2-1-.6-1.4-.3-.4-.8-.6-1.3-.6-.6 0-1.4.3-1.7.8-.3.5-.2 1.3 0 1.8.3.5 1.2 1 1.2 1a4 4 0 01-1 1.9c-1.2.7-2.5 1.2-3.9 1.6l-.7-.5-.6-1s.8-1 .8-1.7c0-.5-.2-1-.5-1.4-.2-.4-.6-.8-1-1a2 2 0 00-1.2 0c-.6.2-1.6 1-1.6 1s-1-.7-1.4-1.3l-.7-1.7h-.3c-.6-.2-1.5-.9-1.5-.9l-1 .2s-.8.5-.8.9c0 .5.8.8 1.2 1.2l.8 1.2c.3.4.6.7.7 1.1.2.5-.2 1 0 1.5.3.6.8 1.1 1.4 1.3.6 0 1.6-.6 1.6-.6v4.2l2.1 1.9 2 4.2-.8 1 .3 2.1c1.5-2 4.2-2.8 6.6-3.5a52.8 52.8 0 0113.6-1s9.2-.3 13.5 1c2.4.7 5.1 1.6 6.7 3.5l.2-2-.8-1.1 2-4.2 2.2-2v-4s1 .6 1.5.5c.7-.2 1.2-.7 1.4-1.3.2-.4-.1-1 0-1.5l.7-1.1 1-1.2c.3-.4 1-.7 1-1.2 0-.4-.8-.9-.8-.9l-1-.2zm-30.8-.5l1 .8.4.1c.6.2 1.7.1 1.7.1h1.7l.3-.2h.1l1-.8.3-.5c.2-.5.2-1.2 0-1.8-.4-.6-1.2-1-1.8-1.3l-1.6-.8-1.7.8c-.6.4-1.3.7-1.7 1.3-.2.6-.2 1.3 0 1.8 0 .2.2.3.3.5z" fill="#FFE000" fill-rule="nonzero"/>
        <path d="M86 63.2l-3.4-1.5c-2.1-.6-4.4-1-6.6-1.5-2.6-.5-5.2-.6-7.8-1.2-.8-.2-1.6-.6-2.4-.7-1.1-.3-2.3-.6-3.4-.4-.6.1-1.6 1-1.6 1s-1-.9-1.6-1c-1.2-.2-2.3.1-3.5.4-.8.1-1.5.5-2.3.7-2.6.6-5.3.7-7.8 1.2-2.3.5-4.5.9-6.7 1.5-1.2.4-3.4 1.5-3.4 1.5m41-9.4l1.5-1c.2-.4.5-.7.5-1.1 0-.5-.1-1-.4-1.4-.4-.3-.9-.4-1.3-.4s-.8 0-1.1.3c-.4.3-.6.8-.7 1.2 0 .4.1.8.3 1.1a7 7 0 001.2 1.3zm-31.4 0s.9-.8 1.1-1.3c.2-.3.4-.7.3-1 0-.5-.3-1-.6-1.3-.3-.2-.7-.3-1.1-.3-.5 0-1 0-1.3.4-.3.4-.5.9-.5 1.4 0 .4.3.7.6 1 .4.5 1.5 1.1 1.5 1.1zm-8.5 3.7L34 60.8s0 .8.2 1.2c.2.5 1.2 1.2 1.2 1.2l.2 4.4-2.4 4-.2.1 1.5.8h.2c1 0 1.5-1 2.3-1.5 1-.6 2-1 3.1-1.5a49.8 49.8 0 0110.4-3.1 29.4 29.4 0 016.1-.3c1.4.1 4 .7 4 .7.1 0 2.8-.6 4.1-.7a29.2 29.2 0 0112 1.7 49.8 49.8 0 017.7 3.2c.8.4 1.3 1.5 2.2 1.5h.2l1.6-.8h-.3l-2.3-4 .2-4.5s1-.7 1.2-1.2c.2-.4.2-1.2.2-1.2L85 57.5s-1.3 1.3-2 1.6h-1.4a17.4 17.4 0 01-4-3.4c-.5-.6-1.1-1.9-1.1-1.9s-2.7 2.1-4.3 2.5c-1.6.4-3.3.4-4.9-.1-.4-.1-1-.6-1-.6a8.7 8.7 0 00-5.5-1.7c-1.8-.1-3.7.5-5.5 1.7l-1 .6c-1.6.5-3.3.5-5 .1-1.5-.4-4.2-2.5-4.2-2.5l-1 1.8c-.9 1-1.8 1.8-2.8 2.5-.4.4-.8.8-1.3 1h-1.4c-.8-.3-2-1.6-2-1.6z" fill="#FFE000" fill-rule="nonzero"/>
        <path d="M87.1 56.2v-1.7l-.6-1.5-1.2-1.2m-.3 5.7h1l1.3-1.4s1.3 1 2 .9c.5-.1.8-.4 1-.8.2-.3.3-.7.2-1.1 0-.3-.3-.6-.6-.8-.4-.4-1.3-.3-1.6-.9-.2-.4 0-1 0-1.4.3-1 1-1.8 1.6-2.7.4-.5 1.1-.9 1.2-1.5 0-.4-.4-1-.4-1l-1.6.1c-.9.3-1.8.6-2.4 1.3-.5.5-.6 1.3-.9 2l-.5 1.6s-1.2 0-1.8.2c-.7.4-1.5.9-1.8 1.6-.2.6-.2 1.3 0 2 .2.5.7 1 1.3 1.4.6.3 2 .5 2 .5zm-48.7-5.7s-.9.7-1.2 1.2l-.6 1.5c-.2.5 0 1.7 0 1.7m-3.6-9.4s-.5.6-.4 1c0 .6.8 1 1.2 1.5.5.9 1.2 1.7 1.5 2.7.2.4.3 1 0 1.4-.3.6-1.1.5-1.6 1-.2.1-.5.4-.6.7 0 .4 0 .8.3 1.1.2.4.5.7.9.8.7 0 2.1-.9 2.1-.9s.7 1 1.3 1.3c.3.2 1 .1 1 .1s1.4-.2 2-.5a3 3 0 001.2-1.5c.3-.6.3-1.3 0-1.9-.3-.7-1-1.2-1.8-1.6-.5-.2-1.8-.2-1.8-.2l-.5-1.6c-.2-.7-.4-1.5-.9-2-.6-.7-1.5-1-2.3-1.3l-1.6-.1zm28.2 3l1.7-.5 1.7.5m-3 4.1s-1.3-1.2-1.6-2v-1.2c.3-.4 1.3-1 1.3-1s-1.5-.6-1.8-1.3c-.3-.4-.3-.9-.2-1.3.2-.7.7-1.3 1.2-1.7.7-.5 2.4-1 2.4-1s1.6.5 2.3 1c.5.4 1 1 1.2 1.7.1.4.1 1-.1 1.3-.4.7-1.8 1.4-1.8 1.4s1 .5 1.2 1c.1.3.2.7 0 1-.2.9-1.5 2.1-1.5 2.1l-1.3.1h-1.3zm4.7-5.5s2.8 1.1 3.7 2.3c.3.3.5.7.5 1 0 1.5-2.1 3.9-2.1 3.9L62 53.8h-2.7l-4.1 1.8s-2-2.4-2.1-3.8c0-.4.2-.8.4-1.1 1-1.2 3.8-2.3 3.8-2.3" fill="#FFE000" fill-rule="nonzero"/>
        <path d="M57.8 29.9l1.6-1.3h1.4-1.4s-.7-.5-1-1a2 2 0 01-.1-1.2c0-.5.4-1.1.9-1.4.4-.3 1.6 0 1.6 0s1.1-.3 1.6 0 .8.9 1 1.4c0 .4-.1.9-.3 1.3-.2.4-1 .9-1 .9h-1.3H62l1.7 1.3m10.9 1l-.6 1m6.8-4.2l-1.5.2m1.7 1.8l-2.4.2m-.3-2.9c.3.2.9.6 1 1a2 2 0 01-.7 1.9c-.5.4-1.9.3-1.9.3m-37.7 7l3.5-.9 5-1.2c2-.3 4-.6 5.9-.7 2.4-.2 7.3-.1 7.3-.1H68l5.8.8c1.7.3 3.4.8 5 1.2l3.6.9m-35.6-6.3l.5 1m-6.8-4.2l1.6.2m-1.8 1.8l2.4.2m-1.3 3.3l3.9-1a56.8 56.8 0 019.4-1.1h12A62 62 0 0180 33.2m-35.3-3s-1.5.1-2-.3a2 2 0 01-.6-2c.1-.4 1.1-1 1.1-1m13.1 15.4a45.7 45.7 0 00-15 2.8c-2.2.8-4.7 4.6-6.6 3-.4-.2.2-1 .4-1.5a9 9 0 011.6-2.6c.5-.5 1.6-.6 1.8-1.3 0-.6-.8-.9-1-1.4-.1-.7-.2-1.4 0-2 .2-1 1.3-1.4 1.6-2.2.2-.8-.6-1.6-.2-2.3.4-.9 2.3-.6 2.5-1.6 0-.4-.8-.6-1-1v-1c0-.5.2-1 0-1.4-.2-.4-.8-.5-1-.9 0-.3 0-.8.3-1 .2-.3.8 0 .9-.3.3-.5-.5-1-.8-1.6l-.8-2c-.1-.6-.6-1.5-.1-1.8.5-.3 1.1.7 1.6 1.1.7.5 1.5 1 2 1.7.4.6.2 1.4.6 1.8.6.5 1.6.1 2.2.6.5.4 1 1.2.8 1.8-.2.6-1.6.6-1.5 1.2.2.7 1.5.6 2.2.5.4 0 .7-.5 1-.7.3-.2.5-.5.8-.6l1.2-.2h-.5s-.6-.6-.7-1c0-.4.1-.8.3-1 .3-.3.8-.5 1.2-.5.3 0 .7.2 1 .4.2.3.3.6.3 1 0 .3-.3.6-.5.8-.3.2-1 .3-1 .3l.5.1 1.3 1.8 5.5-.3s.7-.7.6-1.1c-.2-.4-.6-.6-1.2-.5-1.8 0-2.2-1.4-2-2.5 0-1 1-1.5 1.9-1.9.8-.3 2.2.8 2.6 0 .3-.7-1.2-1-1.5-1.8v-1c.5-.7 1.3-1.2 2-1.6l1-.1 1.1.1c.8.4 1.6.9 2 1.6v1c-.2.7-1.7 1-1.4 1.8.3.8 1.8-.3 2.6 0 .8.4 1.9 1 2 1.9 0 1-.3 2.5-2.1 2.5-.7 0-1 0-1.2.5-.1.4.5 1 .5 1l5.5.4 1.3-1.8.5-.1s-.7-.1-1-.3c-.2-.2-.4-.5-.4-.8 0-.4 0-.7.3-1 .3-.2.6-.4 1-.4s.8.2 1.1.5c.3.2.4.6.4 1-.1.4-.8 1-.8 1h-.4s.8 0 1.1.2l.8.6 1 .7c.8.1 2 .2 2.2-.5.2-.6-1.3-.6-1.4-1.2-.2-.6.3-1.4.8-1.8.5-.5 1.6 0 2.1-.6.5-.4.3-1.2.7-1.8.4-.7 1.2-1.2 2-1.7.4-.4 1-1.4 1.6-1 .5.2 0 1.1-.1 1.7-.2.7-.6 1.3-.9 2-.2.5-1 1.1-.7 1.6 0 .3.6 0 .8.2.3.3.4.8.3 1.1-.1.4-.7.5-1 .9V32c-.1.5-1 .7-1 1.1.2 1 2.1.7 2.6 1.6.3.7-.4 1.5-.2 2.3.2.8 1.3 1.3 1.6 2.1.2.7.1 1.4-.1 2.1-.2.5-1 .8-1 1.4.2.7 1.4.8 1.9 1.3a9 9 0 011.6 2.6c.2.5.7 1.3.3 1.6-1.9 1.5-4.3-2.3-6.6-3.2a45.7 45.7 0 00-15-2.7l-4.3-.1h-4.4zM62.9 14.5h-4.2m3.5-7c.5-1.2-.4-2-1.4-2.9-1 .9-2 1.7-1.4 2.9m2.9 9.7c.8 0 1.8.9 2.4.3.3-.2.1-.7 0-1-.3-.8-1.7-1-1.8-1.9 0-.7 1-1 1.3-1.7v-1.1c-.6-1.4-3-1.5-3.4-2.9-.2-.6 1.2-1.3 1.4-1.4.9-.4 2 .5 2.9.2.6-.3 1.3-.9 1.2-1.6 0-.7-.7-1.3-1.4-1.5-1.3-.6-3.4 1.2-4.1 0-.7-1 1.8-2.3 1.4-3.5-.1-.6-1.4-1-1.4-1s-1.3.4-1.5 1c-.3 1.2 2.2 2.5 1.5 3.5-.8 1.2-2.9-.6-4.2 0-.6.2-1.4.8-1.4 1.5s.7 1.3 1.3 1.6c.9.3 2-.6 2.9-.2.2 0 1.6.8 1.4 1.4-.4 1.4-2.9 1.5-3.4 2.9-.2.3-.2.7 0 1 .2.8 1.3 1.1 1.3 1.8-.1.9-1.5 1-1.8 1.9-.2.3-.3.8 0 1 .6.6 1.6-.2 2.4-.3h3z" fill="#FFE000" fill-rule="nonzero"/>
        <path d="M80.5 88.8l-2.3-.9c-1.3-.5-2.7-1-4.1-1.3-1.4-.4-2.8-.8-4.2-1-3-.3-9.1 0-9.1 0s-6.1-.3-9.2 0c-1.4.2-2.7.6-4.1 1l-4.2 1.3-2.2 1M83 42.6l-3.7-1.5-3.3-1-4-.7a78.2 78.2 0 00-11.2-.7l-5.4.1a78.1 78.1 0 00-9.9 1.3l-3.2 1-3.7 1.5m-3 25l5.5-1.8c1.9-.6 3.8-1.3 5.7-1.7 2.3-.5 4.7-.8 7-1 2.4-.3 7-.5 7-.5s4.6.2 6.9.5c2.3.2 4.7.5 7 1A346.3 346.3 0 0186 67.7"/>
      </g>
      <g transform="translate(294.7 108.6)">
        <path d="M18.2 0l21 18-1.5 3.5c-.4 1.1-.8 2.3-1 3.4-.5 1.7-.9 5.1-.9 5.1L11.3 7.6c.4-5.1 3.2-7 7-7.6z" fill="#CCC" fill-rule="nonzero"/>
        <path fill="#CCC" fill-rule="nonzero" d="M15.3 11.2l-5 5.7 3 3-4.8 4.8-3.1-3.2L0 27.2v7l12 9.4 4.1-3-.2-6.8 3.2 1.8 3.2-2 .2 6-2.6-1.8-2.9 3.7-.3 6.7 9.1 8 11-9.7-.8-3-.5-2.6-.3-5.2.5-5.7z"/>
        <path fill="#CCC" fill-rule="nonzero" d="M10.2 16.9l-.1 6.2 3.2-3.2z"/>
        <path d="M26.3 49l-.4 7.2m-3.9-29l.2 6.6M19 30.2l.2 5.4m-3-7.6v6M12 37.2v6.3m5.2-2l9.2 7.7 9.3-8.2M.1 27l12 10.2 3.9-3.5-3.1-2.6 3.4-3.3 2.7 2.3 3-3 4 3.8-3.6 2.8 3.3 3-3.1 2.9"/>
        <path d="M94.6 67.5l10.1 9.3 2.2 6.5-13-1.4-7.4-7.3-7.8-7.3-34-29.5 1-4L48 28l.6-1.4 38 33.7 8 7.2z" fill="#CCC" fill-rule="nonzero"/>
        <path d="M103.2 69c5.6 7.8 15 15.2 18 18.8 2.8 3.5 4.7 7 .5 11.5-4.2 4.6-9 2-12.7-.6-3.7-2.5-10.3-10.6-19.7-16.8l13.9-13z" fill="#CCC" fill-rule="nonzero"/>
        <path d="M99.9 82.1l-7.3-3.3m8.5-8c.5 1.7.1 3.6.7 5.2.7 1.5 3 4.1 3 4.1s-1.5.2-2.2.5c-1 .3-2.5.5-2.7 1.6-.2.8.8 1.6 1.4 2.3.6.6 1.4 1.1 2.2 1.6 1.3.7 2.6 1.5 4 1.8 1.8.3 5.2-2.2 5.5-.4.2.7-1.5.3-2.2.6-1.6.8-2.4 2.5-1 3.7 1 .8 2.4.5 3.5.6 1.2.1 2.5-.6 3.5 0 1.1.7 2.6 2.3 2 3.5-.6 1.2-3 1.2-4.1.4-.9-.6-.7-2-.8-3v-.9" fill="#CCC" fill-rule="nonzero"/>
        <circle fill="#CCC" fill-rule="nonzero" cx="147.2" cy="119.6" r="26.9"/>
        <path d="M137.1 120.7a8.4 8.4 0 108.4 8.4l3-.1a8.4 8.4 0 108.3-8.4l.2-1.7a8.4 8.4 0 10-8.4-8.4l-3-.2a8.4 8.4 0 10-8.4 8.4v2z" fill="#F5F5F5" fill-rule="nonzero"/>
        <circle fill="#CCC" fill-rule="nonzero" cx="147.2" cy="112.5" r="3"/>
        <circle fill="#CCC" fill-rule="nonzero" cx="154.4" cy="119.6" r="3"/>
        <circle fill="#CCC" fill-rule="nonzero" cx="147.3" cy="126" r="3"/>
        <circle fill="#CCC" fill-rule="nonzero" cx="139.9" cy="119.6" r="3"/>
        <path d="M146.7 135.8a10.8 10.8 0 01-4.6 4.6c2.8 1.2 6.1 1 9.1 0a11 11 0 01-4.5-4.6zm-16-16.6a10.8 10.8 0 01-4.5-4.6c-1.1 2.8-1 6.1 0 9.1 1-2 2.5-3.3 4.6-4.5zm33.1.7c2.3-1 3.3-2.6 4.6-4.5 1.2 2.7 1 6 0 9a11 11 0 00-4.6-4.5zm-16.2-16.8a10.8 10.8 0 00-4.6-4.5c2.8-1.2 6.1-1 9.1 0a11 11 0 00-4.5 4.5z" fill="#F5F5F5" fill-rule="nonzero"/>
      </g>
      <g transform="translate(293.8 97.2)" fill="#FFE000" fill-rule="nonzero">
        <path d="M19.2 11.4s.1-1 0-1.6c-.2-.8-.7-1.5-1.4-2a4 4 0 00-1.9-1 5 5 0 00-2.3.2c-.5 0-1.4.6-1.4.6L9.2 9 8 12.6s-.6 1.1-.8 1.8c-.2.7-.3 1.4-.1 2 .2.9.6 1.7 1.3 2.2.6.5 1.4.8 2.1.8.6 0 1.7-.4 1.7-.4.4-3.8 2-6.8 7-7.6z"/>
        <path d="M12.3 7.6l-8-3.5-.7.6 4.4 8s1.2-1.9 2-2.7c.7-.9 2.3-2.4 2.3-2.4z"/>
        <circle cx="3.4" cy="3.4" r="3.3"/>
        <path d="M26 17.3c.7 5.8 1.5 11.6 3.3 17.4l6.5 5.9c-1.4-6-3.9-12.1-3.9-18.2l-6-5.1z"/>
        <path d="M35.7 25.6L18 24.3l5.6 5.2 16.2.7.2-.9zM57.6 45.2a12.8 12.8 0 00-7.9 7.7c-1.3.2-2.6.2-3-.8 1.1-7.2 6.3-9.5 7.4-10 3.1-.5 2.6 2 3.5 3.1zM63.3 50.6a12.8 12.8 0 00-7.9 7.7c-1.3.1-2.5.1-3-.8 1.1-7.2 6.3-9.5 7.4-10 3.1-.5 2.6 1.9 3.5 3.1zM128.2 105a15 15 0 00-3.1.3c0 1.6-.7 3.4-2.5 5.4a7 7 0 01-5 2.5s-.5 3.7.6 4.8c1.3 1.4 5.7.8 5.7.8l.3-.2a27 27 0 016.6-8.3l.1-.2s.6-3.5-.4-4.5c-.5-.5-1.4-.6-2.3 0v-.7z"/>
        <circle cx="168.8" cy="109.2" r="3.7"/>
        <circle cx="170.1" cy="151.7" r="3.7"/>
        <circle cx="128.9" cy="154.1" r="3.7"/>
      </g>
      <g transform="matrix(-1 0 0 1 466.4 108.6)">
        <path d="M18.2 0l21 18-1.5 3.5c-.4 1.1-.8 2.3-1 3.4-.5 1.7-.9 5.1-.9 5.1L11.3 7.6c.4-5.1 3.2-7 7-7.6z" fill="#FFE000" fill-rule="nonzero"/>
        <path fill="#FFE000" fill-rule="nonzero" d="M15.3 11.2l-5 5.7 3 3-4.8 4.8-3.1-3.2L0 27.2v7l12 9.4 4.1-3-.2-6.8 3.2 1.8 3.2-2 .2 6-2.6-1.8-2.9 3.7-.3 6.7 9.1 8 11-9.7-.8-3-.5-2.6-.3-5.2.5-5.7z"/>
        <path fill="#FFE000" fill-rule="nonzero" d="M10.2 16.9l-.1 6.2 3.2-3.2z"/>
        <path d="M26.3 49l-.4 7.2m-3.9-29l.2 6.6M19 30.2l.2 5.4m-3-7.6v6M12 37.2v6.3m5.2-2l9.2 7.7 9.3-8.2M.1 27l12 10.2 3.9-3.5-3.1-2.6 3.4-3.3 2.7 2.3 3-3 4 3.8-3.6 2.8 3.3 3-3.1 2.9"/>
        <path d="M94.6 67.5l10.1 9.3 2.2 6.5-13-1.4-7.4-7.3-7.8-7.3-34-29.5 1-4L48 28l.6-1.4 38 33.7 8 7.2z" fill="#FFE000" fill-rule="nonzero"/>
        <path d="M103.2 69c5.6 7.8 15 15.2 18 18.8 2.8 3.5 4.7 7 .5 11.5-4.2 4.6-9 2-12.7-.6-3.7-2.5-10.3-10.6-19.7-16.8l13.9-13z" fill="#FFE000" fill-rule="nonzero"/>
        <path d="M99.9 82.1l-7.3-3.3m8.5-8c.5 1.7.1 3.6.7 5.2.7 1.5 3 4.1 3 4.1s-1.5.2-2.2.5c-1 .3-2.5.5-2.7 1.6-.2.8.8 1.6 1.4 2.3.6.6 1.4 1.1 2.2 1.6 1.3.7 2.6 1.5 4 1.8 1.8.3 5.2-2.2 5.5-.4.2.7-1.5.3-2.2.6-1.6.8-2.4 2.5-1 3.7 1 .8 2.4.5 3.5.6 1.2.1 2.5-.6 3.5 0 1.1.7 2.6 2.3 2 3.5-.6 1.2-3 1.2-4.1.4-.9-.6-.7-2-.8-3v-.9" fill="#FFE000" fill-rule="nonzero"/>
        <circle fill="#FFE000" fill-rule="nonzero" cx="147.2" cy="119.6" r="26.9"/>
        <path d="M137.1 120.7a8.4 8.4 0 108.4 8.4l3-.1a8.4 8.4 0 108.3-8.4l.2-1.7a8.4 8.4 0 10-8.4-8.4l-3-.2a8.4 8.4 0 10-8.4 8.4v2z" fill="#F5F5F5" fill-rule="nonzero"/>
        <circle fill="#FFE000" fill-rule="nonzero" cx="147.2" cy="112.5" r="3"/>
        <circle fill="#FFE000" fill-rule="nonzero" cx="154.4" cy="119.6" r="3"/>
        <circle fill="#FFE000" fill-rule="nonzero" cx="147.3" cy="126" r="3"/>
        <circle fill="#FFE000" fill-rule="nonzero" cx="139.9" cy="119.6" r="3"/>
        <path d="M146.7 135.8a10.8 10.8 0 01-4.6 4.6c2.8 1.2 6.1 1 9.1 0a11 11 0 01-4.5-4.6zm-16-16.6a10.8 10.8 0 01-4.5-4.6c-1.1 2.8-1 6.1 0 9.1 1-2 2.5-3.3 4.6-4.5zm33.1.7c2.3-1 3.3-2.6 4.6-4.5 1.2 2.7 1 6 0 9a11 11 0 00-4.6-4.5zm-16.2-16.8a10.8 10.8 0 00-4.6-4.5c2.8-1.2 6.1-1 9.1 0a11 11 0 00-4.5 4.5z" fill="#F5F5F5" fill-rule="nonzero"/>
      </g>
      <g transform="matrix(-1 0 0 1 467.3 97.2)" fill="#CCC" fill-rule="nonzero">
        <path d="M19.2 11.4s.1-1 0-1.6c-.2-.8-.7-1.5-1.4-2a4 4 0 00-1.9-1 5 5 0 00-2.3.2c-.5 0-1.4.6-1.4.6L9.2 9 8 12.6s-.6 1.1-.8 1.8c-.2.7-.3 1.4-.1 2 .2.9.6 1.7 1.3 2.2.6.5 1.4.8 2.1.8.6 0 1.7-.4 1.7-.4.4-3.8 2-6.8 7-7.6z"/>
        <path d="M12.3 7.6l-8-3.5-.7.6 4.4 8s1.2-1.9 2-2.7c.7-.9 2.3-2.4 2.3-2.4z"/>
        <circle cx="3.4" cy="3.4" r="3.3"/>
        <path d="M26 17.3c.7 5.8 1.5 11.6 3.3 17.4l6.5 5.9c-1.4-6-3.9-12.1-3.9-18.2l-6-5.1z"/>
        <path d="M35.7 25.6L18 24.3l5.6 5.2 16.2.7.2-.9zM57.6 45.2a12.8 12.8 0 00-7.9 7.7c-1.3.2-2.6.2-3-.8 1.1-7.2 6.3-9.5 7.4-10 3.1-.5 2.6 2 3.5 3.1zM63.3 50.6a12.8 12.8 0 00-7.9 7.7c-1.3.1-2.5.1-3-.8 1.1-7.2 6.3-9.5 7.4-10 3.1-.5 2.6 1.9 3.5 3.1zM128.2 105a15 15 0 00-3.1.3c0 1.6-.7 3.4-2.5 5.4a7 7 0 01-5 2.5s-.5 3.7.6 4.8c1.3 1.4 5.7.8 5.7.8l.3-.2a27 27 0 016.6-8.3l.1-.2s.6-3.5-.4-4.5c-.5-.5-1.4-.6-2.3 0v-.7z"/>
        <circle cx="168.8" cy="109.2" r="3.7"/>
        <circle cx="170.1" cy="151.7" r="3.7"/>
        <circle cx="128.9" cy="154.1" r="3.7"/>
      </g>
      <g fill-rule="nonzero">
        <g fill="#FA0204">
          <path d="M382.6 165c0 1.1-1 1.5-2.7 1.5-1.8 0-2.7-.5-2.7-1.6s.9-1.4 2.7-1.4c1.8 0 2.7.4 2.7 1.5zM384 168c0 1-1 1.5-2.8 1.5-1.8 0-2.6-.5-2.6-1.6s.8-1.4 2.6-1.4 2.8.4 2.8 1.5z"/>
          <path d="M384.3 171.8c-.4 1-1.4 1.2-3 .6-1.8-.6-2.4-1.4-2-2.4.3-1 1.2-1 3-.5 1.6.6 2.4 1.3 2 2.3zM384.4 174.7c-.3 1-1.3 1.3-3 1-1.8-.4-2.5-1-2.3-2.2.2-1 1-1.2 2.9-.8 1.7.4 2.6.9 2.4 2zM385.2 178c-.2 1.1-1.2 1.4-3 1-1.8-.3-2.5-1-2.3-2.1.2-1.1 1.1-1.2 2.9-.9 1.8.4 2.6 1 2.4 2zM393.5 173.4c-.5-.2-.4-1.1-.3-1.6.2-.9 1.7-2 1.7-2s.4 1.2.2 1.8c-.2.7-.8 2-1.6 1.8z"/>
          <path d="M391.6 175c-.6 0-.7-1-.5-1.6.2-1 2-2 2-2s.3 1.3 0 1.9c-.2.7-.7 2-1.5 1.8z"/>
          <path d="M389.3 178.3c-.9-.2-.8-1.8-.5-2.7.2-.7.8-1.9 1.5-1.7.9.2.8 1.7.6 2.6-.2.8-.8 2-1.6 1.8z"/>
          <path d="M386.7 180.9c-.9-.2-1.3-1.6-1-2.5 0-1 1-2.2 2-2 .9.2 1.2 1.8 1 2.7-.2.9-1.2 2-2 1.8zM386.2 182.4c-.2 1-1.5 1.4-2.4 1.1-.8-.2-2-1.4-1.7-2.6.2-1 1.7-1.4 2.5-1 .9.3 1.8 1.4 1.6 2.5zM368.6 172.2s1 .5 1.5 1c.5.4 1 .6.8 1.4-.3.7-1.2.5-1.7 0s-.6-2.4-.6-2.4zM373.8 174c1.1.2 1.1 1.5.5 2.2-.5.8-2.2 1.9-3.3 1.7-1.2-.3-1-1.6-.4-2.5.6-.7 2.2-1.6 3.2-1.4zM377.5 176.4c1 .4.7 1.6 0 2.3-.8.6-2.7 1.3-3.7.8s-.6-1.8.2-2.4c.7-.6 2.5-1.2 3.5-.7zM380.4 178.6c1 .4.7 1.7 0 2.3-.8.6-2.7 1.3-3.7.8-1-.4-.6-1.8.2-2.4.7-.6 2.5-1.2 3.5-.7z"/>
          <path d="M381.3 180.5c1 .2 1.3 1.6 1 2.5-.3.9-1.6 2.2-2.6 2-1-.1-1.2-1.7-.9-2.6.4-.9 1.6-2 2.5-1.9z"/>
          <path d="M383.9 183.6c.8.5.6 2 0 2.8-.5.9-2 1.8-2.9 1.3-.8-.5-.5-2.2 0-3 .6-.8 2-1.6 2.9-1.1zM366 175.3c.9 0 1.5 1.2 1.5 2.2 0 1-.7 2.6-1.6 2.7-1 0-1.6-1.4-1.5-2.5 0-.9.7-2.3 1.6-2.4z"/>
          <path d="M368.9 177.8c.8.2 1 1.7.7 2.6-.3 1-1.4 2.2-2.3 2-1-.2-1-1.8-.7-2.7.3-1 1.4-2 2.3-1.9z"/>
          <path d="M371.5 179.6c1 .3 1.3 2 1 3.2-.5 1.2-1.8 2.8-2.9 2.5-1-.2-1.2-2.2-.7-3.4.4-1.1 1.6-2.5 2.6-2.3z"/>
          <path d="M373.7 181.8c1-.1 1.9 1.5 2 2.7 0 1.2-.7 3.2-1.8 3.3-1 .1-1.9-1.6-1.9-3 0-1 .7-2.9 1.7-3z"/>
          <path d="M376.3 183.7c1-.2 1.7 1.2 1.7 2.1 0 1-.5 2.7-1.5 2.8-1 .1-1.8-1.4-1.8-2.4s.6-2.4 1.6-2.5z"/>
          <path d="M379 185.8c.9-.1 1.6 1.2 1.7 2.2 0 1-.6 2.7-1.6 2.8-1 0-1.7-1.4-1.7-2.4s.6-2.5 1.5-2.6zM395.1 180.6c-.7.6-2 0-2.6-.6-.7-.7-1.1-2.2-.4-2.8.7-.6 2.1 0 2.7.7.6.7 1 2.1.3 2.7z"/>
          <path d="M393.6 183.2c-.6.6-2 .1-2.6-.6-.6-.7-1-2.1-.3-2.8.7-.6 2 0 2.7.8.6.7 1 2 .2 2.6zM391 185.5c-.6.5-2 0-2.6-.6-.6-.7-1-2.2-.3-2.8.7-.7 2.1 0 2.7.7.6.7 1 2 .3 2.7z"/>
          <path d="M390.1 186.9c-.2.8-1.6 1.1-2.5 1-1-.3-2.1-1.3-1.9-2.2.3-1 1.8-1.2 2.7-.9.9.3 2 1.2 1.7 2z"/>
          <path d="M386.4 186.3c.7.5.5 2.1 0 3-.5 1-1.8 2-2.6 1.5-.8-.6-.6-2.4 0-3.3.5-.9 1.8-1.8 2.6-1.2z"/>
          <path d="M382.7 188.2c.8.5.6 2 .1 2.8-.6.9-2 1.8-3 1.3-.8-.5-.5-2.1.1-3 .6-.8 2-1.6 2.8-1.1zM374.8 193.5c-.7.6-.2 2.3.5 3.1.8.9 2.5 1.7 3.2 1 .8-.7 0-2.5-.7-3.3-.8-.8-2.3-1.5-3-.8z"/>
          <path d="M373.3 196.3c-.8.7-.2 2.4.5 3.2.8.9 2.5 1.7 3.2 1 .8-.7 0-2.5-.7-3.4-.8-.8-2.4-1.4-3-.8z"/>
          <path d="M372.6 199c-1 .3-1 2.1-.6 3.1.3 1.1 1.6 2.5 2.5 2.1 1-.4 1-2.3.6-3.4-.4-1-1.6-2.2-2.5-1.8z"/>
          <path d="M370.4 202c-.9.4-1 2.2-.6 3.2.4 1.1 1.6 2.5 2.6 2.1 1-.4 1-2.3.5-3.4-.4-1-1.6-2.2-2.5-1.8z"/>
          <path d="M368.8 205.5c-1 .2-1.3 2-1.1 3 .2 1.2 1.2 2.7 2.2 2.5 1-.2 1.4-2.1 1.1-3.2-.2-1.1-1.2-2.5-2.2-2.3z"/>
          <path d="M366.7 208.8c-1 .2-1.3 2-1.1 3 .2 1.2 1.2 2.7 2.2 2.5 1-.2 1.4-2 1.1-3.2-.2-1.1-1.2-2.5-2.2-2.3z"/>
          <path d="M365 212.2c-1 0-1.7 1.7-1.7 2.8 0 1.1.7 2.9 1.7 2.8 1 0 1.7-1.8 1.7-3 0-1-.8-2.6-1.7-2.6z"/>
          <path d="M362.8 216.2c-1 0-1.7 1.6-1.7 2.7 0 1.2.8 3 1.8 2.9 1 0 1.7-1.8 1.6-3 0-1.1-.7-2.6-1.7-2.6z"/>
          <path d="M360.3 219.9c-1 0-1.7 1.6-1.7 2.8 0 1.1.8 2.8 1.8 2.8s1.7-1.8 1.6-3c0-1.1-.7-2.6-1.7-2.6z"/>
          <path d="M357.7 223c-1 .1-1.6 1.7-1.6 2.8 0 1.2.7 3 1.7 2.9 1 0 1.7-1.9 1.6-3 0-1.1-.7-2.7-1.7-2.6z"/>
          <path d="M355 226c-1 0-1.6 1.7-1.6 2.8 0 1.1.7 2.9 1.7 2.8 1 0 1.7-1.8 1.7-3 0-1-.8-2.6-1.8-2.6z"/>
          <path d="M352 228.4c-.9 0-1.6 1.7-1.6 2.8 0 1.2.7 2.9 1.8 2.8 1 0 1.7-1.8 1.6-3 0-1-.7-2.6-1.7-2.6z"/>
          <path d="M349.3 231c-1 0-1.7 1.7-1.7 2.8 0 1.1.7 2.9 1.7 2.8 1 0 1.7-1.8 1.7-3 0-1-.8-2.6-1.7-2.6z"/>
          <path d="M346 232.3l-1 4.3s.5 1.5 1.2 1.5c1.1-.2 1.4-2 1.6-3 .2-1.8-1.8-2.8-1.8-2.8zM413.3 235c.4 1.3 3.2 2.4 3.2 2.4l-1.4-5.8c-1.2 0-2 2.6-1.8 3.4z"/>
          <path d="M413.1 230.4c-1-.4-2.2.8-2.6 1.9-.5 1-.5 2.9.4 3.3 1 .3 2.3-1 2.7-2.1.4-1 .4-2.7-.5-3z"/>
          <path d="M410 227.9c-1 0-1.9 1.4-2 2.6 0 1.1.5 2.9 1.5 3 1 0 1.9-1.7 2-2.9 0-1-.6-2.7-1.6-2.7z"/>
          <path d="M407.2 225c-1 0-1.8 1.5-2 2.6 0 1.2.5 3 1.5 3s1.9-1.7 2-2.8c0-1.1-.6-2.7-1.5-2.8z"/>
          <path d="M404.6 221.8c-1 0-1.8 1.5-2 2.6 0 1.1.5 3 1.5 3s1.9-1.7 2-2.9c0-1-.6-2.7-1.5-2.7z"/>
          <path d="M402 219c-1 0-1.9 1.6-2 2.7-.1 1.1.5 3 1.5 3s1.8-1.7 2-2.9c0-1-.6-2.7-1.6-2.7z"/>
          <path d="M399.8 215.3c-1 0-1.8 1.5-2 2.6 0 1.2.5 3 1.5 3s1.9-1.6 2-2.8c0-1.1-.6-2.7-1.5-2.8z"/>
          <path d="M397.4 212c-1 0-1.8 1.5-1.9 2.6 0 1.2.5 3 1.5 3s1.9-1.7 2-2.9c0-1-.6-2.7-1.6-2.7z"/>
          <path d="M395.3 208.5c-1 0-1.8 1.5-2 2.6 0 1.1.5 2.9 1.6 3 1 0 1.8-1.7 1.9-2.9 0-1-.6-2.7-1.5-2.7z"/>
          <path d="M393.4 204.4c-1-.1-1.8 1.4-2 2.6 0 1.1.5 2.9 1.6 3 1 0 1.8-1.7 1.9-2.9 0-1.1-.5-2.7-1.5-2.7z"/>
          <path d="M391.3 200.6c-1 0-1.8 1.5-1.9 2.6-.1 1.2.5 3 1.5 3s1.8-1.7 1.9-2.8c0-1.1-.5-2.7-1.5-2.8z"/>
          <path d="M389.6 196.2c-1 0-1.8 1.5-2 2.6 0 1.2.5 3 1.6 3 1 0 1.8-1.7 1.9-2.9 0-1-.5-2.6-1.5-2.7z"/>
          <path d="M385.7 191.7s-.4 5.6 1.6 6c1.3.1 2.3-3.2 2.3-3.2l-4-2.8zM381.1 255.3c-.6.7.2 2.3 1 3 1 .8 2.7 1.3 3.4.5.6-.8-.3-2.5-1.3-3.2-.8-.7-2.5-1-3-.3z"/>
          <path d="M385 254.8c-.7.8.1 2.4 1 3 .9.8 2.6 1.4 3.3.6.6-.8-.3-2.5-1.3-3.2-.8-.7-2.5-1.1-3-.4z"/>
          <path d="M388.8 254c-.6.8.2 2.4 1 3.1.9.8 2.7 1.3 3.3.5.6-.8-.3-2.5-1.2-3.2-.9-.7-2.5-1.1-3.1-.3z"/>
          <path d="M392.4 253.8c-.5.9.5 2.3 1.5 2.9 1 .6 2.8.9 3.3 0 .5-1-.7-2.4-1.7-3-1-.5-2.7-.7-3.1.1z"/>
          <path d="M396.5 253.2c-.4.8.6 2.2 1.5 2.8 1 .6 2.9 1 3.3 0 .5-.9-.6-2.4-1.7-3-.9-.5-2.6-.7-3 .2z"/>
          <path d="M400.1 252c-.4 1 .8 2.3 1.8 2.8s2.9.6 3.3-.3c.4-1-1-2.3-2-2.8s-2.7-.5-3 .4z"/>
          <path d="M404 251c-.3.8.8 2.2 1.8 2.6 1 .6 2.9.7 3.3-.3.4-1-.9-2.3-2-2.8-1-.4-2.7-.4-3 .4z"/>
          <path d="M408 249.7c-.4.9.8 2.2 1.9 2.6 1 .5 2.9.4 3.2-.5.4-1-1-2.3-2-2.7-1.1-.4-2.8-.3-3.1.6z"/>
          <path d="M412 248.4c-.4 1 .8 2.2 1.8 2.6 1.1.5 3 .5 3.3-.5.4-1-1-2.3-2.1-2.7-1-.4-2.7-.3-3 .6z"/>
          <path d="M415.8 246.8c-.4.9.9 2.2 1.9 2.6 1 .4 3 .4 3.3-.5.3-1-1-2.3-2.2-2.7-1-.4-2.7-.3-3 .6zM419.9 245c-.4 1 .9 2.3 1.9 2.7 1 .4 3 .4 3.3-.5.3-1-1-2.3-2.1-2.7-1-.4-2.8-.3-3.1.6z"/>
          <path d="M424 243.8c-.3.9 1 2.1 2 2.6 1 .4 2.9.4 3.2-.6.4-1-1-2.2-2-2.6-1.1-.4-2.8-.3-3.2.6z"/>
          <path d="M424.5 240.5c-.3.9 1 2.2 2 2.6 1 .4 2.9.4 3.2-.5.4-1-1-2.3-2.1-2.7-1-.4-2.7-.3-3 .6zM423.6 239.5s2.8.4 3-.6c.4-1.3-3.1-2.6-3.1-2.6l.1 3.2zM347.9 248c-.9.5-.7 2.2-.1 3.2.5 1 2 2.1 2.9 1.6.8-.5.5-2.4 0-3.4-.6-1-2-2-2.8-1.4z"/>
          <path d="M351.8 249.6c-.8.5-.7 2.2-.1 3.2s2 2.2 3 1.6c.8-.5.5-2.4-.1-3.4s-2-2-2.8-1.4z"/>
          <path d="M355.5 250.2c-.8.5-.6 2.2 0 3.2.5 1 2 2.1 2.9 1.6.8-.5.5-2.4 0-3.4-.7-1-2-2-2.9-1.4zM359.6 251.2c-.8.5-.6 2.2 0 3.2.5 1 2 2.2 2.9 1.6.8-.5.5-2.4 0-3.4-.6-1-2-2-2.9-1.4z"/>
          <path d="M363.4 251.7c-.9.5-.7 2.3-.1 3.2.5 1 2 2.2 2.9 1.7.9-.6.6-2.5 0-3.5s-2-1.9-2.8-1.4z"/>
          <path d="M367 252.5c-.8.5-.6 2.2 0 3.2.5 1 2 2.2 2.8 1.6 1-.5.6-2.4 0-3.4s-2-2-2.8-1.4z"/>
          <path d="M370.8 253.5c-.9.5-.7 2.3-.1 3.2.5 1 2 2.2 2.9 1.6.9-.5.6-2.4 0-3.4s-2-1.9-2.8-1.4z"/>
          <path d="M374.5 254.2c-.9.5-.7 2.2-.1 3.2s2 2.2 2.9 1.6c.9-.5.6-2.4 0-3.4s-2-2-2.8-1.4z"/>
          <path d="M378.3 254.8c-.9.5-.7 2.2-.1 3.2s2 2.1 2.9 1.6c.9-.5.6-2.4 0-3.4s-2-2-2.8-1.4zM336.8 236c-1-.5-2.3.5-2.9 1.5-.5 1-.7 2.9.2 3.3.9.5 2.3-.7 2.9-1.8.5-1 .6-2.6-.2-3z"/>
          <path d="M335.5 239.4c-1-.3-2.2 1-2.6 2-.4 1-.4 3 .6 3.2 1 .4 2.2-1 2.6-2.1.4-1 .3-2.8-.6-3z"/>
          <path d="M336.7 242.6c-1-.2-2.1 1.2-2.4 2.2-.4 1.1-.1 3 .8 3.2 1 .3 2.2-1.2 2.5-2.4.3-1 0-2.7-1-3z"/>
          <path d="M339.7 244c-1-.3-2.1 1-2.4 2-.4 1.2-.3 3 .7 3.3 1 .3 2.2-1.2 2.5-2.3.3-1 .1-2.8-.8-3z"/>
          <path d="M341.7 244.5c-1 .2-1.3 2-1 3 .2 1.2 1.2 2.7 2.2 2.5 1-.3 1.3-2.2 1-3.3-.3-1-1.3-2.4-2.2-2.2z"/>
          <path d="M345.2 245.8c-1 .2-1.3 2-1.1 3 .2 1.2 1.3 2.7 2.3 2.4 1-.2 1.3-2 1-3.2-.3-1-1.3-2.4-2.2-2.2zM376.6 191.1c-.7.7-.2 2.4.5 3.2.8.9 2.5 1.7 3.2 1 .8-.7 0-2.5-.7-3.4-.8-.8-2.3-1.4-3-.8z"/>
          <path d="M375.7 194.8c-.7.7-.1 2.3.6 3.2.8.8 2.5 1.7 3.2 1 .7-.8 0-2.5-.7-3.4-.8-.8-2.4-1.5-3-.8z"/>
          <path d="M375.8 199c-.7.7-.2 2.3.6 3.2.7.8 2.4 1.6 3.2 1 .7-.8 0-2.6-.8-3.4-.7-.8-2.3-1.5-3-.8zM375.7 203.4c-.7.7-.1 2.3.6 3.2.8.8 2.5 1.6 3.2 1 .7-.8 0-2.6-.7-3.4-.8-.8-2.4-1.5-3-.8z"/>
          <path d="M376 207.7c-.8.7-.2 2.3.5 3.2.8.8 2.5 1.6 3.2 1 .7-.8 0-2.6-.8-3.4-.7-.8-2.3-1.5-3-.8zM375.2 211.7c-.7.6-.1 2.3.6 3.1.8 1 2.5 1.7 3.2 1 .7-.7 0-2.5-.8-3.3-.7-.8-2.3-1.5-3-.8z"/>
          <path d="M375.7 216c-.7.8-.1 2.4.6 3.3.8.8 2.5 1.6 3.2 1 .7-.8 0-2.6-.7-3.4-.8-.8-2.4-1.5-3-.8z"/>
          <path d="M375.2 219.7c-.7.7-.1 2.3.6 3.2.8.8 2.5 1.6 3.2 1 .7-.8 0-2.6-.8-3.4-.7-.8-2.3-1.5-3-.8z"/>
          <path d="M375.7 223.2c-.7.7-.1 2.4.6 3.2.8.9 2.5 1.7 3.2 1 .7-.7 0-2.5-.7-3.4-.8-.8-2.4-1.4-3-.8z"/>
          <path d="M375.7 227.5c-.7.6-.1 2.3.6 3.1.8 1 2.5 1.7 3.2 1 .7-.7 0-2.5-.7-3.3-.8-.8-2.4-1.5-3-.8z"/>
          <path d="M375.5 231.6c-.7.7-.2 2.4.6 3.2.7.9 2.4 1.7 3.1 1 .8-.7.1-2.5-.7-3.4-.8-.8-2.3-1.4-3-.8z"/>
          <path d="M375.5 235.6c-.7.7-.1 2.4.6 3.2.8.9 2.5 1.7 3.2 1 .8-.8 0-2.5-.7-3.4-.8-.8-2.4-1.5-3-.8z"/>
          <path d="M375.7 239.8c-.7.7-.2 2.4.5 3.2.8.9 2.5 1.7 3.2 1 .8-.7.1-2.5-.7-3.4-.8-.8-2.3-1.4-3-.8z"/>
          <path d="M375.7 244c-.7.6-.2 2.3.5 3.1.8.9 2.5 1.7 3.2 1 .8-.7.1-2.5-.7-3.3-.8-.8-2.3-1.5-3-.8z"/>
          <path d="M375.5 248c-.7.7-.1 2.4.6 3.2.8.9 2.5 1.7 3.2 1 .8-.7 0-2.5-.7-3.3-.8-.8-2.4-1.5-3-.8z"/>
          <path d="M375.3 252.2c-.7.7-.2 2.4.6 3.2.7.9 2.4 1.7 3.2 1 .7-.7 0-2.5-.8-3.4-.7-.8-2.3-1.4-3-.8zM375.3 256.8c-.7.6-.2 2.3.6 3.1.7 1 2.4 1.7 3.2 1 .7-.7 0-2.5-.8-3.3-.7-.8-2.3-1.5-3-.8zM375.2 261.5c-.7.7-.2 2.4.5 3.2.8.9 2.5 1.7 3.2 1 .8-.8 0-2.5-.7-3.4-.8-.8-2.3-1.4-3-.8zM375.2 266c-.7.6-.2 2.3.5 3.1.8.9 2.5 1.7 3.2 1 .8-.7 0-2.5-.7-3.4-.8-.8-2.3-1.4-3-.8z"/>
          <path d="M375.2 270c-.7.7-.2 2.4.5 3.2.8.9 2.5 1.7 3.2 1 .8-.7 0-2.5-.7-3.4-.8-.8-2.3-1.4-3-.8zM375 274.7c-.7.6-.1 2.3.6 3.1.8.9 2.5 1.7 3.2 1 .7-.7 0-2.5-.7-3.3-.8-.8-2.4-1.5-3-.8zM385.3 191.4c.5.8-.2 2.3-1 3-.9.6-2.5 1-3 .3-.6-.9.3-2.4 1.2-3 .8-.7 2.3-1 2.8-.3z"/>
          <path d="M385.9 194.8c.5.8-.3 2.2-1 2.9-1 .7-2.5 1.1-3 .3-.6-.8.3-2.4 1.2-3 .8-.6 2.3-1 2.8-.2z"/>
          <path d="M385.8 198.5c.5.8-.2 2.3-1 3-.9.6-2.5 1-3 .2-.6-.8.4-2.3 1.2-3 .8-.6 2.3-1 2.8-.2z"/>
          <path d="M385.8 202.3c.5.8-.3 2.3-1 2.9-1 .7-2.6 1.1-3.1.3s.4-2.3 1.3-3c.8-.6 2.3-1 2.8-.2z"/>
          <path d="M385.7 205.8c.5.7-.3 2.2-1 2.9-.9.7-2.5 1.1-3 .3-.6-.8.3-2.4 1.2-3 .8-.6 2.3-1 2.8-.2zM385.9 209.5c.5.8-.3 2.3-1 3-1 .6-2.5 1-3 .2-.6-.8.3-2.3 1.2-3 .8-.6 2.3-1 2.8-.2z"/>
          <path d="M385.7 213.1c.5.8-.3 2.3-1.1 3-.9.6-2.5 1-3 .2-.6-.8.4-2.3 1.2-3 .8-.6 2.3-1 2.9-.2z"/>
          <path d="M385.5 217c.6.7-.3 2.3-1.1 3-1 .6-2.8 1.1-3.4.3-.5-.9.5-2.5 1.4-3.2 1-.6 2.6-1 3.1-.2z"/>
          <path d="M385.3 220.6c.7.6.2 2.3-.6 3.1-.7 1-2.4 1.7-3.2 1-.7-.7 0-2.5.8-3.3.7-.8 2.3-1.5 3-.8z"/>
          <path d="M385.4 224.8c.7.7.2 2.3-.5 3.2-.8.9-2.5 1.7-3.2 1-.8-.8 0-2.5.7-3.4.8-.8 2.3-1.5 3-.8z"/>
          <path d="M385.5 229c.7.6.2 2.3-.6 3.1-.8 1-2.4 1.7-3.2 1-.7-.7 0-2.5.8-3.3.7-.8 2.3-1.5 3-.8zM385.4 233.5c.7.6.1 2.3-.6 3.1-.8 1-2.5 1.7-3.2 1-.7-.7 0-2.5.8-3.3.7-.8 2.3-1.5 3-.8z"/>
          <path d="M385.5 237.6c.7.7.2 2.4-.6 3.2-.8.9-2.4 1.7-3.2 1-.7-.7 0-2.5.8-3.4.7-.8 2.3-1.4 3-.8z"/>
          <path d="M385.4 241.9c.7.6.1 2.3-.6 3.1-.8 1-2.5 1.7-3.2 1-.7-.7 0-2.5.8-3.3.7-.8 2.3-1.5 3-.8z"/>
          <path d="M385.4 246.1c.7.7.2 2.3-.5 3.2-.8.8-2.5 1.7-3.2 1-.8-.8 0-2.5.7-3.4.8-.8 2.3-1.5 3-.8z"/>
          <path d="M385.4 250.4c.7.7.2 2.3-.5 3.2-.8.8-2.5 1.6-3.2 1-.8-.8 0-2.6.7-3.4.8-.8 2.3-1.5 3-.8z"/>
          <path d="M385.2 254.7c.7.7.2 2.3-.5 3.2-.8.8-2.5 1.6-3.2 1-.8-.8 0-2.6.7-3.4.8-.8 2.3-1.5 3-.8z"/>
          <path d="M385.5 258.6c.7.7.2 2.3-.6 3.2-.8.9-2.4 1.7-3.2 1-.7-.8 0-2.5.8-3.4.7-.8 2.3-1.5 3-.8z"/>
          <path d="M385.5 262.7c.7.7.2 2.4-.6 3.2-.8.9-2.4 1.7-3.2 1-.7-.7 0-2.5.8-3.4.7-.8 2.3-1.4 3-.8z"/>
          <path d="M385.4 267.1c.7.7.1 2.4-.6 3.2-.8.9-2.5 1.7-3.2 1-.7-.7 0-2.5.8-3.4.7-.8 2.3-1.4 3-.8zM385.4 271.5c.7.7.1 2.3-.6 3.2-.8.8-2.5 1.6-3.2 1-.7-.8 0-2.6.8-3.4.7-.8 2.3-1.5 3-.8z"/>
        </g>
        <g transform="translate(377.5 275.9)">
          <path d="M1 28.7a16 16 0 0010 0L7.6 23" fill="#FA0204"/>
          <path d="M9.1 13.7L2.5 12s.1-7.3 4.3-6.6c3.4.5 2.4 8.3 2.3 8.3z" fill="#FFE000"/>
          <circle fill="#FFE000" cx="5.9" cy="2.7" r="2.7"/>
          <path d="M8.5 17c1.5 3.7 2.4 6.9 1 11m1.6.8c-2.2-1.7-7.6-1.2-10-.1-1 0-3.4-17.3 5.3-16.8 8 .3 5.2 17 4.7 16.9z" fill="#FA0204"/>
        </g>
        <g transform="translate(370.2 279)">
          <path d="M1.2 29.3c4 2.6 7.7 2.3 11.3.1L4 20.7" fill="#FA0204"/>
          <circle fill="#FFE000" cx="7.1" cy="2.8" r="2.7"/>
          <path d="M10.4 11.4l-6.8-.1s-1-5.5 3.3-5.8c3.5-.2 3.6 6 3.5 6z" fill="#FFE000"/>
          <path d="M7.1 28.2a20.6 20.6 0 01-1-10.3M4 28.3c-1.6-2.7-2-6.2-.7-10.6m9 11.8c-1-1.3-8.3-1.9-11.2-.1-1 0-3.8-19.5 6-19 9 .4 5.9 19.2 5.2 19z" fill="#FA0204"/>
        </g>
      </g>
    </g>
    <path d="M38.3.5A38.3 38.3 0 000 39v258.7A38.3 38.3 0 0038.3 336H256V.5H38.3z" fill="#FFE15A" fill-rule="nonzero"/>
  </g>
</svg>