<svg width="512" height="336" xmlns="http://www.w3.org/2000/svg"><g fill="none" fill-rule="evenodd"><path fill="#FFE15A" d="M114.76.277h282.48v335.45H114.76z"/><path d="M473.655 335.721c21.177 0 38.345-17.167 38.345-38.345V38.618C512 17.441 494.833.273 473.655.273h-76.414v335.448h76.414z" fill="#3CA100"/><path d="M38.345 335.721h76.414V.273H38.345C17.167.273 0 17.44 0 38.618v258.759c0 21.177 17.167 38.344 38.345 38.344z" fill="#4173CD"/><g fill="#3CA100"><path d="M191.886 163.475l28.636 57.271 28.636-57.271-28.636-57.271zM262.844 163.475l28.635 57.271 28.636-57.271-28.636-57.271zM227.364 232.326L256 289.597l28.636-57.271L256 175.056z"/></g></g></svg>