<svg width="512" height="336" xmlns="http://www.w3.org/2000/svg"><g fill="none" fill-rule="evenodd"><path d="M473.655 335.724H38.346c-21.177 0-38.345-17.167-38.345-38.345V38.622C.001 17.445 17.168.277 38.346.277h435.309C494.832.277 512 17.444 512 38.622V297.38c0 21.177-17.167 38.344-38.345 38.344z" fill="#3741CF"/><path d="M150.069 53.849V.277h-44.138V53.85L26.845 2.035c-9.234 2.9-16.954 9.203-21.711 17.434L70.156 62.07H.001v44.138h70.153L.001 152.169v7.033a8.827 8.827 0 0 0 8.826 8.797H24.16l81.77-53.572V168h44.138v-53.573L231.838 168h15.333a8.829 8.829 0 0 0 8.828-8.828v-7.002l-70.155-45.963h70.155V62.07h-70.155l70.155-45.964V9.104a8.828 8.828 0 0 0-8.823-8.828h-15.338l-81.769 53.573z" fill="#F5F5F5"/><g fill="#E6000D"><path d="M255.999 70.897H141.241V.277h-26.483v70.62H0V97.38h114.758v70.621h26.483V97.38h114.758z"/><path d="M8.228 14.903l72.661 47.166h16.214L14.608 8.519a38.61 38.61 0 0 0-6.38 6.384zM166.283 62.07l88.374-57.366c-1.536-2.599-4.246-4.427-7.485-4.427h-1.909L150.069 62.07h16.214zM89.474 106.208L1.269 163.462c1.519 2.663 4.273 4.537 7.559 4.537h1.665l95.195-61.793H89.474v.002zM255.859 159.866l-82.666-53.658H156.98l93.873 60.934c2.813-1.305 4.741-4.04 5.006-7.276z"/></g><path d="M387.75 83.125h-57.796v105.393c0 23.798 57.796 47.597 57.796 47.597s57.796-23.798 57.796-47.597V83.125H387.75z" fill="#3CA100"/><path d="M353.913 163.543s-.324-1.119-.036-2.13c.289-1.011-.454-1.938-.614-2.815-.433-2.382 1.588-2.996 1.696-5.124 0 0 1.443 1.48.903 2.888-.541 1.408.794 1.624.614 2.959-.181 1.335-1.661 2.743-1.516 3.934l-1.047.288z" fill="#E6000D"/><path d="M376.637 161.281c-1.181-1.476-3.252.114-4.768 1.27-.211.162-.39.286-.577.422l-5.592-8.259c.157-.236.27-.503.27-.807a1.49 1.49 0 1 0-2.98 0c0 .305.114.572.27.807l-5.769 8.519h-4.085s-.169 2.539 4.291 2.847a5.144 5.144 0 0 0 2.377 1.956c-.461.075-.833.431-.833.914v.597c0 .038.036.06.04.097h10.391c.004-.036.04-.059.04-.097v-.597c0-.488-.378-.852-.847-.919 1.739-.7 2.961-2.327 3.167-4.26.162-.12.313-.23.489-.363 1.097-.842 2.749-2.124 3.276-1.453.131.164.118.255.113.288-.06.39-.893.95-1.562 1.399-1.053.707-2.142 1.441-2.228 2.481a.538.538 0 0 0 .49.581h.045a.537.537 0 0 0 .535-.491c.043-.527.993-1.165 1.757-1.677.973-.657 1.892-1.273 2.024-2.127.061-.395-.052-.772-.334-1.128zm-9.559 1.95c-.308-1.174-1.034-2.302-1.941-2.71.48-.247.819-.734.819-1.311a1.49 1.49 0 1 0-2.98 0c0 .577.338 1.064.819 1.311-.907.407-1.634 1.535-1.941 2.71h-3.065l5.353-7.905c.111.026.219.068.339.068.12 0 .227-.042.339-.068l5.353 7.905h-3.095z" fill="#FFE15A" fill-rule="nonzero"/><path d="M384.066 113.156s-5.383-1.593-7.791 17.247c0 0-13.174 16.751-13.599 17.742-.425.992-.035 8.11 1.382 7.543 1.417-.567 3.967-3.86 3.825-6.269-.142-2.409.945-3.752 2.018-4.958 2.018-2.266 13.387-12.536 13.812-14.803.424-2.265.353-16.502.353-16.502z" fill="#FFC8B9"/><g fill="#F5F5F5"><path d="M392.425 109.579s8.322-1.098 10.766 7.402c0 0-6.835 3.754-5.985 8.641.85 4.887-.106 27.198-.106 27.198-13.068 4.249-19.974-1.063-19.974-1.063s3.4-12.643 2.869-22.948c0 0-3.081-2.337-2.337-4.993.744-2.656 2.656-5.631 3.294-7.862.638-2.231 2.337-5.95 6.481-6.269 4.141-.318 4.992-.106 4.992-.106z"/><path d="M379.534 149.278s-6.516 24.649-4.249 58.221c0 0 20.328 2.691 31.378-1.346 0 0-5.737-40.16-11.262-55.884l-15.867-.991z"/></g><path d="M383.358 95.061v10.211a2.03 2.03 0 0 0 2.03 2.03h.182c.793 0 1.437.643 1.437 1.437v2.441s1.368 3.574 6.691-.608V95.137l-10.34-.076z" fill="#FFC8B9"/><path d="M382.154 92.97c-.33.825.018 3.063 2.053 2.904 2.543-.199 5.613-.213 6.304 2.603.642 2.617.213 9.154 3.046 9.58 2.834.425 6.046-1.458 5.985-7.083-.053-4.958-3.294-10.89-7.827-9.987 0 0-4.02-2.816-6.375.354.002 0-2.477-.142-3.186 1.629z" fill="#8C5A28"/><path d="M403.19 116.981s2.9 19.104 2.762 20.682c-.141 1.629-10.27 17.282-9.704 18.983.567 1.7 1.133 3.967-1.983 4.817-3.116.85-2.797-4.126-1.948-6.676.849-2.55 7.968-16.131 7.968-17.689 0-1.558-4.038-11.616-3.046-15.583.993-3.968 5.951-4.534 5.951-4.534z" fill="#FFC8B9"/><path d="M341.163 103.262s-.324-1.119-.036-2.13c.289-1.011-.454-1.938-.613-2.815-.433-2.382 1.588-2.996 1.696-5.124 0 0 1.443 1.48.903 2.888-.542 1.408.794 1.624.614 2.959-.18 1.335-1.661 2.743-1.516 3.934l-1.048.288z" fill="#E6000D"/><path d="M363.888 101c-1.181-1.476-3.252.114-4.768 1.27-.211.162-.39.286-.577.422l-5.592-8.259c.157-.236.27-.503.27-.807a1.49 1.49 0 1 0-2.98 0c0 .305.114.572.27.807l-5.769 8.519h-4.085s-.169 2.539 4.291 2.847a5.144 5.144 0 0 0 2.377 1.956c-.461.075-.833.431-.833.914v.597c0 .038.036.06.04.097h10.391c.004-.036.04-.058.04-.097v-.597c0-.488-.378-.852-.847-.919 1.739-.7 2.961-2.327 3.167-4.26.162-.12.313-.23.489-.363 1.097-.842 2.749-2.124 3.276-1.453.131.164.118.255.113.288-.06.39-.893.95-1.562 1.399-1.053.707-2.142 1.441-2.228 2.481a.54.54 0 0 0 .49.582h.045a.537.537 0 0 0 .535-.491c.043-.527.993-1.165 1.757-1.677.973-.657 1.892-1.273 2.024-2.127.061-.395-.052-.772-.334-1.129zm-9.559 1.951c-.308-1.174-1.034-2.302-1.941-2.71.48-.247.819-.734.819-1.311a1.49 1.49 0 1 0-2.98 0c0 .577.338 1.064.819 1.311-.907.407-1.634 1.535-1.941 2.71h-3.065l5.353-7.905c.111.026.218.068.339.068.12 0 .227-.042.339-.068l5.353 7.905h-3.095z" fill="#FFE15A" fill-rule="nonzero"/><path d="M341.163 123.355s-.324-1.119-.036-2.13c.289-1.011-.454-1.938-.613-2.815-.433-2.382 1.588-2.996 1.696-5.124 0 0 1.443 1.48.903 2.888-.541 1.408.794 1.624.614 2.959-.18 1.335-1.661 2.743-1.516 3.934l-1.048.288z" fill="#E6000D"/><path d="M363.888 121.094c-1.181-1.476-3.252.114-4.768 1.27-.211.162-.39.286-.577.422l-5.592-8.259c.157-.236.27-.503.27-.807a1.49 1.49 0 1 0-2.98 0c0 .305.114.572.27.807l-5.769 8.519h-4.085s-.169 2.539 4.291 2.847a5.144 5.144 0 0 0 2.377 1.956c-.461.075-.833.431-.833.914v.597c0 .038.036.06.04.097h10.391c.004-.036.04-.058.04-.097v-.597c0-.488-.378-.852-.847-.92 1.739-.7 2.961-2.327 3.167-4.26.162-.12.313-.23.489-.363 1.097-.842 2.749-2.124 3.276-1.453.131.164.118.255.113.288-.06.39-.893.95-1.562 1.399-1.053.707-2.142 1.441-2.228 2.481a.538.538 0 0 0 .49.581h.045a.537.537 0 0 0 .535-.491c.043-.527.993-1.165 1.757-1.677.973-.657 1.892-1.273 2.024-2.127.061-.393-.052-.77-.334-1.127zm-9.559 1.951c-.308-1.174-1.034-2.302-1.941-2.71.48-.247.819-.734.819-1.311a1.49 1.49 0 1 0-2.98 0c0 .577.338 1.064.819 1.311-.907.407-1.634 1.535-1.941 2.71h-3.065l5.353-7.905c.111.026.218.068.339.068.12 0 .227-.042.339-.068l5.353 7.905h-3.095z" fill="#FFE15A" fill-rule="nonzero"/><path d="M341.163 143.449s-.324-1.119-.036-2.13c.289-1.011-.454-1.938-.613-2.815-.433-2.382 1.588-2.996 1.696-5.124 0 0 1.443 1.48.903 2.888-.542 1.408.794 1.624.614 2.959-.18 1.335-1.661 2.743-1.516 3.934l-1.048.288z" fill="#E6000D"/><path d="M363.888 141.187c-1.181-1.476-3.252.114-4.768 1.27-.211.162-.39.286-.577.422l-5.592-8.259c.157-.236.27-.503.27-.807a1.49 1.49 0 1 0-2.98 0c0 .305.114.572.27.807l-5.769 8.519h-4.085s-.169 2.539 4.291 2.847a5.144 5.144 0 0 0 2.377 1.956c-.461.075-.833.431-.833.914v.597c0 .038.036.06.04.097h10.391c.004-.036.04-.058.04-.097v-.597c0-.488-.378-.852-.847-.919 1.739-.7 2.961-2.327 3.167-4.26.162-.12.313-.23.489-.363 1.097-.842 2.749-2.124 3.276-1.453.131.164.118.255.113.288-.06.39-.893.95-1.562 1.399-1.053.707-2.142 1.441-2.228 2.481a.54.54 0 0 0 .49.582h.045a.537.537 0 0 0 .535-.491c.043-.527.993-1.165 1.757-1.677.973-.657 1.892-1.273 2.024-2.127.061-.395-.052-.773-.334-1.129zm-9.559 1.952c-.308-1.174-1.034-2.302-1.941-2.71.48-.247.819-.734.819-1.311a1.49 1.49 0 1 0-2.98 0c0 .577.338 1.064.819 1.311-.907.407-1.634 1.535-1.941 2.71h-3.065l5.353-7.905c.111.026.218.068.339.068.12 0 .227-.042.339-.068l5.353 7.905h-3.095z" fill="#FFE15A" fill-rule="nonzero"/><path d="M341.163 183.635s-.324-1.119-.036-2.13c.289-1.011-.454-1.938-.613-2.815-.433-2.382 1.588-2.996 1.696-5.124 0 0 1.443 1.48.903 2.888s.794 1.624.614 2.959c-.18 1.335-1.661 2.743-1.516 3.934l-1.048.288z" fill="#E6000D"/><path d="M363.888 181.374c-1.181-1.476-3.252.114-4.768 1.27-.211.162-.39.286-.577.422l-5.592-8.258c.157-.236.27-.503.27-.807a1.49 1.49 0 1 0-2.98 0c0 .305.114.572.27.807l-5.769 8.519h-4.085s-.169 2.539 4.291 2.847a5.144 5.144 0 0 0 2.377 1.956c-.461.075-.833.431-.833.914v.597c0 .038.036.06.04.097h10.391c.004-.036.04-.058.04-.097v-.597c0-.488-.378-.852-.847-.919 1.739-.7 2.961-2.327 3.167-4.26.162-.12.313-.23.489-.363 1.097-.842 2.749-2.124 3.276-1.453.131.164.118.255.113.288-.06.389-.893.95-1.562 1.399-1.053.707-2.142 1.441-2.228 2.481a.54.54 0 0 0 .49.582h.045a.537.537 0 0 0 .535-.491c.043-.527.993-1.165 1.757-1.677.973-.657 1.892-1.273 2.024-2.127.061-.396-.052-.773-.334-1.13zm-9.559 1.951c-.308-1.174-1.034-2.302-1.941-2.71.48-.247.819-.734.819-1.311a1.49 1.49 0 1 0-2.98 0c0 .577.338 1.064.819 1.311-.907.407-1.634 1.535-1.941 2.71h-3.065l5.353-7.905c.111.026.218.068.339.068.12 0 .227-.042.339-.068l5.353 7.905h-3.095z" fill="#FFE15A" fill-rule="nonzero"/><path d="M341.163 203.729s-.324-1.119-.036-2.13c.289-1.011-.454-1.938-.613-2.815-.433-2.382 1.588-2.996 1.696-5.124 0 0 1.443 1.48.903 2.888-.542 1.408.794 1.624.614 2.959-.181 1.335-1.661 2.743-1.516 3.934l-1.048.288z" fill="#E6000D"/><path d="M363.888 201.467c-1.181-1.476-3.252.114-4.768 1.27-.211.162-.39.286-.577.422l-5.592-8.258c.157-.236.27-.503.27-.807a1.49 1.49 0 1 0-2.98 0c0 .305.114.572.27.807l-5.769 8.519h-4.085s-.169 2.539 4.291 2.847a5.144 5.144 0 0 0 2.377 1.956c-.461.075-.833.431-.833.914v.597c0 .038.036.06.04.097h10.391c.004-.036.04-.058.04-.097v-.597c0-.488-.378-.852-.847-.919 1.739-.7 2.961-2.327 3.167-4.26.162-.12.313-.23.489-.363 1.097-.842 2.749-2.124 3.276-1.453.131.164.118.255.113.288-.06.39-.893.95-1.562 1.399-1.053.707-2.142 1.441-2.228 2.481a.54.54 0 0 0 .49.582h.045a.537.537 0 0 0 .535-.491c.043-.527.993-1.165 1.757-1.677.973-.657 1.892-1.273 2.024-2.127.061-.395-.052-.774-.334-1.13zm-9.559 1.952c-.308-1.174-1.034-2.302-1.941-2.71.48-.247.819-.734.819-1.311a1.49 1.49 0 1 0-2.98 0c0 .577.338 1.064.819 1.311-.907.407-1.634 1.535-1.941 2.71h-3.065l5.353-7.905c.111.026.218.068.339.068.12 0 .227-.042.339-.068l5.353 7.905h-3.095z" fill="#FFE15A" fill-rule="nonzero"/><path d="M411.071 103.262s-.324-1.119-.036-2.13c.289-1.011-.455-1.938-.613-2.815-.433-2.382 1.588-2.996 1.696-5.124 0 0 1.443 1.48.903 2.888-.542 1.408.794 1.624.614 2.959-.18 1.335-1.661 2.743-1.516 3.934l-1.048.288z" fill="#E6000D"/><path d="M433.795 101c-1.181-1.476-3.252.114-4.768 1.27-.211.162-.39.286-.577.422l-5.592-8.259c.157-.236.27-.503.27-.807a1.49 1.49 0 1 0-2.98 0c0 .305.114.572.27.807l-5.769 8.519h-4.085s-.169 2.539 4.291 2.847a5.144 5.144 0 0 0 2.377 1.956c-.461.075-.833.431-.833.914v.597c0 .038.036.06.04.097h10.391c.004-.036.04-.058.04-.097v-.597c0-.488-.378-.852-.847-.919 1.739-.7 2.961-2.327 3.167-4.26.162-.12.313-.23.489-.363 1.097-.842 2.749-2.124 3.276-1.453.131.164.118.255.113.288-.06.39-.893.95-1.562 1.399-1.053.707-2.142 1.441-2.228 2.481a.54.54 0 0 0 .49.582h.045a.537.537 0 0 0 .535-.491c.043-.527.993-1.165 1.757-1.677.973-.657 1.892-1.273 2.024-2.127.061-.395-.05-.772-.334-1.129zm-9.558 1.951c-.308-1.174-1.034-2.302-1.941-2.71.48-.247.819-.734.819-1.311a1.49 1.49 0 0 0-2.98 0c0 .577.338 1.064.819 1.311-.907.407-1.634 1.535-1.941 2.71h-3.065l5.353-7.905c.111.026.218.068.339.068.12 0 .227-.042.339-.068l5.353 7.905h-3.095z" fill="#FFE15A" fill-rule="nonzero"/><path d="M411.071 123.355s-.324-1.119-.036-2.13c.289-1.011-.455-1.938-.613-2.815-.433-2.382 1.588-2.996 1.696-5.124 0 0 1.443 1.48.903 2.888-.542 1.408.794 1.624.614 2.959-.18 1.335-1.661 2.743-1.516 3.934l-1.048.288z" fill="#E6000D"/><path d="M433.795 121.094c-1.181-1.476-3.252.114-4.768 1.27-.211.162-.39.286-.577.422l-5.592-8.259c.157-.236.27-.503.27-.807a1.49 1.49 0 1 0-2.98 0c0 .305.114.572.27.807l-5.769 8.519h-4.085s-.169 2.539 4.291 2.847a5.144 5.144 0 0 0 2.377 1.956c-.461.075-.833.431-.833.914v.597c0 .038.036.06.04.097h10.391c.004-.036.04-.058.04-.097v-.597c0-.488-.378-.852-.847-.92 1.739-.7 2.961-2.327 3.167-4.26.162-.12.313-.23.489-.363 1.097-.842 2.749-2.124 3.276-1.453.131.164.118.255.113.288-.06.39-.893.95-1.562 1.399-1.053.707-2.142 1.441-2.228 2.481a.538.538 0 0 0 .49.581h.045a.537.537 0 0 0 .535-.491c.043-.527.993-1.165 1.757-1.677.973-.657 1.892-1.273 2.024-2.127.061-.393-.05-.77-.334-1.127zm-9.558 1.951c-.308-1.174-1.034-2.302-1.941-2.71.48-.247.819-.734.819-1.311a1.49 1.49 0 0 0-2.98 0c0 .577.338 1.064.819 1.311-.907.407-1.634 1.535-1.941 2.71h-3.065l5.353-7.905c.111.026.218.068.339.068.12 0 .227-.042.339-.068l5.353 7.905h-3.095z" fill="#FFE15A" fill-rule="nonzero"/><path d="M411.071 143.449s-.324-1.119-.036-2.13c.289-1.011-.455-1.938-.613-2.815-.433-2.382 1.588-2.996 1.696-5.124 0 0 1.443 1.48.903 2.888-.542 1.408.794 1.624.614 2.959-.18 1.335-1.661 2.743-1.516 3.934l-1.048.288z" fill="#E6000D"/><path d="M433.795 141.187c-1.181-1.476-3.252.114-4.768 1.27-.211.162-.39.286-.577.422l-5.592-8.259c.157-.236.27-.503.27-.807a1.49 1.49 0 1 0-2.98 0c0 .305.114.572.27.807l-5.769 8.519h-4.085s-.169 2.539 4.291 2.847a5.144 5.144 0 0 0 2.377 1.956c-.461.075-.833.431-.833.914v.597c0 .038.036.06.04.097h10.391c.004-.036.04-.058.04-.097v-.597c0-.488-.378-.852-.847-.919 1.739-.7 2.961-2.327 3.167-4.26.162-.12.313-.23.489-.363 1.097-.842 2.749-2.124 3.276-1.453.131.164.118.255.113.288-.06.39-.893.95-1.562 1.399-1.053.707-2.142 1.441-2.228 2.481a.54.54 0 0 0 .49.582h.045a.537.537 0 0 0 .535-.491c.043-.527.993-1.165 1.757-1.677.973-.657 1.892-1.273 2.024-2.127.061-.395-.05-.773-.334-1.129zm-9.558 1.952c-.308-1.174-1.034-2.302-1.941-2.71.48-.247.819-.734.819-1.311a1.49 1.49 0 0 0-2.98 0c0 .577.338 1.064.819 1.311-.907.407-1.634 1.535-1.941 2.71h-3.065l5.353-7.905c.111.026.218.068.339.068.12 0 .227-.042.339-.068l5.353 7.905h-3.095z" fill="#FFE15A" fill-rule="nonzero"/><path d="M411.071 163.543s-.324-1.119-.036-2.13c.289-1.011-.455-1.938-.613-2.815-.433-2.382 1.588-2.996 1.696-5.124 0 0 1.443 1.48.903 2.888-.542 1.408.794 1.624.614 2.959-.181 1.335-1.661 2.743-1.516 3.934l-1.048.288z" fill="#E6000D"/><path d="M433.795 161.281c-1.181-1.476-3.252.114-4.768 1.27-.211.162-.39.286-.577.422l-5.592-8.259c.157-.236.27-.503.27-.807a1.49 1.49 0 1 0-2.98 0c0 .305.114.572.27.807l-5.769 8.519h-4.085s-.169 2.539 4.291 2.847a5.144 5.144 0 0 0 2.377 1.956c-.461.075-.833.431-.833.914v.597c0 .038.036.06.04.097h10.391c.004-.036.04-.059.04-.097v-.597c0-.488-.378-.852-.847-.919 1.739-.7 2.961-2.327 3.167-4.26.162-.12.313-.23.489-.363 1.097-.842 2.749-2.124 3.276-1.453.131.164.118.255.113.288-.06.39-.893.95-1.562 1.399-1.053.707-2.142 1.441-2.228 2.481a.538.538 0 0 0 .49.581h.045a.537.537 0 0 0 .535-.491c.043-.527.993-1.165 1.757-1.677.973-.657 1.892-1.273 2.024-2.127.061-.395-.05-.772-.334-1.128zm-9.558 1.95c-.308-1.174-1.034-2.302-1.941-2.71.48-.247.819-.734.819-1.311a1.49 1.49 0 0 0-2.98 0c0 .577.338 1.064.819 1.311-.907.407-1.634 1.535-1.941 2.71h-3.065l5.353-7.905c.111.026.218.068.339.068.12 0 .227-.042.339-.068l5.353 7.905h-3.095z" fill="#FFE15A" fill-rule="nonzero"/><path d="M411.071 183.635s-.324-1.119-.036-2.13c.289-1.011-.455-1.938-.613-2.815-.433-2.382 1.588-2.996 1.696-5.124 0 0 1.443 1.48.903 2.888-.542 1.408.794 1.624.614 2.959-.18 1.335-1.661 2.743-1.516 3.934l-1.048.288z" fill="#E6000D"/><path d="M433.795 181.374c-1.181-1.476-3.252.114-4.768 1.27-.211.162-.39.286-.577.422l-5.592-8.258c.157-.236.27-.503.27-.807a1.49 1.49 0 1 0-2.98 0c0 .305.114.572.27.807l-5.769 8.519h-4.085s-.169 2.539 4.291 2.847a5.144 5.144 0 0 0 2.377 1.956c-.461.075-.833.431-.833.914v.597c0 .038.036.06.04.097h10.391c.004-.036.04-.058.04-.097v-.597c0-.488-.378-.852-.847-.919 1.739-.7 2.961-2.327 3.167-4.26.162-.12.313-.23.489-.363 1.097-.842 2.749-2.124 3.276-1.453.131.164.118.255.113.288-.06.389-.893.95-1.562 1.399-1.053.707-2.142 1.441-2.228 2.481a.54.54 0 0 0 .49.582h.045a.537.537 0 0 0 .535-.491c.043-.527.993-1.165 1.757-1.677.973-.657 1.892-1.273 2.024-2.127.061-.396-.05-.773-.334-1.13zm-9.558 1.951c-.308-1.174-1.034-2.302-1.941-2.71.48-.247.819-.734.819-1.311a1.49 1.49 0 0 0-2.98 0c0 .577.338 1.064.819 1.311-.907.407-1.634 1.535-1.941 2.71h-3.065l5.353-7.905c.111.026.218.068.339.068.12 0 .227-.042.339-.068l5.353 7.905h-3.095z" fill="#FFE15A" fill-rule="nonzero"/><path d="M411.071 203.729s-.324-1.119-.036-2.13c.289-1.011-.455-1.938-.613-2.815-.433-2.382 1.588-2.996 1.696-5.124 0 0 1.443 1.48.903 2.888-.542 1.408.794 1.624.614 2.959-.181 1.335-1.661 2.743-1.516 3.934l-1.048.288z" fill="#E6000D"/><path d="M433.795 201.467c-1.181-1.476-3.252.114-4.768 1.27-.211.162-.39.286-.577.422l-5.592-8.258c.157-.236.27-.503.27-.807a1.49 1.49 0 1 0-2.98 0c0 .305.114.572.27.807l-5.769 8.519h-4.085s-.169 2.539 4.291 2.847a5.144 5.144 0 0 0 2.377 1.956c-.461.075-.833.431-.833.914v.597c0 .038.036.06.04.097h10.391c.004-.036.04-.058.04-.097v-.597c0-.488-.378-.852-.847-.919 1.739-.7 2.961-2.327 3.167-4.26.162-.12.313-.23.489-.363 1.097-.842 2.749-2.124 3.276-1.453.131.164.118.255.113.288-.06.39-.893.95-1.562 1.399-1.053.707-2.142 1.441-2.228 2.481a.54.54 0 0 0 .49.582h.045a.537.537 0 0 0 .535-.491c.043-.527.993-1.165 1.757-1.677.973-.657 1.892-1.273 2.024-2.127.061-.395-.05-.774-.334-1.13zm-9.558 1.952c-.308-1.174-1.034-2.302-1.941-2.71.48-.247.819-.734.819-1.311a1.49 1.49 0 0 0-2.98 0c0 .577.338 1.064.819 1.311-.907.407-1.634 1.535-1.941 2.71h-3.065l5.353-7.905c.111.026.218.068.339.068.12 0 .227-.042.339-.068l5.353 7.905h-3.095z" fill="#FFE15A" fill-rule="nonzero"/><g fill="#F5F5F5" fill-rule="nonzero"><path d="M445.546 83.125v105.393c0 23.798-57.796 47.597-57.796 47.597s-57.796-23.798-57.796-47.597V83.125h115.592zm3.4-3.4H326.554v108.793c0 11.128 10.265 23.111 30.511 35.616 14.518 8.967 28.79 14.878 29.39 15.125l1.294.533 1.294-.533c.6-.247 14.872-6.158 29.39-15.125 20.246-12.505 30.511-24.488 30.511-35.616V83.125l.002-3.4z"/><path d="M449.437 207.262l15.412 10.629c-17.901 22.963-45.794 37.772-77.1 37.772-31.305 0-59.198-14.81-77.1-37.772l15.412-10.629c14.498 18.089 36.756 29.703 61.687 29.703 24.933 0 47.191-11.614 61.689-29.703zm-.674-4.594l-1.978 2.468c-14.48 18.067-35.998 28.429-59.034 28.429s-44.554-10.362-59.034-28.429l-1.978-2.468-2.604 1.796-15.412 10.629-2.967 2.046 2.216 2.842c19.363 24.836 48.442 39.082 79.78 39.082s60.418-14.244 79.78-39.082l2.216-2.842-2.967-2.046-15.412-10.629-2.606-1.796z"/></g><path d="M387.75 255.664c31.305 0 59.198-14.81 77.1-37.772l-15.412-10.629c-14.498 18.089-36.756 29.703-61.687 29.703-24.931 0-47.189-11.614-61.687-29.703l-15.412 10.629c17.9 22.961 45.793 37.772 77.098 37.772z" fill="#FFE15A"/></g></svg>