<svg width="513" height="337" xmlns="http://www.w3.org/2000/svg">
  <g fill-rule="nonzero" fill="none">
    <path d="M473.66 1.264H38.35C17.172 1.264.005 18.431.005 39.609v258.76c0 21.177 17.167 38.345 38.345 38.345h435.31c21.176 0 38.344-17.167 38.344-38.345V39.609c0-21.178-17.166-38.345-38.345-38.345z" fill="#E6000D"/>
    <path d="M38.005.96h205v150h-243v-112c0-20.987 17.013-38 38-38zM367.912 186.91l32.33 32.332H335.58l32.332-32.332zM319 137.999l32.648 32.648L319 203.294v-65.295zm97.507.316v64.663l-32.332-32.331 32.332-32.332zm-15.948-16.58l-32.647 32.648-32.648-32.648h65.295z" fill="#F5F5F5"/>
    <path d="M38.005 1.264h41.333V145.96H.004V39.264c0-20.987 17.014-38 38-38z" fill="#3741CF"/>
    <path fill="#F5F5F5" d="M79.337 1.264h79.333V145.96H79.339z"/>
    <path fill="#E6000D" d="M158.672 1.264h79.333V145.96h-79.333z"/>
  </g>
</svg>