<svg width="513" height="336" xmlns="http://www.w3.org/2000/svg">
  <g fill-rule="nonzero" fill="none">
    <path d="M473.7.3H38.4A38.3 38.3 0 000 38.6v258.8a38.3 38.3 0 0038.3 38.3h435.4a38.3 38.3 0 0038.3-38.3V38.6A38.3 38.3 0 00473.7.3z" fill="#3741CF"/>
    <path d="M204.1 158s1-.7 1.3-.7l1.5-.5s.8-.4 1.2-.4c.4 0 1.3.5 1.5.9.3.4 1.6 1 1.6 1s1 .3 1.1 0c.2-.3.6-.5 1-.5.5 0 .5-.4.5-.7 0-.3.2-.7.5-1 .4-.5 1-.7 1-.7s1-.4 1-1c.1-.5 1-.9 1.6-1 .5 0 0-.3 1.3-.1 1.4.2 1.5-.3 1.6-.7.1-.4 0-.8.9-.7.8 0 1.2 0 1.2-.4 0-.5.8-.7-.6-1-1.3-.5-1.2-.2-1.3-.8-.1-.6 0-.5-1-.6-.8 0-.4-.5-.4-1-.1-.5-.4-.7-.5-1-.2-.3-.7-.3-.7-.8s0-.7-.6-.7c-.5 0-.6 0-.6-.5 0-.4 0-.8.5-.8s.8-.4.7-.9V142l.6-.8s2-1.6 2.2-2c.2-.3.8-.5 1.2.1l.7 1.1c.3.3 1 0 1.2-.2.2-.3.2-1.5.7-2 .4-.7.8-1 .9-1.5 0-.5.3-1 .8-1 .6 0 1-.6 1-1s.1-.8.8-1c.6 0 1-.4 1.2.2.2.6.5.6.9.8.4.2 1 .5 1.4.2.3-.3.5-.8 1-.5.5.3.8 0 1-.6l.1-1.4s.1-.4 1-.4c.7 0 .1-.5.6-.8.4-.4.4-.6 1-.5.5.3 1.4-.2 1-.7-.5-.5-1.5-1.3-1-2 .6-.5.8-1.5.3-1.6-.6-.1-1.3 0-1.4-.5-.1-.6-.4-1 .3-1.2.7 0 1.8 0 2-.4.4-.3 1.5-.5 1.5-1.4 0-.9.3-1 .5-1.5 0-.5 0-1.5-.4-2a9.2 9.2 0 01-1.2-1.5 2 2 0 00-1.2-1c-.7-.3-1.2-.4-1.2-.9s.4.1.4-1.2-.8-1.5-.8-1.5l-1.4-.8s-2.3-.6-3-.6c-.6 0-1.3-.7-.6-1.1.8-.4 1-1.2.7-1.7-.3-.6-.5-1-1.5-1.3-1-.2-1.2-.5-.8-1 .5-.6.6-1 1.1-.6.5.4 1.4.5 2.2.2.7-.3 1-.6 1.3-.2.4.3.8.6 1.3.1.6-.5 1.6-.5 2-.3.5.3 1.6.2 2 0 .3-.2 1-.7 1-1 0-.4.4-1 .9-1.2.4-.3 1-1.1 1.4-1.1.5 0 .7-.5.7-.8 0-.4.3-1 .4-1.3 0-.2 1-.6 1.6 0 .7.4 1.5.6 1.5.6s.9.2 1.3 0c.5-.2 1-.3 1.7 0 .6.5 1.5.5 1.5.5l.2-1c0-.3.2-.9-.2-1.2-.3-.2-.8-.5 0-1 .7-.5.7-.4 1.4-.4h1.7c.5 0 1.4.5 1.4 1s.4.9.8 1.1c.5.3 1 .5.8 1-.1.3-.1.7.4.6.5-.1.7.2.7.6 0 .5.2.7.7.9.6.1.9.5.9.9v1c.2.5.8 1.1.8 1.1s1 1.2-.3.6-1.5-.8-2-.7c-.4 0-.7.3-.7.3l-1 .2c-.5 0-1 .9-.3 1 .8.2 1 .4 1 1 0 .5-.2.4-.6.8-.4.4-.6.1-1.3.1-.6 0-.8.5-.8 1s.3.5.6.9c.2.4.7.5 1.1 0 .5-.4.8-.6 1.1.1.3.8.6.8 1.2.8.5 0 .7 0 1.2-.3.4-.2 1 0 1 .7.1.6.6.7 1 1 .5.2.7.4.8.8.1.4.4.6.8.3.5-.2 1.2-.4 1.5 0l.7 1v.8l1.8.6.2.7c0 .3.2.5.7.4a6 6 0 011.2 0s.7-.2.7-.7c0-.5.2-.7.7-.7.4 0 1.4.3 1.7-.2.3-.5 1-.6 1.7-.4l2.3 1s-.2 0 .3.8c.6.9 1.5.9 1.5.9s.1.7.3 1c.2.4 1 .5 1.4.2.5-.3 1.1-.7 1.7-.7.5 0 .9 0 .9-.4 0-.3-.6-.5-.6-1s.6-.5.7-1c0-.5.6 0 1 .2.3.3.7.7.7 1 0 .3.8 1.5 1.2 1.7.5.1 1.6.2 2-.2.4-.4 1.3-.6 1.2.4-.1 1-.3 1 .3 1.4.6.4.7 1.5.2 1.8-.5.4-.7.5-.7 1 0 .6-.2 1.3.3 1.6.4.3.7.6.7 1l.5 1.7s.3 1.5.2 1.9c-.1.3-.3.9.5.8.8 0 1 0 1 .6s.3.9-.2 1.1c-.4.3-.7 1.1-.2 1.3.4.1.8.4.9.7 0 .3.8 1 1.2.6.5-.3.6-.5 1-.6.3 0 .6-.3.2-.7-.4-.4-.5-.9-.1-1.1.4-.3.5-1 .5-1s.6-.8 1.2 0c.6.7.7.4 1.2.4.4 0 .6.4.6.8 0 .5.9.4.9 1l.2 2.3s0 .9.5 1.2c.6.3.5.4.2.8s-.2 1.1-.2 1.4c0 .4.2.5-.2.9-.5.3-.7.7-.4 1.2.3.5.2.8.9 1.4.7.6.6.8.6 1.3 0 .4.7 1 .7 1.4 0 .4.6.9 1 1 .5 0 1 .8 1 1.2l.1 1.5s0 .2.5.2.9.6 1 0c.2-.7.8-.8 1.1-1 .4-.1 1-.5 1.4-.2.4.2.9.2 1.2.2l2 .1s.5 0 .8.6c.3.7 1 1.4.6 1.7-.4.4-.4 1 .1 1 .6 0 1.1 0 1.1.4 0 .5 0 .8.5.5.5-.2.8-.3 1 0 .1.4.5.4 1 .6.4.3.6.1.8-.2.3-.4 1.4-.7 1.4-.7s1.4-.3 2-.2l1.2.5s.4.9.2 1.4c-.2.5-.4.4-.2 1.1.2.8-.2.9-.5.8-.4-.1-.8-.1-.8.6 0 .6-.3.8-.3 1.4 0 .5 0 .5-.4.7-.3.3-.4.7.1.7.6.1.4.7.4 1l-.1 1.1s0 .4-.6.4-1.1 0-1.2.4c-.1.4-.8 1-.2 1.5.6.4.5.6.1.8-.4.1-.6 1 0 1.2.8.3.7.5.3.8-.5.4-1.4.6-1.4 1.1 0 .5-.2.5-.7.6-.5 0-.8.7-.2 1.6.7.8.8.6 1.3.6.4 0 .4-.6.4-.6h2c.5 0 1 0 1.4-.2.4-.2 1.4-.7 1.4 0 0 .8.2.8.6 1 .5.4.6.2 1 .7.3.5.4 0 .6-.5.3-.6.8-1.2 1.3-.5.4.6.4.5 1 .5.5 0 .7.2.7.6 0 .4.5.4 1.2.4.6-.1.7.3 1 .7.2.4.3.3.7.3.3 0 .7 0 1-.3.2-.3.6-.7 1-.2.3.5 1 .4 1.2-.2.2-.6 1-1 1.4-.4.5.6.9.6 1.3.7.5.1 1 .1 1.4.5.2.4 1.1 1 .5 1.6-.6.5-1.4 1.1-.8 1.3.5.2.9.3 1.2.8.4.4 1.6.5 2.1.6.5.1 1 .2 1.6-.3.7-.5 1.3-.5 1.2.2-.1.6.3 1.4.3 1.4s.4 1 .4 1.5c0 .4 0 .4.7 1 .8.4.7.8 1.4.3.6-.5.8-.8.8-1.2V180l1.2-.4c.4-.3 1.8-1 2.2-.7.4.3.8.3 1.2.1.3-.2 1-.2 1.4-.2.4 0 1 .1 1.7-.5.7-.5.7-.4 1.2 0 .4.5.4 1 .2 1.3-.3.3 0 1 .6 1s.8.4.8.8 0 1 .2 1.3c0 .4 0 .5 1 .8 1 .2.9.8 1 1.2.2.4.2.8-.3.8-.6 0-.7.2-.8.6-.1.4-1 .6-1 .6l-.7-.2s-.6 0-.8.4c-.3.3-.8 1-.5 1.5.4.6.4 1 0 1.2-.3.2-.5 1.5-.9 1.2-.3-.2-.8.1-1.2.3-.3.1-.2 1.3.5 1.7.7.4.9 1 .9 1l.8 1.3s-.3.2-.4.6c-.2.4-.8 1.3-.2 1.4.5.2.2 1.1-.3 1.1s-1.2-.3-1.3.4c0 .7-.3.5-.9.4-.5 0-1.8-.4-2.2.3-.4.6-.4.9-1 .8-.7 0-.4 1-.3 1.4.2.4.9 1 .9 1s.5.4.5 1.2c0 .9-.4.8-.7.2-.4-.6-1.1-.5-1.2.2 0 .6-.2 1.6-.8 1.6-.6 0-.9.2-1.2.5-.2.4-.7 1-.7 1.3 0 .3 0 .6-.5.7-.5 0-.6 1-.6 1s-1 .2-1.1.6c-.1.4 0 1-.8 1.1-1 .1-1.5.7-1.8 1.1-.2.4-.3.8 0 1.2.4.4.7 1.7 1.1 2 .5.2.8.3.7 1 0 .6-.6 1.1.1 1.1.8 0 1.2.2 1 .8-.3.5-.3.6-.9.9-.5.2-.8.2-.8.9 0 .6.2.6-.3.9-.4.2-.4.6-.4 1 0 .6-.2.4-.7 1-.6.6-1.3.6-1.7.4-.5-.2-.6-.2-.7-.7 0-.5-.9-.5-1.3-.4-.5 0-1 .6-1 .6s-.9.5-.5.9c.3.4.1 1-.5 1s-2 .7-2.5 0c-.4-.8-1.7-1.3-1.9-.3-.2 1 .6.9.5 1.9-.1 1-.3 1-.7 1.3-.3.3-.3.6-.4 1-.1.4-.2 1.3.4 1.6.7.4 1 1.3 1 1.8s0 1 .6 1 1.1-.1 1.2-.7c.1-.6 1.4-1 1.5.3 0 1.1 0 1.7.5 2.2.4.5.8 1.1 1.2 1.4.3.2 1 2.4 1 2.4-1 .1-1.2 1.3-1.7 1.5-.3.1-.7 0-1 .2-.2.2-.2.5-.5.7-.7.2-.6-.8-1.3-.4-.8.3-.8 1.2-1.9.8-.5-.2-.8-2.3-1-2.8 0-.3-.6-1.1-.8-1.4-.6-1-1.8 0-2.2-.3-.6-.4-.4-1.1-1.3-1.2-1.8-.1-.5 1.2-1.3 1.4-1.5.6-1.5-1.4-2.6-.5-.5.4.6.6.4 1.1-.3.5-1.4 1.2-1.3 1.8.1.8 1 1 1.2 1.6.7 1.7-.5 3-2.2 1.6-.9-.8-1-2.1-2.5-2-.4 0-.5.3-.8.4-.4 0-.6-.3-1-.2-.5.2 0 .5-.2.8l-.8.8c-.4.5-.3 1-.9 1.5-.4.3-.8.1-1.4.7-.5.6-.6 1.5-1.3 2-.4.3-.6-.8-1 0l-.2.2c-.1.3-.2.4 0 .6.9 1.8-1 2.5-1.7 3.8-.3.6.5 1 .2 1.5l-1.2 1.3c0 .2-.1.6-.3.8-.1.1-.7 0-.7.3s.6.5.7.7c.2.2 0 .5 0 .6 1 1 .4.7 1 1.6 0 .1.3-.1.4.2.1.3-.2.3-.1.6 0 .2.7 1 .7 1.1 0 .3-1.3 1-1.7 1-.8 0 .8-1.8-.6-1.8-.6 0-.7 1.4-.8 1.5h-.8c-.9 0-1.5 1.1-1.8 1.2H302c-.4 0-.8.4-1.1.4l-.6-.2c-.4-.3-1.1-.4-1.6-.5-.2-.1-.7.3-.8.2-.3-.2.2-.7-.5-1a6 6 0 01-.6-1.4c.3-.8.5-1.6.4-2.5-.1-.8-1.5-1.5-1.8-2.2-.3-.5-.5-1.9-1-2.2-.6-.4-1.1-1.1-1.4-1.7-.1-.2.2-.5 0-.7-.3-.4-.7-.5-.8-.9-.1-.3 0-1.4-.4-1.6-.4-.3-3.2-.6-3.8-.7-.4 0-.7 0-1-.3l-.3-.5-.9.1h-.7c-.9.6-1 1.4-2 2-.8.7-1.7.7-2.6 1.4-.5.5-.9 1.6-1.4 2.2-.2.2-.6 0-.7 0-.4.6-1 1-1.5 1.5-.1 0 0 .3-.2.4l-1 .2h-.9c-.4.2-.4.7-2 1l-.3.2-.5.4h-.7c-.4 0-.6.4-1 .4-.8.1-2-.4-2.7-.1-.4.1-1.4 1.3-1.8 1.4h-.7c-.1 0-.4 1.4-.6 1.6l-1.8 1.7-.6.8c-.2.2-.5.3-.8.3l-1.2-.3a15 15 0 00-3.2 0c-.6 0-.4 1.8-2 2l-2.5.3c-.1 0-.6-.4-1.2-.2-.2 0-.8.7-.8 1v.3l.1.3c-.3.4-1 1-1.3 1.5l-.3.3c-.2.2-1.2.5-1.3.7-.3.7.7 1.2.6 1.5-.3.8-1.3 1.6-1.7 2.3-.1.3.4 1.3.4 1.7-.1 1-.5 2.2-.4 3.2l.2 1.2c0 .2.3.3.5.5l1.4 2.7c.2 1.7-2.3 1.1-.9 2.8l.7.8 2.2 1.8c0 .3-1.5.5-1.8.8-.7.7-1.3 2-2 2.7-.4.5-.8 0-1.4 1-.2.4 0 1.3-.2 1.6-.4.3-.7-.2-1 0-.2 0-.3.5-.4.6-.4.4-4 2.3-4.4 2.1l-.4-.8a2 2 0 00-.4-.8c-1-.8-2.4-1-3.3 0-.2.2-.2.6-.5.9l-1.5 1.2-.5.3c-.4 0-1.2-1-1.5-1.3-.4-.5-1.5-1.6-1.6-2.1 0-1.9-1.5-3.8-2-5.6h.8c1-.7.7-2.3 2.6-1.7.2-.3.2-.6.6-.8l.5-.4c.6-.9 1.3-4.4.7-5.3-.5-.9-1.1-.8-1.6-2.2v-1.2c0-.4-.7-2.3-.8-2.5l-.5-.4v-2.5c-.7-1.7-2.7-2.7-2.8-2.9l-.8-1.3-.5-1.3c0-.2-.4-.4-.4-.7 0-.4 1.2-1.3 1.1-2 0-.3-.8-1-.6-1.5.2-.4 1-1.4 1-1.9-.1-.6-1.3-2-1.5-2.7 0-.3.5-.6.4-.8l-1.7-1.8c-.1-.2.5-.6 0-1-.3-.4 0-.3-.1-.6-.1-.4-.6-.8-.8-1.2l-1.2-4.5-.6-.7-.4-1s-1.2-.4-1.4-.7c-.2-.3-.3-1.3-.6-1.8-.1-.2-.4-.1-.6-.3-.1-.1 0-.4-.2-.5-.4-.5-1 0-1.6-1.9-.6-.4-1.2-.8-1.8-1.4l-.3-.3c-.5-.2-1.1-.2-1.5-.5a9 9 0 01-1.6-.2l-.3-.6c-.7-.1-1.7 0-2.2-.5-.4-.4-.5-2.2-1.3-2h-.3c-.5-.6-2.2-.7-3-1.1-.1-.2-.8 0-.8-.2.2-.4.1-.7.2-1l-1-1.1c-.6-.2-.3-.2-.7-.5-1.2 0-1.3.1-2 .8-.2.2-.5.2-.8.3-.3.2-.5 1-1 .6-.2 0-.3-.3-.4-.4-.3-.2-.5-.1-.7-.6-.9-.5-3.4 1.2-4 0-.5-.2-.8 0-1.1-.3-.2-.2.5-2.2-1.4-3l1.3-1c.1-.2 0-.5 0-.8 0-.3.2-1 .1-1.2 0-.3-.3-.5-.4-.8l-.1-1-.6-.3-1.4-1c0-.2-.1-.4-.3-.4-.3-.3-1.4-.6-1.3-1.1 0-.2.2-.2.3-.4l.1-.7c.6-.7 1.7-.3 1.5-1.7 0-.5-.5-1-.6-1.6l-.4-.6c-1.1 0-1-1.2-1.3-1.5-1.2-.8-2.2-.3-.8-2 .1-.4-1.2-1.3-1.4-1.6-.5-.4-.3-1.4-.5-1.9 0-.2-.9-.6-1.1-1l-.4-.7v-.2c.3-.1.2-.5 0-.8 0-.1-.4 0-.5-.2-1.1-1-2.4-1.4-3.8-2-.4 0-.3-.4-.6-.5a20 20 0 00-2.3-1c-.2 0-.4-.9-.6-1.1 0-.3-.6-.8-.6-.8 0-.8-.5-.9-1-1.3l-.1-.5.4-1.6c.1-.3.5-.6.4-.9 0-.5-.1-1.3-.3-1.8-.6-1.6-1.3-1.4-1-3.5.2-.4 0-.7.3-1l.2-.3.9-.7c.3-.4.5-1.5 1-1.8.3-.2 1.2-.7 1.3-1 .2 0 .4-.6.3-.8-.4-.2-.7-.1-1-.2-.1 0-.5-.3-.8-.3l-.3-.4-.1-.1c-.4 0-.8-.3-1-.4l-1.4-.4c-.7-.4-1.6-1.6-2.3-1.7-.9-.2-1.5 0-2.4 0-.6.1-.6-.2-1-.4-.7-.2-.2.4-1.6 0-.2-.2 0-.7 0-1h-.7c-1.2-.2-.7-1.3-1-2-.2-.2-.7-.1-1-.1v-.2h.1c.2-.4-.5-1.2-.5-1.3 0-.2 1.5-.5 1.7-.5.1-.2 0-.3-.1-.5 0-.4.2-1 .4-1.3v-.2c-.5-.2-.6-.5-1-.8 0-.2.3-.3.3-.5.7-2 1.8-.4 2.7-2.2l.5-.8h.8l.6-.3.4.1c1.7-.4 1.3-1 2.3-1.7.3-.2 1-.3 1.4-.4.4.1 1 .7 1.7 1 .5.2 2.3.6 2.6.8.3.2.4.7.7.8 1 .6.5-.3 1.4-.1 1 .2 1.8 1 2.8 1.4h.7c.3-.2 1.8-.4 2-.4l.6.3c.2 0 .4-.4.6-.4.7 0 .7.3 1.6.3 0 0 .5-2.6.9-2.7.2 0 .9.6 1.1.7.3 0 0-.6 0-.6l-.6-2 .7.2c.5-.2 1.1-.3 1.5-.7l.8-1.2c0-.2-.2-.6 0-.8l.7-.5c.3-.3.3-.8.7-1 1.6-.1 2.2-1.3 3.6-1.5h.5l.3.4c0 .1 1 .7 1.2.7l.3-.3c.3 0 1.1-.5 1.2-.7 0 0-.2-.3 0-.5l1.2-1 1 .1.5.5h.9c.2 0 .3-.5.5-.5z" fill="#D0A650"/>
    <g fill="#F5F5F5">
      <path d="M280.8 40.5L293.3 79l-32.7-23.8H301L268.3 79zM329.5 49L342 87.7l-32.7-23.8h40.5L317 87.6zM376 66l12.5 38.5-32.7-23.8h40.4l-32.7 23.8z"/>
    </g>
    <g fill="#F5F5F5">
      <path d="M231.4 40.5L218.9 79l32.7-23.8h-40.5L244 79zM182.7 49l-12.5 38.6 32.7-23.8h-40.5l32.8 23.8zM136.2 66l-12.5 38.5 32.7-23.8H116l32.7 23.8z"/>
    </g>
  </g>
</svg>