<svg width="513" height="336" xmlns="http://www.w3.org/2000/svg">
  <g fill="none" fill-rule="evenodd">
    <path d="M473.66.264H38.35C17.173.264.006 17.431.006 38.609v258.76c0 21.177 17.167 38.345 38.345 38.345h435.31c21.177 0 38.345-17.167 38.345-38.345V38.609c0-21.178-17.166-38.345-38.345-38.345z" fill="#F5F5F5" fill-rule="nonzero"/>
    <path d="M137.284 81.957V47.879h11.112l7.268 25.934 7.168-25.934h11.162v34.078h-7.045V54.473l-7.416 27.484h-7.69l-7.515-27.484v27.484h-7.044m57.942-27.253l-5.06 14.505h10.144l-5.084-14.505m-4.366-6.825h8.682l13.17 34.078h-7.887l-2.48-7.01H188.18l-2.405 7.01h-7.913l12.997-34.078m41.944 34.078h-7.516V69.256l-13.27-21.377h9.202l7.813 14.69 7.218-14.69h8.582l-12.03 21.377v12.7m21.381-17.003c0 3.748.893 6.662 2.68 8.745 1.785 2.066 4.282 3.1 7.49 3.1 3.24 0 5.763-1.034 7.565-3.1 1.802-2.082 2.704-4.997 2.704-8.745 0-3.748-.902-6.655-2.704-8.722-1.802-2.082-4.324-3.123-7.565-3.123-3.208 0-5.705 1.033-7.49 3.1-1.787 2.066-2.68 4.981-2.68 8.745m-7.664 0c0-5.506 1.604-9.871 4.812-13.095C254.556 48.62 258.897 47 264.354 47s9.797 1.62 13.022 4.858c3.24 3.24 4.861 7.604 4.861 13.095 0 5.49-1.62 9.855-4.861 13.094-3.225 3.239-7.565 4.858-13.022 4.858s-9.798-1.62-13.022-4.858c-3.208-3.239-4.812-7.604-4.812-13.094m49.236 17.004V53.964h-10.84v-6.085h29.12v6.085H303.27v27.993h-7.515m30.16 0V53.964h-10.838v-6.085h29.12v6.085h-10.766v27.993h-7.515m22.596 0V47.879h26.515v5.923H355.93v7.264h17.462v5.83H355.93v8.768h19.992v6.293h-27.408" fill="#D42E12" fill-rule="nonzero"/>
    <path d="M160.167 106.852c-3.177.447-5.57 1.32-8.77 3.244-1.03.626-1.991 1.074-2.17 1.007-.179-.068-.38-.604-.47-1.253-.09-.604-.29-1.298-.447-1.5-.448-.626-.873-.111-1.7 1.992-.38 1.007-.806 1.969-.918 2.103-.402.492-.94.313-1.588-.492-.649-.828-1.633-1.074-1.857-.47-.067.179-.022.895.112 1.61.403 2.104-.246 2.417-2.08 1.007-1.59-1.23-2.193-1.476-2.797-1.163-.627.336-.604.805.201 2.662.694 1.611.738 2.774.067 1.835-.179-.246-1.006-.806-1.857-1.208a72.73 72.73 0 01-2.953-1.566c-.783-.425-1.856-.94-2.393-1.141-.985-.336-6.31-1.119-6.757-.962-.134.045.604.649 1.611 1.364 2.215 1.522 6.466 5.414 6.466 5.907 0 .29-.247.335-1.79.2-2.036-.178-1.991-.245-1.544 1.88.157.738.18 1.23.045 1.365-.134.134-.828.09-1.88-.134-.917-.18-1.722-.336-1.811-.336-.336 0-.18 1.767.29 3.266.448 1.41.448 1.544.09 1.79-.448.336-.962.179-4.363-1.387-2.013-.94-2.528-1.096-3.624-1.052-.693.023-1.521.18-1.857.358l-.626.314 1.454 1.566c1.723 1.879 3.468 4.384 3.736 5.391.492 1.678-1.163 1.969-6.734 1.253-3.042-.403-5.1-.336-6.107.201-.783.403-3.468 2.909-3.468 3.244 0 .112 1.298.269 2.886.336 3.334.134 5.75.716 7.74 1.812 1.88 1.029 1.835 1.253-.2 1.253-1.7 0-2.685.268-3.58.984-.425.336-.425.358 0 .828.649.716 1.902 1.275 3.445 1.521.783.134 1.454.269 1.5.336.044.044-.65.201-1.545.335-2.326.38-5.592 1.343-7.18 2.148-1.433.716-1.5.805-1.79 2.886l-.135.85.716-.157c1.119-.246 6.89-.38 7.83-.179 1.432.314 1.03.627-1.186.895-2.774.336-4.34.65-5.078 1.03l-.582.313 1.209.581c.67.336 2.214.806 3.445 1.052 5.235 1.074 5.884 1.678 1.499 1.454-3.602-.179-5.034-.045-4.922.514.112.627 2.327 1.7 4.63 2.282 1.41.358.873.627-1.431.716-2.08.067-3.647.604-4.295 1.477-.515.649-.202 3.602.402 3.982.135.067.403-.022.604-.201.202-.202 1.119-.694 2.036-1.141 1.723-.828 1.745-.828 4.206-.448 1.052.157 1.969 1.03 2.752 2.64.38.76 1.163 1.969 1.745 2.685.581.716 1.253 1.543 1.476 1.834.425.515.425.537-.044 1.477-.246.537-.515 1.14-.582 1.342-.403 1.387-7.248.917-12.64-.872-2.148-.716-5.325-2.282-6.756-3.334l-1.097-.805v.872c0 2.148 1.678 5.795 3.356 7.293l1.074.962-1.096 2.103c-1.365 2.618-1.454 3.625-.403 4.676.38.403.649.85.56 1.03-.068.178-.65.626-1.298.983-2.014 1.141-1.924 1.03-1.096 1.455.402.223 1.499.447 2.393.514.985.09 1.768.246 1.902.425.56.671-.604 2.148-2.617 3.356-.336.201-.09.29 1.364.515.985.134 2.416.268 3.177.29l1.387.045-.47.85c-.559 1.007-1.61 2.103-2.483 2.64l-.626.403.693.09c.38.066 1.163.022 1.745-.068 1.678-.268 3.714-.224 4.161.09.694.514.112 1.678-1.633 3.355l-1.521 1.477.984.157c1.857.268 4.206-.023 5.459-.672.649-.313 1.208-.559 1.253-.514.313.335-.895 3.58-1.678 4.474-.18.201-.269.448-.18.56.09.089 1.298.156 2.663.156 1.946 0 2.685-.09 3.266-.403.425-.201.806-.38.85-.38.023 0 .068.47.068 1.052 0 .76-.157 1.23-.582 1.79l-.56.738h.627c1.454-.023 4.9-1.141 6.13-2.036.805-.56.872-.537.872.29-.022.94-.514 2.305-1.029 2.886-.47.537-.358.537 1.835-.022 1.968-.492 3.713-1.186 4.608-1.812.828-.604.918-.537.739.403-.202 1.118-.627 1.767-1.477 2.214-.38.18-.649.403-.582.448.18.201 4.9-.537 5.974-.917.537-.18 1.163-.515 1.387-.716.38-.336.402-.336.402.201 0 .313-.246 1.03-.559 1.61-.313.583-.56 1.097-.56 1.164 0 .18 1.231-.201 2.663-.828.783-.357 1.7-.648 2.036-.648.76 0 1.655.693 2.349 1.79.38.603.962 1.05 2.08 1.61l1.566.783.09-.917c.112-.828 3.803-10.537 4.161-10.917.157-.157 4.653 2.93 8.993 6.152 2.618 1.946 8.636 7.92 10.403 10.335 4.855 6.623 6.443 11.186 6.466 18.569 0 4.072-.269 6.242-1.208 10.157-2.059 8.367-6.846 16.331-12.282 20.358-3.58 2.662-7.808 3.557-15.683 3.311-9.53-.29-15.481-2.282-19.888-6.6-3.267-3.221-5.414-7.427-6.31-12.349-.133-.805-.245-2.774-.245-4.362 0-5.459 1.23-9.24 3.915-12.126 2.326-2.483 4.81-3.848 7.986-4.34 3.02-.47 6.466.537 8.591 2.483 1.477 1.365 1.544 2.014.38 4.34-1.029 2.081-1.118 2.618-.47 3.267.605.604 1.858.581 3.29-.112 2.08-.962 3.109-3.311 2.93-6.577-.179-2.931-1.544-4.833-4.63-6.399-2.999-1.499-4.52-1.79-9.196-1.767-3.87 0-4.273.045-6.152.626-3.758 1.141-6.04 2.663-7.808 5.123-4.027 5.683-6.241 15.437-4.944 21.746 1.007 4.81 3.692 10.022 7.428 14.318 6.308 7.293 14.675 10.626 26.69 10.626 8.903 0 15.212-1.7 21.476-5.772 6.98-4.519 11.499-10.38 15.324-19.843 1.03-2.596 1.432-4.206 1.611-6.443.067-1.097.246-1.992.448-2.215.895-1.03 1.208-3.96.648-5.862l-.335-1.073.693-.605c1.23-1.096 1.097-3.467-.29-5.056l-.65-.738.739-.738c.962-.984 1.387-2.841 1.208-5.302-.112-1.7-.872-4.072-1.297-4.072-.448 0-.157-.604.492-.984 1.006-.604 1.543-1.61 1.543-2.953 0-2.707-1.118-6.868-1.946-7.181-.336-.135-.403-.739-.09-.739.515 0 1.209-2.103 1.32-4.004.135-2.394-.335-4.229-1.32-5.213l-.648-.671.693-1.432c.604-1.23.694-1.588.582-2.617-.246-2.372-2.864-6.757-4.832-8.054-.716-.47-.918-.738-.918-1.253 0-1.499-1.23-3.714-3.288-5.928-2.148-2.282-2.841-3.311-3.289-4.922-.313-1.03-.649-1.566-1.588-2.506-1.096-1.096-3.423-2.483-4.81-2.841-.291-.067-.448-.29-.448-.649-.022-1.432-1.79-3.825-3.355-4.541-.783-.358-.895-.492-.895-1.141 0-.917-.76-1.835-2.55-3.065-1.7-1.141-4.385-1.835-8.524-2.193-8.703-.715-12.573-2.17-16.667-6.241-2.483-2.461-3.445-4.117-4.34-7.383-.738-2.707-.783-5.235-.112-7.204.47-1.387 1.969-4.205 2.237-4.205.09 0-.045.738-.29 1.61-.582 2.126-.65 5.616-.113 7.316.739 2.371 2.193 4.139 4.229 5.19 1.387.716 2.058.873 4.43 1.096 2.46.224 4.116.716 4.921 1.454 1.208 1.119 3.915 1.253 6.51.358.671-.246 1.924-.514 2.797-.581l1.61-.157 2.081 1.454c2.148 1.477 11.432 6.712 13.065 7.36 2.975 1.186 6.331.359 7.74-1.901 1.142-1.812.113-3.512-4.742-7.897-3.938-3.535-4.877-4.743-5.392-6.801-.223-.873-.94-2.774-1.633-4.206-1.633-3.512-1.655-4.116-.112-5.727.604-.649 1.275-1.544 1.454-2.014.358-.827.515-2.707.269-2.975-.134-.112-1.633.201-2.416.492-.246.09-.291-.246-.224-1.79.045-1.208-.045-2.17-.201-2.595l-.291-.67-.805.782c-.828.805-1.432 1.007-1.7.582-.068-.112-.224-.76-.336-1.432-.224-1.41-1.119-3.602-1.343-3.333-.09.089-.29.559-.447 1.006-.134.47-.336.85-.447.85-.09 0-.247-.537-.336-1.185-.246-1.924-.515-2.73-1.119-3.289-.492-.47-.626-.492-.783-.224-.112.18-.223.582-.223.895 0 .985-.627 2.976-1.455 4.654-1.61 3.221-3.132 2.908-6.264-1.23-1.79-2.372-2.058-3.11-1.566-4.184 1.186-2.506 6.153-5.884 10.828-7.338.873-.269 1.589-.56 1.589-.65 0-.424-1.119-1.43-2.103-1.9-1.119-.515-2.416-.627-4.273-.381z" fill="#DFDFDF" fill-rule="nonzero"/>
    <path d="M113.949 151.313c1.42-.79-5.472-.665-6.93-.65-.986.298-1.892.728-2.195.588-.303-.14-.06-1.243.248-3.115 1.085-.89 2.208-1.368 3.404-1.717 1.14-.404 2.146-.67 3.446-1.084 1.247-.15 1.651-.092 3.426-.48-2.082-.33-3.56-.076-5.63-2.256.837-.503 1.167-1.14 2.173-1.381 1.006-.216 1.359-.182 2.185-.182 1.584 0 2.047.29.987-.474s-3.083-1.631-5.356-2.045c-1.997-.344-5.026-.355-6.487-.413.67-1.325 1.918-2.1 2.675-2.926 1.24-1.515 4.088-1.48 8.357-.792 6.748.826 7.161 0 2.892-5.371l-2.714-2.987 1.722-.683 1.88-.05c1.79.412 4.07 1.792 5.447 2.343 2.203.964 2.084.056 1.395-1.734-.55-1.515-.151-1.507-.365-3.184 1.102 0 4.007 1.102 4.007.414 0-.826-.381-1.38-.595-3.28.964 0 3.125.259 3.6.156.476-.102-.66-1.198-1.819-2.236l-2.98-2.672-4.212-2.839 6.248.783c1.928 0 4.979 2.094 6.597 2.938.809.421 1.576.552 2.063 1.062 1.112.413-.225 1.516.582.5.41-.739-1.493-2.923-1.235-4.064 1.366-2.603 4.425 2.163 5.091 1.393 1.274-.138-.623-3.104.387-3.705 1.442-.859 2.263 2.09 3.039 1.568.776-.521 1.279-4.3 2.505-4.774 1.227-.475.727 3.856 1.554 3.27 1.79-1.239 5.665-3.67 8.852-4.112 1.594-.22 3.45-.679 5.022-.396 1.572.284 3.055 1.364 3.483 2.684-2.117.618-2.451.675-4.655 1.639-2.203.826-5.095 2.892-6.473 4.269-2.34 2.617-2.34 2.892.276 6.197 3.305 4.545 4.958 4.27 6.748-.964.757-2.065.521-3.378.88-4.08.209.15.962.463 1.416 1.172.397.62.75 3.362.747 4.077.331-.201.64-1.102.95-2.546.83 1.596 1.066 2.121 1.341 2.879.276.757.037 2.767.863 2.767.482 0 1.068-.93 2.094-1.837.886 1.664.76 3.743.405 5.32.694-.227 2.117-.711 2.808-.776.216.83.202 1.828.034 2.583-.503 1.08-.658 2.01-1.76 2.836-1.653 1.377-1.653 2.203 0 5.37 1.102 2.066 1.928 4.408 1.928 5.372 0 .826 2.479 3.58 5.646 6.197 3.856 3.305 5.233 5.37 4.683 6.886-1.378 3.305-5.647 4.269-9.503 2.203a619.05 619.05 0 01-8.951-4.958c-2.135-1.17-3.54-2.447-4.842-3.265-2.093-.028-3.687.164-5.487 1.062-2.754.413-4.958.138-5.509-.689-.55-.826-2.754-1.515-4.82-1.515-5.509 0-9.115-3.643-9.33-8.977-.083-2.318.23-3.783.999-6.393-3.04 4.802-3.22 7.015-2.127 11.252 1.315 5.912 7.428 13.483 20.925 13.62 2.547.07 4.681.792 7.091 1.275 1.54.912 4.826 2.658 4.159 4.848 2.498.666 4.214 3.257 4.25 5.383 6.135 1.836 6.947 5.434 6.947 6.123 0 .688 1.515 2.754 3.443 4.544 1.928 1.79 3.206 4.685 2.969 6.281 2.134 1.102 2.9 2.712 4.197 4.461 1.1 2.234 2.933 5.014.23 8.356 2.83 1.05 2.706 9.062.447 10.223 1.662 1.142 2.02 3.93 2.374 7.725.015 1.277-.398 2.42-2.425 3.43.54.273.97 1.02 1.264 1.999.294.978.452 2.187.45 3.38-.001 1.192-.163 2.369-.51 3.285-.346.915-.878 1.57-1.62 1.716 2.528 1.65 2.467 6.016.288 6.465 1.22 2.229.837 6.609-.719 7.468.34 4.496-1.44 7.685-2.383 10.06-1.885 4.751-4.368 8.78-7.482 12.162-3.113 3.383-6.858 6.12-11.265 8.29-9.64 4.681-26.028 4.544-35.393-.276-8.263-4.27-15.01-13.497-16.388-22.448-1.24-7.988 2.617-19.694 7.574-23.412 7.85-5.784 23.137-3.856 25.34 3.168 1.102 3.58-.275 7.85-2.892 8.813-3.443 1.24-4.82-.413-2.892-3.442 1.377-2.342 1.24-3.03-.964-4.82-6.61-4.82-16.526-.551-18.867 7.987-2.892 11.017 1.653 22.172 10.88 26.717 7.712 3.856 23.274 4.131 28.782.689 10.742-6.749 17.49-25.065 14.185-38.836-1.79-7.575-9.227-16.94-18.867-23.412l-6.06-4.27-2.203 5.647c-1.17 2.96-2.203 4.605-1.925 6.476-1.79-1.092-2.435-.895-3.67-2.057-.55-1.24-1.566-2.629-3.081-2.216-.344.104-2.432 1.333-4.51 1.616.716-1.674 1.441-1.722 1.356-3.39-1.114 1.42-4.306 1.597-8.446 2.035 3.239-1.853 2.624-2.216 2.865-3.774-1.24 1.402-4.333 2.276-7.91 2.92 1.844-1.928 1.528-2.52 1.71-4.275-1.815 1.784-6.233 2.782-7.872 2.677 1.436-1.67 1.46-1.648 1.431-3.714-1.611 1.265-4.588 1.087-7.25.615a8.225 8.225 0 002.237-5.167c-2.158 2.006-5.693 1.574-8.002 1.191 1.808-1.605 2.905-2.508 3.467-3.515.654-1.266.213-1.679-1.99-1.679-1.515 0-2.563.971-4.8.115 3.243-1.281 4.123-5.424 4.85-5.508 2.9-.333-4.034 5.279 2.174 4.097 1.551-.223 2.256-.196 3.406-.13-.806 1.184-.943 1.232-1.637 2.115-.779 1.148-.934 2.645-2.778 3.614 1.565.009 2.845.152 3.881-.671 1.037-.823 1.047-1.157 3.233-2.73.297 1.647.15 1.976-.011 3.068-.28 1.89-.644 2.387-1.213 3.88 2.372.55 3.83-.198 4.245-1.222.62-.646 1.504-2.294 2.72-2.627.494 1.484-.031 1.542-.213 2.8-.517 1.413-.646 2.42-1.089 3.747 2.408-.685 3.886-1.553 5.41-3.387 2.617-2.203 2.617-2.203 1.79.689-.34 1.928-.257 2.359-.957 4.023 2.318-.404 4.47-1.475 5.64-3.334 1.377-2.066 1.515-1.929.964.688-.078 1.76.228 2.045-.205 3.748 2.104-.445 3.648-1.269 4.75-3.06 1.377-2.065 1.514-1.927.964.69-.345 1.652.288 1.993-.688 3.717 2.378-1.014 2.478-.757 3.304-2.065.551-1.102 1.46.37 2.56 2.435.896 1.584 1.623 1.705 2.29 1.782.164-1.208.659-2.014 1.76-4.63 1.24-3.03 2.066-5.509 1.929-5.784a602.177 602.177 0 01-7.575-3.994c-3.994-1.928-7.299-4.132-7.299-4.958 0-.689-.688-1.24-1.652-1.24-2.204 0-7.988-5.508-7.988-7.574 0-.964-1.24-3.305-2.754-5.095-2.066-2.755-4.407-3.719-10.604-4.407-4.381-.775-8.058-1.928-10.33-3.168-1.136-.594-1.291-1.097-2.164-1.436-.035.723.443 2.951 2.027 4.466.895.964 1.812 1.173 2.627 1.676-.767.78-1.319 2.249-1.938 3.282-1.377 2.203-1.377 2.892.55 3.58 1.79.689 1.79 1.102.276 2.066-.62.482-1.553.814-2.206 1.235 1.023.254 1.824.318 3.777-.18 2.479-1.502 2.668-1.059 1.596.46-.878 1.325-1.471 2.805-2.748 3.834 1.462.078 2.129-.184 3.437-.666 1.377-.551 2.543-.92 1.597 1.217-.9 1.494-.403-.804-1.256 1.168-1.47.284-4.81-.067-7.252-.657 2.198-1.205 3-2.147 3.276-2.767.413-1.24-.772-1.165-1.874-1.165-.482 0-2.075.193-3.265-1.128.989-.539 2.492-1.026 3.397-2.161-2.823-1.628-1.182-4.095-.524-5.267.544-.937.589-1.433 1.222-2.405-.87-.063-2.138-1.709-2.758-2.81-1.308-2.342-1.876-4.566-1.686-6.48 1.866 1.44 2.59 1.904 3.752 2.482 1.973 1.18 6.208 2.664 9.95 3.23 3.74.565 6.99.492 6.99-.885s1.497-1.263.414-2.364c-2.028-2.062-3.12-3.913-3.75-5.737-1.181-1.429-2.672-1.534-4.647-1.555-1.048.56-3.093 1.048-4.037 2.412-.887-.425-1.345-3.16-.895-4.461.193-.56 2.474-1.63 3.76-1.675 1.286-.046 1.968.32 3.101-.16-1.333-.383-2.062-.36-3.451-1.053-1.235-.616-2.432-.982-2.27-1.766.2-.97 7.03-.308 7.995-.274.792.035-1.493-.914-3.178-1.127-1.104-.396-3.567-.24-6.059-2.09 1.839-1.182 2.807-.684 4.315-1.24m5.674.226c-.554 1.168-7.195.85-5.348 1.332 0 0 5.129.945 6.826 2.402.3 1.29-1.49 1.862-1.49 1.862l-6.503-.693c-.07.89 6.322 1.226 6.102 2.563-.071.434.354 1.25-1.773 1.008-1.937.09-4.314-.108-5.752.636-1.045.521-1.171 1.68-.843 2.671.946-.77 2.452-1.406 3.278-1.681 1.764-.228 3.04.134 4.233.644 1.192.51 2.02 1.056 3.058 3.096.688 1.79 2.892 3.856 4.958 4.683 2.203.688 5.724 2.574 7.299 4.682 1.746 2.336 3.049 4.23 7.254 6.66 4.132 3.718.564 2.396 2.333 2.668 4.742.728 7.352 1.827 8.178 2.929.964 1.101 3.167 2.34 4.958 2.754 1.928.551 3.443 1.515 3.443 2.204 0 .826.964 1.377 2.203 1.377 3.03 0 16.526 14.185 19.005 19.83 4.682 10.605 5.509 14.461 5.509 24.79-.138 6.886-.964 13.083-2.204 15.975-2.754 6.473-14.5 19.478-17.667 19.478-.56.158-.334.1-.998.208-.304.454-.478.498-1.554 1-1.564.783-3.569 1.164-6.013 1.234-2.445.07-5.33-.172-8.654-.638-3.325-.466-6.584-1.156-9.013-1.962-2.429-.805-3.322-1.241-4.026-1.984-.21-.222-.77-.511-.676-1.479-.5.455-1.661.348-3.049-.908-1.127-1.02-2.21-1.495-1.646-2.52-1.49-.156-1.744-.789-2.919-2.44-.772-1.085-1.65-2.045-1.274-3.58-1.026.204-1.535-1.232-2.123-2.592-.515-1.193-1.435-2.817-.29-3.405-1.316.032-1.069-1.575-1.229-2.693-.16-1.118-.49-2.854.837-3.158-1.358-.429-.777-1.832-.573-3.09.287-1.765.45-2.72 1.576-2.953-1.007-.45-.393-2.106.27-4.366.533-1.812 1.753-2.473 3.156-2.172-1.342-1.024 1.11-2.695 1.636-3.135 1.464-1.221 3.128-1.675 3.455-.88-.14-1.488 5.05-1.619 7.036-1.395 1.986.224 3.732 1.12 5.59 2.635 2.893 2.341 3.03 3.03 1.516 5.508-1.79 3.168-.414 3.857 2.203 1.24 2.754-2.754 1.928-6.197-2.066-9.365-3.03-2.479-5.095-2.892-10.328-2.479-9.227.964-12.946 3.856-15.562 12.395-4.132 14.185 1.514 28.232 13.909 34.291 5.509 2.617 8.814 3.305 17.765 3.305 13.083-.137 21.209-3.305 28.783-11.705 4.683-5.096 9.916-18.408 8.263-20.887-2.688-1.143 0-1.148.826-1.148 1.102 0 1.515-5.706-.536-6.743 4.093.015 1.926-5.1-.539-6.107 2.207-.052 3.298-2.21 3.364-4.492.065-2.282-.895-4.69-2.793-5.241-1.43-.416-.113-.797 1.23-1.102 1.601-.364 2.217-.603 2.02-3.456-.238-1.87-.896-4.994-2.25-5.57-1.396-.593-3.568-.766-4.78-.874 1.471-.474 2.874-.75 4.009-.844 2.479-1.033 3.315-6.046 1.086-7.45s-7.839 1.355-8.134.217c1.094-1.197 4.482-1.492 5.987-2.586 1.842-1.81 3.54-3.54.51-7.809-1.515-2.341-1.274-2.921-3.028-3.568-2.325-.094-7.311 3.036-11.126 2.914 1.747-1.454 7.69-2.621 9.586-3.996s.457-3.511-1.491-5.954c-2.342-2.066-3.306-2.204-6.335-.826-2.066.826-5.335 1.686-8.879 2.28 1.376-1.42 7.64-2.969 9.016-4.07 2.617-1.929 2.617-2.737.138-5.492l-3.708-1.524-4.142 2.195c-3.03 1.377-7.718 3.012-7.718 2.599 0-.276 4.275-2.186 6.479-3.425 2.341-1.24 3.767-3.03 3.767-3.994 0-3.443-3.177-3.9-8.046-.506-2.479 1.446-8.667 3.333-9.037 2.636-.458-.863 4.15-1.708 6.43-2.818 2.263-1.292 6.515-3.41 6.515-4.511-.56-1.868-3.072-3.202-13.952-4.441-8.125-.964-12.394-3.58-15.975-9.502-4.407-7.162-3.58-13.359 2.341-19.005l4.958-4.683-2.892 4.407c-5.37 7.712-2.754 16.94 4.82 16.94 1.79 0 4.407.688 5.784 1.652 1.928 1.102 3.607.864 5.226.387l2.632-.775.912-.197-3.812-2.583c-4.27-2.065-6.06-6.06-3.718-8.4.826-.827 1.102 0 .688 2.203-.55 2.617 0 3.856 1.928 4.545 1.378.688 4.132 2.203 5.922 3.58 5.922 4.27 13.91 9.227 14.736 9.227.413 0-.276-1.377-1.79-3.167-1.515-1.653-.689-1.377 1.79.964 3.718 3.305 4.82 3.718 6.61 2.203 3.03-2.478 2.617-3.58-2.616-6.885-3.168-1.79-5.371-4.683-6.473-7.988-.826-2.754-2.203-5.784-2.754-6.61-.827-.964-.413-2.204.826-3.305 1.17-.965 2.34-3.204 2.216-4.023-.544.102-.957.254-1.527.58-.689.413-1.378-.138-1.378-1.378 0-.62.477-2.967.348-3.544-.325.598-1.312 1.96-1.725 2.167-.688.413-1.515 0-1.515-.964-.206-1.997-.463-2.58-.634-3.52-.282.513-1.709 2.572-2.356 3.066.55-1.52.116-6.4-.12-6.853-.041 1.307-.778 3.63-1 4.471-1.461 2.062-1.817 2.512-3.463 3.011-1.394.052-2.067-.519-3.995-2.791-1.928-2.342-3.107-4.096-3.22-5.29 0-1.239 4.086-6.14 8.924-7.985 2.05-.744 2.328-.956 3.586-1.291-.343-.077-.846-.556-2.34-.835-.783-.146-3.954-.135-6 .837-1.83.587-6.06 2.393-7.988 4.321-1.045.176.141-3.342-1.08-2.834-1.22.508-.737 4.172-1.767 4.722-1.545.824-1.795-1.882-2.483-1.882-.689.069.555 3.21-.724 3.941-.837.48-3.736-3.079-4.08-2.528-.255.43 2.238 3.372 1.566 3.81-.83.654-.75 1.53-2.586.802-1.504-.759-8.15-4.93-9.862-4.812 1.589 1.043 2.823 2.309 4.546 3.882 2.754 2.892 3.533 3.253 1.33 3.588-2.048-.335-2.554-.954-3.564-.271-.505.341.462 2.949-.222 3.366-.684.417-3.033-.5-3.296-.229-1.05 1.085.818 2.538.199 4.122-.827 2.34-1.24 2.34-3.994.413-2.204-1.584-5.02-2.717-5.105-2.118-.11.788.56 1.154 1.8 2.944 3.993 5.646 2.892 6.748-4.958 5.922 0 0-6.392-1.865-8.307 1.057 1.891-.354 6.422.547 7.63 1.07.655.285 2.072 1.134 3.296 2.106.612.487.258.869-.113 1.944-1.432.517-2.993.832-4.683.737 5.111 2.058 4.653.357 6.507 1.39-1.331 2.196-2.39 2.034-6.943 2.671-1.128.539-2.218.794-3.457 1.138-1.274.344-2.062 1.332-1.747 1.445.314.113 1.564-.203 2.967-.342 1.646.022.794.008 4.483.387 1.725.421 2.497 1.687 2.163 2.378z" fill="#000" fill-rule="nonzero"/>
    <path d="M163.046 138.083c0 .804-.468 1.457-1.044 1.457-.577 0-1.044-.653-1.044-1.457 0-.805.467-1.457 1.044-1.457.562 0 1.023.621 1.043 1.405" fill="#000" fill-rule="nonzero"/>
    <path d="M165.144 139.158c-.66 1.672-2.602 2.51-4.335 1.873-1.734-.637-2.604-2.51-1.943-4.182.661-1.673 2.602-2.512 4.336-1.874 1.731.637 2.601 2.505 1.944 4.177M152.994 133.735c4.348-2.292 10.355 1.265 10.355 1.265" stroke="#000" stroke-width="1.7"/>
    <g fill="#DFDFDF" fill-rule="nonzero">
      <path d="M120.404 173.217c-.155-.74.181-1.106 1.377-1.873 1.476.183 4.04 1.233 5.665 2.672 2.768 2.451 3.188 3.365 4.749 5.463-.637 1.26-1.05 1.533-2.258 2.707-1.226.803-1.951 1.29-2.784 1.688-.665-2.06-1.473-3.08-3.31-5.448-.858-1.31-3.396-2.307-4.683-3.276.278-1.026.787-1.106 1.244-1.933zM130.758 182.939c1.268-.818 1.604-1.976 2.484-2.506 1.16.5.858.643 2.74 1.566 2.024 1.279 1.292.994 2.852 3.092-.637 1.26-.971 1.849-1.941 3.181-1.068.961-1.082 1.686-2.073 2.874-1.85-.48-3.054-1.183-4.495-2.84-1.017-1.23-2.21-1.28-2.708-3.355 1.306-.868 2.368-1.264 3.141-2.012zM137.951 188.788c.952-1.292 1.13-2.212 1.931-3.138 1.397.183 2.518.405 4.163.934 2.26.488 2.556 1.23 3.721 2.46-.636 1.26-.734 2.875-1.23 5.157-.356 1.593-.687 2.475-1.361 3.901-1.85-.796-3.212-1.5-4.811-2.524-1.65-.993-3.239-1.99-3.973-4.067.832-1.5.787-1.975 1.56-2.723zM147.831 194.953c.398-1.766.34-3.635 1.22-5.034 1.396.183 1.174.642 2.819 1.17 1.707.726 2.872.915 3.8 2.776-1.506 1.418-1.84 1.216-2.337 3.497-.356 1.594.341 3.82-.333 5.246-1.85-.797-2.027-1.263-3.626-2.287-1.649-.994-1.815-.568-2.866-1.617.594-1.816.945-2.687 1.323-3.75zM154.629 197.482c.793-1.608 1.13-1.975 2.01-2.742 1.633.657 2.36.247 3.925 1.644 1.47 1.042 4.532 3.603 5.698 4.831-1.111.55-2.148.928-3.444 2.628-1.295 1.7-.924 2.16-1.677 4.06-1.376-.875-2.027-1.341-3.31-2.129-1.332-1.23-1.894-1.595-3.418-2.644.594-1.737-.004-4.267.216-5.648zM163.719 204.913c.793-1.609 1.92-1.897 2.8-2.664 1.634.658 2.28 2.065 3.847 3.463 1.944 2.148 2.24 2.496 3.168 3.803-1.427.707-1.832.77-3.128 1.917-1.34 1.187-1.714 1.211-2.625 2.242-.982-1.113-.841-1.026-2.124-2.287-1.333-1.23-1.5-1.2-3.261-2.802.515-1.816.787-2.45 1.323-3.672zM171.307 212.58c.951-.74 1.841-1.264 2.642-1.794.764.894 1.49 1.59 1.95 2.593.758.963.817 1.152 1.429 2.46-1.427.707-1.279.532-2.337 1.047-1.03.5-1.477 1.053-2.705 1.846-.981-1.112-.287-.709-1.57-1.97-.622-.757-.946-1.359-1.918-2.328 1.385-1.184 1.578-1.343 2.509-1.854zM175.062 218.152c1.149-.541 1.643-.829 2.602-1.24.646 1.21.819 1.393 1.278 2.395.284.844.501 1.27.994 2.657-1.071.391-1.397.494-2.1.81-.718.324-1.477.777-2.31 1.254-.783-1.468-.76-1.144-1.214-2.01-.424-.835-.709-1.082-1.482-2.21 1.147-.867 1.498-1.184 2.232-1.656zM177.912 223.853c1.15-.541 1.141-.41 2.1-.821.646 1.21 1.098 3.349 1.445 4.659.257 1.487.473 3.143.548 4.949-1.016.195-.597.075-1.485.25-.884.176-.932.21-1.876.603-.28-1.97-.523-3.058-1.034-4.405-.34-.947-1.044-3.094-1.818-4.221.98-.532 1.387-.543 2.12-1.014zM180.4 234.053c.354-.083.734-.146 1.484-.207.143 2.58.148 3.21.076 5.777-.19 2.689-.225 4.876-.654 7.604-.486-.14-.597-.288-1.485-.336-.887-.047-.834-.062-1.75-.004.64-2.558.663-3.435.853-6.482.079-2.372.073-3.14-.118-5.81.7-.225 1-.378 1.593-.542zM179.17 248.138c.355-.083 1.238.022 1.988-.04-.808 4.537-1.473 6.228-2.998 9.02-1.812 2.632-3.58 5.098-5.909 7.603-.287-.2-.484-.463-.758-.727-.264-.254-.486-.332-.8-.619 2.654-3.508 3.122-4.553 4.71-7.767 1.308-3.21 1.526-4.09 2.397-7.6.7.28.776.294 1.37.13zM170.842 264.737c.454.293.232.19.926.632-1.087 1.295-1.865 2.036-3.893 4.044-1.532 1.124-1.99 2.105-5.126 3.37-.373-.42-.39-.475-.57-.744-.176-.259-.25-.325-.446-.829 1.592-.49 3.475-1.6 4.67-2.803 1.98-1.701 2.477-2.468 3.795-4.134.305.2.445.273.644.464zM160.942 272.503c.25.395.155.51.389.974-1.422.848-1.74.92-5.23 1.6-4.287.145-6.093.042-8.107-.229.073-.536.08-.586.104-1.093.022-.479-.04-.323-.002-.836 4.01.266 5.227-.003 6.813-.105 2.853-.266 5.005-.937 5.682-1.11.305.556.27.41.351.8zM146.941 273.845c-.086.423-.069.285-.198.89-3.322-.578-3.388-.506-7.409-1.335-3.03-.861-4.03-1.515-5.903-2.512-.137-.662-.099-.582.052-.858.198-.363.048-.247.498-.52 2.228 1.337 4.614 1.73 5.893 2.158 3.049.628 4.557.796 7.136 1.07-.03.584-.037.718-.069 1.107zM132.577 269.178c-.505.381-.543.56-1.176.471-1.035-.144-1.169-.437-2.163-1.248-.487-.398-1.244-1.17-1.093-1.445.198-.363.533-1.455.973-.744.385.622 2.024 1.584 2.996 2.251.773.531.659.567.463.715zM127.603 265.768c-.589.186-.441.303-.925-.116-.392-.34-.665-.911-1.38-1.751-.407-.48-1.223-1.86-1.261-2.171-.109-.894.39-1.485.778-.744.692 1.32 1.577 2.702 2.8 3.816.693.631.222.892-.012.966zM124.026 260.012c-.588.186-.525.303-1.009-.116-.392-.34-.784-1.223-1.24-2.227-.268-.59-.863-1.475-.646-2.059.241-.649 1.088-1.093 1.308-.297.398 1.437.529 1.456 1.208 3.146.262.65.613 1.479.379 1.553zM122.097 253.892c-.23.442-.655.389-1.344.08-.555-.25-.346-1.128-.43-2.227-.044-.591-.164-1.14-.003-1.92.14-.678 1.419-.923 1.504-.101.063.599-.026.948.09 1.972.188 1.655.363 1.85.183 2.196zM121.594 248.107c-.133.374-.682.25-1.008-.144-.388-.469.073-1.295.102-2.227.018-.592.183-1.188.499-1.92.196-.453.904-.508.917.319.006.403-.108.927-.218 1.804-.12.962-.078 1.57-.292 2.168zM122.572 242.267c-.134.373-.73.019-.84-.48-.165-.748.354-1.572.576-2.478.186-.76.529-1.664 1.142-2.171.448-.37 1.257-.574 1.085.234-.133.627-1.03 1.822-1.335 2.838-.28.93-.414 1.46-.628 2.057zM126.233 235.587c-.397.015-.858.127-.729-.367.115-.441.543-.659 1.36-1.305.416-.33 1.15-.933 1.56-1.137.474-.234 1.404-.528 1.085.234-.133.32-.555.453-1.307.966-.802.547-1.7 1.599-1.969 1.61z"/>
    </g>
    <g>
      <path d="M353.511 106.852c3.177.447 5.57 1.32 8.77 3.244 1.029.626 1.991 1.074 2.17 1.007.179-.068.38-.604.47-1.253.09-.604.29-1.298.447-1.5.448-.626.873-.111 1.7 1.992.38 1.007.806 1.969.918 2.103.402.492.94.313 1.588-.492.649-.828 1.633-1.074 1.857-.47.067.179.022.895-.112 1.61-.403 2.104.246 2.417 2.08 1.007 1.59-1.23 2.193-1.476 2.797-1.163.627.336.604.805-.201 2.662-.694 1.611-.738 2.774-.067 1.835.179-.246 1.006-.806 1.857-1.208a72.73 72.73 0 002.953-1.566c.783-.425 1.856-.94 2.393-1.141.985-.336 6.31-1.119 6.757-.962.134.045-.604.649-1.611 1.364-2.215 1.522-6.466 5.414-6.466 5.907 0 .29.247.335 1.79.2 2.036-.178 1.991-.245 1.544 1.88-.157.738-.18 1.23-.045 1.365.134.134.828.09 1.88-.134.917-.18 1.722-.336 1.811-.336.336 0 .18 1.767-.29 3.266-.448 1.41-.448 1.544-.09 1.79.447.336.962.179 4.363-1.387 2.013-.94 2.528-1.096 3.624-1.052.693.023 1.521.18 1.857.358l.626.314-1.454 1.566c-1.723 1.879-3.468 4.384-3.736 5.391-.492 1.678 1.163 1.969 6.734 1.253 3.042-.403 5.1-.336 6.107.201.783.403 3.468 2.909 3.468 3.244 0 .112-1.298.269-2.886.336-3.334.134-5.75.716-7.74 1.812-1.88 1.029-1.835 1.253.2 1.253 1.7 0 2.685.268 3.58.984.425.336.425.358 0 .828-.649.716-1.902 1.275-3.445 1.521-.783.134-1.454.269-1.5.336-.044.044.65.201 1.544.335 2.327.38 5.593 1.343 7.182 2.148 1.432.716 1.499.805 1.79 2.886l.134.85-.716-.157c-1.119-.246-6.89-.38-7.83-.179-1.432.314-1.03.627 1.185.895 2.775.336 4.34.65 5.079 1.03l.582.313-1.209.581c-.67.336-2.214.806-3.445 1.052-5.235 1.074-5.884 1.678-1.499 1.454 3.602-.179 5.034-.045 4.922.514-.112.627-2.327 1.7-4.63 2.282-1.41.358-.873.627 1.43.716 2.081.067 3.648.604 4.296 1.477.515.649.202 3.602-.402 3.982-.135.067-.403-.022-.604-.201-.202-.202-1.119-.694-2.036-1.141-1.723-.828-1.745-.828-4.206-.448-1.052.157-1.969 1.03-2.752 2.64-.38.76-1.163 1.969-1.745 2.685-.582.716-1.253 1.543-1.476 1.834-.425.515-.425.537.044 1.477.246.537.515 1.14.582 1.342.403 1.387 7.248.917 12.64-.872 2.148-.716 5.324-2.282 6.756-3.334l1.096-.805v.872c0 2.148-1.677 5.795-3.355 7.293l-1.074.962 1.096 2.103c1.365 2.618 1.454 3.625.403 4.676-.38.403-.649.85-.56 1.03.068.178.65.626 1.298.983 2.014 1.141 1.924 1.03 1.096 1.455-.402.223-1.499.447-2.393.514-.985.09-1.768.246-1.902.425-.56.671.604 2.148 2.617 3.356.336.201.09.29-1.364.515-.985.134-2.416.268-3.177.29l-1.387.045.47.85c.559 1.007 1.61 2.103 2.483 2.64l.626.403-.693.09c-.38.066-1.163.022-1.745-.068-1.678-.268-3.714-.224-4.161.09-.694.514-.112 1.678 1.633 3.355l1.521 1.477-.984.157c-1.857.268-4.206-.023-5.459-.672-.649-.313-1.208-.559-1.253-.514-.313.335.895 3.58 1.678 4.474.18.201.269.448.18.56-.09.089-1.298.156-2.663.156-1.946 0-2.685-.09-3.266-.403-.425-.201-.806-.38-.85-.38-.023 0-.068.47-.068 1.052 0 .76.157 1.23.582 1.79l.56.738h-.627c-1.454-.023-4.9-1.141-6.13-2.036-.805-.56-.872-.537-.872.29.022.94.514 2.305 1.029 2.886.47.537.358.537-1.835-.022-1.968-.492-3.713-1.186-4.608-1.812-.828-.604-.918-.537-.739.403.202 1.118.627 1.767 1.477 2.214.38.18.649.403.582.448-.18.201-4.9-.537-5.974-.917-.537-.18-1.163-.515-1.387-.716-.38-.336-.402-.336-.402.201 0 .313.246 1.03.559 1.61.313.583.56 1.097.56 1.164 0 .18-1.231-.201-2.663-.828-.783-.357-1.7-.648-2.036-.648-.76 0-1.655.693-2.349 1.79-.38.603-.962 1.05-2.08 1.61l-1.566.783-.09-.917c-.112-.828-3.803-10.537-4.161-10.917-.157-.157-4.653 2.93-8.993 6.152-2.618 1.946-8.636 7.92-10.403 10.335-4.855 6.623-6.443 11.186-6.466 18.569 0 4.072.269 6.242 1.208 10.157 2.059 8.367 6.846 16.331 12.282 20.358 3.58 2.662 7.808 3.557 15.683 3.311 9.53-.29 15.481-2.282 19.888-6.6 3.267-3.221 5.414-7.427 6.31-12.349.133-.805.245-2.774.245-4.362 0-5.459-1.23-9.24-3.915-12.126-2.326-2.483-4.81-3.848-7.986-4.34-3.02-.47-6.466.537-8.591 2.483-1.477 1.365-1.544 2.014-.38 4.34 1.029 2.081 1.118 2.618.47 3.267-.605.604-1.858.581-3.29-.112-2.08-.962-3.109-3.311-2.93-6.577.179-2.931 1.544-4.833 4.63-6.399 2.999-1.499 4.52-1.79 9.196-1.767 3.87 0 4.273.045 6.152.626 3.758 1.141 6.04 2.663 7.808 5.123 4.026 5.683 6.241 15.437 4.944 21.746-1.007 4.81-3.692 10.022-7.428 14.318-6.308 7.293-14.675 10.626-26.69 10.626-8.903 0-15.212-1.7-21.476-5.772-6.98-4.519-11.499-10.38-15.324-19.843-1.03-2.596-1.432-4.206-1.611-6.443-.067-1.097-.246-1.992-.448-2.215-.895-1.03-1.208-3.96-.648-5.862l.335-1.073-.693-.605c-1.23-1.096-1.097-3.467.29-5.056l.65-.738-.74-.738c-.961-.984-1.386-2.841-1.207-5.302.112-1.7.872-4.072 1.297-4.072.448 0 .157-.604-.492-.984-1.006-.604-1.543-1.61-1.543-2.953 0-2.707 1.118-6.868 1.946-7.181.336-.135.403-.739.09-.739-.515 0-1.209-2.103-1.32-4.004-.135-2.394.335-4.229 1.32-5.213l.648-.671-.693-1.432c-.604-1.23-.694-1.588-.582-2.617.246-2.372 2.864-6.757 4.832-8.054.716-.47.918-.738.918-1.253 0-1.499 1.23-3.714 3.288-5.928 2.148-2.282 2.841-3.311 3.289-4.922.313-1.03.649-1.566 1.588-2.506 1.096-1.096 3.423-2.483 4.81-2.841.29-.067.448-.29.448-.649.022-1.432 1.79-3.825 3.355-4.541.783-.358.895-.492.895-1.141 0-.917.76-1.835 2.55-3.065 1.7-1.141 4.385-1.835 8.524-2.193 8.703-.715 12.573-2.17 16.667-6.241 2.483-2.461 3.445-4.117 4.34-7.383.738-2.707.783-5.235.112-7.204-.47-1.387-1.969-4.205-2.237-4.205-.09 0 .045.738.29 1.61.582 2.126.65 5.616.113 7.316-.739 2.371-2.193 4.139-4.229 5.19-1.387.716-2.058.873-4.43 1.096-2.46.224-4.116.716-4.921 1.454-1.208 1.119-3.915 1.253-6.51.358-.671-.246-1.924-.514-2.797-.581l-1.61-.157-2.081 1.454c-2.148 1.477-11.432 6.712-13.065 7.36-2.976 1.186-6.331.359-7.74-1.901-1.142-1.812-.113-3.512 4.742-7.897 3.938-3.535 4.877-4.743 5.392-6.801.223-.873.94-2.774 1.633-4.206 1.633-3.512 1.655-4.116.112-5.727-.604-.649-1.276-1.544-1.454-2.014-.358-.827-.515-2.707-.269-2.975.134-.112 1.633.201 2.416.492.246.09.291-.246.224-1.79-.045-1.208.045-2.17.201-2.595l.291-.67.805.782c.828.805 1.432 1.007 1.7.582.068-.112.224-.76.336-1.432.224-1.41 1.119-3.602 1.343-3.333.09.089.29.559.447 1.006.134.47.336.85.447.85.09 0 .247-.537.336-1.185.246-1.924.515-2.73 1.119-3.289.492-.47.626-.492.783-.224.111.18.223.582.223.895 0 .985.627 2.976 1.455 4.654 1.61 3.221 3.132 2.908 6.264-1.23 1.79-2.372 2.058-3.11 1.566-4.184-1.186-2.506-6.153-5.884-10.828-7.338-.873-.269-1.589-.56-1.589-.65 0-.424 1.119-1.43 2.103-1.9 1.119-.515 2.416-.627 4.273-.381z" fill="#DFDFDF" fill-rule="nonzero"/>
      <path d="M399.73 151.313c-1.421-.79 5.471-.665 6.928-.65.987.298 1.893.728 2.196.588.303-.14.06-1.243-.248-3.115-1.085-.89-2.208-1.368-3.404-1.717-1.14-.404-2.146-.67-3.446-1.084-1.248-.15-1.651-.092-3.426-.48 2.082-.33 3.56-.076 5.63-2.256-.837-.503-1.167-1.14-2.173-1.381-1.006-.216-1.359-.182-2.185-.182-1.584 0-2.047.29-.987-.474s3.083-1.631 5.356-2.045c1.997-.344 5.026-.355 6.487-.413-.67-1.325-1.918-2.1-2.675-2.926-1.24-1.515-4.088-1.48-8.357-.792-6.748.826-7.161 0-2.892-5.371l2.714-2.987-1.722-.683-1.88-.05c-1.79.412-4.07 1.792-5.447 2.343-2.203.964-2.084.056-1.395-1.734.55-1.515.151-1.507.365-3.184-1.102 0-4.007 1.102-4.007.414 0-.826.381-1.38.595-3.28-.964 0-3.126.259-3.6.156-.476-.102.66-1.198 1.819-2.236l2.98-2.672 4.212-2.839-6.248.783c-1.928 0-4.979 2.094-6.597 2.938-.809.421-1.576.552-2.063 1.062-1.112.413.225 1.516-.582.5-.41-.739 1.493-2.923 1.235-4.064-1.366-2.603-4.425 2.163-5.091 1.393-1.274-.138.623-3.104-.387-3.705-1.442-.859-2.263 2.09-3.039 1.568-.776-.521-1.279-4.3-2.505-4.774-1.227-.475-.727 3.856-1.554 3.27-1.79-1.239-5.665-3.67-8.852-4.112-1.594-.22-3.45-.679-5.022-.396-1.572.284-3.055 1.364-3.483 2.684 2.117.618 2.451.675 4.655 1.639 2.203.826 5.095 2.892 6.473 4.269 2.34 2.617 2.34 2.892-.276 6.197-3.305 4.545-4.958 4.27-6.748-.964-.757-2.065-.521-3.378-.88-4.08-.209.15-.962.463-1.416 1.172-.397.62-.75 3.362-.747 4.077-.331-.201-.64-1.102-.95-2.546-.83 1.596-1.066 2.121-1.341 2.879-.276.757-.037 2.767-.863 2.767-.482 0-1.068-.93-2.094-1.837-.886 1.664-.76 3.743-.405 5.32-.694-.227-2.117-.711-2.808-.776-.216.83-.202 1.828-.034 2.583.503 1.08.658 2.01 1.76 2.836 1.653 1.377 1.653 2.203 0 5.37-1.102 2.066-1.928 4.408-1.928 5.372 0 .826-2.479 3.58-5.646 6.197-3.856 3.305-5.234 5.37-4.683 6.886 1.378 3.305 5.647 4.269 9.503 2.203a619.05 619.05 0 008.951-4.958c2.135-1.17 3.54-2.447 4.842-3.265 2.093-.028 3.687.164 5.487 1.062 2.754.413 4.958.138 5.509-.689.55-.826 2.754-1.515 4.82-1.515 5.509 0 9.115-3.643 9.33-8.977.083-2.318-.23-3.783-.999-6.393 3.04 4.802 3.22 7.015 2.127 11.252-1.315 5.912-7.428 13.483-20.925 13.62-2.547.07-4.681.792-7.091 1.275-1.54.912-4.826 2.658-4.159 4.848-2.499.666-4.214 3.257-4.25 5.383-6.135 1.836-6.947 5.434-6.947 6.123 0 .688-1.515 2.754-3.443 4.544-1.928 1.79-3.206 4.685-2.969 6.281-2.134 1.102-2.9 2.712-4.197 4.461-1.101 2.234-2.933 5.014-.23 8.356-2.83 1.05-2.706 9.062-.447 10.223-1.662 1.142-2.02 3.93-2.374 7.725-.015 1.277.398 2.42 2.425 3.43-.54.273-.97 1.02-1.264 1.999-.294.978-.452 2.187-.45 3.38.001 1.192.163 2.369.51 3.285.346.915.878 1.57 1.62 1.716-2.528 1.65-2.467 6.016-.288 6.465-1.22 2.229-.837 6.609.719 7.468-.34 4.496 1.44 7.685 2.383 10.06 1.885 4.751 4.368 8.78 7.482 12.162 3.113 3.383 6.858 6.12 11.264 8.29 9.64 4.681 26.029 4.544 35.394-.276 8.263-4.27 15.01-13.497 16.388-22.448 1.24-7.988-2.617-19.694-7.575-23.412-7.85-5.784-23.136-3.856-25.34 3.168-1.101 3.58.276 7.85 2.893 8.813 3.443 1.24 4.82-.413 2.892-3.442-1.377-2.342-1.24-3.03.964-4.82 6.61-4.82 16.526-.551 18.867 7.987 2.892 11.017-1.653 22.172-10.88 26.717-7.712 3.856-23.274 4.131-28.782.689-10.742-6.749-17.49-25.065-14.185-38.836 1.79-7.575 9.227-16.94 18.867-23.412l6.06-4.27 2.203 5.647c1.17 2.96 2.203 4.605 1.925 6.476 1.79-1.092 2.435-.895 3.67-2.057.55-1.24 1.566-2.629 3.081-2.216.344.104 2.432 1.333 4.51 1.616-.716-1.674-1.441-1.722-1.356-3.39 1.114 1.42 4.306 1.597 8.446 2.035-3.239-1.853-2.624-2.216-2.865-3.774 1.24 1.402 4.333 2.276 7.91 2.92-1.844-1.928-1.528-2.52-1.71-4.275 1.814 1.784 6.233 2.782 7.872 2.677-1.436-1.67-1.46-1.648-1.431-3.714 1.611 1.265 4.588 1.087 7.25.615a8.225 8.225 0 01-2.237-5.167c2.158 2.006 5.693 1.574 8.002 1.191-1.808-1.605-2.905-2.508-3.467-3.515-.654-1.266-.213-1.679 1.99-1.679 1.515 0 2.563.971 4.8.115-3.243-1.281-4.123-5.424-4.85-5.508-2.9-.333 4.034 5.279-2.174 4.097-1.551-.223-2.256-.196-3.406-.13.806 1.184.943 1.232 1.637 2.115.779 1.148.934 2.645 2.778 3.614-1.565.009-2.845.152-3.881-.671-1.037-.823-1.048-1.157-3.233-2.73-.297 1.647-.15 1.976.011 3.068.28 1.89.644 2.387 1.213 3.88-2.372.55-3.83-.198-4.245-1.222-.62-.646-1.504-2.294-2.72-2.627-.494 1.484.031 1.542.213 2.8.517 1.413.645 2.42 1.088 3.747-2.407-.685-3.885-1.553-5.41-3.387-2.616-2.203-2.616-2.203-1.79.689.34 1.928.258 2.359.958 4.023-2.318-.404-4.47-1.475-5.64-3.334-1.377-2.066-1.515-1.929-.964.688.078 1.76-.228 2.045.205 3.748-2.104-.445-3.648-1.269-4.75-3.06-1.377-2.065-1.514-1.927-.964.69.345 1.652-.288 1.993.688 3.717-2.378-1.014-2.478-.757-3.304-2.065-.551-1.102-1.46.37-2.56 2.435-.896 1.584-1.623 1.705-2.29 1.782-.164-1.208-.659-2.014-1.76-4.63-1.24-3.03-2.066-5.509-1.929-5.784.276-.138 3.719-1.928 7.575-3.994 3.994-1.928 7.299-4.132 7.299-4.958 0-.689.688-1.24 1.652-1.24 2.204 0 7.988-5.508 7.988-7.574 0-.964 1.24-3.305 2.754-5.095 2.066-2.755 4.407-3.719 10.604-4.407 4.381-.775 8.058-1.928 10.33-3.168 1.136-.594 1.291-1.097 2.164-1.436.035.723-.443 2.951-2.027 4.466-.895.964-1.812 1.173-2.627 1.676.766.78 1.319 2.249 1.938 3.282 1.377 2.203 1.377 2.892-.55 3.58-1.79.689-1.79 1.102-.276 2.066.62.482 1.553.814 2.206 1.235-1.023.254-1.824.318-3.777-.18-2.479-1.502-2.668-1.059-1.596.46.878 1.325 1.471 2.805 2.748 3.834-1.462.078-2.129-.184-3.437-.666-1.377-.551-2.543-.92-1.597 1.217.9 1.494.403-.804 1.256 1.168 1.47.284 4.81-.067 7.252-.657-2.198-1.205-3-2.147-3.276-2.767-.414-1.24.772-1.165 1.874-1.165.482 0 2.075.193 3.265-1.128-.989-.539-2.492-1.026-3.397-2.161 2.823-1.628 1.182-4.095.524-5.267-.544-.937-.589-1.433-1.222-2.405.87-.063 2.138-1.709 2.758-2.81 1.308-2.342 1.876-4.566 1.686-6.48-1.866 1.44-2.59 1.904-3.752 2.482-1.973 1.18-6.208 2.664-9.95 3.23-3.74.565-6.99.492-6.99-.885s-1.497-1.263-.414-2.364c2.028-2.062 3.12-3.913 3.75-5.737 1.181-1.429 2.672-1.534 4.647-1.555 1.048.56 3.093 1.048 4.037 2.412.887-.425 1.345-3.16.895-4.461-.193-.56-2.474-1.63-3.76-1.675-1.286-.046-1.968.32-3.101-.16 1.333-.383 2.062-.36 3.451-1.053 1.235-.616 2.432-.982 2.27-1.766-.2-.97-7.03-.308-7.995-.274-.792.035 1.493-.914 3.178-1.127 1.104-.396 3.567-.24 6.059-2.09-1.839-1.182-2.807-.684-4.315-1.24m-5.674.226c.554 1.168 7.195.85 5.348 1.332 0 0-5.129.945-6.826 2.402-.3 1.29 1.49 1.862 1.49 1.862l6.503-.693c.07.89-6.322 1.226-6.102 2.563.071.434-.354 1.25 1.773 1.008 1.937.09 4.314-.108 5.752.636 1.045.521 1.171 1.68.843 2.671-.946-.77-2.452-1.406-3.278-1.681-1.764-.228-3.04.134-4.233.644-1.192.51-2.02 1.056-3.058 3.096-.688 1.79-2.892 3.856-4.958 4.683-2.203.688-5.724 2.574-7.299 4.682-1.746 2.336-3.049 4.23-7.254 6.66-4.132 3.718-.564 2.396-2.333 2.668-4.742.728-7.352 1.827-8.178 2.929-.964 1.101-3.167 2.34-4.958 2.754-1.928.551-3.443 1.515-3.443 2.204 0 .826-.964 1.377-2.203 1.377-3.03 0-16.526 14.185-19.005 19.83-4.682 10.605-5.509 14.461-5.509 24.79.138 6.886.964 13.083 2.204 15.975 2.754 6.473 14.5 19.478 17.667 19.478.56.158.334.1.998.208.304.454.478.498 1.554 1 1.564.783 3.569 1.164 6.013 1.234 2.445.07 5.33-.172 8.654-.638 3.325-.466 6.584-1.156 9.013-1.962 2.429-.805 3.322-1.241 4.026-1.984.21-.222.77-.511.676-1.479.5.455 1.661.348 3.049-.908 1.126-1.02 2.21-1.495 1.646-2.52 1.49-.156 1.744-.789 2.919-2.44.772-1.085 1.65-2.045 1.274-3.58 1.026.204 1.535-1.232 2.123-2.592.515-1.193 1.435-2.817.29-3.405 1.316.032 1.069-1.575 1.229-2.693.16-1.118.49-2.854-.837-3.158 1.358-.429.777-1.832.573-3.09-.287-1.765-.45-2.72-1.576-2.953 1.007-.45.393-2.106-.27-4.366-.533-1.812-1.753-2.473-3.156-2.172 1.342-1.024-1.11-2.695-1.636-3.135-1.464-1.221-3.128-1.675-3.455-.88.14-1.488-5.05-1.619-7.036-1.395-1.986.224-3.732 1.12-5.59 2.635-2.893 2.341-3.03 3.03-1.516 5.508 1.79 3.168.414 3.857-2.203 1.24-2.754-2.754-1.928-6.197 2.066-9.365 3.03-2.479 5.095-2.892 10.328-2.479 9.227.964 12.946 3.856 15.562 12.395 4.132 14.185-1.515 28.232-13.909 34.291-5.509 2.617-8.814 3.305-17.765 3.305-13.083-.137-21.209-3.305-28.783-11.705-4.683-5.096-9.916-18.408-8.263-20.887 2.688-1.143 0-1.148-.826-1.148-1.102 0-1.515-5.706.536-6.743-4.093.015-1.926-5.1.539-6.107-2.207-.052-3.298-2.21-3.364-4.492-.065-2.282.895-4.69 2.793-5.241 1.43-.416.113-.797-1.23-1.102-1.601-.364-2.217-.603-2.02-3.456.238-1.87.896-4.994 2.25-5.57 1.396-.593 3.568-.766 4.78-.874-1.471-.474-2.874-.75-4.009-.844-2.479-1.033-3.315-6.046-1.086-7.45s7.839 1.355 8.134.217c-1.094-1.197-4.482-1.492-5.987-2.586-1.842-1.81-3.54-3.54-.51-7.809 1.515-2.341 1.274-2.921 3.028-3.568 2.325-.094 7.311 3.036 11.126 2.914-1.747-1.454-7.69-2.621-9.586-3.996s-.457-3.511 1.491-5.954c2.341-2.066 3.306-2.204 6.335-.826 2.066.826 5.335 1.686 8.879 2.28-1.376-1.42-7.64-2.969-9.016-4.07-2.617-1.929-2.617-2.737-.138-5.492l3.708-1.524 4.142 2.195c3.03 1.377 7.718 3.012 7.718 2.599 0-.276-4.275-2.186-6.479-3.425-2.341-1.24-3.767-3.03-3.767-3.994 0-3.443 3.177-3.9 8.046-.506 2.479 1.446 8.667 3.333 9.037 2.636.458-.863-4.15-1.708-6.43-2.818-2.263-1.292-6.515-3.41-6.515-4.511.56-1.868 3.072-3.202 13.952-4.441 8.125-.964 12.394-3.58 15.975-9.502 4.407-7.162 3.58-13.359-2.341-19.005l-4.958-4.683 2.892 4.407c5.37 7.712 2.754 16.94-4.82 16.94-1.79 0-4.407.688-5.784 1.652-1.928 1.102-3.607.864-5.226.387l-2.632-.775-.912-.197 3.812-2.583c4.27-2.065 6.06-6.06 3.718-8.4-.826-.827-1.102 0-.688 2.203.55 2.617 0 3.856-1.928 4.545-1.378.688-4.132 2.203-5.922 3.58-5.922 4.27-13.91 9.227-14.736 9.227-.413 0 .276-1.377 1.79-3.167 1.515-1.653.689-1.377-1.79.964-3.718 3.305-4.82 3.718-6.61 2.203-3.03-2.478-2.617-3.58 2.616-6.885 3.168-1.79 5.371-4.683 6.473-7.988.826-2.754 2.203-5.784 2.754-6.61.827-.964.413-2.204-.826-3.305-1.17-.965-2.34-3.204-2.216-4.023.544.102.957.254 1.527.58.689.413 1.378-.138 1.378-1.378 0-.62-.477-2.967-.348-3.544.325.598 1.312 1.96 1.725 2.167.688.413 1.515 0 1.515-.964.206-1.997.463-2.58.634-3.52.282.513 1.709 2.572 2.356 3.066-.55-1.52-.116-6.4.12-6.853.041 1.307.778 3.63 1 4.471 1.461 2.062 1.817 2.512 3.463 3.011 1.394.052 2.067-.519 3.995-2.791 1.928-2.342 3.107-4.096 3.22-5.29 0-1.239-4.086-6.14-8.924-7.985-2.05-.744-2.328-.956-3.586-1.291.343-.077.845-.556 2.34-.835.783-.146 3.954-.135 6 .837 1.83.587 6.06 2.393 7.988 4.321 1.045.176-.141-3.342 1.08-2.834 1.22.508.737 4.172 1.767 4.722 1.545.824 1.795-1.882 2.483-1.882.689.069-.555 3.21.724 3.941.837.48 3.736-3.079 4.08-2.528.255.43-2.238 3.372-1.566 3.81.83.654.75 1.53 2.586.802 1.504-.759 8.15-4.93 9.862-4.812-1.589 1.043-2.823 2.309-4.546 3.882-2.754 2.892-3.533 3.253-1.33 3.588 2.048-.335 2.554-.954 3.564-.271.505.341-.462 2.949.222 3.366.684.417 3.033-.5 3.296-.229 1.05 1.085-.818 2.538-.199 4.122.827 2.34 1.24 2.34 3.994.413 2.204-1.584 5.02-2.717 5.105-2.118.11.788-.56 1.154-1.8 2.944-3.993 5.646-2.892 6.748 4.958 5.922 0 0 6.392-1.865 8.307 1.057-1.891-.354-6.422.547-7.63 1.07-.655.285-2.072 1.134-3.296 2.106-.612.487-.258.869.113 1.944 1.432.517 2.993.832 4.683.737-5.111 2.058-4.653.357-6.507 1.39 1.331 2.196 2.39 2.034 6.943 2.671 1.128.539 2.218.794 3.457 1.138 1.274.344 2.062 1.332 1.747 1.445-.314.113-1.564-.203-2.967-.342-1.646.022-.794.008-4.483.387-1.725.421-2.497 1.687-2.163 2.378z" fill="#000" fill-rule="nonzero"/>
      <path d="M350.632 138.083c0 .804.468 1.457 1.044 1.457.577 0 1.044-.653 1.044-1.457 0-.805-.467-1.457-1.044-1.457-.562 0-1.023.621-1.043 1.405" fill="#000" fill-rule="nonzero"/>
      <path d="M348.534 139.158c.66 1.672 2.602 2.51 4.335 1.873 1.734-.637 2.604-2.51 1.943-4.182-.661-1.673-2.602-2.512-4.336-1.874-1.731.637-2.601 2.505-1.944 4.177M360.684 133.735c-4.348-2.292-10.355 1.265-10.355 1.265" stroke="#000" stroke-width="1.7"/>
      <g fill="#DFDFDF" fill-rule="nonzero">
        <path d="M393.274 173.217c.155-.74-.181-1.106-1.377-1.873-1.476.183-4.04 1.233-5.665 2.672-2.768 2.451-3.188 3.365-4.749 5.463.637 1.26 1.05 1.533 2.258 2.707 1.226.803 1.951 1.29 2.784 1.688.665-2.06 1.473-3.08 3.31-5.448.858-1.31 3.396-2.307 4.683-3.276-.278-1.026-.787-1.106-1.244-1.933zM382.92 182.939c-1.268-.818-1.604-1.976-2.484-2.506-1.16.5-.858.643-2.74 1.566-2.024 1.279-1.292.994-2.852 3.092.637 1.26.971 1.849 1.941 3.181 1.068.961 1.082 1.686 2.073 2.874 1.85-.48 3.054-1.183 4.495-2.84 1.017-1.23 2.21-1.28 2.708-3.355-1.306-.868-2.368-1.264-3.141-2.012zM375.727 188.788c-.952-1.292-1.13-2.212-1.931-3.138a21.466 21.466 0 00-4.163.934c-2.26.488-2.556 1.23-3.721 2.46.636 1.26.734 2.875 1.23 5.157.356 1.593.687 2.475 1.361 3.901 1.85-.796 3.212-1.5 4.811-2.524 1.65-.993 3.239-1.99 3.973-4.067-.832-1.5-.787-1.975-1.56-2.723zM365.847 194.953c-.398-1.766-.34-3.635-1.22-5.034-1.396.183-1.174.642-2.819 1.17-1.707.726-2.872.915-3.8 2.776 1.506 1.418 1.84 1.216 2.337 3.497.356 1.594-.341 3.82.333 5.246 1.85-.797 2.027-1.263 3.626-2.287 1.649-.994 1.815-.568 2.866-1.617-.594-1.816-.945-2.687-1.323-3.75zM359.05 197.482c-.794-1.608-1.13-1.975-2.01-2.742-1.634.657-2.36.247-3.926 1.644-1.47 1.042-4.533 3.603-5.698 4.831 1.111.55 2.148.928 3.444 2.628 1.295 1.7.924 2.16 1.677 4.06 1.376-.875 2.027-1.341 3.31-2.129 1.332-1.23 1.894-1.595 3.418-2.644-.594-1.737.004-4.267-.216-5.648zM349.96 204.913c-.794-1.609-1.921-1.897-2.801-2.664-1.634.658-2.28 2.065-3.847 3.463-1.944 2.148-2.24 2.496-3.168 3.803 1.427.707 1.832.77 3.127 1.917 1.34 1.187 1.715 1.211 2.626 2.242.981-1.113.841-1.026 2.124-2.287 1.333-1.23 1.5-1.2 3.261-2.802-.515-1.816-.787-2.45-1.323-3.672zM342.371 212.58c-.951-.74-1.841-1.264-2.642-1.794-.764.894-1.49 1.59-1.95 2.593-.758.963-.817 1.152-1.429 2.46 1.427.707 1.279.532 2.337 1.047 1.03.5 1.477 1.053 2.705 1.846.981-1.112.287-.709 1.57-1.97.622-.757.946-1.359 1.917-2.328-1.384-1.184-1.577-1.343-2.508-1.854zM338.616 218.152c-1.149-.541-1.643-.829-2.602-1.24-.646 1.21-.819 1.393-1.278 2.395-.284.844-.501 1.27-.994 2.657 1.071.391 1.397.494 2.1.81.717.324 1.476.777 2.309 1.254.783-1.468.762-1.144 1.215-2.01.424-.835.709-1.082 1.482-2.21-1.147-.867-1.498-1.184-2.232-1.656zM335.766 223.853c-1.15-.541-1.141-.41-2.1-.821-.646 1.21-1.098 3.349-1.445 4.659a38.165 38.165 0 00-.548 4.949c1.016.195.597.075 1.485.25.884.176.931.21 1.876.603.28-1.97.523-3.058 1.034-4.405.34-.947 1.044-3.094 1.818-4.221-.98-.532-1.387-.543-2.12-1.014zM333.279 234.053c-.355-.083-.735-.146-1.485-.207-.143 2.58-.148 3.21-.076 5.777.19 2.689.225 4.876.654 7.604.486-.14.597-.288 1.485-.336.887-.047.834-.062 1.75-.004-.64-2.558-.663-3.435-.853-6.482-.079-2.372-.073-3.14.118-5.81-.7-.225-1-.378-1.593-.542zM334.508 248.138c-.355-.083-1.238.022-1.988-.04.808 4.537 1.473 6.228 2.998 9.02 1.812 2.632 3.58 5.098 5.908 7.603.288-.2.485-.463.759-.727.264-.254.486-.332.8-.619-2.654-3.508-3.122-4.553-4.71-7.767-1.308-3.21-1.526-4.09-2.397-7.6-.7.28-.776.294-1.37.13zM342.836 264.737c-.454.293-.232.19-.926.632 1.087 1.295 1.865 2.036 3.893 4.044 1.532 1.124 1.99 2.105 5.126 3.37.373-.42.39-.475.57-.744.176-.259.25-.325.446-.829-1.592-.49-3.475-1.6-4.67-2.803-1.98-1.701-2.477-2.468-3.795-4.134-.305.2-.445.273-.644.464zM352.736 272.503c-.25.395-.155.51-.389.974 1.422.848 1.74.92 5.23 1.6 4.287.145 6.093.042 8.107-.229a8.738 8.738 0 01-.104-1.093c-.022-.479.04-.323.002-.836-4.01.266-5.227-.003-6.813-.105-2.853-.266-5.005-.937-5.682-1.11-.305.556-.27.41-.351.8zM366.737 273.845c.086.423.068.285.198.89 3.322-.578 3.388-.506 7.409-1.335 3.03-.861 4.03-1.515 5.903-2.512.137-.662.099-.582-.052-.858-.198-.363-.049-.247-.498-.52-2.228 1.337-4.614 1.73-5.893 2.158-3.049.628-4.558.796-7.136 1.07.03.584.037.718.069 1.107zM381.101 269.178c.505.381.543.56 1.176.471 1.035-.144 1.168-.437 2.162-1.248.488-.398 1.245-1.17 1.094-1.445-.198-.363-.533-1.455-.973-.744-.385.622-2.024 1.584-2.996 2.251-.773.531-.659.567-.463.715zM386.075 265.768c.589.186.441.303.925-.116.392-.34.665-.911 1.38-1.751.407-.48 1.223-1.86 1.261-2.171.109-.894-.39-1.485-.778-.744-.692 1.32-1.577 2.702-2.8 3.816-.693.631-.222.892.012.966zM389.652 260.012c.588.186.525.303 1.009-.116.392-.34.784-1.223 1.24-2.227.268-.59.863-1.475.646-2.059-.241-.649-1.088-1.093-1.308-.297-.398 1.437-.529 1.456-1.208 3.146-.262.65-.613 1.479-.379 1.553zM391.58 253.892c.231.442.656.389 1.345.08.555-.25.346-1.128.43-2.227.044-.591.164-1.14.003-1.92-.14-.678-1.419-.923-1.504-.101-.063.599.026.948-.09 1.972-.188 1.655-.363 1.85-.183 2.196zM392.084 248.107c.133.374.682.25 1.008-.144.388-.469-.073-1.295-.102-2.227-.018-.592-.183-1.188-.499-1.92-.196-.453-.904-.508-.917.319-.006.403.108.927.217 1.804.121.962.079 1.57.293 2.168zM391.106 242.267c.134.373.73.019.84-.48.165-.748-.354-1.572-.576-2.478-.186-.76-.529-1.664-1.142-2.171-.448-.37-1.257-.574-1.085.234.133.627 1.03 1.822 1.335 2.838.28.93.414 1.46.628 2.057zM387.445 235.587c.397.015.858.127.729-.367-.115-.441-.543-.659-1.36-1.305-.416-.33-1.15-.933-1.56-1.137-.474-.234-1.404-.528-1.085.234.133.32.555.453 1.307.966.802.547 1.7 1.599 1.969 1.61z"/>
      </g>
    </g>
    <g fill-rule="nonzero">
      <path d="M196.654 274.364c-8.126 2.755-19.831 8.401-24.514 11.569-1.515 1.101-1.377 2.34.964 7.023 1.653 3.03 3.305 5.646 3.58 5.646.414 0 4.959-2.065 10.054-4.682 5.096-2.479 11.606-5.75 14.598-6.335 2.288-.448 4.378-.871 5.67-1.408.522 1.265.201.56 1.15 2.546 1.364 2.855.515 2.79 2.874 3.572 2.488.823 8.622-2.506 8.622-2.506 7.162-2.48 11.155-2.755 36.908-2.755s29.747.276 36.908 2.892c0 0 5.763 1.96 6.504 2.198.736.236 1.124.421 1.902.235.71-.17 1.448-1.255 1.775-1.91 0 0 1.584-3.805 1.99-5.14 1.372.66 3.873 1.519 6.283 2.276 2.892.964 9.365 3.856 14.46 6.335 5.096 2.617 9.64 4.682 10.054 4.682.275 0 1.928-2.616 3.58-5.646 3.306-6.473 3.581-5.922-8.4-12.119-15.975-8.263-31.95-11.981-33.465-7.988-.276.758-.51 1.201-.888 2.183-1.6-.368-5.791-1.356-9.992-2.045-12.945-2.341-48.476-2.341-61.421 0-4.2.689-7.04 1.837-9.414 2.496-1.343-2.688-1.062-1.619-1.337-2.376-1.102-2.754-8.392-2.323-18.445 1.257z" fill="#000"/>
      <g fill="#DFDFDF">
        <path d="M209.734 272.385c-5.914.186-17.006 3.973-28.228 9.683-9.64 4.82-9.914 5.096-7.297 10.192 1.102 2.341 2.347 4.42 2.484 4.695.004.002.016.018.02.02.514.134 4.806-1.77 9.742-4.304 5.233-2.617 11.858-5.492 14.75-6.319 2.134-.757 3.685-.826 5.594-1.232-.348-2.029.084-.28-1.271-4.147 1.562-3.918 4.58-7.303 7.512-8.04-.754-.403-1.872-.593-3.306-.548z"/>
        <path d="M254.98 272.483c-11.416.108-22.641.666-27.778 1.467-8.745 1.446-13.46 4.218-16.706 5.908-1.187.886-2.228 1.1-3.52 1.877 1.024 2.322.984 3.719 1.858 5.752.919 2.139.46 3.491 2.973 3.56 2.513.069 7.981-2.64 7.981-2.64 7.024-2.48 11.162-2.76 36.777-2.76 25.753 0 30.942.82 36.894 2.896 4.315 1.486 6.094 2.658 7.825 2.347.89-.16 1.352-1.443 1.975-2.993.85-2.11 1.875-4.945 2.387-8.49-1.354-.197-.756.495-2.602-.332-3.986-1.787-4.744-1.922-7.375-3.032-3.122-1.317-6.043-1.32-10.622-2.171-5.37-.827-17.308-1.15-28.971-1.39-.369.003-.727-.003-1.096 0z"/>
        <path d="M302.83 272.503c-.778.006-1.439.09-1.996.254 1.201.756 2.605 2.017 3.384 2.426 2.892 1.515 2.88 2.914 2.602 5.516-.129 1.202-.239 1.66-.704 3.306a82.86 82.86 0 005.947 2.348c2.754.826 9.36 3.701 14.593 6.318 4.857 2.494 9.098 4.373 9.722 4.304.012-.002.03-.016.04-.02h.019c.138-.275 1.383-2.353 2.484-4.695 1.79-3.443 1.925-4.669.548-5.77-3.03-2.48-15.287-8.14-24.1-11.17-5.642-1.881-9.792-2.84-12.54-2.817z"/>
        <path d="M299.367 273.618a2.406 2.406 0 00-.254.332c-.418.51-.477 1.054-.607 1.682.913.323 3.992 2.24 5.576 2.172.338 0 .607-.015.762-.078l.04-.02.02-.02c.012-.009.028-.028.038-.039.005-.005.016-.014.02-.02l.02-.019v-.02-.019-.039a.397.397 0 00-.079-.156c-.22-.287-.892-.751-2.21-1.487-.931-.52-2.437-1.544-3.326-2.27zM213.861 273.656c-.904.69-2.438 1.64-3.423 2.309-1.77 1.202-2.034 2.135-2.797 3.814a.844.844 0 00-.04.098v.02h.04c.25-.115 1.589-1.321 4.792-2.407 2.748-1.025 1.286-.524 2.993-1.232-1.124-1.738-1.27-1.856-1.408-2.27a1.682 1.682 0 00-.157-.332z"/>
      </g>
      <path d="M225.796 277.745l.316 2.727 1.869-.216c.674-.078 1.137-.243 1.389-.493.255-.251.353-.632.294-1.142-.055-.477-.225-.8-.51-.966-.286-.166-.782-.208-1.488-.127l-1.87.217m-1.18-.822l3.12-.36c.507-.06.881-.08 1.123-.064.246.016.469.064.67.144.36.146.647.375.86.687.218.31.352.69.404 1.138.05.434 0 .816-.15 1.148-.15.327-.4.6-.747.817.323.051.562.173.718.366.158.192.283.534.373 1.025l.247 1.318c.05.282.112.49.183.627.074.131.171.22.29.265l.027.224-1.263.146c-.121-.156-.234-.506-.337-1.052a.846.846 0 01-.004-.033l-.187-1.042c-.099-.535-.254-.871-.466-1.01-.211-.137-.704-.161-1.476-.072l-1.77.205.398 3.448-1.082.126-.931-8.051m9.56 3.779l2.518-.185-1.512-3.475-1.006 3.66m-2.091 3.53l2.408-8.303 1.213-.09 3.605 7.862-1.19.087-1.034-2.351-3.182.233-.684 2.478-1.136.083m11.136-.705l-.238-8.1 1.1-.033.098 3.327 4.201-.123-.097-3.327 1.105-.032.238 8.1-1.106.033-.11-3.795-4.202.123.11 3.795-1.1.032m9.566-3.582l2.525-.013-1.272-3.57-1.253 3.583m-2.326 3.38l2.968-8.12 1.215-.007 3.063 8.089-1.194.006-.871-2.416-3.191.016-.851 2.426-1.14.005m13.801-2.94l1.067.018c-.065.986-.415 1.767-1.053 2.343-.633.572-1.445.85-2.435.833-1.14-.02-2.029-.424-2.665-1.213-.632-.789-.936-1.87-.912-3.246.022-1.269.379-2.27 1.07-3.002.691-.737 1.613-1.095 2.764-1.075.917.016 1.663.265 2.238.749.578.483.907 1.134.984 1.953l-1.078-.018c-.094-.537-.33-.952-.71-1.245-.38-.296-.879-.45-1.495-.46-.821-.015-1.464.262-1.929.83-.461.568-.7 1.376-.719 2.425-.017.99.204 1.788.663 2.394.463.606 1.083.916 1.86.93.664.01 1.21-.185 1.64-.589.432-.407.669-.95.71-1.627m2.314 3.067l.37-8.095 1.1.05-.152 3.325 4.199.193.152-3.326 1.105.051-.371 8.096-1.105-.05.174-3.793-4.2-.193-.173 3.793-1.1-.05m8.15.421l.562-8.084 1.098.076-.561 8.085-1.098-.077m4.645-6.826l-.266 2.733 1.873.182c.676.065 1.163.002 1.461-.19.303-.192.479-.543.529-1.054.046-.478-.053-.829-.296-1.052-.244-.222-.72-.368-1.428-.437l-1.873-.182m-.981-1.052l3.127.304c.507.05.877.108 1.11.175.237.067.445.16.625.282.322.219.554.503.697.852.146.35.198.75.154 1.198-.042.435-.171.798-.388 1.09a1.898 1.898 0 01-.902.642c.305.118.513.288.625.509.114.22.164.581.149 1.08l-.037 1.34c-.01.287.007.504.048.652a.564.564 0 00.228.32l-.022.225-1.265-.123c-.086-.178-.122-.544-.108-1.1l.003-.032.036-1.058c.016-.544-.064-.905-.242-1.085-.178-.18-.654-.307-1.428-.382l-1.774-.173-.336 3.456-1.085-.106.785-8.066m6.678 8.855l1.056-8.035 1.091.144-1.056 8.035-1.09-.144" fill="#000"/>
    </g>
    <g fill-rule="nonzero">
      <path d="M209.712 116.705c-3.728 1.94-5.669 4.8-5.975 8.682-.307 4.188.613 7.15 3.013 9.397 1.072 1.072 1.991 2.093 1.991 2.349 0 .204-.817 1.225-1.838 2.196-2.4 2.247-3.78 5.209-3.78 8.273 0 3.166.971 5.362 3.576 8.222l2.145 2.35-2.35 2.604c-4.698 5.209-4.545 11.184.358 16.138l2.094 2.195h96.163l2.349-2.502c4.545-4.851 4.545-10.112.05-15.678l-2.297-2.809 2.145-2.553c4.698-5.618 4.596-10.776-.256-16.19-2.196-2.4-2.247-2.859-.51-3.983 2.808-1.89 4.545-8.273 3.268-12.154-1.89-5.822-10.01-9.703-14.963-7.15-.92.46-2.758 1.737-4.137 2.81-1.379 1.123-2.655 1.99-2.91 1.99-.205 0-1.43-.918-2.707-2.042-4.954-4.239-10.776-3.932-15.73.868l-1.889 1.839-2.502-2.298c-5.056-4.75-11.389-4.546-16.547.46l-1.89 1.838-2.042-1.839c-3.013-2.758-5.005-3.575-8.478-3.626-3.319-.05-6.434 1.328-8.885 3.984l-1.226 1.276-2.656-2.247c-4.902-4.187-8.835-4.902-13.584-2.4h0z" stroke="#000" stroke-width="2" fill="#171796"/>
      <path d="M207.232 182.108c-5.005 5.567-4.953 11.235.102 16.853l1.89 2.094-2.145 2.349c-1.175 1.277-2.451 3.115-2.86 4.034-1.634 3.933-.408 9.193 2.809 12.206 1.94 1.89 1.992 2.655.153 4.902-.817.97-1.787 2.35-2.145 3.064-3.83 7.252 1.89 16.343 10.367 16.343 3.37 0 5.924-1.073 8.222-3.524 1.839-1.94 2.81-1.992 4.443-.256 2.4 2.656 5.567 4.29 8.222 4.29 3.116 0 5.056-.97 8.223-3.983l2.4-2.35 2.196 2.4c4.75 5.108 9.55 5.261 15.933.41l2.605-1.941 2.247 2.043c2.809 2.45 4.903 3.421 7.66 3.421 2.758 0 4.8-1.072 8.018-4.238l2.656-2.554 2.042 1.839c3.933 3.523 6.078 4.647 8.938 4.647 2.962 0 5.055-.97 8.017-3.626 2.758-2.502 4.24-5.413 3.882-7.814-.358-2.604-2.707-7.354-4.443-8.988l-1.481-1.43 2.298-2.604c5.004-5.873 5.056-10.418.102-16.24l-2.043-2.451 2.145-2.605c4.8-5.669 4.75-10.929-.102-16.087l-2.605-2.706-47.8.05-47.8.052-2.146 2.4h0z" stroke="#000" stroke-width="2" fill="#D42E12"/>
      <path d="M196.654 175.484s.031 47.783.128 66.03c-.162 2.7 1.42 3.354 3.737 5.151 3.747 2.908 7.744 5.952 29.187 4.288 19.693.137 23.825 1.652 25.89 9.502l1.102 4.407.964-4.407c1.515-7.574 6.188-9.365 25.193-9.502 24.466.368 26.498-1.168 30.004-4.159 0 0 2.562-1.972 3.222-3.865.741-2.125.386-3.862.386-3.862V108.554H196.654v66.93zm118.436.55l.257 55.13c0 7.422.535 9.698-.257 11.112-.792 1.414-2.395 3.297-2.395 3.297-3.719 3.718-6.867 4.479-23.825 4.26-10.955.03-16.873.332-25.502 1.695-1.355 1.216-5.077 1.108-6.808 8.187-2.245-7.079-3.847-6.771-3.847-6.771-9.169-3.847-13.27-3.082-27.965-3.23-9.503 1.376-19.694-.414-23.55-4.27 0 0-.573.156-3.167-2.91.025-13.43 0-66.5 0-66.5v-66.103H315.09v66.104z" fill="#000"/>
      <path d="M239.993 138.65c-3.626 7.5-3.779 10.865-.766 16.875 2.348 4.616 5.105 7.549 8.884 9.424 9.854 4.952 22.466 1.298 27.418-7.933 3.064-5.674 2.706-15.145-.663-19.28l-.92-1.106-.867 3.27c-1.226 4.663-2.451 7.019-4.902 9.52-4.595 4.663-10.927 5.72-17.462 2.836-5.055-2.26-7.097-5.385-8.987-14.088l-.46-2.163-1.276 2.644z" fill="#FFF"/>
      <path d="M238.795 139.127c-3.03 6.886-2.754 10.328.964 17.627 9.64 19.005 38.285 11.844 38.147-9.64-.137-3.443-.03-5.685-1.928-9.502-.895-1.584-1.278-2.054-1.916-3.012-.253 1.037-.631 2.874-1.389 5.904-2.754 10.604-11.843 15.562-21.346 11.568-5.37-2.203-7.85-5.784-9.227-13.22l-.964-4.82-2.341 5.095zm9.365 13.634c6.61 4.269 16.663 2.892 21.759-2.755 2.066-2.34 3.334-5.993 3.856-7.85.515-1.831.615-2.105.927-3.935.798 1.773 1.238 2.705 1.615 5.448.557 4.053-.339 7.44-1.303 9.918-4.82 12.67-20.244 16.526-29.884 7.437-4.682-4.27-8.401-12.66-6.367-18.072.721-1.92.886-3.014 1.829-5.04.17 1.384.269 3.28 1.233 6.172 1.24 3.994 3.443 6.886 6.335 8.677z" fill="#000"/>
      <g stroke="#000">
        <path d="M233.313 202.48c-.092 2.978.052 4.341.523 6.55-1.5-1.448-3.01-2.458-5.088-3.664-2.646-1.536-5.988-3.002-7.122-1.128-1.093 1.804 2.04 4.273 4.493 5.657 2.682 1.514 4.228 1.72 5.972 2.405-1.477.78-3.492 1.306-5.726 2.739-2.191 1.405-5.468 4.314-4.225 6.172 1.265 1.89 4.92-.234 6.981-1.614 1.716-1.148 3.987-2.962 4.87-3.89-.174 1.333-.701 3.988-.662 6.527.047 3.083.474 6.533 2.77 6.528 2.344-.006 2.843-4.07 2.806-6.817-.039-2.87-.366-4.9-.65-6.317a47.837 47.837 0 004.569 4.114c1.667 1.314 5.75 3.26 6.974 1.396 1.245-1.899-.694-3.786-4.255-6.046-2.496-1.583-4.263-2.126-5.89-2.8 1.645-.673 3.443-.846 6.071-2.443 3.9-2.37 5.551-3.956 4.356-5.996-1.162-1.984-3.51-.9-7.076 1.368-1.91 1.216-3.698 2.827-4.909 3.985.277-1.823.575-4.51.552-6.502-.034-2.96-.682-6.785-2.698-6.797-2.015-.012-2.535 3.314-2.636 6.572h0z" stroke-width="1.625" fill="#E9D315"/>
        <path d="M239.1 212.321a3.137 3.137 0 110-.004" stroke-width="1.869" fill="#FFF"/>
      </g>
      <g stroke="#000">
        <path d="M274.396 202.48c-.092 2.978.052 4.341.523 6.55-1.5-1.448-3.01-2.458-5.088-3.664-2.646-1.536-5.987-3.002-7.122-1.128-1.092 1.804 2.04 4.273 4.493 5.657 2.682 1.514 4.228 1.72 5.973 2.405-1.478.78-3.493 1.306-5.727 2.739-2.191 1.405-5.467 4.314-4.225 6.172 1.265 1.89 4.92-.234 6.981-1.614 1.717-1.148 3.988-2.962 4.871-3.89-.174 1.333-.702 3.988-.663 6.527.048 3.083.474 6.533 2.77 6.528 2.345-.006 2.843-4.07 2.806-6.817-.039-2.87-.366-4.9-.649-6.317a47.837 47.837 0 004.568 4.114c1.668 1.314 5.75 3.26 6.974 1.396 1.245-1.899-.693-3.786-4.254-6.046-2.496-1.583-4.264-2.126-5.89-2.8 1.644-.673 3.442-.846 6.07-2.443 3.9-2.37 5.552-3.956 4.357-5.996-1.162-1.984-3.51-.9-7.076 1.368-1.91 1.216-3.698 2.827-4.91 3.985.277-1.823.575-4.51.553-6.502-.035-2.96-.683-6.785-2.699-6.797-2.015-.012-2.535 3.314-2.636 6.572h0z" stroke-width="1.625" fill="#E9D315"/>
        <path d="M280.183 212.321a3.137 3.137 0 110-.004" stroke-width="1.869" fill="#FFF"/>
      </g>
    </g>
  </g>
</svg>