<svg width="512" height="336" xmlns="http://www.w3.org/2000/svg"><g fill="none" fill-rule="evenodd"><path fill="#464655" d="M0 62.069v211.862L141.241 168z"/><path d="M473.655.276H70.621l158.897 123.586H512V38.621C512 17.443 494.833.276 473.655.276z" fill="#E6000D"/><path d="M70.621 335.724h403.034c21.177 0 38.345-17.167 38.345-38.345v-85.241H229.517L70.621 335.724z" fill="#3741CF"/><path d="M56.889.276H38.345C17.167.276 0 17.443 0 38.621v6.692L154.974 168 0 290.691v6.688c0 21.177 17.167 38.345 38.345 38.345h18.539L224.146 203.31H512v-70.62H224.148L56.889.276z" fill="#3CA100"/><path fill="#F5F5F5" d="M85.333.276H56.889L224.148 132.69H512v-17.656H230.291z"/><path fill="#FFE15A" d="M0 45.313v22.518L126.53 168 0 268.173v22.518L154.974 168z"/><path fill="#F5F5F5" d="M224.147 203.31L56.884 335.724h28.445l144.96-114.758H512V203.31z"/></g></svg>